<svg xmlns="http://www.w3.org/2000/svg" xmlns:xlink="http://www.w3.org/1999/xlink" width="162" height="29"><defs><path d="M123.516 22.462l6.21-16.468h2.393l6.21 16.468h-2.347L134.395 18h-6.923l-1.61 4.462h-2.346zm4.67-6.44h5.474l-2.691-7.43h-.093l-2.69 7.43zm16.076 6.808c-1.456 0-2.713-.575-3.772-1.725-1.058-1.15-1.587-2.576-1.587-4.278 0-1.702.53-3.128 1.588-4.278 1.058-1.15 2.315-1.725 3.771-1.725.86 0 1.63.184 2.312.552.682.368 1.192.828 1.53 1.38h.091l-.091-1.564V5.994h2.115v16.468h-2.023v-1.564h-.093c-.337.552-.847 1.012-1.529 1.38-.682.368-1.453.552-2.312.552zm.345-1.932c.997 0 1.844-.368 2.542-1.104.698-.736 1.047-1.725 1.047-2.967s-.35-2.231-1.047-2.967c-.698-.736-1.545-1.104-2.542-1.104-.98 0-1.824.372-2.53 1.115-.705.744-1.058 1.729-1.058 2.956 0 1.226.353 2.212 1.058 2.955.706.744 1.55 1.116 2.53 1.116zm12.26 1.932c-1.258 0-2.297-.307-3.117-.92a5.446 5.446 0 0 1-1.805-2.3l1.886-.782c.598 1.41 1.617 2.116 3.059 2.116.659 0 1.2-.146 1.621-.437.422-.292.632-.675.632-1.15 0-.736-.513-1.235-1.54-1.495l-2.278-.552c-.72-.184-1.402-.533-2.046-1.047-.645-.513-.966-1.207-.966-2.081 0-.997.44-1.806 1.322-2.427.882-.62 1.928-.931 3.14-.931.996 0 1.885.226 2.667.678a3.824 3.824 0 0 1 1.68 1.944l-1.84.759c-.415-.997-1.273-1.495-2.577-1.495-.628 0-1.157.13-1.587.39-.429.261-.643.614-.643 1.059 0 .644.498 1.08 1.495 1.31l2.23.53c1.059.245 1.84.667 2.347 1.265.506.598.758 1.272.758 2.024 0 1.012-.413 1.855-1.242 2.53-.828.674-1.893 1.012-3.196 1.012z" id="a"/></defs><g fill="none" fill-rule="evenodd"><g><use fill="#000" xlink:href="#a"/><use fill="#5F6368" xlink:href="#a"/></g><g fill="#5F6368" fill-rule="nonzero"><path d="M52.4 22.8c-5.1 0-9.5-4.2-9.5-9.3 0-5.1 4.3-9.3 9.5-9.3 2.8 0 4.9 1.1 6.4 2.6L57 8.6c-1.1-1-2.6-1.8-4.6-1.8-3.7 0-6.7 3-6.7 6.8s2.9 6.8 6.7 6.8c2.4 0 3.8-1 4.7-1.9.7-.7 1.2-1.8 1.4-3.2h-6.1v-2.5H61c.1.5.1 1 .1 1.6 0 1.9-.5 4.3-2.2 6-1.7 1.5-3.8 2.4-6.5 2.4zM74.3 16.8c0 3.5-2.7 6-5.9 6-3.3 0-5.9-2.5-5.9-6s2.7-6 5.9-6c3.3 0 5.9 2.6 5.9 6zm-2.6 0c0-2.2-1.5-3.6-3.3-3.6-1.8 0-3.3 1.5-3.3 3.6s1.5 3.6 3.3 3.6c1.8.1 3.3-1.4 3.3-3.6zM87.6 16.8c0 3.5-2.7 6-5.9 6-3.3 0-5.9-2.5-5.9-6s2.7-6 5.9-6 5.9 2.6 5.9 6zm-2.6 0c0-2.2-1.5-3.6-3.3-3.6-1.8 0-3.3 1.5-3.3 3.6s1.5 3.6 3.3 3.6c1.7.1 3.3-1.4 3.3-3.6zM100.5 11.2V22c0 4.4-2.6 6.3-5.7 6.3-2.9 0-4.7-2-5.3-3.5l2.3-1c.4 1 1.4 2.1 3 2.1 2 0 3.2-1.2 3.2-3.5v-.9h-.1c-.6.7-1.7 1.4-3.2 1.4-3 0-5.7-2.6-5.7-6s2.8-6 5.7-6c1.4 0 2.6.6 3.2 1.3h.1v-1h2.5zm-2.3 5.7c0-2.1-1.4-3.7-3.2-3.7-1.8 0-3.3 1.5-3.3 3.7 0 2.1 1.5 3.6 3.3 3.6 1.8 0 3.2-1.6 3.2-3.6zM105.1 4.8v17.6h-2.6V4.8zM115.5 18.8l2 1.4c-.7 1-2.2 2.7-5 2.7-3.4 0-5.9-2.6-5.9-6 0-3.6 2.5-6 5.6-6 3.1 0 4.6 2.5 5.1 3.8l.3.7-8 3.3c.6 1.2 1.6 1.8 2.9 1.8 1.3 0 2.3-.7 3-1.7zm-6.3-2.2l5.4-2.2c-.3-.7-1.2-1.3-2.2-1.3-1.4 0-3.3 1.2-3.2 3.5z"/></g><g fill-rule="nonzero"><path d="M.667 18.851l9.628-16.483c1.223.72 7.39 4.133 8.386 4.782L9.053 23.634C8 25.025-.667 20.962.667 18.85z" fill="#FBBC04"/><path d="M28.352 18.85L18.724 2.368C17.378.128 14.479-.686 12.098.637 9.717 1.96 8.992 4.81 10.338 7.15l9.628 16.484c1.346 2.239 4.245 3.053 6.626 1.73 2.277-1.323 3.106-4.274 1.76-6.512z" fill="#4285F4"/><ellipse fill="#34A853" cx="4.833" cy="21.288" rx="4.833" ry="4.713"/></g></g></svg>
