<?xml version="1.0" encoding="UTF-8"?>
<svg width="18px" height="18px" viewBox="0 0 18 18" version="1.1" xmlns="http://www.w3.org/2000/svg" xmlns:xlink="http://www.w3.org/1999/xlink">
    <title>已查阅</title>
    <g id="已查阅" stroke="none" stroke-width="1" fill="none" fill-rule="evenodd">
        <path d="M13.5,1 C14.8807119,1 16,2.11928813 16,3.5 L16.0012565,10.2603036 C15.1147861,9.7539036 14.1053519,9.5 12.9726292,9.5 C10.3275234,9.5 8.35676824,10.8831068 7.05210627,13.6328058 C6.94613689,13.8557544 6.94613689,14.1172372 7.05210627,14.341562 C7.91655335,16.1625544 9.07403052,17.3841946 10.5257387,18.0012783 L3.5,18 C2.11928813,18 1,16.8807119 1,15.5 L1,3.5 C1,2.11928813 2.11928813,1 3.5,1 L13.5,1 Z M7.31112671,9 L4.70278931,9 C4.31464949,9 4,9.31464949 4,9.70278931 C4,10.0909291 4.31464949,10.4055786 4.70278931,10.4055786 L7.31112671,10.4055786 C7.69926653,10.4055786 8.01391602,10.0909291 8.01391602,9.70278931 C8.01391602,9.31464949 7.69926653,9 7.31112671,9 Z M12.2983398,5 L4.71557617,5 C4.32037436,5 4,5.32037436 4,5.71557617 C4,6.11077798 4.32037436,6.43115234 4.71557617,6.43115234 L12.2983398,6.43115234 C12.6935417,6.43115234 13.013916,6.11077798 13.013916,5.71557617 C13.013916,5.32037436 12.6935417,5 12.2983398,5 Z" id="形状结合备份" fill="#00CC99" fill-rule="nonzero"></path>
        <path d="M11.9726292,14.0203894 C11.9726292,14.5726742 12.4203445,15.0203894 12.9726292,15.0203894 C13.524914,15.0203894 13.9726292,14.5726742 13.9726292,14.0203894 C13.9726292,13.4681047 13.524914,13.0203894 12.9726292,13.0203894 C12.4203445,13.0203894 11.9726292,13.4681047 11.9726292,14.0203894 Z M17.4543082,13.7540897 C16.4758118,11.6928477 14.9967132,10.6555176 13.013916,10.6555176 C11.0300867,10.6555176 9.55202026,11.6928477 8.57352378,13.7551219 C8.49404675,13.9223333 8.49404675,14.1184455 8.57352378,14.2866891 C9.55202026,16.3479311 11.0311188,17.3852613 13.013916,17.3852613 C14.9977453,17.3852613 16.4758118,16.3479311 17.4543082,14.2856569 C17.5337853,14.1184455 17.5337853,13.9243977 17.4543082,13.7540897 Z M12.9726292,16.0203894 C11.8680838,16.0203894 10.9726292,15.1249349 10.9726292,14.0203894 C10.9726292,12.915844 11.8680838,12.0203894 12.9726292,12.0203894 C14.0771747,12.0203894 14.9726292,12.915844 14.9726292,14.0203894 C14.9726292,15.1249349 14.0771747,16.0203894 12.9726292,16.0203894 Z" id="形状" fill="#00CC99" fill-rule="nonzero"></path>
    </g>
</svg>