<svg width="20" height="20" viewBox="0 0 20 20" fill="none" xmlns="http://www.w3.org/2000/svg">
<path d="M14.5 1C15.8807 1 17 2.11929 17 3.5L17.0011 9.50743C16.1383 8.99043 15.1287 8.69324 14.0497 8.69324C10.8741 8.69324 8.29974 11.2676 8.29974 14.4432C8.29974 15.7864 8.7603 17.022 9.5321 18.0008L4.5 18C3.11929 18 2 16.8807 2 15.5V3.5C2 2.11929 3.11929 1 4.5 1H14.5ZM8.31113 9H5.70279C5.31465 9 5 9.31465 5 9.70279C5 10.0909 5.31465 10.4056 5.70279 10.4056H8.31113C8.69927 10.4056 9.01392 10.0909 9.01392 9.70279C9.01392 9.31465 8.69927 9 8.31113 9ZM13.2983 5H5.71558C5.32037 5 5 5.32037 5 5.71558C5 6.11078 5.32037 6.43115 5.71558 6.43115H13.2983C13.6935 6.43115 14.0139 6.11078 14.0139 5.71558C14.0139 5.32037 13.6935 5 13.2983 5ZM14.0182 19C16.5035 19 18.5182 16.9853 18.5182 14.5C18.5182 12.0147 16.5035 10 14.0182 10C11.5329 10 9.51819 12.0147 9.51819 14.5C9.51819 16.9853 11.5329 19 14.0182 19ZM14.0455 15.8387C14.4873 15.8387 14.8455 16.1969 14.8455 16.6387C14.8455 17.0806 14.4873 17.4387 14.0455 17.4387C13.6036 17.4387 13.2455 17.0806 13.2455 16.6387C13.2455 16.1969 13.6036 15.8387 14.0455 15.8387ZM14.0322 11.2377C14.501 11.2377 14.881 11.6177 14.881 12.0865C14.881 12.1051 14.8804 12.1237 14.8791 12.1423L14.7125 14.6704C14.6885 15.0345 14.3861 15.3176 14.0212 15.3176C13.6568 15.3176 13.3554 15.0339 13.3334 14.6701L13.1805 12.1426C13.152 11.6722 13.5103 11.2678 13.9807 11.2393L14.0322 11.2377Z" fill="#FF752A"/>
</svg>
