<?xml version="1.0" encoding="UTF-8"?>
<svg width="20px" height="20px" viewBox="0 0 20 20" version="1.1" xmlns="http://www.w3.org/2000/svg" xmlns:xlink="http://www.w3.org/1999/xlink">
    <title>异常明细</title>
    <g id="异常明细" stroke="none" stroke-width="1" fill="none" fill-rule="evenodd">
        <path d="M14.5,1 C15.8807119,1 17,2.11928813 17,3.5 L17.0010801,9.50743214 C16.1383111,8.99043356 15.1287343,8.6932373 14.0497437,8.6932373 C10.8741063,8.6932373 8.29974365,11.2676 8.29974365,14.4432373 C8.29974365,15.7864211 8.76029582,17.0220372 9.53210006,18.0007854 L4.5,18 C3.11928813,18 2,16.8807119 2,15.5 L2,3.5 C2,2.11928813 3.11928813,1 4.5,1 L14.5,1 Z M8.31112671,9 L5.70278931,9 C5.31464949,9 5,9.31464949 5,9.70278931 C5,10.0909291 5.31464949,10.4055786 5.70278931,10.4055786 L8.31112671,10.4055786 C8.69926653,10.4055786 9.01391602,10.0909291 9.01391602,9.70278931 C9.01391602,9.31464949 8.69926653,9 8.31112671,9 Z M13.2983398,5 L5.71557617,5 C5.32037436,5 5,5.32037436 5,5.71557617 C5,6.11077798 5.32037436,6.43115234 5.71557617,6.43115234 L13.2983398,6.43115234 C13.6935417,6.43115234 14.013916,6.11077798 14.013916,5.71557617 C14.013916,5.32037436 13.6935417,5 13.2983398,5 Z M14.0181885,19 C16.5034699,19 18.5181885,16.9852814 18.5181885,14.5 C18.5181885,12.0147186 16.5034699,10 14.0181885,10 C11.5329071,10 9.51818848,12.0147186 9.51818848,14.5 C9.51818848,16.9852814 11.5329071,19 14.0181885,19 Z M14.0454712,15.8387451 C14.487299,15.8387451 14.8454712,16.1969173 14.8454712,16.6387451 C14.8454712,17.0805729 14.487299,17.4387451 14.0454712,17.4387451 C13.6036434,17.4387451 13.2454712,17.0805729 13.2454712,16.6387451 C13.2454712,16.1969173 13.6036434,15.8387451 14.0454712,15.8387451 Z M14.0322381,11.2377319 C14.5009843,11.2377319 14.8809782,11.6177258 14.8809782,12.086472 C14.8809782,12.1050987 14.880365,12.1237204 14.8791396,12.1423069 L14.7124697,14.6703504 C14.6884628,15.0344856 14.386105,15.3175659 14.0211792,15.3175659 C13.656788,15.3175659 13.3553921,15.0338554 13.333384,14.6701294 L13.1804514,12.1426157 C13.1519871,11.6721869 13.5102701,11.2677541 13.9806989,11.2392898 L14.0322381,11.2377319 L14.0322381,11.2377319 Z" id="形状结合" fill="#8188A6" fill-rule="nonzero"></path>
    </g>
</svg>