<?xml version="1.0" encoding="UTF-8"?>
<svg width="38px" height="38px" viewBox="0 0 38 38" version="1.1" xmlns="http://www.w3.org/2000/svg" xmlns:xlink="http://www.w3.org/1999/xlink">
    <title>详情页/时间轴/跟进记录</title>
    <defs>
        <circle id="path-1" cx="19" cy="19" r="16"></circle>
        <filter x="-21.9%" y="-15.6%" width="143.8%" height="143.8%" filterUnits="objectBoundingBox" id="filter-2">
            <feOffset dx="0" dy="2" in="SourceAlpha" result="shadowOffsetOuter1"></feOffset>
            <feGaussianBlur stdDeviation="2" in="shadowOffsetOuter1" result="shadowBlurOuter1"></feGaussianBlur>
            <feComposite in="shadowBlurOuter1" in2="SourceAlpha" operator="out" result="shadowBlurOuter1"></feComposite>
            <feColorMatrix values="0 0 0 0 0.991253397   0 0 0 0 0.86826719   0 0 0 0 0.80142686  0 0 0 1 0" type="matrix" in="shadowBlurOuter1"></feColorMatrix>
        </filter>
    </defs>
    <g id="详情页/时间轴/跟进记录" stroke="none" stroke-width="1" fill="none" fill-rule="evenodd">
        <rect id="矩形" fill-opacity="0" fill="#FFFFFF" x="0" y="0" width="38" height="38"></rect>
        <g id="椭圆形">
            <use fill="black" fill-opacity="1" filter="url(#filter-2)" xlink:href="#path-1"></use>
            <circle stroke-opacity="0.8" stroke="#FF752A" stroke-width="1" stroke-linejoin="square" fill="#FFFFFF" fill-rule="evenodd" cx="19" cy="19" r="15.5"></circle>
        </g>
        <g id="形状" transform="translate(11.000000, 11.000000)" fill="#FF752A">
            <path d="M11.0201416,0.987792969 C13.2292806,0.987792969 15.0201416,2.77865397 15.0201416,4.98779297 L15.0201416,10.9736328 C15.0201416,13.1827718 13.2292806,14.9736328 11.0201416,14.9736328 L4.99353027,14.9736328 C2.78439127,14.9736328 0.993530273,13.1827718 0.993530273,10.9736328 L0.993530273,4.98779297 C0.993530273,2.77865397 2.78439127,0.987792969 4.99353027,0.987792969 L11.0201416,0.987792969 Z M9.13867188,10.1938477 C8.53029464,10.1938477 8.14966057,10.4386357 7.52489863,11.0802754 L7.22617674,11.3927201 L7.01275963,11.6061408 C6.68674419,11.9191335 6.50025339,12.0254362 6.32017689,12.0278259 C5.99119203,11.9909806 5.73657259,11.7673404 5.53234675,11.2827489 C5.42510422,11.0282816 5.1318804,10.9089322 4.87741301,11.0161747 C4.62294562,11.1234173 4.50359629,11.4166411 4.61083882,11.6711085 C4.9457588,12.4658139 5.48642841,12.9407007 6.26452637,13.0247192 C6.89119135,13.0247192 7.2742134,12.7779087 7.92026429,12.1135133 L8.10287439,11.9224149 C8.6261888,11.3688232 8.86720544,11.1938477 9.13867188,11.1938477 C9.74090925,11.1938477 10.4803571,11.6122418 11.3365797,12.4891926 C11.5294928,12.6867759 11.8460527,12.6905618 12.043636,12.4976488 C12.2412193,12.3047357 12.2450052,11.9881758 12.0520921,11.7905926 C11.0258278,10.7394835 10.0614996,10.1938477 9.13867188,10.1938477 Z M9.88433838,4.21559251 L5.39044189,8.80043138 L4.77520752,10.0855876 C4.72735596,10.1872722 4.8260498,10.3203594 4.93848228,10.315406 L4.98712158,10.3043376 L6.32012939,9.72328294 L10.8208618,5.13844408 L9.88433838,4.21559251 Z M10.7172331,3.44450834 L10.6383057,3.51027025 L10.1392822,4.00245775 L11.0689697,4.94581712 L11.5611572,4.43995775 C11.7738308,4.22728414 11.7974612,3.93899324 11.6368495,3.71911799 L11.5679932,3.64015306 L11.4107666,3.47609056 C11.2459446,3.31126851 11.0066867,3.29118267 10.8023494,3.39331852 L10.7172331,3.44450834 Z"></path>
        </g>
    </g>
</svg>