<svg width="16" height="16" viewBox="0 0 16 16" fill="none" xmlns="http://www.w3.org/2000/svg">
<g clip-path="url(#clip0_151_15146)">
<path d="M16.0014 8.00121C16.0014 12.4196 12.4196 16.0014 8.00121 16.0014C3.5828 16.0014 0.000976562 12.4196 0.000976562 8.00121C0.000976562 3.5828 3.5828 0.000976562 8.00121 0.000976562C12.4196 0.000976562 16.0014 3.5828 16.0014 8.00121Z" fill="url(#paint0_linear_151_15146)"/>
<path fill-rule="evenodd" clip-rule="evenodd" d="M5.40967 7.96668C5.40967 6.55732 6.55652 5.41046 7.96588 5.41046C9.37524 5.41046 10.5221 6.55732 10.5221 7.96668C10.5221 9.37604 9.37524 10.5229 7.96588 10.5229C6.55652 10.5229 5.40967 9.37604 5.40967 7.96668ZM6.50967 7.96668C6.50967 7.16483 7.16404 6.51046 7.96588 6.51046C8.76773 6.51046 9.4221 7.16483 9.4221 7.96668C9.4221 8.76852 8.76773 9.42289 7.96588 9.42289C7.16404 9.42289 6.50967 8.76852 6.50967 7.96668Z" fill="white"/>
<path fill-rule="evenodd" clip-rule="evenodd" d="M11.8682 5.9892L11.8682 5.9892C11.8361 5.32693 11.6966 4.93162 11.3823 4.61738C11.0671 4.30211 10.6733 4.16359 10.0105 4.13148L10.0021 4.13107L10.0021 4.13104C9.42957 4.09889 8.86171 4.09946 8.25443 4.10008C8.17039 4.10016 8.08558 4.10025 7.99991 4.10025C7.91406 4.10025 7.8291 4.10016 7.74493 4.10008C7.13681 4.09946 6.56918 4.09889 5.99784 4.13104L5.98927 4.13152L5.98927 4.13148C5.32703 4.16356 4.93173 4.30314 4.6175 4.61738C4.30224 4.93265 4.16371 5.32645 4.13161 5.9892L4.1312 5.99766L4.13116 5.99766C4.09901 6.57019 4.09959 7.13806 4.1002 7.74534C4.10029 7.82939 4.10037 7.9142 4.10037 7.99988C4.10037 8.08555 4.10029 8.17036 4.1002 8.25442C4.09959 8.86198 4.09901 9.43061 4.13116 10.002L4.13164 10.0106L4.13161 10.0106C4.16368 10.6728 4.30326 11.0681 4.6175 11.3824C4.93276 11.6976 5.32654 11.8362 5.98927 11.8683L5.99773 11.8687L5.99773 11.8687C6.57026 11.9009 7.13814 11.9003 7.74543 11.8997C7.82946 11.8996 7.91425 11.8995 7.99991 11.8995C8.08574 11.8995 8.17068 11.8996 8.25484 11.8997C8.86298 11.9003 9.43062 11.9009 10.002 11.8687L10.0105 11.8682L10.0105 11.8683C10.6728 11.8362 11.0681 11.6966 11.3823 11.3824C11.6976 11.0671 11.8361 10.6733 11.8682 10.0106L11.8687 9.99999L11.8688 10C11.9013 9.44011 11.9005 8.88464 11.8997 8.28768C11.8996 8.19286 11.8994 8.09698 11.8994 7.99988C11.8994 7.91402 11.8995 7.82906 11.8996 7.74488C11.9002 7.13675 11.9008 6.56912 11.8687 5.99777L11.8682 5.9892ZM12.9996 7.74731C12.9995 7.83142 12.9994 7.9156 12.9994 7.99988C12.9994 8.09412 12.9996 8.18824 12.9997 8.28227C13.0006 8.87721 13.0015 9.46863 12.9669 10.0638C12.9281 10.8643 12.7468 11.5735 12.1601 12.1602C11.5748 12.7456 10.8643 12.9282 10.0638 12.967C9.45867 13.001 8.85744 13.0004 8.25244 12.9997C8.16834 12.9996 8.08417 12.9995 7.99991 12.9995C7.91581 12.9995 7.8318 12.9996 7.74783 12.9997C7.14365 13.0004 6.54226 13.001 5.93605 12.967C5.13552 12.9282 4.42631 12.7468 3.83967 12.1602C3.25429 11.5748 3.07167 10.8643 3.03289 10.0638C2.99885 9.45865 2.99952 8.85642 3.00019 8.252C3.00028 8.16801 3.00037 8.08397 3.00037 7.99988C3.00037 7.91577 3.00028 7.83174 3.00019 7.74777C2.99952 7.14358 2.99885 6.54219 3.03289 5.93598C3.07167 5.13544 3.25304 4.42621 3.83967 3.83957C4.42506 3.25417 5.13552 3.07155 5.93605 3.03277C6.54113 2.99873 7.14236 2.99939 7.74734 3.00006C7.83145 3.00016 7.91563 3.00025 7.99991 3.00025C8.08401 3.00025 8.16804 3.00016 8.25201 3.00006C8.85619 2.99939 9.45757 2.99873 10.0638 3.03277C10.8643 3.07155 11.5735 3.25292 12.1601 3.83957C12.7455 4.42496 12.9281 5.13544 12.9669 5.93598C13.001 6.54107 13.0003 7.14231 12.9996 7.74731Z" fill="white"/>
<path d="M10 5.42318C10 5.71267 10.2338 5.94646 10.5233 5.94646C10.8128 5.94646 11.0455 5.71377 11.0466 5.42318C11.0466 5.13368 10.8128 4.8999 10.5233 4.8999C10.2338 4.8999 10 5.13368 10 5.42318Z" fill="white"/>
</g>
<defs>
<linearGradient id="paint0_linear_151_15146" x1="-4.91577e-08" y1="8" x2="16" y2="8" gradientUnits="userSpaceOnUse">
<stop stop-color="#FF9351"/>
<stop offset="0.59375" stop-color="#DB3781"/>
<stop offset="1" stop-color="#9033CF"/>
</linearGradient>
<clipPath id="clip0_151_15146">
<rect width="16" height="16" rx="8" fill="white"/>
</clipPath>
</defs>
</svg>
