<?xml version="1.0" encoding="UTF-8"?>
<svg width="38px" height="38px" viewBox="0 0 38 38" version="1.1" xmlns="http://www.w3.org/2000/svg" xmlns:xlink="http://www.w3.org/1999/xlink">
    <title>详情页/时间轴/Instagram</title>
    <defs>
        <circle id="path-1" cx="19" cy="19" r="16"></circle>
        <filter x="-21.9%" y="-15.6%" width="143.8%" height="143.8%" filterUnits="objectBoundingBox" id="filter-2">
            <feOffset dx="0" dy="2" in="SourceAlpha" result="shadowOffsetOuter1"></feOffset>
            <feGaussianBlur stdDeviation="2" in="shadowOffsetOuter1" result="shadowBlurOuter1"></feGaussianBlur>
            <feComposite in="shadowBlurOuter1" in2="SourceAlpha" operator="out" result="shadowBlurOuter1"></feComposite>
            <feColorMatrix values="0 0 0 0 1   0 0 0 0 0.860365854   0 0 0 0 0.914417781  0 0 0 1 0" type="matrix" in="shadowBlurOuter1"></feColorMatrix>
        </filter>
        <linearGradient x1="50%" y1="0.00186172899%" x2="50.0077935%" y2="99.9981383%" id="linearGradient-3">
            <stop stop-color="#B02AC2" offset="0%"></stop>
            <stop stop-color="#FC5738" offset="100%"></stop>
        </linearGradient>
    </defs>
    <g id="详情页/时间轴/Instagram" stroke="none" stroke-width="1" fill="none" fill-rule="evenodd">
        <rect id="矩形" fill-opacity="0" fill="#FFFFFF" x="0" y="0" width="38" height="38"></rect>
        <g id="椭圆形">
            <use fill="black" fill-opacity="1" filter="url(#filter-2)" xlink:href="#path-1"></use>
            <circle stroke-opacity="0.8" stroke="#EF4D6A" stroke-width="1" stroke-linejoin="square" fill="#FFFFFF" fill-rule="evenodd" cx="19" cy="19" r="15.5"></circle>
        </g>
        <g id="编组" transform="translate(11.000000, 11.000000)" fill="url(#linearGradient-3)" fill-rule="nonzero">
            <g id="形状">
                <path d="M7.95743583,5.63390764 C6.64672155,5.63390764 5.57707869,6.7035505 5.57707869,8.01426478 C5.57707869,9.32497906 6.64672155,10.3946219 7.95743583,10.3946219 C9.26815011,10.3946219 10.337793,9.32497906 10.337793,8.01426478 C10.337793,6.7035505 9.26815011,5.63390764 7.95743583,5.63390764 Z M15.0967215,8.01426478 C15.0967215,7.0285505 15.1056501,6.05176478 15.050293,5.0678362 C14.9949358,3.92497906 14.7342215,2.91069334 13.8985073,2.07497906 C13.0610073,1.23747906 12.0485073,0.978550484 10.9056501,0.923193359 C9.91993583,0.867836219 8.94315011,0.876764781 7.95922155,0.876764781 C6.97350727,0.876764781 5.99672155,0.867836203 5.01279297,0.923193359 C3.86993583,0.9785505 2.85565011,1.23926478 2.01993583,2.07497906 C1.18243583,2.91247906 0.92350725,3.92497906 0.868150109,5.0678362 C0.812792969,6.05355048 0.821721531,7.0303362 0.821721547,8.01426478 C0.821721563,8.99819336 0.812792969,9.97676478 0.868150109,10.9606934 C0.92350725,12.1035505 1.18422153,13.1178362 2.01993583,13.9535505 C2.85743583,14.7910505 3.86993583,15.0499791 5.01279297,15.1053362 C5.99850725,15.1606933 6.97529297,15.1517648 7.95922155,15.1517648 C8.94493583,15.1517648 9.92172155,15.1606934 10.9056501,15.1053362 C12.0485073,15.0499791 13.062793,14.7892648 13.8985073,13.9535505 C14.7360073,13.1160505 14.9949358,12.1035505 15.050293,10.9606934 C15.1074358,9.97676478 15.0967215,8.99997908 15.0967215,8.01426478 Z M7.95743583,11.6767648 C5.93065011,11.6767648 4.29493583,10.0410505 4.29493583,8.01426478 C4.29493583,5.98747906 5.93065011,4.35176478 7.95743583,4.35176478 C9.98422155,4.35176478 11.6199358,5.98747906 11.6199358,8.01426478 C11.6199358,10.0410505 9.98422155,11.6767648 7.95743583,11.6767648 Z M10.9145787,4.20176478 C10.9145787,3.7285505 11.2967215,3.34640764 11.7699358,3.34640764 C12.2431501,3.34640764 12.6252936,3.7285505 12.6252936,4.20176478 C12.6255778,4.42870679 12.5355515,4.64643574 12.3750791,4.8069081 C12.2146068,4.96738046 11.9968778,5.05740673 11.7699358,5.0571226 C11.2967215,5.0571226 10.9145787,4.67497906 10.9145787,4.20176478 Z"></path>
            </g>
        </g>
    </g>
</svg>