<?xml version="1.0" encoding="UTF-8"?>
<svg width="18px" height="18px" viewBox="0 0 18 18" version="1.1" xmlns="http://www.w3.org/2000/svg" xmlns:xlink="http://www.w3.org/1999/xlink">
    <title>未查阅</title>
    <g id="未查阅" stroke="none" stroke-width="1" fill="none" fill-rule="evenodd">
        <path d="M17.6556911,12.5107017 C17.8454496,12.7401318 17.8132893,13.0799512 17.5838593,13.2697097 L17.550293,13.295326 L16.6591462,13.9380627 L16.5415166,14.0191773 L17.3450426,15.0121009 C17.4995155,15.202859 17.4905325,15.4728233 17.3359067,15.6525131 L17.2711298,15.7153341 C17.0565269,15.8891161 16.7416787,15.8560242 16.5678966,15.6414213 L16.5678966,15.6414213 L15.6866718,14.553945 C15.3227648,14.7457809 14.9294747,14.9022977 14.4685003,15.0075353 L14.8917031,16.2376255 C14.9816062,16.4987232 14.8428256,16.7832657 14.5817279,16.8731688 C14.3206301,16.963072 14.0360876,16.8242914 13.9461845,16.5631936 L13.9461845,16.5631936 L13.4578323,15.1449157 L13.4680749,15.1436611 C13.3283542,15.1514292 13.1829789,15.1554334 13.0313721,15.1554334 C12.8189996,15.1554334 12.6146017,15.1443478 12.4178283,15.1237516 L12.4804563,15.1449157 L11.9921041,16.5631936 C11.902201,16.8242914 11.6176585,16.963072 11.3565608,16.8731688 C11.095463,16.7832657 10.9566824,16.4987232 11.0465855,16.2376255 L11.4908667,14.9474103 C11.0637003,14.8281943 10.6798451,14.6666976 10.3339578,14.4869647 L9.4749748,15.5498287 C9.30119277,15.7644317 8.98634455,15.7975235 8.77174162,15.6237415 C8.55713869,15.4499595 8.52404681,15.1351113 8.69782884,14.9205083 L9.47251659,13.9631773 L9.19376976,13.7667291 L8.55029297,13.295326 C8.3081793,13.1251763 8.249841,12.7909708 8.41999073,12.5488571 C8.59014045,12.3067435 8.92434596,12.2484052 9.16645962,12.4185549 L9.20236517,12.4460505 C10.4767818,13.5129666 11.7531174,14.0464247 13.0313721,14.0464247 C14.2270827,14.0464247 15.4291689,13.5796388 16.6376306,12.6460671 L16.896683,12.4388698 C17.1261131,12.2491114 17.4659326,12.2812716 17.6556911,12.5107017 Z" id="形状结合" fill="#FBBC04" fill-rule="nonzero"></path>
        <path d="M13.5,1 C14.8807119,1 16,2.11928813 16,3.5 L16.0009863,9.50078816 C15.1066341,9.06863801 14.1073491,8.8520378 13.0028891,8.8520378 C10.0550364,8.8520378 7.85871739,10.3934488 6.40472967,13.457866 C6.28663151,13.7063323 6.28663151,13.9977433 6.40472967,14.2477433 C7.23461397,15.9959278 8.3068286,17.2484595 9.6222291,18.0016307 L3.5,18 C2.11928813,18 1,16.8807119 1,15.5 L1,3.5 C1,2.11928813 2.11928813,1 3.5,1 L13.5,1 Z M7.31112671,9 L4.70278931,9 C4.31464949,9 4,9.31464949 4,9.70278931 C4,10.0909291 4.31464949,10.4055786 4.70278931,10.4055786 L7.31112671,10.4055786 C7.69926653,10.4055786 8.01391602,10.0909291 8.01391602,9.70278931 C8.01391602,9.31464949 7.69926653,9 7.31112671,9 Z M12.2983398,5 L4.71557617,5 C4.32037436,5 4,5.32037436 4,5.71557617 C4,6.11077798 4.32037436,6.43115234 4.71557617,6.43115234 L12.2983398,6.43115234 C12.6935417,6.43115234 13.013916,6.11077798 13.013916,5.71557617 C13.013916,5.32037436 12.6935417,5 12.2983398,5 Z" id="形状结合" fill="#FBBC04" fill-rule="nonzero"></path>
    </g>
</svg>