<?xml version="1.0" encoding="UTF-8"?>
<svg width="40px" height="40px" viewBox="0 0 40 40" version="1.1" xmlns="http://www.w3.org/2000/svg" xmlns:xlink="http://www.w3.org/1999/xlink">
    <title>详情页/时间轴/收到邮件备份</title>
    <defs>
        <circle id="path-1" cx="19" cy="19" r="16"></circle>
        <filter x="-21.9%" y="-15.6%" width="143.8%" height="143.8%" filterUnits="objectBoundingBox" id="filter-2">
            <feOffset dx="0" dy="2" in="SourceAlpha" result="shadowOffsetOuter1"></feOffset>
            <feGaussianBlur stdDeviation="2" in="shadowOffsetOuter1" result="shadowBlurOuter1"></feGaussianBlur>
            <feComposite in="shadowBlurOuter1" in2="SourceAlpha" operator="out" result="shadowBlurOuter1"></feComposite>
            <feColorMatrix values="0 0 0 0 0.588374712   0 0 0 0 0.853006114   0 0 0 0 0.24884763  0 0 0 0.32 0" type="matrix" in="shadowBlurOuter1"></feColorMatrix>
        </filter>
        <linearGradient x1="50%" y1="100%" x2="50%" y2="11.5154561%" id="linearGradient-3">
            <stop stop-color="#53C500" offset="0%"></stop>
            <stop stop-color="#89E500" offset="100%"></stop>
        </linearGradient>
        <linearGradient x1="50%" y1="100%" x2="50%" y2="11.5154561%" id="linearGradient-4">
            <stop stop-color="#53C500" offset="0%"></stop>
            <stop stop-color="#89E500" offset="100%"></stop>
        </linearGradient>
    </defs>
    <g id="*logo+icon" stroke="none" stroke-width="1" fill="none" fill-rule="evenodd">
        <g id="图标" transform="translate(-477.000000, -1267.000000)">
            <g id="编组" transform="translate(478.000000, 1266.000000)">
                <rect id="矩形" fill-opacity="0" fill="#FFFFFF" x="0" y="0" width="38" height="38"></rect>
                <g id="椭圆形">
                    <use fill="black" fill-opacity="1" filter="url(#filter-2)" xlink:href="#path-1"></use>
                    <circle stroke-opacity="0.8" stroke="#71CA00" stroke-width="1" stroke-linejoin="square" fill="#FFFFFF" fill-rule="evenodd" cx="19" cy="19" r="15.5"></circle>
                </g>
                <g transform="translate(11.000000, 11.000000)">
                    <path d="M10.071,10.9715474 L15.2229858,15.5519203 C14.8848728,15.8135832 14.4606211,15.9692993 14,15.9692993 L2,15.9692993 C1.58512581,15.9692993 1.19975568,15.8429774 0.8802542,15.6266982 L5.969,10.9845474 L7.05893795,11.8817709 C7.6127459,12.3376785 8.41182926,12.3376785 8.96563721,11.8817709 L10.071,10.9715474 Z M0.189650949,6.22652815 L5.196,10.3485474 L0.22190022,14.8858322 C0.0800856109,14.611264 0,14.2996341 0,13.9692993 L0,7.07661885 C0,6.83772459 0.0426352774,6.60466211 0.122682452,6.38686568 L0.189650949,6.22652815 Z M15.8167881,6.24272387 C15.9357,6.50101798 16,6.78558624 16,7.07896756 L16,13.9692993 C16,14.2543246 15.9403772,14.5254242 15.8329233,14.7708064 L10.844,10.3345474 L15.8167881,6.24272387 Z M12.5173611,0 C13.0696459,-1.01453063e-16 13.5173611,0.44771525 13.5173611,1 L13.517,4.207 L15.058476,5.38202072 L15.184,5.46754743 L12.862,7.378 L8.33007079,11.1274253 C8.14546814,11.2793945 7.87910702,11.2793945 7.69450437,11.1274253 L5.088,8.963 L0.827539111,5.45631572 L0.938476702,5.38157658 L2.561,4.144 L2.56146918,1 C2.56146918,0.44771525 3.00918443,1.01453063e-16 3.56146918,0 L12.5173611,0 Z" id="形状结合备份" fill="url(#linearGradient-3)"></path>
                    <path d="M12.4856204,0.977275174 L12.4856204,6.89878271 C12.4902137,6.89836677 12.4960196,7.16803613 12.5030382,7.7077908 C11.6837302,8.38236722 10.292741,9.5222454 8.33007079,11.1274253 C8.14546814,11.2793945 7.87910702,11.2793945 7.69450437,11.1274253 C5.69327062,9.46683712 4.28251569,8.29885564 3.46223958,7.6234809 C3.44972066,7.36565317 3.44847973,7.09018128 3.4585168,6.79706525 L3.46223958,0.977275174 L12.4856204,0.977275174 Z" id="路径备份" fill="#FFFFFF"></path>
                    <path d="M7.65535359,9.8213051 L4.55233837,6.8495995 C4.43267659,6.73500143 4.42857165,6.54509629 4.54316973,6.42543452 C4.59975734,6.36634649 4.67802241,6.33293269 4.75983654,6.33293269 L6.68676758,6.33293269 L6.68676758,6.33293269 L6.68676758,2.95166016 C6.68676758,2.67551778 6.9106252,2.45166016 7.18676758,2.45166016 L8.79992676,2.45166016 C9.07606913,2.45166016 9.29992676,2.67551778 9.29992676,2.95166016 L9.29992676,6.33293269 L9.29992676,6.33293269 L11.2638893,6.33293269 C11.4295747,6.33293269 11.5638893,6.46724726 11.5638893,6.63293269 C11.5638893,6.71510379 11.5301842,6.79367818 11.470644,6.85030906 L8.34577508,9.82248769 C8.15225454,10.0065522 7.84824244,10.0060315 7.65535359,9.8213051 Z" id="路径" fill="url(#linearGradient-4)"></path>
                </g>
            </g>
        </g>
    </g>
</svg>