<?xml version="1.0" encoding="UTF-8"?>
<svg width="38px" height="38px" viewBox="0 0 38 38" version="1.1" xmlns="http://www.w3.org/2000/svg" xmlns:xlink="http://www.w3.org/1999/xlink">
    <title>详情页/时间轴/来源</title>
    <defs>
        <linearGradient x1="50%" y1="0%" x2="50%" y2="100%" id="linearGradient-1">
            <stop stop-color="#5994F7" stop-opacity="0.8" offset="0%"></stop>
            <stop stop-color="#5868F5" offset="100%"></stop>
        </linearGradient>
        <circle id="path-2" cx="19" cy="19" r="16"></circle>
        <filter x="-21.9%" y="-15.6%" width="143.8%" height="143.8%" filterUnits="objectBoundingBox" id="filter-3">
            <feOffset dx="0" dy="2" in="SourceAlpha" result="shadowOffsetOuter1"></feOffset>
            <feGaussianBlur stdDeviation="2" in="shadowOffsetOuter1" result="shadowBlurOuter1"></feGaussianBlur>
            <feComposite in="shadowBlurOuter1" in2="SourceAlpha" operator="out" result="shadowBlurOuter1"></feComposite>
            <feColorMatrix values="0 0 0 0 0.321568627   0 0 0 0 0.537254902   0 0 0 0 0.97254902  0 0 0 0.32 0" type="matrix" in="shadowBlurOuter1"></feColorMatrix>
        </filter>
        <linearGradient x1="50%" y1="0%" x2="50%" y2="100%" id="linearGradient-4">
            <stop stop-color="#5994F7" offset="0%"></stop>
            <stop stop-color="#5868F5" offset="100%"></stop>
        </linearGradient>
    </defs>
    <g id="详情页/时间轴/来源" stroke="none" stroke-width="1" fill="none" fill-rule="evenodd">
        <rect id="矩形" fill-opacity="0" fill="#FFFFFF" x="0" y="0" width="38" height="38"></rect>
        <g id="Oval-11-Copy-6">
            <use fill="black" fill-opacity="1" filter="url(#filter-3)" xlink:href="#path-2"></use>
            <circle stroke="url(#linearGradient-1)" stroke-width="1" stroke-linejoin="square" fill="#FFFFFF" fill-rule="evenodd" cx="19" cy="19" r="15.5"></circle>
        </g>
        <g id="形状" transform="translate(11.000000, 11.000000)" fill="url(#linearGradient-4)">
            <path d="M8,0 C12.418278,0 16,3.581722 16,8 C16,12.418278 12.418278,16 8,16 C3.581722,16 0,12.418278 0,8 C0,3.581722 3.581722,0 8,0 Z M8,4.01477051 C5.790861,4.01477051 4,5.80563151 4,8.01477051 C4,9.35437182 4.6585169,10.5401683 5.66949801,11.2661072 L5.88293776,11.410723 L5.88293776,11.410723 L5.94421773,11.4467675 C6.00732034,11.4712334 6.07566472,11.4864044 6.14755249,11.4864044 C6.42369487,11.4864044 6.64755249,11.2625468 6.64755249,10.9864044 C6.64755249,10.7894516 6.53367708,10.6190959 6.36997465,10.5337289 C5.54546449,9.99908869 5,9.07062963 5,8.01477051 C5,6.35791626 6.34314575,5.01477051 8,5.01477051 C9.65685425,5.01477051 11,6.35791626 11,8.01477051 C11,9.54471747 9.85473159,10.8071727 8.37473782,10.991593 C8.3039794,10.9937889 8.23692467,11.0106862 8.1765259,11.0393327 C8.10630929,11.0703621 8.04273881,11.1177181 7.99209772,11.1797172 L7.94599915,11.246535 L6.94599915,12.9785858 C6.80792796,13.2177322 6.88986554,13.5235274 7.12901185,13.6615986 C7.34158635,13.7843285 7.6068217,13.7332244 7.76011032,13.5523926 L7.81202455,13.4785858 L8.69154606,11.9552099 C10.5710995,11.6276328 12,9.98807043 12,8.01477051 C12,5.80563151 10.209139,4.01477051 8,4.01477051 Z M11.8025055,3.54690552 C11.5263631,3.54690552 11.3025055,3.77076314 11.3025055,4.04690552 C11.3025055,4.19784755 11.3693901,4.33316784 11.4751385,4.42484563 L11.5430271,4.47439104 C12.4415578,5.38674461 13,6.63554197 13,8.01477051 C13,9.38257023 12.4507744,10.6220914 11.5608283,11.5248289 C11.4068002,11.6100346 11.3025055,11.7741609 11.3025055,11.9626465 C11.3025055,12.2387889 11.5263631,12.4626465 11.8025055,12.4626465 C11.9596706,12.4626465 12.0998993,12.3901331 12.1915602,12.2767378 L12.2140118,12.2858494 L12.2140118,12.2858494 C13.31661,11.197892 14,9.68613841 14,8.01477051 C14,6.37986036 13.3460985,4.89767708 12.285564,3.81548909 L12.0942401,3.62871726 L12.0881189,3.63645582 C12.0071499,3.58000764 11.9086934,3.54690552 11.8025055,3.54690552 Z M4.1918335,3.54690552 C4.10876795,3.54690552 4.03043338,3.56716124 3.96149973,3.60300272 L3.89587269,3.6438665 C2.72732173,4.73613942 2,6.29051742 2,8.01477051 C2,9.7254603 2.71592423,11.268937 3.86450258,12.3619306 L3.88740137,12.3593154 L3.88740137,12.3593154 C3.97171354,12.4241194 4.07727428,12.4626465 4.1918335,12.4626465 C4.46797587,12.4626465 4.6918335,12.2387889 4.6918335,11.9626465 C4.6918335,11.7795324 4.59339854,11.619409 4.44655681,11.5323045 C3.55226509,10.6289406 3,9.38634976 3,8.01477051 C3,6.69187814 3.51375351,5.48897933 4.35262522,4.5947094 L4.52467858,4.42002636 C4.6272535,4.32845959 4.6918335,4.19522429 4.6918335,4.04690552 C4.6918335,3.77076314 4.46797587,3.54690552 4.1918335,3.54690552 Z"></path>
        </g>
    </g>
</svg>