<svg width="14" height="14" viewBox="0 0 14 14" fill="none" xmlns="http://www.w3.org/2000/svg">
<path fill-rule="evenodd" clip-rule="evenodd" d="M13.6182 9.28601C13.8464 8.62511 13.3035 8 12.6042 8C12.1945 8 11.8489 8.29209 11.7114 8.67812C11.0219 10.6141 9.17273 12 7 12C4.23853 12 2 9.76142 2 7C2 4.23858 4.23853 2 7 2C7.26917 2 7.53333 2.02126 7.79089 2.0622C8.37952 2.15574 9 1.74877 9 1.15285C9 0.640877 8.66479 0.179825 8.15979 0.0956268C7.78247 0.0327301 7.39502 0 7 0C3.13403 0 0 3.13401 0 7C0 10.866 3.13403 14 7 14C10.0656 14 12.6708 12.0295 13.6182 9.28601ZM4.43994 7.38107C4.01697 7.02607 3.96179 6.39531 4.31677 5.97224C4.67175 5.54916 5.30249 5.49398 5.72559 5.84898L7.25769 7.13455L11.7572 1.77225C12.1122 1.34917 12.7429 1.29398 13.166 1.64899C13.5891 2.00399 13.6443 2.63474 13.2893 3.05782L8.14697 9.18617C7.79199 9.60925 7.16125 9.66444 6.73816 9.30943L4.43994 7.38107Z" fill="#4285F2"/>
</svg>
