<?xml version="1.0" encoding="UTF-8"?>
<svg width="38px" height="38px" viewBox="0 0 38 38" version="1.1" xmlns="http://www.w3.org/2000/svg" xmlns:xlink="http://www.w3.org/1999/xlink">
    <title>详情页/时间轴/网站访问</title>
    <defs>
        <circle id="path-1" cx="19" cy="19" r="16"></circle>
        <filter x="-21.9%" y="-15.6%" width="143.8%" height="143.8%" filterUnits="objectBoundingBox" id="filter-2">
            <feOffset dx="0" dy="2" in="SourceAlpha" result="shadowOffsetOuter1"></feOffset>
            <feGaussianBlur stdDeviation="2" in="shadowOffsetOuter1" result="shadowBlurOuter1"></feGaussianBlur>
            <feComposite in="shadowBlurOuter1" in2="SourceAlpha" operator="out" result="shadowBlurOuter1"></feComposite>
            <feColorMatrix values="0 0 0 0 1   0 0 0 0 0.788553205   0 0 0 0 0.774790396  0 0 0 1 0" type="matrix" in="shadowBlurOuter1"></feColorMatrix>
        </filter>
        <linearGradient x1="50%" y1="0%" x2="50%" y2="100%" id="linearGradient-3">
            <stop stop-color="#FD863E" offset="0%"></stop>
            <stop stop-color="#E93D35" offset="100%"></stop>
        </linearGradient>
    </defs>
    <g id="详情页/时间轴/网站访问" stroke="none" stroke-width="1" fill="none" fill-rule="evenodd">
        <rect id="矩形" fill-opacity="0" fill="#FFFFFF" x="0" y="0" width="38" height="38"></rect>
        <g id="椭圆形">
            <use fill="black" fill-opacity="1" filter="url(#filter-2)" xlink:href="#path-1"></use>
            <circle stroke-opacity="0.8" stroke="#F76F3B" stroke-width="1" stroke-linejoin="square" fill="#FFFFFF" fill-rule="evenodd" cx="19" cy="19" r="15.5"></circle>
        </g>
        <g id="形状" transform="translate(11.000000, 11.000000)" fill="url(#linearGradient-3)">
            <path d="M15.5098267,6.91913249 L15.5098267,12.7659302 C15.5098267,13.5943573 14.8382538,14.2659302 14.0098267,14.2659302 L2,14.2659302 C1.17157288,14.2659302 0.5,13.5943573 0.5,12.7659302 L0.5,6.91913249 L15.5098267,6.91913249 Z M8.5,9.25183513 L2.5,9.25183513 C2.22385763,9.25183513 2,9.47569275 2,9.75183513 C2,9.99729501 2.17687516,10.2014435 2.41012437,10.2437795 L2.5,10.2518351 L8.5,10.2518351 C8.77614237,10.2518351 9,10.0279775 9,9.75183513 C9,9.50637524 8.82312484,9.30222676 8.58987563,9.2598908 L8.5,9.25183513 Z M13.5,9.25183513 L10.5,9.25183513 C10.2238576,9.25183513 10,9.47569275 10,9.75183513 C10,9.99729501 10.1768752,10.2014435 10.4101244,10.2437795 L10.5,10.2518351 L13.5,10.2518351 C13.7761424,10.2518351 14,10.0279775 14,9.75183513 C14,9.50637524 13.8231248,9.30222676 13.5898756,9.2598908 L13.5,9.25183513 Z M14.0098267,1.73431396 C14.8382538,1.73431396 15.5098267,2.40588684 15.5098267,3.23431396 L15.5098267,5.91913249 L0.5,5.91913249 L0.5,3.23431396 C0.5,2.40588684 1.17157288,1.73431396 2,1.73431396 L14.0098267,1.73431396 Z M2.61000977,3.26605632 C2.27863892,3.26605632 2.01000977,3.53468547 2.01000977,3.86605632 C2.01000977,4.19742717 2.27863892,4.46605632 2.61000977,4.46605632 C2.94138062,4.46605632 3.21000977,4.19742717 3.21000977,3.86605632 C3.21000977,3.53468547 2.94138062,3.26605632 2.61000977,3.26605632 Z M4.89727173,3.26605632 C4.56590088,3.26605632 4.29727173,3.53468547 4.29727173,3.86605632 C4.29727173,4.19742717 4.56590088,4.46605632 4.89727173,4.46605632 C5.22864258,4.46605632 5.49727173,4.19742717 5.49727173,3.86605632 C5.49727173,3.53468547 5.22864258,3.26605632 4.89727173,3.26605632 Z M7.08881226,3.26605632 C6.75744141,3.26605632 6.48881226,3.53468547 6.48881226,3.86605632 C6.48881226,4.19742717 6.75744141,4.46605632 7.08881226,4.46605632 C7.42018311,4.46605632 7.68881226,4.19742717 7.68881226,3.86605632 C7.68881226,3.53468547 7.42018311,3.26605632 7.08881226,3.26605632 Z"></path>
        </g>
    </g>
</svg>