<?xml version="1.0" encoding="UTF-8"?>
<svg width="38px" height="38px" viewBox="0 0 38 38" version="1.1" xmlns="http://www.w3.org/2000/svg" xmlns:xlink="http://www.w3.org/1999/xlink">
    <title>详情页/时间轴/whatsapp</title>
    <defs>
        <circle id="path-1" cx="19" cy="19" r="16"></circle>
        <filter x="-21.9%" y="-15.6%" width="143.8%" height="143.8%" filterUnits="objectBoundingBox" id="filter-2">
            <feOffset dx="0" dy="2" in="SourceAlpha" result="shadowOffsetOuter1"></feOffset>
            <feGaussianBlur stdDeviation="2" in="shadowOffsetOuter1" result="shadowBlurOuter1"></feGaussianBlur>
            <feComposite in="shadowBlurOuter1" in2="SourceAlpha" operator="out" result="shadowBlurOuter1"></feComposite>
            <feColorMatrix values="0 0 0 0 0.73977994   0 0 0 0 0.913949275   0 0 0 0 0.773759327  0 0 0 1 0" type="matrix" in="shadowBlurOuter1"></feColorMatrix>
        </filter>
        <linearGradient x1="50%" y1="0%" x2="50%" y2="100%" id="linearGradient-3">
            <stop stop-color="#4DEB8D" offset="0%"></stop>
            <stop stop-color="#2FC642" offset="100%"></stop>
        </linearGradient>
    </defs>
    <g id="详情页/时间轴/whatsapp" stroke="none" stroke-width="1" fill="none" fill-rule="evenodd">
        <rect id="矩形" fill-opacity="0" fill="#FFFFFF" x="0" y="0" width="38" height="38"></rect>
        <g id="Oval-11-Copy-2">
            <use fill="black" fill-opacity="1" filter="url(#filter-2)" xlink:href="#path-1"></use>
            <circle stroke-opacity="0.8" stroke="#2FC642" stroke-width="1" stroke-linejoin="square" fill="#FFFFFF" fill-rule="evenodd" cx="19" cy="19" r="15.5"></circle>
        </g>
        <g id="编组" transform="translate(11.000000, 11.000000)" fill="url(#linearGradient-3)" fill-rule="nonzero">
            <g id="形状">
                <path d="M8.03212851,-3.23296945e-13 C10.1740294,-3.23296945e-13 12.1445783,0.869482545 13.686747,2.34760286 C15.1432396,3.82572318 16,5.91248128 16,7.99923939 C16,12.4336004 12.4016064,16.085427 8.03212851,15.9984788 C6.66131191,15.9984788 5.37617135,15.6506858 4.26238286,15.042048 L1.8943252,15.4264242 C1.34917525,15.5149114 0.835510882,15.1447131 0.747023723,14.5995631 C0.730053403,14.4950127 0.729800958,14.38843 0.746275829,14.2838004 L1.09236948,12.0858073 C-0.364123161,9.56430796 -0.364123161,6.52111906 1.09236948,3.99961969 C2.54886212,1.47812031 5.20481928,-3.23296945e-13 8.03212851,-3.23296945e-13 Z M5.1823688,4.1353276 C5.07906279,4.14254194 4.97811585,4.16975136 4.88558039,4.21612446 C4.79880068,4.26526622 4.71958388,4.32669966 4.65038957,4.39851734 C4.55439332,4.4889138 4.49999545,4.56731075 4.44159772,4.64330778 C4.14593815,5.0280894 3.98690327,5.50040892 3.98958124,5.98565537 C3.99121529,6.37764007 4.09361131,6.75922518 4.25360506,7.11601124 C4.58079229,7.83758307 5.11917126,8.60155325 5.83034351,9.30952562 C6.00153683,9.47991897 6.1687303,9.65111229 6.34872327,9.81030608 C7.23140041,10.5874463 8.2832507,11.1478853 9.42060336,11.4470422 L9.87578558,11.5166395 L10.0238094,11.5190986 L10.0238094,11.5190986 L10.3205682,11.5062399 L10.3205682,11.5062399 C10.5535499,11.4942135 10.7810411,11.4311277 10.9869422,11.3214471 L11.142149,11.2369546 L11.142149,11.2369546 L11.3187293,11.1280546 L11.3187293,11.1280546 L11.3933263,11.0734568 L11.3933263,11.0734568 C11.5013221,10.9934599 11.5677195,10.9366621 11.657316,10.8430658 C11.7237134,10.7742684 11.7813112,10.6934716 11.8253095,10.6014752 C11.887707,10.4710803 11.9501046,10.22229 11.9757036,10.0150981 L11.9844713,9.92838786 L11.9844713,9.92838786 L11.9895271,9.7992793 L11.9895271,9.7992793 L11.9869032,9.71670974 L11.9869032,9.71670974 C11.9837033,9.63111308 11.9125061,9.54231655 11.8349091,9.504718 L10.248571,8.79914555 L10.248571,8.79914555 C10.2037834,8.77962259 10.1557866,8.76850469 10.1069766,8.76634683 C10.0239247,8.75781781 9.94114763,8.77652097 9.87060707,8.81843745 L9.79983543,8.87074275 L9.79983543,8.87074275 L9.70199237,8.97693861 L9.70199237,8.97693861 L9.16861319,9.61271379 L9.16861319,9.61271379 C9.10071285,9.7039521 8.98436821,9.74505212 8.87422469,9.71670974 L8.79688459,9.69303996 L8.79688459,9.69303996 L8.51983851,9.57671519 L8.51983851,9.57671519 C8.05818376,9.37530305 7.63445233,9.10541042 7.2598877,8.77514648 C7.15909163,8.68714993 7.06549528,8.59115367 6.96949903,8.49835728 C6.71771878,8.25723916 6.49182358,7.99079629 6.2953317,7.70340234 L6.10633273,7.40799986 C6.07243247,7.35693399 6.04502267,7.30184567 6.02473592,7.24400625 C6.00649663,7.17344901 6.02771181,7.11124343 6.04760223,7.07276813 L6.07353402,7.03201452 L6.07353402,7.03201452 L6.31408439,6.75846719 C6.33037297,6.73893209 6.34540911,6.72048383 6.3583229,6.70402733 C6.43359137,6.60828843 6.50381728,6.50869047 6.56871468,6.40563897 C6.663111,6.2536449 6.69270983,6.09765099 6.64311177,5.97685572 C6.41912051,5.42967708 6.18712957,4.88489834 5.94873889,4.34411945 C5.90154074,4.23692364 5.7615462,4.16012664 5.63435116,4.14492722 L5.50475622,4.13212774 L5.50475622,4.13212774 C5.39732557,4.12679046 5.28967234,4.12785898 5.1823688,4.1353276 Z"></path>
            </g>
        </g>
    </g>
</svg>