<svg width="32" height="32" viewBox="0 0 32 32" fill="none" xmlns="http://www.w3.org/2000/svg">
<path d="M16 32C24.8366 32 32 24.8366 32 16C32 7.16344 24.8366 0 16 0C7.16344 0 0 7.16344 0 16C0 24.8366 7.16344 32 16 32Z" fill="#EAF9D7"/>
<path fill-rule="evenodd" clip-rule="evenodd" d="M16.1042 11.8382L19.5985 15.708C19.8157 15.9486 20.1581 15.9493 20.376 15.7096L23.895 11.8391C23.962 11.7654 24 11.6631 24 11.5561C24 11.3403 23.8487 11.1654 23.6622 11.1654H21.4505L21.4505 7.65111C21.4505 7.29151 21.1984 7 20.8875 7H19.0708C18.7599 7 18.5078 7.29151 18.5078 7.65111L18.5078 11.1654H16.3378C16.2457 11.1654 16.1576 11.2089 16.0938 11.2858C15.9648 11.4417 15.9694 11.689 16.1042 11.8382ZM10.814 10.0151C11.161 10.0302 11.335 10.0528 11.564 10.6419V10.6429C11.6448 10.852 11.7585 11.1481 11.8818 11.4694C12.1938 12.282 12.5675 13.2556 12.627 13.3891C12.711 13.5754 12.794 13.8296 12.676 14.0762C12.5706 14.3154 12.4793 14.4287 12.3239 14.6216C12.3142 14.6337 12.3042 14.6461 12.294 14.6588C12.2203 14.7504 12.1479 14.8326 12.0757 14.9145C11.9775 15.026 11.8797 15.137 11.78 15.2705C11.7772 15.274 11.7744 15.2775 11.7716 15.281C11.6138 15.4794 11.4425 15.6948 11.641 16.062C11.842 16.4271 12.537 17.644 13.558 18.6219C14.7672 19.7772 15.7661 20.2125 16.2195 20.41C16.2614 20.4283 16.2987 20.4445 16.331 20.4591C16.615 20.5862 16.956 20.556 17.164 20.317C17.3874 20.0591 17.6542 19.6573 17.9326 19.2382C17.9844 19.1601 18.0366 19.0815 18.089 19.0031C18.325 18.6445 18.623 18.6003 18.936 18.7263C19.256 18.8459 20.944 19.7419 21.292 19.9282C21.3636 19.9668 21.4302 20.0013 21.4915 20.0331C21.7273 20.1553 21.8853 20.2372 21.952 20.3611C22.035 20.5183 22.035 21.2571 21.75 22.124C21.465 22.9888 20.333 23.706 19.43 23.915C18.811 24.0571 18.005 24.1691 15.288 22.9597C12.0744 21.5298 9.91826 18.1755 9.4762 17.4879C9.44051 17.4323 9.41599 17.3942 9.40299 17.3759C9.39763 17.3679 9.39116 17.3584 9.38365 17.3473C9.15841 17.0154 8 15.3086 8 13.5463C8 11.78 8.80994 10.892 9.1742 10.4926C9.18594 10.4798 9.19722 10.4674 9.20799 10.4555C9.494 10.1422 9.96599 10 10.418 10C10.5501 10.0008 10.6822 10.0058 10.814 10.0151Z" fill="#6ECD4C"/>
</svg>
