<svg width="32" height="32" viewBox="0 0 32 32" fill="none" xmlns="http://www.w3.org/2000/svg">
<path d="M16 32C24.8366 32 32 24.8366 32 16C32 7.16344 24.8366 0 16 0C7.16344 0 0 7.16344 0 16C0 24.8366 7.16344 32 16 32Z" fill="#DDF2F9"/>
<path fill-rule="evenodd" clip-rule="evenodd" d="M16.1042 11.0507L19.5985 7.18086C19.8157 6.94031 20.1581 6.93963 20.376 7.17932L23.895 11.0498C23.962 11.1235 24 11.2258 24 11.3328C24 11.5486 23.8487 11.7235 23.6622 11.7235H21.4505L21.4505 15.2378C21.4505 15.5974 21.1984 15.8889 20.8875 15.8889H19.0708C18.7599 15.8889 18.5078 15.5974 18.5078 15.2378L18.5078 11.7235H16.3378C16.2457 11.7235 16.1576 11.68 16.0938 11.603C15.9648 11.4472 15.9694 11.1999 16.1042 11.0507ZM10.814 10.0116C11.161 10.0267 11.335 10.0493 11.564 10.6384V10.6395C11.6448 10.8485 11.7584 11.1446 11.8818 11.4659C12.1937 12.2785 12.5675 13.2521 12.627 13.3856C12.711 13.5719 12.794 13.8261 12.676 14.0727C12.5706 14.3119 12.4793 14.4252 12.3239 14.6182C12.3142 14.6302 12.3042 14.6426 12.294 14.6553C12.2203 14.747 12.1479 14.8292 12.0757 14.911C11.9775 15.0226 11.8797 15.1335 11.78 15.267C11.7772 15.2705 11.7744 15.274 11.7716 15.2776C11.6138 15.476 11.4425 15.6914 11.641 16.0585C11.842 16.4236 12.537 17.6405 13.558 18.6184C14.7672 19.7738 15.7661 20.209 16.2195 20.4066C16.2614 20.4248 16.2987 20.4411 16.331 20.4556C16.615 20.5827 16.956 20.5526 17.164 20.3135C17.3874 20.0556 17.6542 19.6539 17.9326 19.2347C17.9844 19.1567 18.0366 19.078 18.089 18.9996C18.325 18.641 18.623 18.5969 18.936 18.7229C19.256 18.8424 20.944 19.7384 21.292 19.9247C21.3636 19.9634 21.4302 19.9979 21.4915 20.0296C21.7273 20.1518 21.8853 20.2337 21.952 20.3576C22.035 20.5149 22.035 21.2536 21.75 22.1205C21.465 22.9853 20.333 23.7026 19.43 23.9115C18.811 24.0536 18.005 24.1656 15.288 22.9563C12.0744 21.5263 9.91826 18.1721 9.4762 17.4844C9.44051 17.4289 9.41599 17.3907 9.40299 17.3724C9.39763 17.3644 9.39116 17.3549 9.38364 17.3438C9.1584 17.0119 8 15.3051 8 13.5428C8 11.7765 8.80994 10.8885 9.1742 10.4892C9.18594 10.4763 9.19722 10.4639 9.20799 10.4521C9.494 10.1387 9.96599 9.99653 10.418 9.99653C10.5501 9.99734 10.6822 10.0024 10.814 10.0116Z" fill="#56C0D8"/>
</svg>
