<svg width="32" height="32" viewBox="0 0 32 32" fill="none" xmlns="http://www.w3.org/2000/svg">
<path d="M16 32C24.8366 32 32 24.8366 32 16C32 7.16344 24.8366 0 16 0C7.16344 0 0 7.16344 0 16C0 24.8366 7.16344 32 16 32Z" fill="#DDEDFA"/>
<path fill-rule="evenodd" clip-rule="evenodd" d="M16 6.5C21.2467 6.5 25.5 10.7533 25.5 16C25.5 21.2467 21.2467 25.5 16 25.5C10.7533 25.5 6.5 21.2467 6.5 16C6.5 10.7533 10.7533 6.5 16 6.5ZM17.118 11.0198C15.6483 11.0198 14.6665 11.8714 14.5839 13.4202L14.5783 13.6357V15.1172H12.8701V17.061H14.5783V21.7601H16.6796V17.061H18.2462L18.5444 15.1172H16.6796V13.8551C16.6796 13.3588 16.9065 12.8742 17.6158 12.8117L17.7752 12.805H18.6233V11.151L18.2106 11.093L17.9363 11.0631L17.6229 11.0376C17.4594 11.0268 17.2878 11.0198 17.118 11.0198Z" fill="#459FE7"/>
</svg>
