<svg width="32" height="32" viewBox="0 0 32 32" fill="none" xmlns="http://www.w3.org/2000/svg">
<path d="M16 32C24.8366 32 32 24.8366 32 16C32 7.16344 24.8366 0 16 0C7.16344 0 0 7.16344 0 16C0 24.8366 7.16344 32 16 32Z" fill="#FCE2DC"/>
<path d="M15.9976 12.9987C14.345 12.9987 12.9964 14.3474 12.9964 16C12.9964 17.6526 14.345 19.0013 15.9976 19.0013C17.6502 19.0013 18.9988 17.6526 18.9988 16C18.9988 14.3474 17.6502 12.9987 15.9976 12.9987ZM24.999 16C24.999 14.7572 25.0103 13.5256 24.9405 12.285C24.8707 10.844 24.5419 9.56515 23.4883 8.51144C22.4323 7.45548 21.1557 7.12901 19.7148 7.05921C18.472 6.98941 17.2404 7.00067 15.9998 7.00067C14.757 7.00067 13.5255 6.98941 12.2849 7.05921C10.8439 7.12901 9.5651 7.45773 8.51141 8.51144C7.45547 9.5674 7.129 10.844 7.05921 12.285C6.98941 13.5278 7.00067 14.7594 7.00067 16C7.00067 17.2406 6.98941 18.4744 7.05921 19.715C7.129 21.156 7.45772 22.4348 8.51141 23.4886C9.56736 24.5445 10.8439 24.871 12.2849 24.9408C13.5277 25.0106 14.7593 24.9993 15.9998 24.9993C17.2426 24.9993 18.4742 25.0106 19.7148 24.9408C21.1557 24.871 22.4346 24.5423 23.4883 23.4886C24.5442 22.4326 24.8707 21.156 24.9405 19.715C25.0125 18.4744 24.999 17.2428 24.999 16ZM15.9976 20.6179C13.4422 20.6179 11.3798 18.5555 11.3798 16C11.3798 13.4445 13.4422 11.3821 15.9976 11.3821C18.553 11.3821 20.6154 13.4445 20.6154 16C20.6154 18.5555 18.553 20.6179 15.9976 20.6179ZM19.726 11.193C19.726 10.5963 20.2078 10.1145 20.8045 10.1145C21.4011 10.1145 21.8829 10.5963 21.8829 11.193C21.8833 11.4791 21.7698 11.7537 21.5675 11.956C21.3651 12.1583 21.0906 12.2718 20.8045 12.2715C20.2078 12.2715 19.726 11.7897 19.726 11.193Z" fill="#F57C83"/>
</svg>
