<svg width="32" height="32" viewBox="0 0 32 32" fill="none" xmlns="http://www.w3.org/2000/svg">
<path d="M16 32C24.8366 32 32 24.8366 32 16C32 7.16344 24.8366 0 16 0C7.16344 0 0 7.16344 0 16C0 24.8366 7.16344 32 16 32Z" fill="#DFF9E9"/>
<path fill-rule="evenodd" clip-rule="evenodd" d="M16.195 22.825C21.2733 22.825 25.39 19.3944 25.39 15.1625C25.39 10.9306 21.2733 7.5 16.195 7.5C11.1167 7.5 7 10.9306 7 15.1625C7 17.9977 8.84776 20.4732 11.5945 21.7984C11.5575 22.8875 11.0151 23.4572 10.6699 23.8199C10.4409 24.0605 10.2986 24.2099 10.4481 24.3594C10.7234 24.6347 12.1869 23.7219 13.2718 23.0451C13.5435 22.8757 13.7915 22.721 13.9911 22.6035C14.6972 22.7482 15.4353 22.825 16.195 22.825Z" fill="#6BCC7D"/>
</svg>
