<?xml version="1.0" standalone="no"?><!DOCTYPE svg PUBLIC "-//W3C//DTD SVG 1.1//EN" "http://www.w3.org/Graphics/SVG/1.1/DTD/svg11.dtd"><svg t="1658832156207" class="icon" viewBox="0 0 1024 1024" version="1.1" xmlns="http://www.w3.org/2000/svg" p-id="22436" xmlns:xlink="http://www.w3.org/1999/xlink" width="16" height="16"><defs><style type="text/css"></style></defs><path d="M512 73.142857a438.857143 438.857143 0 1 1 0 877.714286A438.857143 438.857143 0 0 1 512 73.142857z m0 560.274286c-36.571429 0-66.121143 30.427429-66.121143 67.949714 0 37.522286 29.549714 67.876571 66.121143 67.876572s66.121143-30.354286 66.121143-67.876572A67.072 67.072 0 0 0 512 633.344z m0-381.44a68.388571 68.388571 0 0 0-70.509714 69.778286l28.16 251.904c7.094857 19.017143 21.211429 31.670857 42.349714 31.670857 21.211429 0 35.254857-12.726857 42.349714-31.670857l28.16-258.194286c0-38.034286-35.254857-63.488-70.509714-63.488z" fill="#EA4335" p-id="22437"></path></svg>