<svg width="32" height="32" viewBox="0 0 32 32" fill="none" xmlns="http://www.w3.org/2000/svg">
<path d="M16 32C24.8366 32 32 24.8366 32 16C32 7.16344 24.8366 0 16 0C7.16344 0 0 7.16344 0 16C0 24.8366 7.16344 32 16 32Z" fill="#EAF9D7"/>
<path d="M7.00085 13.6641C7.00085 12.5595 7.89629 11.6641 9.00085 11.6641H23.0009C24.1054 11.6641 25.0009 12.5595 25.0009 13.6641V22.6641C25.0009 23.7686 24.1054 24.6641 23.0009 24.6641H9.00085C7.89628 24.6641 7.00085 23.7686 7.00085 22.6641V13.6641Z" fill="#6ECD4C"/>
<path d="M24.6003 11.2019L16.4749 18.2895C16.0707 18.642 15.5279 18.642 15.1237 18.2895L6.99836 11.2019" stroke="#EAF9D7" stroke-width="1.44819"/>
<path d="M7.50037 13.6641C7.50037 12.8356 8.17194 12.1641 9.00037 12.1641H23.0004C23.8288 12.1641 24.5004 12.8356 24.5004 13.6641V22.6641C24.5004 23.4925 23.8288 24.1641 23.0004 24.1641H9.00037C8.17194 24.1641 7.50037 23.4925 7.50037 22.6641V13.6641Z" stroke="#6ECD4C"/>
<circle cx="23.3334" cy="11.3359" r="6" fill="#EAF9D7"/>
<path fill-rule="evenodd" clip-rule="evenodd" d="M22.5985 14.708L19.1042 10.8382C18.9694 10.689 18.9648 10.4417 19.0938 10.2858C19.1576 10.2089 19.2457 10.1654 19.3378 10.1654L21.5078 10.1654L21.5078 6.65111C21.5078 6.29151 21.7599 6 22.0708 6L23.8875 6C24.1984 6 24.4505 6.29151 24.4505 6.65111L24.4505 10.1654L26.6622 10.1654C26.8487 10.1654 27 10.3403 27 10.5561C27 10.6631 26.962 10.7654 26.895 10.8391L23.376 14.7096C23.1581 14.9493 22.8157 14.9486 22.5985 14.708Z" fill="#6ECD4C"/>
</svg>
