<svg width="32" height="32" viewBox="0 0 32 32" fill="none" xmlns="http://www.w3.org/2000/svg">
<path d="M16 32C24.8366 32 32 24.8366 32 16C32 7.16344 24.8366 0 16 0C7.16344 0 0 7.16344 0 16C0 24.8366 7.16344 32 16 32Z" fill="#DDF2F9"/>
<rect x="7.00037" y="12" width="18" height="13" rx="2" fill="#56C0D8"/>
<path d="M24.6003 11.2019L16.5295 19.1589C16.1034 19.579 15.4953 19.579 15.0692 19.1589L6.99836 11.2019" stroke="#DDF2F9" stroke-width="1.44819"/>
<rect x="7.50012" y="12.5" width="17" height="12" rx="1.5" stroke="#56C0D8"/>
<circle cx="23.3334" cy="11.3359" r="6" fill="#D7F4FD"/>
<path fill-rule="evenodd" clip-rule="evenodd" d="M22.5985 6.1826L19.1042 10.0524C18.9694 10.2017 18.9648 10.449 19.0938 10.6048C19.1576 10.6817 19.2457 10.7252 19.3378 10.7252L21.5078 10.7252L21.5078 14.2395C21.5078 14.5991 21.7599 14.8906 22.0708 14.8906L23.8875 14.8906C24.1984 14.8906 24.4505 14.5991 24.4505 14.2395L24.4505 10.7252L26.6622 10.7252C26.8487 10.7252 27 10.5503 27 10.3346C27 10.2276 26.962 10.1252 26.895 10.0515L23.376 6.18106C23.1581 5.94137 22.8157 5.94205 22.5985 6.1826Z" fill="#56C0D8"/>
</svg>
