<svg width="32" height="32" viewBox="0 0 32 32" fill="none" xmlns="http://www.w3.org/2000/svg">
<path d="M16 32C24.8366 32 32 24.8366 32 16C32 7.16344 24.8366 0 16 0C7.16344 0 0 7.16344 0 16C0 24.8366 7.16344 32 16 32Z" fill="#E9ECFC"/>
<path d="M25.5 16C25.5 10.7533 21.2467 6.5 16 6.5C10.7533 6.5 6.5 10.7533 6.5 16C6.5 21.2467 10.7533 25.5 16 25.5C21.2467 25.5 25.5 21.2467 25.5 16Z" fill="#7A8EF2"/>
<path d="M11.3127 11.0773C11.4078 11.0279 11.5158 11 11.63 11C12.0102 11 12.3185 11.3083 12.3185 11.6886C12.3185 11.8915 12.2306 12.074 12.0912 12.1999L11.8972 12.3969C10.9543 13.4027 10.377 14.7551 10.377 16.2426C10.377 17.7803 10.994 19.1736 11.994 20.189C12.1886 20.3104 12.3185 20.5268 12.3185 20.7736C12.3185 21.1539 12.0102 21.4622 11.63 21.4622C11.4896 21.4622 11.3589 21.4201 11.2499 21.3478L11.2141 21.3519L11.1752 21.315C9.83538 20.0398 9 18.2386 9 16.2426C9 14.2307 9.8487 12.4167 11.212 11.1422L11.2202 11.1346L11.3127 11.0773Z" fill="#E9ECFC"/>
<path d="M19.675 11.6886C19.675 11.3083 19.9833 11 20.3635 11C20.4707 11 20.5724 11.0246 20.6629 11.0684L20.6873 11.0376L20.9998 11.3427C22.237 12.6053 23 14.3349 23 16.2426C23 18.1927 22.2026 19.9569 20.9164 21.2262L20.8626 21.2793L20.8404 21.2703C20.7168 21.389 20.5487 21.4622 20.3635 21.4622C19.9833 21.4622 19.675 21.1539 19.675 20.7736C19.675 20.52 19.812 20.2987 20.0155 20.1793C21.01 19.1648 21.623 17.7754 21.623 16.2426C21.623 14.6946 20.9978 13.2926 19.9905 12.2664L19.9124 12.2094C19.767 12.0833 19.675 11.8965 19.675 11.6886Z" fill="#E9ECFC"/>
<path fill-rule="evenodd" clip-rule="evenodd" d="M15.9996 12.5512C14.092 12.5512 12.5569 14.1414 12.5569 16.089C12.5569 16.5512 12.6433 16.9931 12.8004 17.3982C12.8797 17.616 12.9833 17.8168 13.1056 18.0059C13.2483 18.233 13.4157 18.4423 13.6039 18.6297L13.6019 18.6275L13.6282 18.6536L13.6741 18.6974L13.6898 18.7081C13.755 18.7525 13.8325 18.79 13.9217 18.8098C14.2681 18.8865 14.6015 18.6589 14.6769 18.3183C14.7207 18.1204 14.6699 17.9241 14.5563 17.7767C14.1049 17.3647 13.8192 16.7621 13.8192 16.089C13.8192 14.8391 14.8016 13.8373 15.9996 13.8373C17.1975 13.8373 18.1799 14.8391 18.1799 16.089C18.1799 17.2392 17.3469 18.1804 16.2807 18.3221C16.1963 18.3264 16.1161 18.3478 16.0435 18.3828C15.9555 18.4233 15.8763 18.4846 15.8134 18.5639L15.8077 18.5711L15.7605 18.6416L14.9527 20.082C14.7824 20.3858 14.8809 20.7772 15.1826 20.9565C15.454 21.1178 15.7913 21.0489 15.984 20.8148L15.9906 20.8069L16.0438 20.729L16.7034 19.5527C18.2715 19.2179 19.4422 17.7905 19.4422 16.089C19.4422 14.1414 17.9071 12.5512 15.9996 12.5512ZM13.1124 18.0164C13.2531 18.2386 13.4175 18.4436 13.6019 18.6275L13.4626 18.4755C13.3347 18.3286 13.2168 18.1767 13.1124 18.0164Z" fill="#E9ECFC"/>
</svg>
