<svg width="32" height="32" viewBox="0 0 32 32" fill="none" xmlns="http://www.w3.org/2000/svg">
<path d="M16 32C24.8366 32 32 24.8366 32 16C32 7.16344 24.8366 0 16 0C7.16344 0 0 7.16344 0 16C0 24.8366 7.16344 32 16 32Z" fill="#DAE9FF"/>
<path d="M20.0575 20.707C20.615 21.2669 21.29 21.6062 22.0353 21.8183L22.3188 21.8922C22.8508 21.9891 23.1283 22.4739 23.1526 22.9683C23.1526 23.55 22.7284 24.0444 22.1492 24.1293C21.5917 24.202 21.0125 23.8505 20.8913 23.2955C20.7216 22.4363 20.3593 21.6874 19.7303 21.0584C19.6576 20.9857 19.7061 20.8282 19.6819 20.707L19.9388 20.6864C19.9933 20.684 20.0381 20.6888 20.0575 20.707ZM21.0852 9.75193C22.2704 11.011 22.9223 12.498 22.9466 14.2273C22.6557 14.094 22.3309 14.0213 21.9916 14.0213H21.9432C21.3961 14.0431 20.8748 14.2598 20.4735 14.6323C20.0721 15.0047 19.8172 15.5084 19.7546 16.0523C19.7303 16.2583 19.7303 16.4643 19.7546 16.657C19.3316 17.0812 18.8118 17.3466 18.1707 17.4556H18.1586C17.7502 17.5425 17.3747 17.7432 17.0757 18.0346C16.7767 18.326 16.5663 18.6961 16.4689 19.1021C16.3715 19.5081 16.3911 19.9334 16.5255 20.3288C16.6598 20.7241 16.9033 21.0733 17.2279 21.336C16.5016 21.5577 15.7496 21.684 14.9908 21.7116C14.0194 21.7581 13.0464 21.6642 12.1018 21.4329C11.9564 21.4087 11.7746 21.4329 11.6292 21.4814L9.44178 22.5575C9.16305 22.7029 8.90857 22.7271 8.66741 22.5333C8.43716 22.3636 8.41292 22.1091 8.43716 21.8074C8.53411 21.2039 8.60682 20.5992 8.66741 19.9944C8.66741 19.8733 8.5947 19.6915 8.49775 19.5945C7.54282 18.6396 6.72119 17.5877 6.30916 16.2583C5.53601 13.6226 6.23645 11.3613 8.14753 9.47442C11.6413 6.05338 17.7478 6.21092 21.0852 9.75315V9.75193ZM25.4381 18.4712C26.0428 18.5439 26.49 19.0274 26.49 19.6321C26.49 20.2114 26.1386 20.684 25.5593 20.7918C24.8612 20.9133 24.2094 21.2224 23.6737 21.6862L23.4798 21.868C23.3586 21.9891 23.1768 22.0982 23.0556 21.9164C23.0072 21.8195 23.0314 21.5892 23.1041 21.5177C23.6734 20.941 24.0495 20.2016 24.1802 19.4018C24.234 19.1168 24.3935 18.8625 24.6267 18.6899C24.86 18.5174 25.1498 18.4392 25.4381 18.4712ZM20.9155 17.3829C20.8913 17.5041 20.9398 17.6859 20.867 17.7574C20.2623 18.3621 19.9363 19.088 19.7667 19.9217C19.7132 20.2018 19.5509 20.4493 19.3154 20.6101C19.0799 20.7709 18.7903 20.8319 18.51 20.7797C18.2306 20.7337 17.976 20.5913 17.7906 20.3772C17.6051 20.1632 17.5003 19.891 17.4945 19.6079C17.4945 19.0989 17.8689 18.6275 18.3767 18.5317C19.1947 18.398 19.951 18.0135 20.5411 17.4314C20.6138 17.3587 20.7955 17.3829 20.9167 17.3829H20.9155ZM21.9916 15.1095C22.5248 15.1095 23.0193 15.4609 23.1283 16.016C23.2738 16.8509 23.6373 17.5756 24.2287 18.1803C24.3014 18.253 24.2529 18.459 24.2772 18.5802L24.0081 18.5948C23.9536 18.5948 23.9076 18.5839 23.8785 18.556C23.2726 17.9258 22.5236 17.5998 21.6899 17.4193C21.42 17.3554 21.1831 17.1943 21.0245 16.9666C20.866 16.739 20.797 16.4609 20.8307 16.1856C20.9155 15.5809 21.3881 15.1337 21.9916 15.1095Z" fill="#488BEA"/>
</svg>
