<svg width="32" height="32" viewBox="0 0 32 32" fill="none" xmlns="http://www.w3.org/2000/svg">
<path d="M16 32C24.8366 32 32 24.8366 32 16C32 7.16344 24.8366 0 16 0C7.16344 0 0 7.16344 0 16C0 24.8366 7.16344 32 16 32Z" fill="#DFF9E9"/>
<path d="M16.0361 7C18.4458 7 20.6627 7.97817 22.3976 9.64105C24.0361 11.3039 25 13.6515 25 15.9991C25 20.9878 20.9518 25.0961 16.0361 24.9983C14.494 24.9983 13.0482 24.607 11.7952 23.9223L9.13112 24.3547C8.51782 24.4543 7.93995 24.0378 7.8404 23.4245C7.82131 23.3069 7.82103 23.187 7.83956 23.0693L8.22892 20.5965C6.59036 17.7598 6.59036 14.3363 8.22892 11.4996C9.86747 8.66289 12.8554 7 16.0361 7ZM12.8302 11.6522C12.7139 11.6604 12.6004 11.691 12.4963 11.7431C12.3987 11.7984 12.3095 11.8675 12.2317 11.9483C12.1237 12.05 12.0625 12.1382 11.9968 12.2237C11.6642 12.6566 11.4853 13.188 11.4883 13.7339C11.4901 14.1748 11.6053 14.6041 11.7853 15.0055C12.1534 15.8173 12.7591 16.6767 13.5591 17.4732C13.7517 17.6649 13.9398 17.8575 14.1423 18.0366C15.1353 18.9109 16.3187 19.5414 17.5982 19.8779L18.1103 19.9562L18.2768 19.959L18.6106 19.9445C18.8727 19.931 19.1287 19.86 19.3603 19.7366L19.5349 19.6416L19.7336 19.5191L19.8175 19.4576C19.939 19.3676 20.0137 19.3037 20.1145 19.1984C20.1892 19.1211 20.254 19.0302 20.3035 18.9267C20.3737 18.78 20.4439 18.5001 20.4727 18.267L20.4825 18.1694L20.4882 18.0242L20.4853 17.9313C20.4817 17.835 20.4016 17.7351 20.3143 17.6928L18.5296 16.899C18.4793 16.8771 18.4253 16.8646 18.3703 16.8621C18.2769 16.8525 18.1838 16.8736 18.1044 16.9207L18.0248 16.9796L17.9147 17.0991L17.3147 17.8143C17.2383 17.9169 17.1074 17.9632 16.9835 17.9313L16.8965 17.9047L16.5848 17.7738C16.0655 17.5472 15.5888 17.2436 15.1674 16.872C15.054 16.773 14.9487 16.665 14.8407 16.5607C14.5574 16.2894 14.3033 15.9896 14.0822 15.6663L13.8696 15.334C13.8315 15.2766 13.8007 15.2146 13.7778 15.1495C13.7573 15.0701 13.7812 15.0001 13.8036 14.9569L13.8327 14.911L14.1033 14.6033C14.1217 14.5813 14.1386 14.5605 14.1531 14.542C14.2378 14.4343 14.3168 14.3223 14.3898 14.2063C14.496 14.0354 14.5293 13.8599 14.4735 13.724C14.2215 13.1084 13.9605 12.4955 13.6923 11.8871C13.6392 11.7665 13.4817 11.6801 13.3386 11.663L13.1929 11.6486C13.072 11.6426 12.9509 11.6438 12.8302 11.6522Z" fill="#6BCC7D"/>
</svg>
