<svg xmlns="http://www.w3.org/2000/svg" xmlns:xlink="http://www.w3.org/1999/xlink" id="body_7" preserveAspectRatio="xMinYMin meet" viewBox="0 0 1121 793"><defs><clipPath id="1"><path d="M0 595L0 -0.3200073L0 -0.3200073L841.92 -0.3200073L841.92 -0.3200073L841.92 595L841.92 595L0 595z" /></clipPath><clipPath id="2"><path d="M1.2546E-05 595L841.92 595L841.92 595L841.92 -0.3200073L841.92 -0.3200073L1.2546E-05 -0.3200073z" /></clipPath><clipPath id="3"><path d="M1.2546E-05 595L841.92 595L841.92 595L841.92 -0.3200073L841.92 -0.3200073L1.2546E-05 -0.3200073z" /></clipPath><clipPath id="4"><path d="M1.2546E-05 595L841.92 595L841.92 595L841.92 -0.3200073L841.92 -0.3200073L1.2546E-05 -0.3200073z" /></clipPath><clipPath id="5"><path d="M1.2546E-05 595L841.92 595L841.92 595L841.92 -0.3200073L841.92 -0.3200073L1.2546E-05 -0.3200073z" /></clipPath><clipPath id="6"><path d="M1.2546E-05 595L841.92 595L841.92 595L841.92 -0.3200073L841.92 -0.3200073L1.2546E-05 -0.3200073z" /></clipPath><clipPath id="7"><path d="M1.2546E-05 595L841.92 595L841.92 595L841.92 -0.3200073L841.92 -0.3200073L1.2546E-05 -0.3200073z" /></clipPath><clipPath id="8"><path d="M1.2546E-05 595L841.92 595L841.92 595L841.92 -0.3200073L841.92 -0.3200073L1.2546E-05 -0.3200073z" /></clipPath><clipPath id="9"><path d="M1.2546E-05 595L841.92 595L841.92 595L841.92 -0.3200073L841.92 -0.3200073L1.2546E-05 -0.3200073z" /></clipPath><clipPath id="10"><path d="M108.5 171.9L178.1 171.9L178.1 171.9L178.1 136.98L178.1 136.98L108.5 136.98z" /></clipPath><clipPath id="11"><path d="M108.5 171.9L178.1 171.9L178.1 171.9L178.1 136.98L178.1 136.98L108.5 136.98z" /></clipPath><clipPath id="12"><path d="M108.5 171.9L178.1 171.9L178.1 171.9L178.1 136.98L178.1 136.98L108.5 136.98z" /></clipPath><clipPath id="13"><path d="M178.58 171.9L412.12 171.9L412.12 171.9L412.12 136.98L412.12 136.98L178.58 136.98z" /></clipPath><clipPath id="14"><path d="M178.58 171.9L412.12 171.9L412.12 171.9L412.12 136.98L412.12 136.98L178.58 136.98z" /></clipPath><clipPath id="15"><path d="M178.58 171.9L412.12 171.9L412.12 171.9L412.12 136.98L412.12 136.98L178.58 136.98z" /></clipPath><clipPath id="16"><path d="M412.37 171.9L628.42 171.9L628.42 171.9L628.42 136.98L628.42 136.98L412.37 136.98z" /></clipPath><clipPath id="17"><path d="M412.37 171.9L628.42 171.9L628.42 171.9L628.42 136.98L628.42 136.98L412.37 136.98z" /></clipPath><clipPath id="18"><path d="M412.37 171.9L628.42 171.9L628.42 171.9L628.42 136.98L628.42 136.98L412.37 136.98z" /></clipPath><clipPath id="19"><path d="M628.66 171.9L733.54 171.9L733.54 171.9L733.54 136.98L733.54 136.98L628.66 136.98z" /></clipPath><clipPath id="20"><path d="M628.66 171.9L733.54 171.9L733.54 171.9L733.54 136.98L733.54 136.98L628.66 136.98z" /></clipPath><clipPath id="21"><path d="M628.66 171.9L733.54 171.9L733.54 171.9L733.54 136.98L733.54 136.98L628.66 136.98z" /></clipPath><clipPath id="22"><path d="M108.5 207.93L178.22 207.93L178.22 207.93L178.22 172.506L178.22 172.506L108.5 172.506z" /></clipPath><clipPath id="23"><path d="M108.5 207.93L178.22 207.93L178.22 207.93L178.22 172.506L178.22 172.506L108.5 172.506z" /></clipPath><clipPath id="24"><path d="M108.5 207.93L178.22 207.93L178.22 207.93L178.22 172.506L178.22 172.506L108.5 172.506z" /></clipPath><clipPath id="25"><path d="M178.46 207.93L412.12 207.93L412.12 207.93L412.12 172.506L412.12 172.506L178.46 172.506z" /></clipPath><clipPath id="26"><path d="M178.46 207.93L412.12 207.93L412.12 207.93L412.12 172.506L412.12 172.506L178.46 172.506z" /></clipPath><clipPath id="27"><path d="M412.37 207.93L628.42 207.93L628.42 207.93L628.42 172.506L628.42 172.506L412.37 172.506z" /></clipPath><clipPath id="28"><path d="M412.37 207.93L628.42 207.93L628.42 207.93L628.42 172.506L628.42 172.506L412.37 172.506z" /></clipPath><clipPath id="29"><path d="M412.37 207.93L628.42 207.93L628.42 207.93L628.42 172.506L628.42 172.506L412.37 172.506z" /></clipPath><clipPath id="30"><path d="M628.66 207.93L733.54 207.93L733.54 207.93L733.54 172.506L733.54 172.506L628.66 172.506z" /></clipPath><clipPath id="31"><path d="M628.66 207.93L733.54 207.93L733.54 207.93L733.54 172.506L733.54 172.506L628.66 172.506z" /></clipPath><clipPath id="32"><path d="M108.5 242.97L178.22 242.97L178.22 242.97L178.22 208.41L178.22 208.41L108.5 208.41z" /></clipPath><clipPath id="33"><path d="M108.5 242.97L178.22 242.97L178.22 242.97L178.22 208.41L178.22 208.41L108.5 208.41z" /></clipPath><clipPath id="34"><path d="M108.5 242.97L178.22 242.97L178.22 242.97L178.22 208.41L178.22 208.41L108.5 208.41z" /></clipPath><clipPath id="35"><path d="M178.46 242.97L412.12 242.97L412.12 242.97L412.12 208.41L412.12 208.41L178.46 208.41z" /></clipPath><clipPath id="36"><path d="M178.46 242.97L412.12 242.97L412.12 242.97L412.12 208.41L412.12 208.41L178.46 208.41z" /></clipPath><clipPath id="37"><path d="M412.37 242.97L628.42 242.97L628.42 242.97L628.42 208.41L628.42 208.41L412.37 208.41z" /></clipPath><clipPath id="38"><path d="M412.37 242.97L628.42 242.97L628.42 242.97L628.42 208.41L628.42 208.41L412.37 208.41z" /></clipPath><clipPath id="39"><path d="M412.37 242.97L628.42 242.97L628.42 242.97L628.42 208.41L628.42 208.41L412.37 208.41z" /></clipPath><clipPath id="40"><path d="M628.66 242.97L733.54 242.97L733.54 242.97L733.54 208.41L733.54 208.41L628.66 208.41z" /></clipPath><clipPath id="41"><path d="M628.66 242.97L733.54 242.97L733.54 242.97L733.54 208.41L733.54 208.41L628.66 208.41z" /></clipPath><clipPath id="42"><path d="M628.66 242.97L733.54 242.97L733.54 242.97L733.54 208.41L733.54 208.41L628.66 208.41z" /></clipPath><clipPath id="43"><path d="M108.5 278.49L178.1 278.49L178.1 278.49L178.1 243.45L178.1 243.45L108.5 243.45z" /></clipPath><clipPath id="44"><path d="M108.5 278.49L178.1 278.49L178.1 278.49L178.1 243.45L178.1 243.45L108.5 243.45z" /></clipPath><clipPath id="45"><path d="M108.5 278.49L178.1 278.49L178.1 278.49L178.1 243.45L178.1 243.45L108.5 243.45z" /></clipPath><clipPath id="46"><path d="M178.58 278.49L412.12 278.49L412.12 278.49L412.12 243.45L412.12 243.45L178.58 243.45z" /></clipPath><clipPath id="47"><path d="M178.58 278.49L412.12 278.49L412.12 278.49L412.12 243.45L412.12 243.45L178.58 243.45z" /></clipPath><clipPath id="48"><path d="M412.37 278.49L628.42 278.49L628.42 278.49L628.42 243.45L628.42 243.45L412.37 243.45z" /></clipPath><clipPath id="49"><path d="M412.37 278.49L628.42 278.49L628.42 278.49L628.42 243.45L628.42 243.45L412.37 243.45z" /></clipPath><clipPath id="50"><path d="M412.37 278.49L628.42 278.49L628.42 278.49L628.42 243.45L628.42 243.45L412.37 243.45z" /></clipPath><clipPath id="51"><path d="M628.66 278.49L733.54 278.49L733.54 278.49L733.54 243.45L733.54 243.45L628.66 243.45z" /></clipPath><clipPath id="52"><path d="M628.66 278.49L733.54 278.49L733.54 278.49L733.54 243.45L733.54 243.45L628.66 243.45z" /></clipPath><clipPath id="53"><path d="M108.5 313.19L178.1 313.19L178.1 313.19L178.1 278.966L178.1 278.966L108.5 278.966z" /></clipPath><clipPath id="54"><path d="M108.5 313.19L178.1 313.19L178.1 313.19L178.1 278.966L178.1 278.966L108.5 278.966z" /></clipPath><clipPath id="55"><path d="M108.5 313.19L178.1 313.19L178.1 313.19L178.1 278.966L178.1 278.966L108.5 278.966z" /></clipPath><clipPath id="56"><path d="M178.58 313.19L412.12 313.19L412.12 313.19L412.12 278.966L412.12 278.966L178.58 278.966z" /></clipPath><clipPath id="57"><path d="M178.58 313.19L412.12 313.19L412.12 313.19L412.12 278.966L412.12 278.966L178.58 278.966z" /></clipPath><clipPath id="58"><path d="M178.58 313.19L412.12 313.19L412.12 313.19L412.12 278.966L412.12 278.966L178.58 278.966z" /></clipPath><clipPath id="59"><path d="M412.37 313.19L628.42 313.19L628.42 313.19L628.42 278.966L628.42 278.966L412.37 278.966z" /></clipPath><clipPath id="60"><path d="M412.37 313.19L628.42 313.19L628.42 313.19L628.42 278.966L628.42 278.966L412.37 278.966z" /></clipPath><clipPath id="61"><path d="M412.37 313.19L628.42 313.19L628.42 313.19L628.42 278.966L628.42 278.966L412.37 278.966z" /></clipPath><clipPath id="62"><path d="M628.66 313.19L733.54 313.19L733.54 313.19L733.54 278.966L733.54 278.966L628.66 278.966z" /></clipPath><clipPath id="63"><path d="M628.66 313.19L733.54 313.19L733.54 313.19L733.54 278.966L733.54 278.966L628.66 278.966z" /></clipPath><clipPath id="64"><path d="M628.66 313.19L733.54 313.19L733.54 313.19L733.54 278.966L733.54 278.966L628.66 278.966z" /></clipPath><clipPath id="65"><path d="M108.5 348.95L178.1 348.95L178.1 348.95L178.1 313.67L178.1 313.67L108.5 313.67z" /></clipPath><clipPath id="66"><path d="M108.5 348.95L178.1 348.95L178.1 348.95L178.1 313.67L178.1 313.67L108.5 313.67z" /></clipPath><clipPath id="67"><path d="M108.5 348.95L178.1 348.95L178.1 348.95L178.1 313.67L178.1 313.67L108.5 313.67z" /></clipPath><clipPath id="68"><path d="M178.58 348.95L412.12 348.95L412.12 348.95L412.12 313.67L412.12 313.67L178.58 313.67z" /></clipPath><clipPath id="69"><path d="M178.58 348.95L412.12 348.95L412.12 348.95L412.12 313.67L412.12 313.67L178.58 313.67z" /></clipPath><clipPath id="70"><path d="M412.37 348.95L628.42 348.95L628.42 348.95L628.42 313.67L628.42 313.67L412.37 313.67z" /></clipPath><clipPath id="71"><path d="M412.37 348.95L628.42 348.95L628.42 348.95L628.42 313.67L628.42 313.67L412.37 313.67z" /></clipPath><clipPath id="72"><path d="M412.37 348.95L628.42 348.95L628.42 348.95L628.42 313.67L628.42 313.67L412.37 313.67z" /></clipPath><clipPath id="73"><path d="M628.66 348.95L733.54 348.95L733.54 348.95L733.54 313.67L733.54 313.67L628.66 313.67z" /></clipPath><clipPath id="74"><path d="M628.66 348.95L733.54 348.95L733.54 348.95L733.54 313.67L733.54 313.67L628.66 313.67z" /></clipPath><clipPath id="75"><path d="M108.5 384.59L178.1 384.59L178.1 384.59L178.1 349.43L178.1 349.43L108.5 349.43z" /></clipPath><clipPath id="76"><path d="M108.5 384.59L178.1 384.59L178.1 384.59L178.1 349.43L178.1 349.43L108.5 349.43z" /></clipPath><clipPath id="77"><path d="M108.5 384.59L178.1 384.59L178.1 384.59L178.1 349.43L178.1 349.43L108.5 349.43z" /></clipPath><clipPath id="78"><path d="M178.58 384.59L412.12 384.59L412.12 384.59L412.12 349.43L412.12 349.43L178.58 349.43z" /></clipPath><clipPath id="79"><path d="M178.58 384.59L412.12 384.59L412.12 384.59L412.12 349.43L412.12 349.43L178.58 349.43z" /></clipPath><clipPath id="80"><path d="M412.37 384.59L628.42 384.59L628.42 384.59L628.42 349.43L628.42 349.43L412.37 349.43z" /></clipPath><clipPath id="81"><path d="M412.37 384.59L628.42 384.59L628.42 384.59L628.42 349.43L628.42 349.43L412.37 349.43z" /></clipPath><clipPath id="82"><path d="M412.37 384.59L628.42 384.59L628.42 384.59L628.42 349.43L628.42 349.43L412.37 349.43z" /></clipPath><clipPath id="83"><path d="M628.66 384.59L733.54 384.59L733.54 384.59L733.54 349.43L733.54 349.43L628.66 349.43z" /></clipPath><clipPath id="84"><path d="M628.66 384.59L733.54 384.59L733.54 384.59L733.54 349.43L733.54 349.43L628.66 349.43z" /></clipPath><clipPath id="85"><path d="M628.66 384.59L733.54 384.59L733.54 384.59L733.54 349.43L733.54 349.43L628.66 349.43z" /></clipPath><clipPath id="86"><path d="M108.5 420.02L178.1 420.02L178.1 420.02L178.1 385.076L178.1 385.076L108.5 385.076z" /></clipPath><clipPath id="87"><path d="M108.5 420.02L178.1 420.02L178.1 420.02L178.1 385.076L178.1 385.076L108.5 385.076z" /></clipPath><clipPath id="88"><path d="M108.5 420.02L178.1 420.02L178.1 420.02L178.1 385.076L178.1 385.076L108.5 385.076z" /></clipPath><clipPath id="89"><path d="M178.58 420.02L412.12 420.02L412.12 420.02L412.12 385.076L412.12 385.076L178.58 385.076z" /></clipPath><clipPath id="90"><path d="M178.58 420.02L412.12 420.02L412.12 420.02L412.12 385.076L412.12 385.076L178.58 385.076z" /></clipPath><clipPath id="91"><path d="M412.37 420.02L628.42 420.02L628.42 420.02L628.42 385.076L628.42 385.076L412.37 385.076z" /></clipPath><clipPath id="92"><path d="M412.37 420.02L628.42 420.02L628.42 420.02L628.42 385.076L628.42 385.076L412.37 385.076z" /></clipPath><clipPath id="93"><path d="M412.37 420.02L628.42 420.02L628.42 420.02L628.42 385.076L628.42 385.076L412.37 385.076z" /></clipPath><clipPath id="94"><path d="M628.66 420.02L733.54 420.02L733.54 420.02L733.54 385.076L733.54 385.076L628.66 385.076z" /></clipPath><clipPath id="95"><path d="M628.66 420.02L733.54 420.02L733.54 420.02L733.54 385.076L733.54 385.076L628.66 385.076z" /></clipPath><clipPath id="96"><path d="M628.66 420.02L733.54 420.02L733.54 420.02L733.54 385.076L733.54 385.076L628.66 385.076z" /></clipPath><clipPath id="97"><path d="M108.5 455.18L178.1 455.18L178.1 455.18L178.1 420.5L178.1 420.5L108.5 420.5z" /></clipPath><clipPath id="98"><path d="M108.5 455.18L178.1 455.18L178.1 455.18L178.1 420.5L178.1 420.5L108.5 420.5z" /></clipPath><clipPath id="99"><path d="M108.5 455.18L178.1 455.18L178.1 455.18L178.1 420.5L178.1 420.5L108.5 420.5z" /></clipPath><clipPath id="100"><path d="M178.58 455.18L412.12 455.18L412.12 455.18L412.12 420.5L412.12 420.5L178.58 420.5z" /></clipPath><clipPath id="101"><path d="M178.58 455.18L412.12 455.18L412.12 455.18L412.12 420.5L412.12 420.5L178.58 420.5z" /></clipPath><clipPath id="102"><path d="M178.58 455.18L412.12 455.18L412.12 455.18L412.12 420.5L412.12 420.5L178.58 420.5z" /></clipPath><clipPath id="103"><path d="M412.37 455.18L628.42 455.18L628.42 455.18L628.42 420.5L628.42 420.5L412.37 420.5z" /></clipPath><clipPath id="104"><path d="M412.37 455.18L628.42 455.18L628.42 455.18L628.42 420.5L628.42 420.5L412.37 420.5z" /></clipPath><clipPath id="105"><path d="M412.37 455.18L628.42 455.18L628.42 455.18L628.42 420.5L628.42 420.5L412.37 420.5z" /></clipPath><clipPath id="106"><path d="M628.66 455.18L733.54 455.18L733.54 455.18L733.54 420.5L733.54 420.5L628.66 420.5z" /></clipPath><clipPath id="107"><path d="M628.66 455.18L733.54 455.18L733.54 455.18L733.54 420.5L733.54 420.5L628.66 420.5z" /></clipPath><clipPath id="108"><path d="M628.66 455.18L733.54 455.18L733.54 455.18L733.54 420.5L733.54 420.5L628.66 420.5z" /></clipPath><clipPath id="109"><path d="M108.5 486.86L178.1 486.86L178.1 486.86L178.1 455.66L178.1 455.66L108.5 455.66z" /></clipPath><clipPath id="110"><path d="M108.5 486.86L178.1 486.86L178.1 486.86L178.1 455.66L178.1 455.66L108.5 455.66z" /></clipPath><clipPath id="111"><path d="M108.5 486.86L178.1 486.86L178.1 486.86L178.1 455.66L178.1 455.66L108.5 455.66z" /></clipPath><clipPath id="112"><path d="M178.58 486.86L412.12 486.86L412.12 486.86L412.12 455.66L412.12 455.66L178.58 455.66z" /></clipPath><clipPath id="113"><path d="M178.58 486.86L412.12 486.86L412.12 486.86L412.12 455.66L412.12 455.66L178.58 455.66z" /></clipPath><clipPath id="114"><path d="M178.58 486.86L412.12 486.86L412.12 486.86L412.12 455.66L412.12 455.66L178.58 455.66z" /></clipPath><clipPath id="115"><path d="M412.37 486.86L628.42 486.86L628.42 486.86L628.42 455.66L628.42 455.66L412.37 455.66z" /></clipPath><clipPath id="116"><path d="M412.37 486.86L628.42 486.86L628.42 486.86L628.42 455.66L628.42 455.66L412.37 455.66z" /></clipPath><clipPath id="117"><path d="M412.37 486.86L628.42 486.86L628.42 486.86L628.42 455.66L628.42 455.66L412.37 455.66z" /></clipPath><clipPath id="118"><path d="M628.66 486.86L733.54 486.86L733.54 486.86L733.54 455.66L733.54 455.66L628.66 455.66z" /></clipPath><clipPath id="119"><path d="M628.66 486.86L733.54 486.86L733.54 486.86L733.54 455.66L733.54 455.66L628.66 455.66z" /></clipPath><clipPath id="120"><path d="M628.66 486.86L733.54 486.86L733.54 486.86L733.54 455.66L733.54 455.66L628.66 455.66z" /></clipPath></defs><g transform="matrix(1.333333 0 0 1.333333 0 0)"><g><g clip-path="url(#1)"><g clip-path="url(#2)"></g><g clip-path="url(#3)"></g><g clip-path="url(#4)"></g><g clip-path="url(#5)"></g><g clip-path="url(#6)"></g><g clip-path="url(#7)"></g><g clip-path="url(#8)"></g><g clip-path="url(#9)"></g><g clip-path="url(#10)"><g clip-path="url(#11)"></g><g clip-path="url(#12)"></g></g><g clip-path="url(#13)"><g clip-path="url(#14)"></g><g clip-path="url(#15)"></g></g><g clip-path="url(#16)"><g clip-path="url(#17)"></g><g clip-path="url(#18)"></g></g><g clip-path="url(#19)"><g clip-path="url(#20)"></g><g clip-path="url(#21)"></g></g><path transform="matrix(1 0 0 -1 0 595)" d="M108.02 458.02L108.5 458.02L108.5 458.02L108.5 458.5L108.5 458.5L108.02 458.5z" stroke="none" fill="#000000" fill-rule="evenodd" /><path transform="matrix(1 0 0 -1 0 595)" d="M108.02 458.02L108.5 458.02L108.5 458.02L108.5 458.5L108.5 458.5L108.02 458.5z" stroke="none" fill="#000000" fill-rule="evenodd" /><path transform="matrix(1 0 0 -1 0 595)" d="M108.5 458.02L178.1 458.02L178.1 458.02L178.1 458.5L178.1 458.5L108.5 458.5z" stroke="none" fill="#000000" fill-rule="evenodd" /><path transform="matrix(1 0 0 -1 0 595)" d="M178.1 458.02L178.58 458.02L178.58 458.02L178.58 458.5L178.58 458.5L178.1 458.5z" stroke="none" fill="#000000" fill-rule="evenodd" /><path transform="matrix(1 0 0 -1 0 595)" d="M178.58 458.02L412.12 458.02L412.12 458.02L412.12 458.5L412.12 458.5L178.58 458.5z" stroke="none" fill="#000000" fill-rule="evenodd" /><path transform="matrix(1 0 0 -1 0 595)" d="M412.13 458.02L412.61 458.02L412.61 458.02L412.61 458.5L412.61 458.5L412.13 458.5z" stroke="none" fill="#000000" fill-rule="evenodd" /><path transform="matrix(1 0 0 -1 0 595)" d="M412.61 458.02L628.42 458.02L628.42 458.02L628.42 458.5L628.42 458.5L412.61 458.5z" stroke="none" fill="#000000" fill-rule="evenodd" /><path transform="matrix(1 0 0 -1 0 595)" d="M628.42 458.02L628.9 458.02L628.9 458.02L628.9 458.5L628.9 458.5L628.42 458.5z" stroke="none" fill="#000000" fill-rule="evenodd" /><path transform="matrix(1 0 0 -1 0 595)" d="M628.9 458.02L733.54 458.02L733.54 458.02L733.54 458.5L733.54 458.5L628.9 458.5z" stroke="none" fill="#000000" fill-rule="evenodd" /><path transform="matrix(1 0 0 -1 0 595)" d="M733.54 458.02L734.02 458.02L734.02 458.02L734.02 458.5L734.02 458.5L733.54 458.5z" stroke="none" fill="#000000" fill-rule="evenodd" /><path transform="matrix(1 0 0 -1 0 595)" d="M733.54 458.02L734.02 458.02L734.02 458.02L734.02 458.5L734.02 458.5L733.54 458.5z" stroke="none" fill="#000000" fill-rule="evenodd" /><path transform="matrix(1 0 0 -1 0 595)" d="M108.02 423.1L108.5 423.1L108.5 423.1L108.5 458.02L108.5 458.02L108.02 458.02z" stroke="none" fill="#000000" fill-rule="evenodd" /><path transform="matrix(1 0 0 -1 0 595)" d="M178.1 423.1L178.58 423.1L178.58 423.1L178.58 458.02L178.58 458.02L178.1 458.02z" stroke="none" fill="#000000" fill-rule="evenodd" /><path transform="matrix(1 0 0 -1 0 595)" d="M412.13 423.1L412.37 423.1L412.37 423.1L412.37 458.02L412.37 458.02L412.13 458.02z" stroke="none" fill="#000000" fill-rule="evenodd" /><path transform="matrix(1 0 0 -1 0 595)" d="M628.42 423.1L628.66 423.1L628.66 423.1L628.66 458.02L628.66 458.02L628.42 458.02z" stroke="none" fill="#000000" fill-rule="evenodd" /><path transform="matrix(1 0 0 -1 0 595)" d="M733.54 423.1L734.02 423.1L734.02 423.1L734.02 458.02L734.02 458.02L733.54 458.02z" stroke="none" fill="#000000" fill-rule="evenodd" /><g clip-path="url(#22)"><g clip-path="url(#23)"></g><g clip-path="url(#24)"></g></g><g clip-path="url(#25)"><g clip-path="url(#26)"></g></g><g clip-path="url(#27)"><g clip-path="url(#28)"></g><g clip-path="url(#29)"></g></g><g clip-path="url(#30)"><g clip-path="url(#31)"></g></g><path transform="matrix(1 0 0 -1 0 595)" d="M108.02 422.62L108.5 422.62L108.5 422.62L108.5 423.1L108.5 423.1L108.02 423.1z" stroke="none" fill="#000000" fill-rule="evenodd" /><path transform="matrix(1 0 0 -1 0 595)" d="M108.5 422.62L178.1 422.62L178.1 422.62L178.1 423.1L178.1 423.1L108.5 423.1z" stroke="none" fill="#000000" fill-rule="evenodd" /><path transform="matrix(1 0 0 -1 0 595)" d="M178.1 422.62L178.58 422.62L178.58 422.62L178.58 423.1L178.58 423.1L178.1 423.1z" stroke="none" fill="#000000" fill-rule="evenodd" /><path transform="matrix(1 0 0 -1 0 595)" d="M178.58 422.62L179.06 422.62L179.06 422.62L179.06 423.1L179.06 423.1L178.58 423.1z" stroke="none" fill="#000000" fill-rule="evenodd" /><path transform="matrix(1 0 0 -1 0 595)" d="M179.06 422.62L412.12 422.62L412.12 422.62L412.12 423.1L412.12 423.1L179.06 423.1z" stroke="none" fill="#000000" fill-rule="evenodd" /><path transform="matrix(1 0 0 -1 0 595)" d="M412.13 422.62L412.61 422.62L412.61 422.62L412.61 423.1L412.61 423.1L412.13 423.1z" stroke="none" fill="#000000" fill-rule="evenodd" /><path transform="matrix(1 0 0 -1 0 595)" d="M412.61 422.62L628.42 422.62L628.42 422.62L628.42 423.1L628.42 423.1L412.61 423.1z" stroke="none" fill="#000000" fill-rule="evenodd" /><path transform="matrix(1 0 0 -1 0 595)" d="M628.42 422.62L628.9 422.62L628.9 422.62L628.9 423.1L628.9 423.1L628.42 423.1z" stroke="none" fill="#000000" fill-rule="evenodd" /><path transform="matrix(1 0 0 -1 0 595)" d="M628.9 422.62L733.54 422.62L733.54 422.62L733.54 423.1L733.54 423.1L628.9 423.1z" stroke="none" fill="#000000" fill-rule="evenodd" /><path transform="matrix(1 0 0 -1 0 595)" d="M733.54 422.62L734.02 422.62L734.02 422.62L734.02 423.1L734.02 423.1L733.54 423.1z" stroke="none" fill="#000000" fill-rule="evenodd" /><path transform="matrix(1 0 0 -1 0 595)" d="M108.02 387.07L108.5 387.07L108.5 387.07L108.5 422.614L108.5 422.614L108.02 422.614z" stroke="none" fill="#000000" fill-rule="evenodd" /><path transform="matrix(1 0 0 -1 0 595)" d="M178.22 387.07L178.46 387.07L178.46 387.07L178.46 422.614L178.46 422.614L178.22 422.614z" stroke="none" fill="#000000" fill-rule="evenodd" /><path transform="matrix(1 0 0 -1 0 595)" d="M412.13 387.07L412.37 387.07L412.37 387.07L412.37 422.614L412.37 422.614L412.13 422.614z" stroke="none" fill="#000000" fill-rule="evenodd" /><path transform="matrix(1 0 0 -1 0 595)" d="M628.42 387.07L628.66 387.07L628.66 387.07L628.66 422.614L628.66 422.614L628.42 422.614z" stroke="none" fill="#000000" fill-rule="evenodd" /><path transform="matrix(1 0 0 -1 0 595)" d="M733.54 387.07L734.02 387.07L734.02 387.07L734.02 422.614L734.02 422.614L733.54 422.614z" stroke="none" fill="#000000" fill-rule="evenodd" /><g clip-path="url(#32)"><g clip-path="url(#33)"></g><g clip-path="url(#34)"></g></g><g clip-path="url(#35)"><g clip-path="url(#36)"></g></g><g clip-path="url(#37)"><g clip-path="url(#38)"></g><g clip-path="url(#39)"></g></g><g clip-path="url(#40)"><g clip-path="url(#41)"></g><g clip-path="url(#42)"></g></g><path transform="matrix(1 0 0 -1 0 595)" d="M108.02 386.59L108.5 386.59L108.5 386.59L108.5 387.07L108.5 387.07L108.02 387.07z" stroke="none" fill="#000000" fill-rule="evenodd" /><path transform="matrix(1 0 0 -1 0 595)" d="M108.5 386.59L178.22 386.59L178.22 386.59L178.22 387.07L178.22 387.07L108.5 387.07z" stroke="none" fill="#000000" fill-rule="evenodd" /><path transform="matrix(1 0 0 -1 0 595)" d="M178.22 386.59L178.7 386.59L178.7 386.59L178.7 387.07L178.7 387.07L178.22 387.07z" stroke="none" fill="#000000" fill-rule="evenodd" /><path transform="matrix(1 0 0 -1 0 595)" d="M178.7 386.59L412.12 386.59L412.12 386.59L412.12 387.07L412.12 387.07L178.7 387.07z" stroke="none" fill="#000000" fill-rule="evenodd" /><path transform="matrix(1 0 0 -1 0 595)" d="M412.13 386.59L412.61 386.59L412.61 386.59L412.61 387.07L412.61 387.07L412.13 387.07z" stroke="none" fill="#000000" fill-rule="evenodd" /><path transform="matrix(1 0 0 -1 0 595)" d="M412.61 386.59L628.42 386.59L628.42 386.59L628.42 387.07L628.42 387.07L412.61 387.07z" stroke="none" fill="#000000" fill-rule="evenodd" /><path transform="matrix(1 0 0 -1 0 595)" d="M628.42 386.59L628.9 386.59L628.9 386.59L628.9 387.07L628.9 387.07L628.42 387.07z" stroke="none" fill="#000000" fill-rule="evenodd" /><path transform="matrix(1 0 0 -1 0 595)" d="M628.9 386.59L733.54 386.59L733.54 386.59L733.54 387.07L733.54 387.07L628.9 387.07z" stroke="none" fill="#000000" fill-rule="evenodd" /><path transform="matrix(1 0 0 -1 0 595)" d="M733.54 386.59L734.02 386.59L734.02 386.59L734.02 387.07L734.02 387.07L733.54 387.07z" stroke="none" fill="#000000" fill-rule="evenodd" /><path transform="matrix(1 0 0 -1 0 595)" d="M108.02 352.03L108.5 352.03L108.5 352.03L108.5 386.59L108.5 386.59L108.02 386.59z" stroke="none" fill="#000000" fill-rule="evenodd" /><path transform="matrix(1 0 0 -1 0 595)" d="M178.22 352.03L178.46 352.03L178.46 352.03L178.46 386.59L178.46 386.59L178.22 386.59z" stroke="none" fill="#000000" fill-rule="evenodd" /><path transform="matrix(1 0 0 -1 0 595)" d="M412.13 352.03L412.37 352.03L412.37 352.03L412.37 386.59L412.37 386.59L412.13 386.59z" stroke="none" fill="#000000" fill-rule="evenodd" /><path transform="matrix(1 0 0 -1 0 595)" d="M628.42 352.03L628.66 352.03L628.66 352.03L628.66 386.59L628.66 386.59L628.42 386.59z" stroke="none" fill="#000000" fill-rule="evenodd" /><path transform="matrix(1 0 0 -1 0 595)" d="M733.54 352.03L734.02 352.03L734.02 352.03L734.02 386.59L734.02 386.59L733.54 386.59z" stroke="none" fill="#000000" fill-rule="evenodd" /><g clip-path="url(#43)"><g clip-path="url(#44)"></g><g clip-path="url(#45)"></g></g><g clip-path="url(#46)"><g clip-path="url(#47)"></g></g><g clip-path="url(#48)"><g clip-path="url(#49)"></g><g clip-path="url(#50)"></g></g><g clip-path="url(#51)"><g clip-path="url(#52)"></g></g><path transform="matrix(1 0 0 -1 0 595)" d="M108.02 351.55L108.5 351.55L108.5 351.55L108.5 352.03L108.5 352.03L108.02 352.03z" stroke="none" fill="#000000" fill-rule="evenodd" /><path transform="matrix(1 0 0 -1 0 595)" d="M108.5 351.55L178.1 351.55L178.1 351.55L178.1 352.03L178.1 352.03L108.5 352.03z" stroke="none" fill="#000000" fill-rule="evenodd" /><path transform="matrix(1 0 0 -1 0 595)" d="M178.1 351.55L178.58 351.55L178.58 351.55L178.58 352.03L178.58 352.03L178.1 352.03z" stroke="none" fill="#000000" fill-rule="evenodd" /><path transform="matrix(1 0 0 -1 0 595)" d="M178.58 351.55L179.06 351.55L179.06 351.55L179.06 352.03L179.06 352.03L178.58 352.03z" stroke="none" fill="#000000" fill-rule="evenodd" /><path transform="matrix(1 0 0 -1 0 595)" d="M179.06 351.55L412.12 351.55L412.12 351.55L412.12 352.03L412.12 352.03L179.06 352.03z" stroke="none" fill="#000000" fill-rule="evenodd" /><path transform="matrix(1 0 0 -1 0 595)" d="M412.13 351.55L412.61 351.55L412.61 351.55L412.61 352.03L412.61 352.03L412.13 352.03z" stroke="none" fill="#000000" fill-rule="evenodd" /><path transform="matrix(1 0 0 -1 0 595)" d="M412.61 351.55L628.42 351.55L628.42 351.55L628.42 352.03L628.42 352.03L412.61 352.03z" stroke="none" fill="#000000" fill-rule="evenodd" /><path transform="matrix(1 0 0 -1 0 595)" d="M628.42 351.55L628.9 351.55L628.9 351.55L628.9 352.03L628.9 352.03L628.42 352.03z" stroke="none" fill="#000000" fill-rule="evenodd" /><path transform="matrix(1 0 0 -1 0 595)" d="M628.9 351.55L733.54 351.55L733.54 351.55L733.54 352.03L733.54 352.03L628.9 352.03z" stroke="none" fill="#000000" fill-rule="evenodd" /><path transform="matrix(1 0 0 -1 0 595)" d="M733.54 351.55L734.02 351.55L734.02 351.55L734.02 352.03L734.02 352.03L733.54 352.03z" stroke="none" fill="#000000" fill-rule="evenodd" /><path transform="matrix(1 0 0 -1 0 595)" d="M108.02 316.51L108.5 316.51L108.5 316.51L108.5 351.55L108.5 351.55L108.02 351.55z" stroke="none" fill="#000000" fill-rule="evenodd" /><path transform="matrix(1 0 0 -1 0 595)" d="M178.1 316.51L178.58 316.51L178.58 316.51L178.58 351.55L178.58 351.55L178.1 351.55z" stroke="none" fill="#000000" fill-rule="evenodd" /><path transform="matrix(1 0 0 -1 0 595)" d="M412.13 316.51L412.37 316.51L412.37 316.51L412.37 351.55L412.37 351.55L412.13 351.55z" stroke="none" fill="#000000" fill-rule="evenodd" /><path transform="matrix(1 0 0 -1 0 595)" d="M628.42 316.51L628.66 316.51L628.66 316.51L628.66 351.55L628.66 351.55L628.42 351.55z" stroke="none" fill="#000000" fill-rule="evenodd" /><path transform="matrix(1 0 0 -1 0 595)" d="M733.54 316.51L734.02 316.51L734.02 316.51L734.02 351.55L734.02 351.55L733.54 351.55z" stroke="none" fill="#000000" fill-rule="evenodd" /><g clip-path="url(#53)"><g clip-path="url(#54)"></g><g clip-path="url(#55)"></g></g><g clip-path="url(#56)"><g clip-path="url(#57)"></g><g clip-path="url(#58)"></g></g><g clip-path="url(#59)"><g clip-path="url(#60)"></g><g clip-path="url(#61)"></g></g><g clip-path="url(#62)"><g clip-path="url(#63)"></g><g clip-path="url(#64)"></g></g><path transform="matrix(1 0 0 -1 0 595)" d="M108.02 316.03L108.5 316.03L108.5 316.03L108.5 316.51L108.5 316.51L108.02 316.51z" stroke="none" fill="#000000" fill-rule="evenodd" /><path transform="matrix(1 0 0 -1 0 595)" d="M108.5 316.03L178.1 316.03L178.1 316.03L178.1 316.51L178.1 316.51L108.5 316.51z" stroke="none" fill="#000000" fill-rule="evenodd" /><path transform="matrix(1 0 0 -1 0 595)" d="M178.1 316.03L178.58 316.03L178.58 316.03L178.58 316.51L178.58 316.51L178.1 316.51z" stroke="none" fill="#000000" fill-rule="evenodd" /><path transform="matrix(1 0 0 -1 0 595)" d="M178.58 316.03L412.12 316.03L412.12 316.03L412.12 316.51L412.12 316.51L178.58 316.51z" stroke="none" fill="#000000" fill-rule="evenodd" /><path transform="matrix(1 0 0 -1 0 595)" d="M412.13 316.03L412.61 316.03L412.61 316.03L412.61 316.51L412.61 316.51L412.13 316.51z" stroke="none" fill="#000000" fill-rule="evenodd" /><path transform="matrix(1 0 0 -1 0 595)" d="M412.61 316.03L628.42 316.03L628.42 316.03L628.42 316.51L628.42 316.51L412.61 316.51z" stroke="none" fill="#000000" fill-rule="evenodd" /><path transform="matrix(1 0 0 -1 0 595)" d="M628.42 316.03L628.9 316.03L628.9 316.03L628.9 316.51L628.9 316.51L628.42 316.51z" stroke="none" fill="#000000" fill-rule="evenodd" /><path transform="matrix(1 0 0 -1 0 595)" d="M628.9 316.03L733.54 316.03L733.54 316.03L733.54 316.51L733.54 316.51L628.9 316.51z" stroke="none" fill="#000000" fill-rule="evenodd" /><path transform="matrix(1 0 0 -1 0 595)" d="M733.54 316.03L734.02 316.03L734.02 316.03L734.02 316.51L734.02 316.51L733.54 316.51z" stroke="none" fill="#000000" fill-rule="evenodd" /><path transform="matrix(1 0 0 -1 0 595)" d="M108.02 281.81L108.5 281.81L108.5 281.81L108.5 316.034L108.5 316.034L108.02 316.034z" stroke="none" fill="#000000" fill-rule="evenodd" /><path transform="matrix(1 0 0 -1 0 595)" d="M178.1 281.81L178.58 281.81L178.58 281.81L178.58 316.034L178.58 316.034L178.1 316.034z" stroke="none" fill="#000000" fill-rule="evenodd" /><path transform="matrix(1 0 0 -1 0 595)" d="M412.13 281.81L412.37 281.81L412.37 281.81L412.37 316.034L412.37 316.034L412.13 316.034z" stroke="none" fill="#000000" fill-rule="evenodd" /><path transform="matrix(1 0 0 -1 0 595)" d="M628.42 281.81L628.66 281.81L628.66 281.81L628.66 316.034L628.66 316.034L628.42 316.034z" stroke="none" fill="#000000" fill-rule="evenodd" /><path transform="matrix(1 0 0 -1 0 595)" d="M733.54 281.81L734.02 281.81L734.02 281.81L734.02 316.034L734.02 316.034L733.54 316.034z" stroke="none" fill="#000000" fill-rule="evenodd" /><g clip-path="url(#65)"><g clip-path="url(#66)"></g><g clip-path="url(#67)"></g></g><g clip-path="url(#68)"><g clip-path="url(#69)"></g></g><g clip-path="url(#70)"><g clip-path="url(#71)"></g><g clip-path="url(#72)"></g></g><g clip-path="url(#73)"><g clip-path="url(#74)"></g></g><path transform="matrix(1 0 0 -1 0 595)" d="M108.02 281.33L108.5 281.33L108.5 281.33L108.5 281.81L108.5 281.81L108.02 281.81z" stroke="none" fill="#000000" fill-rule="evenodd" /><path transform="matrix(1 0 0 -1 0 595)" d="M108.5 281.33L178.1 281.33L178.1 281.33L178.1 281.81L178.1 281.81L108.5 281.81z" stroke="none" fill="#000000" fill-rule="evenodd" /><path transform="matrix(1 0 0 -1 0 595)" d="M178.1 281.33L178.58 281.33L178.58 281.33L178.58 281.81L178.58 281.81L178.1 281.81z" stroke="none" fill="#000000" fill-rule="evenodd" /><path transform="matrix(1 0 0 -1 0 595)" d="M178.58 281.33L412.12 281.33L412.12 281.33L412.12 281.81L412.12 281.81L178.58 281.81z" stroke="none" fill="#000000" fill-rule="evenodd" /><path transform="matrix(1 0 0 -1 0 595)" d="M412.13 281.33L412.61 281.33L412.61 281.33L412.61 281.81L412.61 281.81L412.13 281.81z" stroke="none" fill="#000000" fill-rule="evenodd" /><path transform="matrix(1 0 0 -1 0 595)" d="M412.61 281.33L628.42 281.33L628.42 281.33L628.42 281.81L628.42 281.81L412.61 281.81z" stroke="none" fill="#000000" fill-rule="evenodd" /><path transform="matrix(1 0 0 -1 0 595)" d="M628.42 281.33L628.9 281.33L628.9 281.33L628.9 281.81L628.9 281.81L628.42 281.81z" stroke="none" fill="#000000" fill-rule="evenodd" /><path transform="matrix(1 0 0 -1 0 595)" d="M628.9 281.33L733.54 281.33L733.54 281.33L733.54 281.81L733.54 281.81L628.9 281.81z" stroke="none" fill="#000000" fill-rule="evenodd" /><path transform="matrix(1 0 0 -1 0 595)" d="M733.54 281.33L734.02 281.33L734.02 281.33L734.02 281.81L734.02 281.81L733.54 281.81z" stroke="none" fill="#000000" fill-rule="evenodd" /><path transform="matrix(1 0 0 -1 0 595)" d="M108.02 246.05L108.5 246.05L108.5 246.05L108.5 281.33L108.5 281.33L108.02 281.33z" stroke="none" fill="#000000" fill-rule="evenodd" /><path transform="matrix(1 0 0 -1 0 595)" d="M178.1 246.05L178.58 246.05L178.58 246.05L178.58 281.33L178.58 281.33L178.1 281.33z" stroke="none" fill="#000000" fill-rule="evenodd" /><path transform="matrix(1 0 0 -1 0 595)" d="M412.13 246.05L412.37 246.05L412.37 246.05L412.37 281.33L412.37 281.33L412.13 281.33z" stroke="none" fill="#000000" fill-rule="evenodd" /><path transform="matrix(1 0 0 -1 0 595)" d="M628.42 246.05L628.66 246.05L628.66 246.05L628.66 281.33L628.66 281.33L628.42 281.33z" stroke="none" fill="#000000" fill-rule="evenodd" /><path transform="matrix(1 0 0 -1 0 595)" d="M733.54 246.05L734.02 246.05L734.02 246.05L734.02 281.33L734.02 281.33L733.54 281.33z" stroke="none" fill="#000000" fill-rule="evenodd" /><g clip-path="url(#75)"><g clip-path="url(#76)"></g><g clip-path="url(#77)"></g></g><g clip-path="url(#78)"><g clip-path="url(#79)"></g></g><g clip-path="url(#80)"><g clip-path="url(#81)"></g><g clip-path="url(#82)"></g></g><g clip-path="url(#83)"><g clip-path="url(#84)"></g><g clip-path="url(#85)"></g></g><path transform="matrix(1 0 0 -1 0 595)" d="M108.02 245.57L108.5 245.57L108.5 245.57L108.5 246.05L108.5 246.05L108.02 246.05z" stroke="none" fill="#000000" fill-rule="evenodd" /><path transform="matrix(1 0 0 -1 0 595)" d="M108.5 245.57L178.1 245.57L178.1 245.57L178.1 246.05L178.1 246.05L108.5 246.05z" stroke="none" fill="#000000" fill-rule="evenodd" /><path transform="matrix(1 0 0 -1 0 595)" d="M178.1 245.57L178.58 245.57L178.58 245.57L178.58 246.05L178.58 246.05L178.1 246.05z" stroke="none" fill="#000000" fill-rule="evenodd" /><path transform="matrix(1 0 0 -1 0 595)" d="M178.58 245.57L412.12 245.57L412.12 245.57L412.12 246.05L412.12 246.05L178.58 246.05z" stroke="none" fill="#000000" fill-rule="evenodd" /><path transform="matrix(1 0 0 -1 0 595)" d="M412.13 245.57L412.61 245.57L412.61 245.57L412.61 246.05L412.61 246.05L412.13 246.05z" stroke="none" fill="#000000" fill-rule="evenodd" /><path transform="matrix(1 0 0 -1 0 595)" d="M412.61 245.57L628.42 245.57L628.42 245.57L628.42 246.05L628.42 246.05L412.61 246.05z" stroke="none" fill="#000000" fill-rule="evenodd" /><path transform="matrix(1 0 0 -1 0 595)" d="M628.42 245.57L628.9 245.57L628.9 245.57L628.9 246.05L628.9 246.05L628.42 246.05z" stroke="none" fill="#000000" fill-rule="evenodd" /><path transform="matrix(1 0 0 -1 0 595)" d="M628.9 245.57L733.54 245.57L733.54 245.57L733.54 246.05L733.54 246.05L628.9 246.05z" stroke="none" fill="#000000" fill-rule="evenodd" /><path transform="matrix(1 0 0 -1 0 595)" d="M733.54 245.57L734.02 245.57L734.02 245.57L734.02 246.05L734.02 246.05L733.54 246.05z" stroke="none" fill="#000000" fill-rule="evenodd" /><path transform="matrix(1 0 0 -1 0 595)" d="M108.02 210.41L108.5 210.41L108.5 210.41L108.5 245.57L108.5 245.57L108.02 245.57z" stroke="none" fill="#000000" fill-rule="evenodd" /><path transform="matrix(1 0 0 -1 0 595)" d="M178.1 210.41L178.58 210.41L178.58 210.41L178.58 245.57L178.58 245.57L178.1 245.57z" stroke="none" fill="#000000" fill-rule="evenodd" /><path transform="matrix(1 0 0 -1 0 595)" d="M412.13 210.41L412.37 210.41L412.37 210.41L412.37 245.57L412.37 245.57L412.13 245.57z" stroke="none" fill="#000000" fill-rule="evenodd" /><path transform="matrix(1 0 0 -1 0 595)" d="M628.42 210.41L628.66 210.41L628.66 210.41L628.66 245.57L628.66 245.57L628.42 245.57z" stroke="none" fill="#000000" fill-rule="evenodd" /><path transform="matrix(1 0 0 -1 0 595)" d="M733.54 210.41L734.02 210.41L734.02 210.41L734.02 245.57L734.02 245.57L733.54 245.57z" stroke="none" fill="#000000" fill-rule="evenodd" /><g clip-path="url(#86)"><g clip-path="url(#87)"></g><g clip-path="url(#88)"></g></g><g clip-path="url(#89)"><g clip-path="url(#90)"></g></g><g clip-path="url(#91)"><g clip-path="url(#92)"></g><g clip-path="url(#93)"></g></g><g clip-path="url(#94)"><g clip-path="url(#95)"></g><g clip-path="url(#96)"></g></g><path transform="matrix(1 0 0 -1 0 595)" d="M108.02 209.93L108.5 209.93L108.5 209.93L108.5 210.41L108.5 210.41L108.02 210.41z" stroke="none" fill="#000000" fill-rule="evenodd" /><path transform="matrix(1 0 0 -1 0 595)" d="M108.5 209.93L178.1 209.93L178.1 209.93L178.1 210.41L178.1 210.41L108.5 210.41z" stroke="none" fill="#000000" fill-rule="evenodd" /><path transform="matrix(1 0 0 -1 0 595)" d="M178.1 209.93L178.58 209.93L178.58 209.93L178.58 210.41L178.58 210.41L178.1 210.41z" stroke="none" fill="#000000" fill-rule="evenodd" /><path transform="matrix(1 0 0 -1 0 595)" d="M178.58 209.93L412.12 209.93L412.12 209.93L412.12 210.41L412.12 210.41L178.58 210.41z" stroke="none" fill="#000000" fill-rule="evenodd" /><path transform="matrix(1 0 0 -1 0 595)" d="M412.13 209.93L412.61 209.93L412.61 209.93L412.61 210.41L412.61 210.41L412.13 210.41z" stroke="none" fill="#000000" fill-rule="evenodd" /><path transform="matrix(1 0 0 -1 0 595)" d="M412.61 209.93L628.42 209.93L628.42 209.93L628.42 210.41L628.42 210.41L412.61 210.41z" stroke="none" fill="#000000" fill-rule="evenodd" /><path transform="matrix(1 0 0 -1 0 595)" d="M628.42 209.93L628.9 209.93L628.9 209.93L628.9 210.41L628.9 210.41L628.42 210.41z" stroke="none" fill="#000000" fill-rule="evenodd" /><path transform="matrix(1 0 0 -1 0 595)" d="M628.9 209.93L733.54 209.93L733.54 209.93L733.54 210.41L733.54 210.41L628.9 210.41z" stroke="none" fill="#000000" fill-rule="evenodd" /><path transform="matrix(1 0 0 -1 0 595)" d="M733.54 209.93L734.02 209.93L734.02 209.93L734.02 210.41L734.02 210.41L733.54 210.41z" stroke="none" fill="#000000" fill-rule="evenodd" /><path transform="matrix(1 0 0 -1 0 595)" d="M108.02 174.98L108.5 174.98L108.5 174.98L108.5 209.924L108.5 209.924L108.02 209.924z" stroke="none" fill="#000000" fill-rule="evenodd" /><path transform="matrix(1 0 0 -1 0 595)" d="M178.1 174.98L178.58 174.98L178.58 174.98L178.58 209.924L178.58 209.924L178.1 209.924z" stroke="none" fill="#000000" fill-rule="evenodd" /><path transform="matrix(1 0 0 -1 0 595)" d="M412.13 174.98L412.37 174.98L412.37 174.98L412.37 209.924L412.37 209.924L412.13 209.924z" stroke="none" fill="#000000" fill-rule="evenodd" /><path transform="matrix(1 0 0 -1 0 595)" d="M628.42 174.98L628.66 174.98L628.66 174.98L628.66 209.924L628.66 209.924L628.42 209.924z" stroke="none" fill="#000000" fill-rule="evenodd" /><path transform="matrix(1 0 0 -1 0 595)" d="M733.54 174.98L734.02 174.98L734.02 174.98L734.02 209.924L734.02 209.924L733.54 209.924z" stroke="none" fill="#000000" fill-rule="evenodd" /><g clip-path="url(#97)"><g clip-path="url(#98)"></g><g clip-path="url(#99)"></g></g><g clip-path="url(#100)"><g clip-path="url(#101)"></g><g clip-path="url(#102)"></g></g><g clip-path="url(#103)"><g clip-path="url(#104)"></g><g clip-path="url(#105)"></g></g><g clip-path="url(#106)"><g clip-path="url(#107)"></g><g clip-path="url(#108)"></g></g><path transform="matrix(1 0 0 -1 0 595)" d="M108.02 174.5L108.5 174.5L108.5 174.5L108.5 174.98L108.5 174.98L108.02 174.98z" stroke="none" fill="#000000" fill-rule="evenodd" /><path transform="matrix(1 0 0 -1 0 595)" d="M108.5 174.5L178.1 174.5L178.1 174.5L178.1 174.98L178.1 174.98L108.5 174.98z" stroke="none" fill="#000000" fill-rule="evenodd" /><path transform="matrix(1 0 0 -1 0 595)" d="M178.1 174.5L178.58 174.5L178.58 174.5L178.58 174.98L178.58 174.98L178.1 174.98z" stroke="none" fill="#000000" fill-rule="evenodd" /><path transform="matrix(1 0 0 -1 0 595)" d="M178.58 174.5L412.12 174.5L412.12 174.5L412.12 174.98L412.12 174.98L178.58 174.98z" stroke="none" fill="#000000" fill-rule="evenodd" /><path transform="matrix(1 0 0 -1 0 595)" d="M412.13 174.5L412.61 174.5L412.61 174.5L412.61 174.98L412.61 174.98L412.13 174.98z" stroke="none" fill="#000000" fill-rule="evenodd" /><path transform="matrix(1 0 0 -1 0 595)" d="M412.61 174.5L628.42 174.5L628.42 174.5L628.42 174.98L628.42 174.98L412.61 174.98z" stroke="none" fill="#000000" fill-rule="evenodd" /><path transform="matrix(1 0 0 -1 0 595)" d="M628.42 174.5L628.9 174.5L628.9 174.5L628.9 174.98L628.9 174.98L628.42 174.98z" stroke="none" fill="#000000" fill-rule="evenodd" /><path transform="matrix(1 0 0 -1 0 595)" d="M628.9 174.5L733.54 174.5L733.54 174.5L733.54 174.98L733.54 174.98L628.9 174.98z" stroke="none" fill="#000000" fill-rule="evenodd" /><path transform="matrix(1 0 0 -1 0 595)" d="M733.54 174.5L734.02 174.5L734.02 174.5L734.02 174.98L734.02 174.98L733.54 174.98z" stroke="none" fill="#000000" fill-rule="evenodd" /><path transform="matrix(1 0 0 -1 0 595)" d="M108.02 139.82L108.5 139.82L108.5 139.82L108.5 174.5L108.5 174.5L108.02 174.5z" stroke="none" fill="#000000" fill-rule="evenodd" /><path transform="matrix(1 0 0 -1 0 595)" d="M178.1 139.82L178.58 139.82L178.58 139.82L178.58 174.5L178.58 174.5L178.1 174.5z" stroke="none" fill="#000000" fill-rule="evenodd" /><path transform="matrix(1 0 0 -1 0 595)" d="M412.13 139.82L412.37 139.82L412.37 139.82L412.37 174.5L412.37 174.5L412.13 174.5z" stroke="none" fill="#000000" fill-rule="evenodd" /><path transform="matrix(1 0 0 -1 0 595)" d="M628.42 139.82L628.66 139.82L628.66 139.82L628.66 174.5L628.66 174.5L628.42 174.5z" stroke="none" fill="#000000" fill-rule="evenodd" /><path transform="matrix(1 0 0 -1 0 595)" d="M733.54 139.82L734.02 139.82L734.02 139.82L734.02 174.5L734.02 174.5L733.54 174.5z" stroke="none" fill="#000000" fill-rule="evenodd" /><g clip-path="url(#109)"><g clip-path="url(#110)"></g><g clip-path="url(#111)"></g></g><g clip-path="url(#112)"><g clip-path="url(#113)"></g><g clip-path="url(#114)"></g></g><g clip-path="url(#115)"><g clip-path="url(#116)"></g><g clip-path="url(#117)"></g></g><g clip-path="url(#118)"><g clip-path="url(#119)"></g><g clip-path="url(#120)"></g></g><path transform="matrix(1 0 0 -1 0 595)" d="M108.02 139.34L108.5 139.34L108.5 139.34L108.5 139.82L108.5 139.82L108.02 139.82z" stroke="none" fill="#000000" fill-rule="evenodd" /><path transform="matrix(1 0 0 -1 0 595)" d="M108.5 139.34L178.1 139.34L178.1 139.34L178.1 139.82L178.1 139.82L108.5 139.82z" stroke="none" fill="#000000" fill-rule="evenodd" /><path transform="matrix(1 0 0 -1 0 595)" d="M178.1 139.34L178.58 139.34L178.58 139.34L178.58 139.82L178.58 139.82L178.1 139.82z" stroke="none" fill="#000000" fill-rule="evenodd" /><path transform="matrix(1 0 0 -1 0 595)" d="M178.58 139.34L412.12 139.34L412.12 139.34L412.12 139.82L412.12 139.82L178.58 139.82z" stroke="none" fill="#000000" fill-rule="evenodd" /><path transform="matrix(1 0 0 -1 0 595)" d="M412.13 139.34L412.61 139.34L412.61 139.34L412.61 139.82L412.61 139.82L412.13 139.82z" stroke="none" fill="#000000" fill-rule="evenodd" /><path transform="matrix(1 0 0 -1 0 595)" d="M412.61 139.34L628.42 139.34L628.42 139.34L628.42 139.82L628.42 139.82L412.61 139.82z" stroke="none" fill="#000000" fill-rule="evenodd" /><path transform="matrix(1 0 0 -1 0 595)" d="M628.42 139.34L628.9 139.34L628.9 139.34L628.9 139.82L628.9 139.82L628.42 139.82z" stroke="none" fill="#000000" fill-rule="evenodd" /><path transform="matrix(1 0 0 -1 0 595)" d="M628.9 139.34L733.54 139.34L733.54 139.34L733.54 139.82L733.54 139.82L628.9 139.82z" stroke="none" fill="#000000" fill-rule="evenodd" /><path transform="matrix(1 0 0 -1 0 595)" d="M733.54 139.34L734.02 139.34L734.02 139.34L734.02 139.82L734.02 139.82L733.54 139.82z" stroke="none" fill="#000000" fill-rule="evenodd" /><path transform="matrix(1 0 0 -1 0 595)" d="M108.02 108.14L108.5 108.14L108.5 108.14L108.5 139.34L108.5 139.34L108.02 139.34z" stroke="none" fill="#000000" fill-rule="evenodd" /><path transform="matrix(1 0 0 -1 0 595)" d="M108.02 107.66L108.5 107.66L108.5 107.66L108.5 108.14L108.5 108.14L108.02 108.14z" stroke="none" fill="#000000" fill-rule="evenodd" /><path transform="matrix(1 0 0 -1 0 595)" d="M108.02 107.66L108.5 107.66L108.5 107.66L108.5 108.14L108.5 108.14L108.02 108.14z" stroke="none" fill="#000000" fill-rule="evenodd" /><path transform="matrix(1 0 0 -1 0 595)" d="M108.5 107.66L178.1 107.66L178.1 107.66L178.1 108.14L178.1 108.14L108.5 108.14z" stroke="none" fill="#000000" fill-rule="evenodd" /><path transform="matrix(1 0 0 -1 0 595)" d="M178.1 108.14L178.58 108.14L178.58 108.14L178.58 139.34L178.58 139.34L178.1 139.34z" stroke="none" fill="#000000" fill-rule="evenodd" /><path transform="matrix(1 0 0 -1 0 595)" d="M178.1 107.66L178.58 107.66L178.58 107.66L178.58 108.14L178.58 108.14L178.1 108.14z" stroke="none" fill="#000000" fill-rule="evenodd" /><path transform="matrix(1 0 0 -1 0 595)" d="M178.58 107.66L412.12 107.66L412.12 107.66L412.12 108.14L412.12 108.14L178.58 108.14z" stroke="none" fill="#000000" fill-rule="evenodd" /><path transform="matrix(1 0 0 -1 0 595)" d="M412.13 108.14L412.37 108.14L412.37 108.14L412.37 139.34L412.37 139.34L412.13 139.34z" stroke="none" fill="#000000" fill-rule="evenodd" /><path transform="matrix(1 0 0 -1 0 595)" d="M412.13 107.66L412.61 107.66L412.61 107.66L412.61 108.14L412.61 108.14L412.13 108.14z" stroke="none" fill="#000000" fill-rule="evenodd" /><path transform="matrix(1 0 0 -1 0 595)" d="M412.61 107.66L628.42 107.66L628.42 107.66L628.42 108.14L628.42 108.14L412.61 108.14z" stroke="none" fill="#000000" fill-rule="evenodd" /><path transform="matrix(1 0 0 -1 0 595)" d="M628.42 108.14L628.66 108.14L628.66 108.14L628.66 139.34L628.66 139.34L628.42 139.34z" stroke="none" fill="#000000" fill-rule="evenodd" /><path transform="matrix(1 0 0 -1 0 595)" d="M628.42 107.66L628.9 107.66L628.9 107.66L628.9 108.14L628.9 108.14L628.42 108.14z" stroke="none" fill="#000000" fill-rule="evenodd" /><path transform="matrix(1 0 0 -1 0 595)" d="M628.9 107.66L733.54 107.66L733.54 107.66L733.54 108.14L733.54 108.14L628.9 108.14z" stroke="none" fill="#000000" fill-rule="evenodd" /><path transform="matrix(1 0 0 -1 0 595)" d="M733.54 108.14L734.02 108.14L734.02 108.14L734.02 139.34L734.02 139.34L733.54 139.34z" stroke="none" fill="#000000" fill-rule="evenodd" /><path transform="matrix(1 0 0 -1 0 595)" d="M733.54 107.66L734.02 107.66L734.02 107.66L734.02 108.14L734.02 108.14L733.54 108.14z" stroke="none" fill="#000000" fill-rule="evenodd" /><path transform="matrix(1 0 0 -1 0 595)" d="M733.54 107.66L734.02 107.66L734.02 107.66L734.02 108.14L734.02 108.14L733.54 108.14z" stroke="none" fill="#000000" fill-rule="evenodd" /></g></g></g></svg>