<svg xmlns="http://www.w3.org/2000/svg" xmlns:xlink="http://www.w3.org/1999/xlink" id="body_8" preserveAspectRatio="xMinYMin meet" viewBox="0 0 1121 793"><defs><clipPath id="1"><path d="M0 595L0 -0.3200073L0 -0.3200073L841.92 -0.3200073L841.92 -0.3200073L841.92 595L841.92 595L0 595z" /></clipPath><clipPath id="2"><path d="M1.2546E-05 595L841.92 595L841.92 595L841.92 -0.3200073L841.92 -0.3200073L1.2546E-05 -0.3200073z" /></clipPath><clipPath id="3"><path d="M1.2546E-05 595L841.92 595L841.92 595L841.92 -0.3200073L841.92 -0.3200073L1.2546E-05 -0.3200073z" /></clipPath><clipPath id="4"><path d="M1.2546E-05 595L841.92 595L841.92 595L841.92 -0.3200073L841.92 -0.3200073L1.2546E-05 -0.3200073z" /></clipPath><clipPath id="5"><path d="M1.2546E-05 595L841.92 595L841.92 595L841.92 -0.3200073L841.92 -0.3200073L1.2546E-05 -0.3200073z" /></clipPath><clipPath id="6"><path d="M1.2546E-05 595L841.92 595L841.92 595L841.92 -0.3200073L841.92 -0.3200073L1.2546E-05 -0.3200073z" /></clipPath><clipPath id="7"><path d="M108.5 125.22L178.1 125.22L178.1 125.22L178.1 90.17999L178.1 90.17999L108.5 90.17999z" /></clipPath><clipPath id="8"><path d="M108.5 125.22L178.1 125.22L178.1 125.22L178.1 90.17999L178.1 90.17999L108.5 90.17999z" /></clipPath><clipPath id="9"><path d="M108.5 125.22L178.1 125.22L178.1 125.22L178.1 90.17999L178.1 90.17999L108.5 90.17999z" /></clipPath><clipPath id="10"><path d="M178.58 125.22L412.12 125.22L412.12 125.22L412.12 90.17999L412.12 90.17999L178.58 90.17999z" /></clipPath><clipPath id="11"><path d="M178.58 125.22L412.12 125.22L412.12 125.22L412.12 90.17999L412.12 90.17999L178.58 90.17999z" /></clipPath><clipPath id="12"><path d="M412.37 125.22L628.42 125.22L628.42 125.22L628.42 90.17999L628.42 90.17999L412.37 90.17999z" /></clipPath><clipPath id="13"><path d="M412.37 125.22L628.42 125.22L628.42 125.22L628.42 90.17999L628.42 90.17999L412.37 90.17999z" /></clipPath><clipPath id="14"><path d="M412.37 125.22L628.42 125.22L628.42 125.22L628.42 90.17999L628.42 90.17999L412.37 90.17999z" /></clipPath><clipPath id="15"><path d="M628.66 125.22L733.54 125.22L733.54 125.22L733.54 90.17999L733.54 90.17999L628.66 90.17999z" /></clipPath><clipPath id="16"><path d="M628.66 125.22L733.54 125.22L733.54 125.22L733.54 90.17999L733.54 90.17999L628.66 90.17999z" /></clipPath><clipPath id="17"><path d="M108.5 160.5L178.1 160.5L178.1 160.5L178.1 125.7L178.1 125.7L108.5 125.7z" /></clipPath><clipPath id="18"><path d="M108.5 160.5L178.1 160.5L178.1 160.5L178.1 125.7L178.1 125.7L108.5 125.7z" /></clipPath><clipPath id="19"><path d="M108.5 160.5L178.1 160.5L178.1 160.5L178.1 125.7L178.1 125.7L108.5 125.7z" /></clipPath><clipPath id="20"><path d="M178.58 160.5L412.12 160.5L412.12 160.5L412.12 125.7L412.12 125.7L178.58 125.7z" /></clipPath><clipPath id="21"><path d="M178.58 160.5L412.12 160.5L412.12 160.5L412.12 125.7L412.12 125.7L178.58 125.7z" /></clipPath><clipPath id="22"><path d="M412.37 160.5L628.42 160.5L628.42 160.5L628.42 125.7L628.42 125.7L412.37 125.7z" /></clipPath><clipPath id="23"><path d="M412.37 160.5L628.42 160.5L628.42 160.5L628.42 125.7L628.42 125.7L412.37 125.7z" /></clipPath><clipPath id="24"><path d="M412.37 160.5L628.42 160.5L628.42 160.5L628.42 125.7L628.42 125.7L412.37 125.7z" /></clipPath><clipPath id="25"><path d="M628.66 160.5L733.54 160.5L733.54 160.5L733.54 125.7L733.54 125.7L628.66 125.7z" /></clipPath><clipPath id="26"><path d="M628.66 160.5L733.54 160.5L733.54 160.5L733.54 125.7L733.54 125.7L628.66 125.7z" /></clipPath><clipPath id="27"><path d="M108.5 195.69L178.1 195.69L178.1 195.69L178.1 161.106L178.1 161.106L108.5 161.106z" /></clipPath><clipPath id="28"><path d="M108.5 195.69L178.1 195.69L178.1 195.69L178.1 161.106L178.1 161.106L108.5 161.106z" /></clipPath><clipPath id="29"><path d="M108.5 195.69L178.1 195.69L178.1 195.69L178.1 161.106L178.1 161.106L108.5 161.106z" /></clipPath><clipPath id="30"><path d="M178.58 195.69L412.12 195.69L412.12 195.69L412.12 161.106L412.12 161.106L178.58 161.106z" /></clipPath><clipPath id="31"><path d="M178.58 195.69L412.12 195.69L412.12 195.69L412.12 161.106L412.12 161.106L178.58 161.106z" /></clipPath><clipPath id="32"><path d="M412.37 195.69L628.42 195.69L628.42 195.69L628.42 161.106L628.42 161.106L412.37 161.106z" /></clipPath><clipPath id="33"><path d="M412.37 195.69L628.42 195.69L628.42 195.69L628.42 161.106L628.42 161.106L412.37 161.106z" /></clipPath><clipPath id="34"><path d="M412.37 195.69L628.42 195.69L628.42 195.69L628.42 161.106L628.42 161.106L412.37 161.106z" /></clipPath><clipPath id="35"><path d="M628.66 195.69L733.54 195.69L733.54 195.69L733.54 161.106L733.54 161.106L628.66 161.106z" /></clipPath><clipPath id="36"><path d="M628.66 195.69L733.54 195.69L733.54 195.69L733.54 161.106L733.54 161.106L628.66 161.106z" /></clipPath><clipPath id="37"><path d="M628.66 195.69L733.54 195.69L733.54 195.69L733.54 161.106L733.54 161.106L628.66 161.106z" /></clipPath><clipPath id="38"><path d="M108.5 231.33L178.1 231.33L178.1 231.33L178.1 196.17L178.1 196.17L108.5 196.17z" /></clipPath><clipPath id="39"><path d="M108.5 231.33L178.1 231.33L178.1 231.33L178.1 196.17L178.1 196.17L108.5 196.17z" /></clipPath><clipPath id="40"><path d="M108.5 231.33L178.1 231.33L178.1 231.33L178.1 196.17L178.1 196.17L108.5 196.17z" /></clipPath><clipPath id="41"><path d="M178.58 231.33L412.12 231.33L412.12 231.33L412.12 196.17L412.12 196.17L178.58 196.17z" /></clipPath><clipPath id="42"><path d="M178.58 231.33L412.12 231.33L412.12 231.33L412.12 196.17L412.12 196.17L178.58 196.17z" /></clipPath><clipPath id="43"><path d="M412.37 231.33L628.42 231.33L628.42 231.33L628.42 196.17L628.42 196.17L412.37 196.17z" /></clipPath><clipPath id="44"><path d="M412.37 231.33L628.42 231.33L628.42 231.33L628.42 196.17L628.42 196.17L412.37 196.17z" /></clipPath><clipPath id="45"><path d="M412.37 231.33L628.42 231.33L628.42 231.33L628.42 196.17L628.42 196.17L412.37 196.17z" /></clipPath><clipPath id="46"><path d="M628.66 231.33L733.54 231.33L733.54 231.33L733.54 196.17L733.54 196.17L628.66 196.17z" /></clipPath><clipPath id="47"><path d="M628.66 231.33L733.54 231.33L733.54 231.33L733.54 196.17L733.54 196.17L628.66 196.17z" /></clipPath><clipPath id="48"><path d="M108.5 263.01L178.1 263.01L178.1 263.01L178.1 231.81L178.1 231.81L108.5 231.81z" /></clipPath><clipPath id="49"><path d="M108.5 263.01L178.1 263.01L178.1 263.01L178.1 231.81L178.1 231.81L108.5 231.81z" /></clipPath><clipPath id="50"><path d="M108.5 263.01L178.1 263.01L178.1 263.01L178.1 231.81L178.1 231.81L108.5 231.81z" /></clipPath><clipPath id="51"><path d="M178.58 263.01L412.12 263.01L412.12 263.01L412.12 231.81L412.12 231.81L178.58 231.81z" /></clipPath><clipPath id="52"><path d="M178.58 263.01L412.12 263.01L412.12 263.01L412.12 231.81L412.12 231.81L178.58 231.81z" /></clipPath><clipPath id="53"><path d="M178.58 263.01L412.12 263.01L412.12 263.01L412.12 231.81L412.12 231.81L178.58 231.81z" /></clipPath><clipPath id="54"><path d="M412.37 263.01L628.42 263.01L628.42 263.01L628.42 231.81L628.42 231.81L412.37 231.81z" /></clipPath><clipPath id="55"><path d="M412.37 263.01L628.42 263.01L628.42 263.01L628.42 231.81L628.42 231.81L412.37 231.81z" /></clipPath><clipPath id="56"><path d="M412.37 263.01L628.42 263.01L628.42 263.01L628.42 231.81L628.42 231.81L412.37 231.81z" /></clipPath><clipPath id="57"><path d="M628.66 263.01L733.54 263.01L733.54 263.01L733.54 231.81L733.54 231.81L628.66 231.81z" /></clipPath><clipPath id="58"><path d="M628.66 263.01L733.54 263.01L733.54 263.01L733.54 231.81L733.54 231.81L628.66 231.81z" /></clipPath><clipPath id="59"><path d="M628.66 263.01L733.54 263.01L733.54 263.01L733.54 231.81L733.54 231.81L628.66 231.81z" /></clipPath><clipPath id="60"><path d="M108.5 294.69L178.1 294.69L178.1 294.69L178.1 263.49L178.1 263.49L108.5 263.49z" /></clipPath><clipPath id="61"><path d="M108.5 294.69L178.1 294.69L178.1 294.69L178.1 263.49L178.1 263.49L108.5 263.49z" /></clipPath><clipPath id="62"><path d="M108.5 294.69L178.1 294.69L178.1 294.69L178.1 263.49L178.1 263.49L108.5 263.49z" /></clipPath><clipPath id="63"><path d="M178.58 294.69L412.12 294.69L412.12 294.69L412.12 263.49L412.12 263.49L178.58 263.49z" /></clipPath><clipPath id="64"><path d="M178.58 294.69L412.12 294.69L412.12 294.69L412.12 263.49L412.12 263.49L178.58 263.49z" /></clipPath><clipPath id="65"><path d="M412.37 294.69L628.42 294.69L628.42 294.69L628.42 263.49L628.42 263.49L412.37 263.49z" /></clipPath><clipPath id="66"><path d="M412.37 294.69L628.42 294.69L628.42 294.69L628.42 263.49L628.42 263.49L412.37 263.49z" /></clipPath><clipPath id="67"><path d="M412.37 294.69L628.42 294.69L628.42 294.69L628.42 263.49L628.42 263.49L412.37 263.49z" /></clipPath><clipPath id="68"><path d="M628.66 294.69L733.54 294.69L733.54 294.69L733.54 263.49L733.54 263.49L628.66 263.49z" /></clipPath><clipPath id="69"><path d="M628.66 294.69L733.54 294.69L733.54 294.69L733.54 263.49L733.54 263.49L628.66 263.49z" /></clipPath><clipPath id="70"><path d="M628.66 294.69L733.54 294.69L733.54 294.69L733.54 263.49L733.54 263.49L628.66 263.49z" /></clipPath><clipPath id="71"><path d="M108.5 329.75L178.1 329.75L178.1 329.75L178.1 295.166L178.1 295.166L108.5 295.166z" /></clipPath><clipPath id="72"><path d="M108.5 329.75L178.1 329.75L178.1 329.75L178.1 295.166L178.1 295.166L108.5 295.166z" /></clipPath><clipPath id="73"><path d="M108.5 329.75L178.1 329.75L178.1 329.75L178.1 295.166L178.1 295.166L108.5 295.166z" /></clipPath><clipPath id="74"><path d="M178.58 329.75L412.12 329.75L412.12 329.75L412.12 295.166L412.12 295.166L178.58 295.166z" /></clipPath><clipPath id="75"><path d="M178.58 329.75L412.12 329.75L412.12 329.75L412.12 295.166L412.12 295.166L178.58 295.166z" /></clipPath><clipPath id="76"><path d="M178.58 329.75L412.12 329.75L412.12 329.75L412.12 295.166L412.12 295.166L178.58 295.166z" /></clipPath><clipPath id="77"><path d="M412.37 329.75L628.42 329.75L628.42 329.75L628.42 295.166L628.42 295.166L412.37 295.166z" /></clipPath><clipPath id="78"><path d="M412.37 329.75L628.42 329.75L628.42 329.75L628.42 295.166L628.42 295.166L412.37 295.166z" /></clipPath><clipPath id="79"><path d="M412.37 329.75L628.42 329.75L628.42 329.75L628.42 295.166L628.42 295.166L412.37 295.166z" /></clipPath><clipPath id="80"><path d="M628.66 329.75L733.54 329.75L733.54 329.75L733.54 295.166L733.54 295.166L628.66 295.166z" /></clipPath><clipPath id="81"><path d="M628.66 329.75L733.54 329.75L733.54 329.75L733.54 295.166L733.54 295.166L628.66 295.166z" /></clipPath><clipPath id="82"><path d="M628.66 329.75L733.54 329.75L733.54 329.75L733.54 295.166L733.54 295.166L628.66 295.166z" /></clipPath><clipPath id="83"><path d="M108.5 361.55L178.1 361.55L178.1 361.55L178.1 330.35L178.1 330.35L108.5 330.35z" /></clipPath><clipPath id="84"><path d="M108.5 361.55L178.1 361.55L178.1 361.55L178.1 330.35L178.1 330.35L108.5 330.35z" /></clipPath><clipPath id="85"><path d="M108.5 361.55L178.1 361.55L178.1 361.55L178.1 330.35L178.1 330.35L108.5 330.35z" /></clipPath><clipPath id="86"><path d="M178.58 361.55L412.12 361.55L412.12 361.55L412.12 330.35L412.12 330.35L178.58 330.35z" /></clipPath><clipPath id="87"><path d="M178.58 361.55L412.12 361.55L412.12 361.55L412.12 330.35L412.12 330.35L178.58 330.35z" /></clipPath><clipPath id="88"><path d="M412.37 361.55L628.42 361.55L628.42 361.55L628.42 330.35L628.42 330.35L412.37 330.35z" /></clipPath><clipPath id="89"><path d="M412.37 361.55L628.42 361.55L628.42 361.55L628.42 330.35L628.42 330.35L412.37 330.35z" /></clipPath><clipPath id="90"><path d="M412.37 361.55L628.42 361.55L628.42 361.55L628.42 330.35L628.42 330.35L412.37 330.35z" /></clipPath><clipPath id="91"><path d="M628.66 361.55L733.54 361.55L733.54 361.55L733.54 330.35L733.54 330.35L628.66 330.35z" /></clipPath><clipPath id="92"><path d="M628.66 361.55L733.54 361.55L733.54 361.55L733.54 330.35L733.54 330.35L628.66 330.35z" /></clipPath><clipPath id="93"><path d="M628.66 361.55L733.54 361.55L733.54 361.55L733.54 330.35L733.54 330.35L628.66 330.35z" /></clipPath><clipPath id="94"><path d="M108.5 393.23L178.1 393.23L178.1 393.23L178.1 362.03L178.1 362.03L108.5 362.03z" /></clipPath><clipPath id="95"><path d="M108.5 393.23L178.1 393.23L178.1 393.23L178.1 362.03L178.1 362.03L108.5 362.03z" /></clipPath><clipPath id="96"><path d="M108.5 393.23L178.1 393.23L178.1 393.23L178.1 362.03L178.1 362.03L108.5 362.03z" /></clipPath><clipPath id="97"><path d="M178.58 393.23L412.12 393.23L412.12 393.23L412.12 362.03L412.12 362.03L178.58 362.03z" /></clipPath><clipPath id="98"><path d="M178.58 393.23L412.12 393.23L412.12 393.23L412.12 362.03L412.12 362.03L178.58 362.03z" /></clipPath><clipPath id="99"><path d="M178.58 393.23L412.12 393.23L412.12 393.23L412.12 362.03L412.12 362.03L178.58 362.03z" /></clipPath><clipPath id="100"><path d="M412.37 393.23L628.42 393.23L628.42 393.23L628.42 362.03L628.42 362.03L412.37 362.03z" /></clipPath><clipPath id="101"><path d="M412.37 393.23L628.42 393.23L628.42 393.23L628.42 362.03L628.42 362.03L412.37 362.03z" /></clipPath><clipPath id="102"><path d="M412.37 393.23L628.42 393.23L628.42 393.23L628.42 362.03L628.42 362.03L412.37 362.03z" /></clipPath><clipPath id="103"><path d="M412.37 393.23L628.42 393.23L628.42 393.23L628.42 362.03L628.42 362.03L412.37 362.03z" /></clipPath><clipPath id="104"><path d="M412.37 393.23L628.42 393.23L628.42 393.23L628.42 362.03L628.42 362.03L412.37 362.03z" /></clipPath><clipPath id="105"><path d="M628.66 393.23L733.54 393.23L733.54 393.23L733.54 362.03L733.54 362.03L628.66 362.03z" /></clipPath><clipPath id="106"><path d="M628.66 393.23L733.54 393.23L733.54 393.23L733.54 362.03L733.54 362.03L628.66 362.03z" /></clipPath><clipPath id="107"><path d="M628.66 393.23L733.54 393.23L733.54 393.23L733.54 362.03L733.54 362.03L628.66 362.03z" /></clipPath><clipPath id="108"><path d="M108.5 428.9L178.1 428.9L178.1 428.9L178.1 393.716L178.1 393.716L108.5 393.716z" /></clipPath><clipPath id="109"><path d="M108.5 428.9L178.1 428.9L178.1 428.9L178.1 393.716L178.1 393.716L108.5 393.716z" /></clipPath><clipPath id="110"><path d="M108.5 428.9L178.1 428.9L178.1 428.9L178.1 393.716L178.1 393.716L108.5 393.716z" /></clipPath><clipPath id="111"><path d="M178.58 428.9L412.12 428.9L412.12 428.9L412.12 393.716L412.12 393.716L178.58 393.716z" /></clipPath><clipPath id="112"><path d="M178.58 428.9L412.12 428.9L412.12 428.9L412.12 393.716L412.12 393.716L178.58 393.716z" /></clipPath><clipPath id="113"><path d="M178.58 428.9L412.12 428.9L412.12 428.9L412.12 393.716L412.12 393.716L178.58 393.716z" /></clipPath><clipPath id="114"><path d="M412.37 428.9L628.42 428.9L628.42 428.9L628.42 393.716L628.42 393.716L412.37 393.716z" /></clipPath><clipPath id="115"><path d="M412.37 428.9L628.42 428.9L628.42 428.9L628.42 393.716L628.42 393.716L412.37 393.716z" /></clipPath><clipPath id="116"><path d="M412.37 428.9L628.42 428.9L628.42 428.9L628.42 393.716L628.42 393.716L412.37 393.716z" /></clipPath><clipPath id="117"><path d="M412.37 428.9L628.42 428.9L628.42 428.9L628.42 393.716L628.42 393.716L412.37 393.716z" /></clipPath><clipPath id="118"><path d="M412.37 428.9L628.42 428.9L628.42 428.9L628.42 393.716L628.42 393.716L412.37 393.716z" /></clipPath><clipPath id="119"><path d="M628.66 428.9L733.54 428.9L733.54 428.9L733.54 393.716L733.54 393.716L628.66 393.716z" /></clipPath><clipPath id="120"><path d="M628.66 428.9L733.54 428.9L733.54 428.9L733.54 393.716L733.54 393.716L628.66 393.716z" /></clipPath><clipPath id="121"><path d="M108.5 467.3L178.1 467.3L178.1 467.3L178.1 429.38L178.1 429.38L108.5 429.38z" /></clipPath><clipPath id="122"><path d="M108.5 467.3L178.1 467.3L178.1 467.3L178.1 429.38L178.1 429.38L108.5 429.38z" /></clipPath><clipPath id="123"><path d="M108.5 467.3L178.1 467.3L178.1 467.3L178.1 429.38L178.1 429.38L108.5 429.38z" /></clipPath><clipPath id="124"><path d="M178.58 467.3L412.12 467.3L412.12 467.3L412.12 429.38L412.12 429.38L178.58 429.38z" /></clipPath><clipPath id="125"><path d="M178.58 467.3L412.12 467.3L412.12 467.3L412.12 429.38L412.12 429.38L178.58 429.38z" /></clipPath><clipPath id="126"><path d="M178.58 467.3L412.12 467.3L412.12 467.3L412.12 429.38L412.12 429.38L178.58 429.38z" /></clipPath><clipPath id="127"><path d="M178.58 467.3L412.12 467.3L412.12 467.3L412.12 429.38L412.12 429.38L178.58 429.38z" /></clipPath><clipPath id="128"><path d="M412.37 467.3L628.42 467.3L628.42 467.3L628.42 429.38L628.42 429.38L412.37 429.38z" /></clipPath><clipPath id="129"><path d="M412.37 467.3L628.42 467.3L628.42 467.3L628.42 429.38L628.42 429.38L412.37 429.38z" /></clipPath><clipPath id="130"><path d="M412.37 467.3L628.42 467.3L628.42 467.3L628.42 429.38L628.42 429.38L412.37 429.38z" /></clipPath><clipPath id="131"><path d="M412.37 467.3L628.42 467.3L628.42 467.3L628.42 429.38L628.42 429.38L412.37 429.38z" /></clipPath><clipPath id="132"><path d="M628.66 467.3L733.54 467.3L733.54 467.3L733.54 429.38L733.54 429.38L628.66 429.38z" /></clipPath><clipPath id="133"><path d="M628.66 467.3L733.54 467.3L733.54 467.3L733.54 429.38L733.54 429.38L628.66 429.38z" /></clipPath><clipPath id="134"><path d="M628.66 467.3L733.54 467.3L733.54 467.3L733.54 429.38L733.54 429.38L628.66 429.38z" /></clipPath><clipPath id="135"><path d="M628.66 467.3L733.54 467.3L733.54 467.3L733.54 429.38L733.54 429.38L628.66 429.38z" /></clipPath><clipPath id="136"><path d="M108.5 498.976L178.1 498.976L178.1 498.976L178.1 467.776L178.1 467.776L108.5 467.776z" /></clipPath><clipPath id="137"><path d="M108.5 498.976L178.1 498.976L178.1 498.976L178.1 467.776L178.1 467.776L108.5 467.776z" /></clipPath><clipPath id="138"><path d="M108.5 498.976L178.1 498.976L178.1 498.976L178.1 467.776L178.1 467.776L108.5 467.776z" /></clipPath><clipPath id="139"><path d="M178.58 498.976L412.12 498.976L412.12 498.976L412.12 467.776L412.12 467.776L178.58 467.776z" /></clipPath><clipPath id="140"><path d="M178.58 498.976L412.12 498.976L412.12 498.976L412.12 467.776L412.12 467.776L178.58 467.776z" /></clipPath><clipPath id="141"><path d="M178.58 498.976L412.12 498.976L412.12 498.976L412.12 467.776L412.12 467.776L178.58 467.776z" /></clipPath><clipPath id="142"><path d="M412.37 498.976L628.42 498.976L628.42 498.976L628.42 467.776L628.42 467.776L412.37 467.776z" /></clipPath><clipPath id="143"><path d="M412.37 498.976L628.42 498.976L628.42 498.976L628.42 467.776L628.42 467.776L412.37 467.776z" /></clipPath><clipPath id="144"><path d="M412.37 498.976L628.42 498.976L628.42 498.976L628.42 467.776L628.42 467.776L412.37 467.776z" /></clipPath><clipPath id="145"><path d="M412.37 498.976L628.42 498.976L628.42 498.976L628.42 467.776L628.42 467.776L412.37 467.776z" /></clipPath><clipPath id="146"><path d="M412.37 498.976L628.42 498.976L628.42 498.976L628.42 467.776L628.42 467.776L412.37 467.776z" /></clipPath><clipPath id="147"><path d="M628.66 498.976L733.54 498.976L733.54 498.976L733.54 467.776L733.54 467.776L628.66 467.776z" /></clipPath><clipPath id="148"><path d="M628.66 498.976L733.54 498.976L733.54 498.976L733.54 467.776L733.54 467.776L628.66 467.776z" /></clipPath><clipPath id="149"><path d="M628.66 498.976L733.54 498.976L733.54 498.976L733.54 467.776L733.54 467.776L628.66 467.776z" /></clipPath></defs><g transform="matrix(1.333333 0 0 1.333333 0 0)"><g><g clip-path="url(#1)"><g clip-path="url(#2)"></g><g clip-path="url(#3)"></g><g clip-path="url(#4)"></g><g clip-path="url(#5)"></g><g clip-path="url(#6)"></g><g clip-path="url(#7)"><g clip-path="url(#8)"></g><g clip-path="url(#9)"></g></g><g clip-path="url(#10)"><g clip-path="url(#11)"></g></g><g clip-path="url(#12)"><g clip-path="url(#13)"></g><g clip-path="url(#14)"></g></g><g clip-path="url(#15)"><g clip-path="url(#16)"></g></g><path transform="matrix(1 0 0 -1 0 595)" d="M108.02 504.82L108.5 504.82L108.5 504.82L108.5 505.3L108.5 505.3L108.02 505.3z" stroke="none" fill="#000000" fill-rule="evenodd" /><path transform="matrix(1 0 0 -1 0 595)" d="M108.02 504.82L108.5 504.82L108.5 504.82L108.5 505.3L108.5 505.3L108.02 505.3z" stroke="none" fill="#000000" fill-rule="evenodd" /><path transform="matrix(1 0 0 -1 0 595)" d="M108.5 504.82L178.1 504.82L178.1 504.82L178.1 505.3L178.1 505.3L108.5 505.3z" stroke="none" fill="#000000" fill-rule="evenodd" /><path transform="matrix(1 0 0 -1 0 595)" d="M178.1 504.82L178.58 504.82L178.58 504.82L178.58 505.3L178.58 505.3L178.1 505.3z" stroke="none" fill="#000000" fill-rule="evenodd" /><path transform="matrix(1 0 0 -1 0 595)" d="M178.58 504.82L412.12 504.82L412.12 504.82L412.12 505.3L412.12 505.3L178.58 505.3z" stroke="none" fill="#000000" fill-rule="evenodd" /><path transform="matrix(1 0 0 -1 0 595)" d="M412.13 504.82L412.61 504.82L412.61 504.82L412.61 505.3L412.61 505.3L412.13 505.3z" stroke="none" fill="#000000" fill-rule="evenodd" /><path transform="matrix(1 0 0 -1 0 595)" d="M412.61 504.82L628.42 504.82L628.42 504.82L628.42 505.3L628.42 505.3L412.61 505.3z" stroke="none" fill="#000000" fill-rule="evenodd" /><path transform="matrix(1 0 0 -1 0 595)" d="M628.42 504.82L628.9 504.82L628.9 504.82L628.9 505.3L628.9 505.3L628.42 505.3z" stroke="none" fill="#000000" fill-rule="evenodd" /><path transform="matrix(1 0 0 -1 0 595)" d="M628.9 504.82L733.54 504.82L733.54 504.82L733.54 505.3L733.54 505.3L628.9 505.3z" stroke="none" fill="#000000" fill-rule="evenodd" /><path transform="matrix(1 0 0 -1 0 595)" d="M733.54 504.82L734.02 504.82L734.02 504.82L734.02 505.3L734.02 505.3L733.54 505.3z" stroke="none" fill="#000000" fill-rule="evenodd" /><path transform="matrix(1 0 0 -1 0 595)" d="M733.54 504.82L734.02 504.82L734.02 504.82L734.02 505.3L734.02 505.3L733.54 505.3z" stroke="none" fill="#000000" fill-rule="evenodd" /><path transform="matrix(1 0 0 -1 0 595)" d="M108.02 469.78L108.5 469.78L108.5 469.78L108.5 504.82L108.5 504.82L108.02 504.82z" stroke="none" fill="#000000" fill-rule="evenodd" /><path transform="matrix(1 0 0 -1 0 595)" d="M178.1 469.78L178.58 469.78L178.58 469.78L178.58 504.82L178.58 504.82L178.1 504.82z" stroke="none" fill="#000000" fill-rule="evenodd" /><path transform="matrix(1 0 0 -1 0 595)" d="M412.13 469.78L412.37 469.78L412.37 469.78L412.37 504.82L412.37 504.82L412.13 504.82z" stroke="none" fill="#000000" fill-rule="evenodd" /><path transform="matrix(1 0 0 -1 0 595)" d="M628.42 469.78L628.66 469.78L628.66 469.78L628.66 504.82L628.66 504.82L628.42 504.82z" stroke="none" fill="#000000" fill-rule="evenodd" /><path transform="matrix(1 0 0 -1 0 595)" d="M733.54 469.78L734.02 469.78L734.02 469.78L734.02 504.82L734.02 504.82L733.54 504.82z" stroke="none" fill="#000000" fill-rule="evenodd" /><g clip-path="url(#17)"><g clip-path="url(#18)"></g><g clip-path="url(#19)"></g></g><g clip-path="url(#20)"><g clip-path="url(#21)"></g></g><g clip-path="url(#22)"><g clip-path="url(#23)"></g><g clip-path="url(#24)"></g></g><g clip-path="url(#25)"><g clip-path="url(#26)"></g></g><path transform="matrix(1 0 0 -1 0 595)" d="M108.02 469.3L108.5 469.3L108.5 469.3L108.5 469.78L108.5 469.78L108.02 469.78z" stroke="none" fill="#000000" fill-rule="evenodd" /><path transform="matrix(1 0 0 -1 0 595)" d="M108.5 469.3L178.1 469.3L178.1 469.3L178.1 469.78L178.1 469.78L108.5 469.78z" stroke="none" fill="#000000" fill-rule="evenodd" /><path transform="matrix(1 0 0 -1 0 595)" d="M178.1 469.3L178.58 469.3L178.58 469.3L178.58 469.78L178.58 469.78L178.1 469.78z" stroke="none" fill="#000000" fill-rule="evenodd" /><path transform="matrix(1 0 0 -1 0 595)" d="M178.58 469.3L412.12 469.3L412.12 469.3L412.12 469.78L412.12 469.78L178.58 469.78z" stroke="none" fill="#000000" fill-rule="evenodd" /><path transform="matrix(1 0 0 -1 0 595)" d="M412.13 469.3L412.61 469.3L412.61 469.3L412.61 469.78L412.61 469.78L412.13 469.78z" stroke="none" fill="#000000" fill-rule="evenodd" /><path transform="matrix(1 0 0 -1 0 595)" d="M412.61 469.3L628.42 469.3L628.42 469.3L628.42 469.78L628.42 469.78L412.61 469.78z" stroke="none" fill="#000000" fill-rule="evenodd" /><path transform="matrix(1 0 0 -1 0 595)" d="M628.42 469.3L628.9 469.3L628.9 469.3L628.9 469.78L628.9 469.78L628.42 469.78z" stroke="none" fill="#000000" fill-rule="evenodd" /><path transform="matrix(1 0 0 -1 0 595)" d="M628.9 469.3L733.54 469.3L733.54 469.3L733.54 469.78L733.54 469.78L628.9 469.78z" stroke="none" fill="#000000" fill-rule="evenodd" /><path transform="matrix(1 0 0 -1 0 595)" d="M733.54 469.3L734.02 469.3L734.02 469.3L734.02 469.78L734.02 469.78L733.54 469.78z" stroke="none" fill="#000000" fill-rule="evenodd" /><path transform="matrix(1 0 0 -1 0 595)" d="M108.02 434.5L108.5 434.5L108.5 434.5L108.5 469.3L108.5 469.3L108.02 469.3z" stroke="none" fill="#000000" fill-rule="evenodd" /><path transform="matrix(1 0 0 -1 0 595)" d="M178.1 434.5L178.58 434.5L178.58 434.5L178.58 469.3L178.58 469.3L178.1 469.3z" stroke="none" fill="#000000" fill-rule="evenodd" /><path transform="matrix(1 0 0 -1 0 595)" d="M412.13 434.5L412.37 434.5L412.37 434.5L412.37 469.3L412.37 469.3L412.13 469.3z" stroke="none" fill="#000000" fill-rule="evenodd" /><path transform="matrix(1 0 0 -1 0 595)" d="M628.42 434.5L628.66 434.5L628.66 434.5L628.66 469.3L628.66 469.3L628.42 469.3z" stroke="none" fill="#000000" fill-rule="evenodd" /><path transform="matrix(1 0 0 -1 0 595)" d="M733.54 434.5L734.02 434.5L734.02 434.5L734.02 469.3L734.02 469.3L733.54 469.3z" stroke="none" fill="#000000" fill-rule="evenodd" /><g clip-path="url(#27)"><g clip-path="url(#28)"></g><g clip-path="url(#29)"></g></g><g clip-path="url(#30)"><g clip-path="url(#31)"></g></g><g clip-path="url(#32)"><g clip-path="url(#33)"></g><g clip-path="url(#34)"></g></g><g clip-path="url(#35)"><g clip-path="url(#36)"></g><g clip-path="url(#37)"></g></g><path transform="matrix(1 0 0 -1 0 595)" d="M108.02 434.02L108.5 434.02L108.5 434.02L108.5 434.5L108.5 434.5L108.02 434.5z" stroke="none" fill="#000000" fill-rule="evenodd" /><path transform="matrix(1 0 0 -1 0 595)" d="M108.5 434.02L178.1 434.02L178.1 434.02L178.1 434.5L178.1 434.5L108.5 434.5z" stroke="none" fill="#000000" fill-rule="evenodd" /><path transform="matrix(1 0 0 -1 0 595)" d="M178.1 434.02L178.58 434.02L178.58 434.02L178.58 434.5L178.58 434.5L178.1 434.5z" stroke="none" fill="#000000" fill-rule="evenodd" /><path transform="matrix(1 0 0 -1 0 595)" d="M178.58 434.02L412.12 434.02L412.12 434.02L412.12 434.5L412.12 434.5L178.58 434.5z" stroke="none" fill="#000000" fill-rule="evenodd" /><path transform="matrix(1 0 0 -1 0 595)" d="M412.13 434.02L412.61 434.02L412.61 434.02L412.61 434.5L412.61 434.5L412.13 434.5z" stroke="none" fill="#000000" fill-rule="evenodd" /><path transform="matrix(1 0 0 -1 0 595)" d="M412.61 434.02L628.42 434.02L628.42 434.02L628.42 434.5L628.42 434.5L412.61 434.5z" stroke="none" fill="#000000" fill-rule="evenodd" /><path transform="matrix(1 0 0 -1 0 595)" d="M628.42 434.02L628.9 434.02L628.9 434.02L628.9 434.5L628.9 434.5L628.42 434.5z" stroke="none" fill="#000000" fill-rule="evenodd" /><path transform="matrix(1 0 0 -1 0 595)" d="M628.9 434.02L733.54 434.02L733.54 434.02L733.54 434.5L733.54 434.5L628.9 434.5z" stroke="none" fill="#000000" fill-rule="evenodd" /><path transform="matrix(1 0 0 -1 0 595)" d="M733.54 434.02L734.02 434.02L734.02 434.02L734.02 434.5L734.02 434.5L733.54 434.5z" stroke="none" fill="#000000" fill-rule="evenodd" /><path transform="matrix(1 0 0 -1 0 595)" d="M108.02 399.31L108.5 399.31L108.5 399.31L108.5 434.014L108.5 434.014L108.02 434.014z" stroke="none" fill="#000000" fill-rule="evenodd" /><path transform="matrix(1 0 0 -1 0 595)" d="M178.1 399.31L178.58 399.31L178.58 399.31L178.58 434.014L178.58 434.014L178.1 434.014z" stroke="none" fill="#000000" fill-rule="evenodd" /><path transform="matrix(1 0 0 -1 0 595)" d="M412.13 399.31L412.37 399.31L412.37 399.31L412.37 434.014L412.37 434.014L412.13 434.014z" stroke="none" fill="#000000" fill-rule="evenodd" /><path transform="matrix(1 0 0 -1 0 595)" d="M628.42 399.31L628.66 399.31L628.66 399.31L628.66 434.014L628.66 434.014L628.42 434.014z" stroke="none" fill="#000000" fill-rule="evenodd" /><path transform="matrix(1 0 0 -1 0 595)" d="M733.54 399.31L734.02 399.31L734.02 399.31L734.02 434.014L734.02 434.014L733.54 434.014z" stroke="none" fill="#000000" fill-rule="evenodd" /><g clip-path="url(#38)"><g clip-path="url(#39)"></g><g clip-path="url(#40)"></g></g><g clip-path="url(#41)"><g clip-path="url(#42)"></g></g><g clip-path="url(#43)"><g clip-path="url(#44)"></g><g clip-path="url(#45)"></g></g><g clip-path="url(#46)"><g clip-path="url(#47)"></g></g><path transform="matrix(1 0 0 -1 0 595)" d="M108.02 398.83L108.5 398.83L108.5 398.83L108.5 399.31L108.5 399.31L108.02 399.31z" stroke="none" fill="#000000" fill-rule="evenodd" /><path transform="matrix(1 0 0 -1 0 595)" d="M108.5 398.83L178.1 398.83L178.1 398.83L178.1 399.31L178.1 399.31L108.5 399.31z" stroke="none" fill="#000000" fill-rule="evenodd" /><path transform="matrix(1 0 0 -1 0 595)" d="M178.1 398.83L178.58 398.83L178.58 398.83L178.58 399.31L178.58 399.31L178.1 399.31z" stroke="none" fill="#000000" fill-rule="evenodd" /><path transform="matrix(1 0 0 -1 0 595)" d="M178.58 398.83L412.12 398.83L412.12 398.83L412.12 399.31L412.12 399.31L178.58 399.31z" stroke="none" fill="#000000" fill-rule="evenodd" /><path transform="matrix(1 0 0 -1 0 595)" d="M412.13 398.83L412.61 398.83L412.61 398.83L412.61 399.31L412.61 399.31L412.13 399.31z" stroke="none" fill="#000000" fill-rule="evenodd" /><path transform="matrix(1 0 0 -1 0 595)" d="M412.61 398.83L628.42 398.83L628.42 398.83L628.42 399.31L628.42 399.31L412.61 399.31z" stroke="none" fill="#000000" fill-rule="evenodd" /><path transform="matrix(1 0 0 -1 0 595)" d="M628.42 398.83L628.9 398.83L628.9 398.83L628.9 399.31L628.9 399.31L628.42 399.31z" stroke="none" fill="#000000" fill-rule="evenodd" /><path transform="matrix(1 0 0 -1 0 595)" d="M628.9 398.83L733.54 398.83L733.54 398.83L733.54 399.31L733.54 399.31L628.9 399.31z" stroke="none" fill="#000000" fill-rule="evenodd" /><path transform="matrix(1 0 0 -1 0 595)" d="M733.54 398.83L734.02 398.83L734.02 398.83L734.02 399.31L734.02 399.31L733.54 399.31z" stroke="none" fill="#000000" fill-rule="evenodd" /><path transform="matrix(1 0 0 -1 0 595)" d="M108.02 363.67L108.5 363.67L108.5 363.67L108.5 398.83L108.5 398.83L108.02 398.83z" stroke="none" fill="#000000" fill-rule="evenodd" /><path transform="matrix(1 0 0 -1 0 595)" d="M178.1 363.67L178.58 363.67L178.58 363.67L178.58 398.83L178.58 398.83L178.1 398.83z" stroke="none" fill="#000000" fill-rule="evenodd" /><path transform="matrix(1 0 0 -1 0 595)" d="M412.13 363.67L412.37 363.67L412.37 363.67L412.37 398.83L412.37 398.83L412.13 398.83z" stroke="none" fill="#000000" fill-rule="evenodd" /><path transform="matrix(1 0 0 -1 0 595)" d="M628.42 363.67L628.66 363.67L628.66 363.67L628.66 398.83L628.66 398.83L628.42 398.83z" stroke="none" fill="#000000" fill-rule="evenodd" /><path transform="matrix(1 0 0 -1 0 595)" d="M733.54 363.67L734.02 363.67L734.02 363.67L734.02 398.83L734.02 398.83L733.54 398.83z" stroke="none" fill="#000000" fill-rule="evenodd" /><g clip-path="url(#48)"><g clip-path="url(#49)"></g><g clip-path="url(#50)"></g></g><g clip-path="url(#51)"><g clip-path="url(#52)"></g><g clip-path="url(#53)"></g></g><g clip-path="url(#54)"><g clip-path="url(#55)"></g><g clip-path="url(#56)"></g></g><g clip-path="url(#57)"><g clip-path="url(#58)"></g><g clip-path="url(#59)"></g></g><path transform="matrix(1 0 0 -1 0 595)" d="M108.02 363.19L108.5 363.19L108.5 363.19L108.5 363.67L108.5 363.67L108.02 363.67z" stroke="none" fill="#000000" fill-rule="evenodd" /><path transform="matrix(1 0 0 -1 0 595)" d="M108.5 363.19L178.1 363.19L178.1 363.19L178.1 363.67L178.1 363.67L108.5 363.67z" stroke="none" fill="#000000" fill-rule="evenodd" /><path transform="matrix(1 0 0 -1 0 595)" d="M178.1 363.19L178.58 363.19L178.58 363.19L178.58 363.67L178.58 363.67L178.1 363.67z" stroke="none" fill="#000000" fill-rule="evenodd" /><path transform="matrix(1 0 0 -1 0 595)" d="M178.58 363.19L412.12 363.19L412.12 363.19L412.12 363.67L412.12 363.67L178.58 363.67z" stroke="none" fill="#000000" fill-rule="evenodd" /><path transform="matrix(1 0 0 -1 0 595)" d="M412.13 363.19L412.61 363.19L412.61 363.19L412.61 363.67L412.61 363.67L412.13 363.67z" stroke="none" fill="#000000" fill-rule="evenodd" /><path transform="matrix(1 0 0 -1 0 595)" d="M412.61 363.19L628.42 363.19L628.42 363.19L628.42 363.67L628.42 363.67L412.61 363.67z" stroke="none" fill="#000000" fill-rule="evenodd" /><path transform="matrix(1 0 0 -1 0 595)" d="M628.42 363.19L628.9 363.19L628.9 363.19L628.9 363.67L628.9 363.67L628.42 363.67z" stroke="none" fill="#000000" fill-rule="evenodd" /><path transform="matrix(1 0 0 -1 0 595)" d="M628.9 363.19L733.54 363.19L733.54 363.19L733.54 363.67L733.54 363.67L628.9 363.67z" stroke="none" fill="#000000" fill-rule="evenodd" /><path transform="matrix(1 0 0 -1 0 595)" d="M733.54 363.19L734.02 363.19L734.02 363.19L734.02 363.67L734.02 363.67L733.54 363.67z" stroke="none" fill="#000000" fill-rule="evenodd" /><path transform="matrix(1 0 0 -1 0 595)" d="M108.02 331.99L108.5 331.99L108.5 331.99L108.5 363.19L108.5 363.19L108.02 363.19z" stroke="none" fill="#000000" fill-rule="evenodd" /><path transform="matrix(1 0 0 -1 0 595)" d="M178.1 331.99L178.58 331.99L178.58 331.99L178.58 363.19L178.58 363.19L178.1 363.19z" stroke="none" fill="#000000" fill-rule="evenodd" /><path transform="matrix(1 0 0 -1 0 595)" d="M412.13 331.99L412.37 331.99L412.37 331.99L412.37 363.19L412.37 363.19L412.13 363.19z" stroke="none" fill="#000000" fill-rule="evenodd" /><path transform="matrix(1 0 0 -1 0 595)" d="M628.42 331.99L628.66 331.99L628.66 331.99L628.66 363.19L628.66 363.19L628.42 363.19z" stroke="none" fill="#000000" fill-rule="evenodd" /><path transform="matrix(1 0 0 -1 0 595)" d="M733.54 331.99L734.02 331.99L734.02 331.99L734.02 363.19L734.02 363.19L733.54 363.19z" stroke="none" fill="#000000" fill-rule="evenodd" /><g clip-path="url(#60)"><g clip-path="url(#61)"></g><g clip-path="url(#62)"></g></g><g clip-path="url(#63)"><g clip-path="url(#64)"></g></g><g clip-path="url(#65)"><g clip-path="url(#66)"></g><g clip-path="url(#67)"></g></g><g clip-path="url(#68)"><g clip-path="url(#69)"></g><g clip-path="url(#70)"></g></g><path transform="matrix(1 0 0 -1 0 595)" d="M108.02 331.51L108.5 331.51L108.5 331.51L108.5 331.99L108.5 331.99L108.02 331.99z" stroke="none" fill="#000000" fill-rule="evenodd" /><path transform="matrix(1 0 0 -1 0 595)" d="M108.5 331.51L178.1 331.51L178.1 331.51L178.1 331.99L178.1 331.99L108.5 331.99z" stroke="none" fill="#000000" fill-rule="evenodd" /><path transform="matrix(1 0 0 -1 0 595)" d="M178.1 331.51L178.58 331.51L178.58 331.51L178.58 331.99L178.58 331.99L178.1 331.99z" stroke="none" fill="#000000" fill-rule="evenodd" /><path transform="matrix(1 0 0 -1 0 595)" d="M178.58 331.51L412.12 331.51L412.12 331.51L412.12 331.99L412.12 331.99L178.58 331.99z" stroke="none" fill="#000000" fill-rule="evenodd" /><path transform="matrix(1 0 0 -1 0 595)" d="M412.13 331.51L412.61 331.51L412.61 331.51L412.61 331.99L412.61 331.99L412.13 331.99z" stroke="none" fill="#000000" fill-rule="evenodd" /><path transform="matrix(1 0 0 -1 0 595)" d="M412.61 331.51L628.42 331.51L628.42 331.51L628.42 331.99L628.42 331.99L412.61 331.99z" stroke="none" fill="#000000" fill-rule="evenodd" /><path transform="matrix(1 0 0 -1 0 595)" d="M628.42 331.51L628.9 331.51L628.9 331.51L628.9 331.99L628.9 331.99L628.42 331.99z" stroke="none" fill="#000000" fill-rule="evenodd" /><path transform="matrix(1 0 0 -1 0 595)" d="M628.9 331.51L733.54 331.51L733.54 331.51L733.54 331.99L733.54 331.99L628.9 331.99z" stroke="none" fill="#000000" fill-rule="evenodd" /><path transform="matrix(1 0 0 -1 0 595)" d="M733.54 331.51L734.02 331.51L734.02 331.51L734.02 331.99L734.02 331.99L733.54 331.99z" stroke="none" fill="#000000" fill-rule="evenodd" /><path transform="matrix(1 0 0 -1 0 595)" d="M108.02 300.31L108.5 300.31L108.5 300.31L108.5 331.51L108.5 331.51L108.02 331.51z" stroke="none" fill="#000000" fill-rule="evenodd" /><path transform="matrix(1 0 0 -1 0 595)" d="M178.1 300.31L178.58 300.31L178.58 300.31L178.58 331.51L178.58 331.51L178.1 331.51z" stroke="none" fill="#000000" fill-rule="evenodd" /><path transform="matrix(1 0 0 -1 0 595)" d="M412.13 300.31L412.37 300.31L412.37 300.31L412.37 331.51L412.37 331.51L412.13 331.51z" stroke="none" fill="#000000" fill-rule="evenodd" /><path transform="matrix(1 0 0 -1 0 595)" d="M628.42 300.31L628.66 300.31L628.66 300.31L628.66 331.51L628.66 331.51L628.42 331.51z" stroke="none" fill="#000000" fill-rule="evenodd" /><path transform="matrix(1 0 0 -1 0 595)" d="M733.54 300.31L734.02 300.31L734.02 300.31L734.02 331.51L734.02 331.51L733.54 331.51z" stroke="none" fill="#000000" fill-rule="evenodd" /><g clip-path="url(#71)"><g clip-path="url(#72)"></g><g clip-path="url(#73)"></g></g><g clip-path="url(#74)"><g clip-path="url(#75)"></g><g clip-path="url(#76)"></g></g><g clip-path="url(#77)"><g clip-path="url(#78)"></g><g clip-path="url(#79)"></g></g><g clip-path="url(#80)"><g clip-path="url(#81)"></g><g clip-path="url(#82)"></g></g><path transform="matrix(1 0 0 -1 0 595)" d="M108.02 299.83L108.5 299.83L108.5 299.83L108.5 300.31L108.5 300.31L108.02 300.31z" stroke="none" fill="#000000" fill-rule="evenodd" /><path transform="matrix(1 0 0 -1 0 595)" d="M108.5 299.83L178.1 299.83L178.1 299.83L178.1 300.31L178.1 300.31L108.5 300.31z" stroke="none" fill="#000000" fill-rule="evenodd" /><path transform="matrix(1 0 0 -1 0 595)" d="M178.1 299.83L178.58 299.83L178.58 299.83L178.58 300.31L178.58 300.31L178.1 300.31z" stroke="none" fill="#000000" fill-rule="evenodd" /><path transform="matrix(1 0 0 -1 0 595)" d="M178.58 299.83L412.12 299.83L412.12 299.83L412.12 300.31L412.12 300.31L178.58 300.31z" stroke="none" fill="#000000" fill-rule="evenodd" /><path transform="matrix(1 0 0 -1 0 595)" d="M412.13 299.83L412.61 299.83L412.61 299.83L412.61 300.31L412.61 300.31L412.13 300.31z" stroke="none" fill="#000000" fill-rule="evenodd" /><path transform="matrix(1 0 0 -1 0 595)" d="M412.61 299.83L628.42 299.83L628.42 299.83L628.42 300.31L628.42 300.31L412.61 300.31z" stroke="none" fill="#000000" fill-rule="evenodd" /><path transform="matrix(1 0 0 -1 0 595)" d="M628.42 299.83L628.9 299.83L628.9 299.83L628.9 300.31L628.9 300.31L628.42 300.31z" stroke="none" fill="#000000" fill-rule="evenodd" /><path transform="matrix(1 0 0 -1 0 595)" d="M628.9 299.83L733.54 299.83L733.54 299.83L733.54 300.31L733.54 300.31L628.9 300.31z" stroke="none" fill="#000000" fill-rule="evenodd" /><path transform="matrix(1 0 0 -1 0 595)" d="M733.54 299.83L734.02 299.83L734.02 299.83L734.02 300.31L734.02 300.31L733.54 300.31z" stroke="none" fill="#000000" fill-rule="evenodd" /><path transform="matrix(1 0 0 -1 0 595)" d="M108.02 265.25L108.5 265.25L108.5 265.25L108.5 299.834L108.5 299.834L108.02 299.834z" stroke="none" fill="#000000" fill-rule="evenodd" /><path transform="matrix(1 0 0 -1 0 595)" d="M178.1 265.25L178.58 265.25L178.58 265.25L178.58 299.834L178.58 299.834L178.1 299.834z" stroke="none" fill="#000000" fill-rule="evenodd" /><path transform="matrix(1 0 0 -1 0 595)" d="M412.13 265.25L412.37 265.25L412.37 265.25L412.37 299.834L412.37 299.834L412.13 299.834z" stroke="none" fill="#000000" fill-rule="evenodd" /><path transform="matrix(1 0 0 -1 0 595)" d="M628.42 265.25L628.66 265.25L628.66 265.25L628.66 299.834L628.66 299.834L628.42 299.834z" stroke="none" fill="#000000" fill-rule="evenodd" /><path transform="matrix(1 0 0 -1 0 595)" d="M733.54 265.25L734.02 265.25L734.02 265.25L734.02 299.834L734.02 299.834L733.54 299.834z" stroke="none" fill="#000000" fill-rule="evenodd" /><g clip-path="url(#83)"><g clip-path="url(#84)"></g><g clip-path="url(#85)"></g></g><g clip-path="url(#86)"><g clip-path="url(#87)"></g></g><g clip-path="url(#88)"><g clip-path="url(#89)"></g><g clip-path="url(#90)"></g></g><g clip-path="url(#91)"><g clip-path="url(#92)"></g><g clip-path="url(#93)"></g></g><path transform="matrix(1 0 0 -1 0 595)" d="M108.02 264.77L108.5 264.77L108.5 264.77L108.5 265.25L108.5 265.25L108.02 265.25z" stroke="none" fill="#000000" fill-rule="evenodd" /><path transform="matrix(1 0 0 -1 0 595)" d="M108.5 264.77L178.1 264.77L178.1 264.77L178.1 265.25L178.1 265.25L108.5 265.25z" stroke="none" fill="#000000" fill-rule="evenodd" /><path transform="matrix(1 0 0 -1 0 595)" d="M178.1 264.77L178.58 264.77L178.58 264.77L178.58 265.25L178.58 265.25L178.1 265.25z" stroke="none" fill="#000000" fill-rule="evenodd" /><path transform="matrix(1 0 0 -1 0 595)" d="M178.58 264.77L412.12 264.77L412.12 264.77L412.12 265.25L412.12 265.25L178.58 265.25z" stroke="none" fill="#000000" fill-rule="evenodd" /><path transform="matrix(1 0 0 -1 0 595)" d="M412.13 264.77L412.61 264.77L412.61 264.77L412.61 265.25L412.61 265.25L412.13 265.25z" stroke="none" fill="#000000" fill-rule="evenodd" /><path transform="matrix(1 0 0 -1 0 595)" d="M412.61 264.77L628.42 264.77L628.42 264.77L628.42 265.25L628.42 265.25L412.61 265.25z" stroke="none" fill="#000000" fill-rule="evenodd" /><path transform="matrix(1 0 0 -1 0 595)" d="M628.42 264.77L628.9 264.77L628.9 264.77L628.9 265.25L628.9 265.25L628.42 265.25z" stroke="none" fill="#000000" fill-rule="evenodd" /><path transform="matrix(1 0 0 -1 0 595)" d="M628.9 264.77L733.54 264.77L733.54 264.77L733.54 265.25L733.54 265.25L628.9 265.25z" stroke="none" fill="#000000" fill-rule="evenodd" /><path transform="matrix(1 0 0 -1 0 595)" d="M733.54 264.77L734.02 264.77L734.02 264.77L734.02 265.25L734.02 265.25L733.54 265.25z" stroke="none" fill="#000000" fill-rule="evenodd" /><path transform="matrix(1 0 0 -1 0 595)" d="M108.02 233.45L108.5 233.45L108.5 233.45L108.5 264.77L108.5 264.77L108.02 264.77z" stroke="none" fill="#000000" fill-rule="evenodd" /><path transform="matrix(1 0 0 -1 0 595)" d="M178.1 233.45L178.58 233.45L178.58 233.45L178.58 264.77L178.58 264.77L178.1 264.77z" stroke="none" fill="#000000" fill-rule="evenodd" /><path transform="matrix(1 0 0 -1 0 595)" d="M412.13 233.45L412.37 233.45L412.37 233.45L412.37 264.77L412.37 264.77L412.13 264.77z" stroke="none" fill="#000000" fill-rule="evenodd" /><path transform="matrix(1 0 0 -1 0 595)" d="M628.42 233.45L628.66 233.45L628.66 233.45L628.66 264.77L628.66 264.77L628.42 264.77z" stroke="none" fill="#000000" fill-rule="evenodd" /><path transform="matrix(1 0 0 -1 0 595)" d="M733.54 233.45L734.02 233.45L734.02 233.45L734.02 264.77L734.02 264.77L733.54 264.77z" stroke="none" fill="#000000" fill-rule="evenodd" /><g clip-path="url(#94)"><g clip-path="url(#95)"></g><g clip-path="url(#96)"></g></g><g clip-path="url(#97)"><g clip-path="url(#98)"></g><g clip-path="url(#99)"></g></g><g clip-path="url(#100)"><g clip-path="url(#101)"></g><g clip-path="url(#102)"></g><g clip-path="url(#103)"></g><g clip-path="url(#104)"></g></g><g clip-path="url(#105)"><g clip-path="url(#106)"></g><g clip-path="url(#107)"></g></g><path transform="matrix(1 0 0 -1 0 595)" d="M108.02 232.97L108.5 232.97L108.5 232.97L108.5 233.45L108.5 233.45L108.02 233.45z" stroke="none" fill="#000000" fill-rule="evenodd" /><path transform="matrix(1 0 0 -1 0 595)" d="M108.5 232.97L178.1 232.97L178.1 232.97L178.1 233.45L178.1 233.45L108.5 233.45z" stroke="none" fill="#000000" fill-rule="evenodd" /><path transform="matrix(1 0 0 -1 0 595)" d="M178.1 232.97L178.58 232.97L178.58 232.97L178.58 233.45L178.58 233.45L178.1 233.45z" stroke="none" fill="#000000" fill-rule="evenodd" /><path transform="matrix(1 0 0 -1 0 595)" d="M178.58 232.97L412.12 232.97L412.12 232.97L412.12 233.45L412.12 233.45L178.58 233.45z" stroke="none" fill="#000000" fill-rule="evenodd" /><path transform="matrix(1 0 0 -1 0 595)" d="M412.13 232.97L412.61 232.97L412.61 232.97L412.61 233.45L412.61 233.45L412.13 233.45z" stroke="none" fill="#000000" fill-rule="evenodd" /><path transform="matrix(1 0 0 -1 0 595)" d="M412.61 232.97L628.42 232.97L628.42 232.97L628.42 233.45L628.42 233.45L412.61 233.45z" stroke="none" fill="#000000" fill-rule="evenodd" /><path transform="matrix(1 0 0 -1 0 595)" d="M628.42 232.97L628.9 232.97L628.9 232.97L628.9 233.45L628.9 233.45L628.42 233.45z" stroke="none" fill="#000000" fill-rule="evenodd" /><path transform="matrix(1 0 0 -1 0 595)" d="M628.9 232.97L733.54 232.97L733.54 232.97L733.54 233.45L733.54 233.45L628.9 233.45z" stroke="none" fill="#000000" fill-rule="evenodd" /><path transform="matrix(1 0 0 -1 0 595)" d="M733.54 232.97L734.02 232.97L734.02 232.97L734.02 233.45L734.02 233.45L733.54 233.45z" stroke="none" fill="#000000" fill-rule="evenodd" /><path transform="matrix(1 0 0 -1 0 595)" d="M108.02 201.77L108.5 201.77L108.5 201.77L108.5 232.97L108.5 232.97L108.02 232.97z" stroke="none" fill="#000000" fill-rule="evenodd" /><path transform="matrix(1 0 0 -1 0 595)" d="M178.1 201.77L178.58 201.77L178.58 201.77L178.58 232.97L178.58 232.97L178.1 232.97z" stroke="none" fill="#000000" fill-rule="evenodd" /><path transform="matrix(1 0 0 -1 0 595)" d="M412.13 201.77L412.37 201.77L412.37 201.77L412.37 232.97L412.37 232.97L412.13 232.97z" stroke="none" fill="#000000" fill-rule="evenodd" /><path transform="matrix(1 0 0 -1 0 595)" d="M628.42 201.77L628.66 201.77L628.66 201.77L628.66 232.97L628.66 232.97L628.42 232.97z" stroke="none" fill="#000000" fill-rule="evenodd" /><path transform="matrix(1 0 0 -1 0 595)" d="M733.54 201.77L734.02 201.77L734.02 201.77L734.02 232.97L734.02 232.97L733.54 232.97z" stroke="none" fill="#000000" fill-rule="evenodd" /><g clip-path="url(#108)"><g clip-path="url(#109)"></g><g clip-path="url(#110)"></g></g><g clip-path="url(#111)"><g clip-path="url(#112)"></g><g clip-path="url(#113)"></g></g><g clip-path="url(#114)"><g clip-path="url(#115)"></g><g clip-path="url(#116)"></g><g clip-path="url(#117)"></g><g clip-path="url(#118)"></g></g><g clip-path="url(#119)"><g clip-path="url(#120)"></g></g><path transform="matrix(1 0 0 -1 0 595)" d="M108.02 201.29L108.5 201.29L108.5 201.29L108.5 201.77L108.5 201.77L108.02 201.77z" stroke="none" fill="#000000" fill-rule="evenodd" /><path transform="matrix(1 0 0 -1 0 595)" d="M108.5 201.29L178.1 201.29L178.1 201.29L178.1 201.77L178.1 201.77L108.5 201.77z" stroke="none" fill="#000000" fill-rule="evenodd" /><path transform="matrix(1 0 0 -1 0 595)" d="M178.1 201.29L178.58 201.29L178.58 201.29L178.58 201.77L178.58 201.77L178.1 201.77z" stroke="none" fill="#000000" fill-rule="evenodd" /><path transform="matrix(1 0 0 -1 0 595)" d="M178.58 201.29L412.12 201.29L412.12 201.29L412.12 201.77L412.12 201.77L178.58 201.77z" stroke="none" fill="#000000" fill-rule="evenodd" /><path transform="matrix(1 0 0 -1 0 595)" d="M412.13 201.29L412.61 201.29L412.61 201.29L412.61 201.77L412.61 201.77L412.13 201.77z" stroke="none" fill="#000000" fill-rule="evenodd" /><path transform="matrix(1 0 0 -1 0 595)" d="M412.61 201.29L628.42 201.29L628.42 201.29L628.42 201.77L628.42 201.77L412.61 201.77z" stroke="none" fill="#000000" fill-rule="evenodd" /><path transform="matrix(1 0 0 -1 0 595)" d="M628.42 201.29L628.9 201.29L628.9 201.29L628.9 201.77L628.9 201.77L628.42 201.77z" stroke="none" fill="#000000" fill-rule="evenodd" /><path transform="matrix(1 0 0 -1 0 595)" d="M628.9 201.29L733.54 201.29L733.54 201.29L733.54 201.77L733.54 201.77L628.9 201.77z" stroke="none" fill="#000000" fill-rule="evenodd" /><path transform="matrix(1 0 0 -1 0 595)" d="M733.54 201.29L734.02 201.29L734.02 201.29L734.02 201.77L734.02 201.77L733.54 201.77z" stroke="none" fill="#000000" fill-rule="evenodd" /><path transform="matrix(1 0 0 -1 0 595)" d="M108.02 166.1L108.5 166.1L108.5 166.1L108.5 201.284L108.5 201.284L108.02 201.284z" stroke="none" fill="#000000" fill-rule="evenodd" /><path transform="matrix(1 0 0 -1 0 595)" d="M178.1 166.1L178.58 166.1L178.58 166.1L178.58 201.284L178.58 201.284L178.1 201.284z" stroke="none" fill="#000000" fill-rule="evenodd" /><path transform="matrix(1 0 0 -1 0 595)" d="M412.13 166.1L412.37 166.1L412.37 166.1L412.37 201.284L412.37 201.284L412.13 201.284z" stroke="none" fill="#000000" fill-rule="evenodd" /><path transform="matrix(1 0 0 -1 0 595)" d="M628.42 166.1L628.66 166.1L628.66 166.1L628.66 201.284L628.66 201.284L628.42 201.284z" stroke="none" fill="#000000" fill-rule="evenodd" /><path transform="matrix(1 0 0 -1 0 595)" d="M733.54 166.1L734.02 166.1L734.02 166.1L734.02 201.284L734.02 201.284L733.54 201.284z" stroke="none" fill="#000000" fill-rule="evenodd" /><g clip-path="url(#121)"><g clip-path="url(#122)"></g><g clip-path="url(#123)"></g></g><g clip-path="url(#124)"><g clip-path="url(#125)"></g><g clip-path="url(#126)"></g><g clip-path="url(#127)"></g></g><g clip-path="url(#128)"><g clip-path="url(#129)"></g><g clip-path="url(#130)"></g><g clip-path="url(#131)"></g></g><g clip-path="url(#132)"><g clip-path="url(#133)"></g><g clip-path="url(#134)"></g><g clip-path="url(#135)"></g></g><path transform="matrix(1 0 0 -1 0 595)" d="M108.02 165.62L108.5 165.62L108.5 165.62L108.5 166.1L108.5 166.1L108.02 166.1z" stroke="none" fill="#000000" fill-rule="evenodd" /><path transform="matrix(1 0 0 -1 0 595)" d="M108.5 165.62L178.1 165.62L178.1 165.62L178.1 166.1L178.1 166.1L108.5 166.1z" stroke="none" fill="#000000" fill-rule="evenodd" /><path transform="matrix(1 0 0 -1 0 595)" d="M178.1 165.62L178.58 165.62L178.58 165.62L178.58 166.1L178.58 166.1L178.1 166.1z" stroke="none" fill="#000000" fill-rule="evenodd" /><path transform="matrix(1 0 0 -1 0 595)" d="M178.58 165.62L412.12 165.62L412.12 165.62L412.12 166.1L412.12 166.1L178.58 166.1z" stroke="none" fill="#000000" fill-rule="evenodd" /><path transform="matrix(1 0 0 -1 0 595)" d="M412.13 165.62L412.61 165.62L412.61 165.62L412.61 166.1L412.61 166.1L412.13 166.1z" stroke="none" fill="#000000" fill-rule="evenodd" /><path transform="matrix(1 0 0 -1 0 595)" d="M412.61 165.62L628.42 165.62L628.42 165.62L628.42 166.1L628.42 166.1L412.61 166.1z" stroke="none" fill="#000000" fill-rule="evenodd" /><path transform="matrix(1 0 0 -1 0 595)" d="M628.42 165.62L628.9 165.62L628.9 165.62L628.9 166.1L628.9 166.1L628.42 166.1z" stroke="none" fill="#000000" fill-rule="evenodd" /><path transform="matrix(1 0 0 -1 0 595)" d="M628.9 165.62L733.54 165.62L733.54 165.62L733.54 166.1L733.54 166.1L628.9 166.1z" stroke="none" fill="#000000" fill-rule="evenodd" /><path transform="matrix(1 0 0 -1 0 595)" d="M733.54 165.62L734.02 165.62L734.02 165.62L734.02 166.1L734.02 166.1L733.54 166.1z" stroke="none" fill="#000000" fill-rule="evenodd" /><path transform="matrix(1 0 0 -1 0 595)" d="M108.02 127.7L108.5 127.7L108.5 127.7L108.5 165.62L108.5 165.62L108.02 165.62z" stroke="none" fill="#000000" fill-rule="evenodd" /><path transform="matrix(1 0 0 -1 0 595)" d="M178.1 127.7L178.58 127.7L178.58 127.7L178.58 165.62L178.58 165.62L178.1 165.62z" stroke="none" fill="#000000" fill-rule="evenodd" /><path transform="matrix(1 0 0 -1 0 595)" d="M412.13 127.7L412.37 127.7L412.37 127.7L412.37 165.62L412.37 165.62L412.13 165.62z" stroke="none" fill="#000000" fill-rule="evenodd" /><path transform="matrix(1 0 0 -1 0 595)" d="M628.42 127.7L628.66 127.7L628.66 127.7L628.66 165.62L628.66 165.62L628.42 165.62z" stroke="none" fill="#000000" fill-rule="evenodd" /><path transform="matrix(1 0 0 -1 0 595)" d="M733.54 127.7L734.02 127.7L734.02 127.7L734.02 165.62L734.02 165.62L733.54 165.62z" stroke="none" fill="#000000" fill-rule="evenodd" /><g clip-path="url(#136)"><g clip-path="url(#137)"></g><g clip-path="url(#138)"></g></g><g clip-path="url(#139)"><g clip-path="url(#140)"></g><g clip-path="url(#141)"></g></g><g clip-path="url(#142)"><g clip-path="url(#143)"></g><g clip-path="url(#144)"></g><g clip-path="url(#145)"></g><g clip-path="url(#146)"></g></g><g clip-path="url(#147)"><g clip-path="url(#148)"></g><g clip-path="url(#149)"></g></g><path transform="matrix(1 0 0 -1 0 595)" d="M108.02 127.22L108.5 127.22L108.5 127.22L108.5 127.7L108.5 127.7L108.02 127.7z" stroke="none" fill="#000000" fill-rule="evenodd" /><path transform="matrix(1 0 0 -1 0 595)" d="M108.5 127.22L178.1 127.22L178.1 127.22L178.1 127.7L178.1 127.7L108.5 127.7z" stroke="none" fill="#000000" fill-rule="evenodd" /><path transform="matrix(1 0 0 -1 0 595)" d="M178.1 127.22L178.58 127.22L178.58 127.22L178.58 127.7L178.58 127.7L178.1 127.7z" stroke="none" fill="#000000" fill-rule="evenodd" /><path transform="matrix(1 0 0 -1 0 595)" d="M178.58 127.22L412.12 127.22L412.12 127.22L412.12 127.7L412.12 127.7L178.58 127.7z" stroke="none" fill="#000000" fill-rule="evenodd" /><path transform="matrix(1 0 0 -1 0 595)" d="M412.13 127.22L412.61 127.22L412.61 127.22L412.61 127.7L412.61 127.7L412.13 127.7z" stroke="none" fill="#000000" fill-rule="evenodd" /><path transform="matrix(1 0 0 -1 0 595)" d="M412.61 127.22L628.42 127.22L628.42 127.22L628.42 127.7L628.42 127.7L412.61 127.7z" stroke="none" fill="#000000" fill-rule="evenodd" /><path transform="matrix(1 0 0 -1 0 595)" d="M628.42 127.22L628.9 127.22L628.9 127.22L628.9 127.7L628.9 127.7L628.42 127.7z" stroke="none" fill="#000000" fill-rule="evenodd" /><path transform="matrix(1 0 0 -1 0 595)" d="M628.9 127.22L733.54 127.22L733.54 127.22L733.54 127.7L733.54 127.7L628.9 127.7z" stroke="none" fill="#000000" fill-rule="evenodd" /><path transform="matrix(1 0 0 -1 0 595)" d="M733.54 127.22L734.02 127.22L734.02 127.22L734.02 127.7L734.02 127.7L733.54 127.7z" stroke="none" fill="#000000" fill-rule="evenodd" /><path transform="matrix(1 0 0 -1 0 595)" d="M108.02 96.024L108.5 96.024L108.5 96.024L108.5 127.224L108.5 127.224L108.02 127.224z" stroke="none" fill="#000000" fill-rule="evenodd" /><path transform="matrix(1 0 0 -1 0 595)" d="M108.02 95.544L108.5 95.544L108.5 95.544L108.5 96.02401L108.5 96.02401L108.02 96.02401z" stroke="none" fill="#000000" fill-rule="evenodd" /><path transform="matrix(1 0 0 -1 0 595)" d="M108.02 95.544L108.5 95.544L108.5 95.544L108.5 96.02401L108.5 96.02401L108.02 96.02401z" stroke="none" fill="#000000" fill-rule="evenodd" /><path transform="matrix(1 0 0 -1 0 595)" d="M108.5 95.544L178.1 95.544L178.1 95.544L178.1 96.02401L178.1 96.02401L108.5 96.02401z" stroke="none" fill="#000000" fill-rule="evenodd" /><path transform="matrix(1 0 0 -1 0 595)" d="M178.1 96.024L178.58 96.024L178.58 96.024L178.58 127.224L178.58 127.224L178.1 127.224z" stroke="none" fill="#000000" fill-rule="evenodd" /><path transform="matrix(1 0 0 -1 0 595)" d="M178.1 95.544L178.58 95.544L178.58 95.544L178.58 96.02401L178.58 96.02401L178.1 96.02401z" stroke="none" fill="#000000" fill-rule="evenodd" /><path transform="matrix(1 0 0 -1 0 595)" d="M178.58 95.544L412.12 95.544L412.12 95.544L412.12 96.02401L412.12 96.02401L178.58 96.02401z" stroke="none" fill="#000000" fill-rule="evenodd" /><path transform="matrix(1 0 0 -1 0 595)" d="M412.13 96.024L412.37 96.024L412.37 96.024L412.37 127.224L412.37 127.224L412.13 127.224z" stroke="none" fill="#000000" fill-rule="evenodd" /><path transform="matrix(1 0 0 -1 0 595)" d="M412.13 95.544L412.61 95.544L412.61 95.544L412.61 96.02401L412.61 96.02401L412.13 96.02401z" stroke="none" fill="#000000" fill-rule="evenodd" /><path transform="matrix(1 0 0 -1 0 595)" d="M412.61 95.544L628.42 95.544L628.42 95.544L628.42 96.02401L628.42 96.02401L412.61 96.02401z" stroke="none" fill="#000000" fill-rule="evenodd" /><path transform="matrix(1 0 0 -1 0 595)" d="M628.42 96.024L628.66 96.024L628.66 96.024L628.66 127.224L628.66 127.224L628.42 127.224z" stroke="none" fill="#000000" fill-rule="evenodd" /><path transform="matrix(1 0 0 -1 0 595)" d="M628.42 95.544L628.9 95.544L628.9 95.544L628.9 96.02401L628.9 96.02401L628.42 96.02401z" stroke="none" fill="#000000" fill-rule="evenodd" /><path transform="matrix(1 0 0 -1 0 595)" d="M628.9 95.544L733.54 95.544L733.54 95.544L733.54 96.02401L733.54 96.02401L628.9 96.02401z" stroke="none" fill="#000000" fill-rule="evenodd" /><path transform="matrix(1 0 0 -1 0 595)" d="M733.54 96.024L734.02 96.024L734.02 96.024L734.02 127.224L734.02 127.224L733.54 127.224z" stroke="none" fill="#000000" fill-rule="evenodd" /><path transform="matrix(1 0 0 -1 0 595)" d="M733.54 95.544L734.02 95.544L734.02 95.544L734.02 96.02401L734.02 96.02401L733.54 96.02401z" stroke="none" fill="#000000" fill-rule="evenodd" /><path transform="matrix(1 0 0 -1 0 595)" d="M733.54 95.544L734.02 95.544L734.02 95.544L734.02 96.02401L734.02 96.02401L733.54 96.02401z" stroke="none" fill="#000000" fill-rule="evenodd" /></g></g></g></svg>