<svg width="40" height="40" viewBox="0 0 40 40" fill="none" xmlns="http://www.w3.org/2000/svg">
<path d="M40 20C40 31.0457 31.0457 40 20 40C8.9543 40 0 31.0457 0 20C0 8.9543 8.9543 0 20 0C31.0457 0 40 8.9543 40 20Z" fill="#E1E7EE"/>
<path fill-rule="evenodd" clip-rule="evenodd" d="M7.45959 35.581C9.54492 31.5657 14.3826 28.75 19.9996 28.75C25.6168 28.75 30.4545 31.5659 32.5398 35.5814C29.1097 38.3454 24.748 40 19.9999 40C15.2516 40 10.8898 38.3453 7.45959 35.581ZM20.0012 25.8945C24.1433 25.8945 27.5012 22.5367 27.5012 18.3945C27.5012 14.2524 24.1433 10.8945 20.0012 10.8945C15.859 10.8945 12.5012 14.2524 12.5012 18.3945C12.5012 22.5367 15.859 25.8945 20.0012 25.8945Z" fill="#7992B9"/>
</svg>
