<svg width="18" height="18" viewBox="0 0 18 18" fill="none" xmlns="http://www.w3.org/2000/svg">
<path d="M14.6368 3.72415C15.8356 3.73842 16.8 4.71432 16.8 5.91326L-nan -nanL16.8 5.91326H1.20001V4.0498C1.20001 2.80716 2.20737 1.7998 3.45001 1.7998H7.69767C8.49386 1.7998 9.21971 2.25579 9.5653 2.97307L-nan -nanL9.5653 2.97307C9.77034 3.39862 10.1987 3.67132 10.6711 3.67694L14.6368 3.72415Z" fill="url(#paint0_linear_199_6744)"/>
<path d="M2.10001 6.6C2.10001 5.4402 3.04021 4.5 4.20001 4.5H13.8C14.9598 4.5 15.9 5.4402 15.9 6.6C15.9 7.7598 14.9598 8.7 13.8 8.7H4.20001C3.04021 8.7 2.10001 7.7598 2.10001 6.6Z" fill="url(#paint1_linear_199_6744)"/>
<path d="M16.8002 5.21289V14.5129C16.8002 14.9604 16.6224 15.3897 16.3059 15.7061C15.9895 16.0226 15.5602 16.2004 15.1127 16.2004H2.8877C2.44014 16.2004 2.01092 16.0226 1.69445 15.7061C1.37799 15.3897 1.2002 14.9604 1.2002 14.5129V5.21289H16.8002Z" fill="url(#paint2_linear_199_6744)"/>
<defs>
<linearGradient id="paint0_linear_199_6744" x1="9.07501" y1="1.4998" x2="9.07501" y2="7.6498" gradientUnits="userSpaceOnUse">
<stop stop-color="#FFB14C"/>
<stop offset="0.538462" stop-color="#FA9108"/>
<stop offset="0.730769" stop-color="#D57D0A" stop-opacity="0.8"/>
</linearGradient>
<linearGradient id="paint1_linear_199_6744" x1="9.22501" y1="4.5" x2="9.225" y2="7.2" gradientUnits="userSpaceOnUse">
<stop stop-color="white"/>
<stop offset="1" stop-color="#FFBE00"/>
</linearGradient>
<linearGradient id="paint2_linear_199_6744" x1="9.52519" y1="16.0504" x2="9.52519" y2="4.65039" gradientUnits="userSpaceOnUse">
<stop stop-color="#FFB21D"/>
<stop offset="1" stop-color="#FFD353"/>
</linearGradient>
</defs>
</svg>
