<?xml version="1.0" encoding="UTF-8"?>
<svg width="909px" height="348px" viewBox="0 0 909 348" version="1.1" xmlns="http://www.w3.org/2000/svg" xmlns:xlink="http://www.w3.org/1999/xlink">
    <!-- Generator: Sketch 53.2 (72643) - https://sketchapp.com -->
    <title>404配图</title>
    <desc>Created with Sketch.</desc>
    <defs>
        <linearGradient x1="52.6079359%" y1="45.6515842%" x2="52.6079359%" y2="-64.5507812%" id="linearGradient-1">
            <stop stop-color="#FFFFFF" offset="0%"></stop>
            <stop stop-color="#AAB4F7" offset="100%"></stop>
        </linearGradient>
        <linearGradient x1="52.6079359%" y1="40.0587729%" x2="52.6079359%" y2="-64.5507812%" id="linearGradient-2">
            <stop stop-color="#FFFFFF" offset="0%"></stop>
            <stop stop-color="#AAB4F7" offset="100%"></stop>
        </linearGradient>
        <linearGradient x1="52.6079359%" y1="40.0587729%" x2="52.6079359%" y2="-64.5507812%" id="linearGradient-3">
            <stop stop-color="#FFFFFF" offset="0%"></stop>
            <stop stop-color="#AAB4F7" offset="100%"></stop>
        </linearGradient>
        <linearGradient x1="52.6079359%" y1="50%" x2="52.6079359%" y2="-64.5983574%" id="linearGradient-4">
            <stop stop-color="#FFFFFF" offset="0%"></stop>
            <stop stop-color="#AAB4F7" offset="100%"></stop>
        </linearGradient>
        <linearGradient x1="52.6079359%" y1="50%" x2="52.6079359%" y2="-64.5983574%" id="linearGradient-5">
            <stop stop-color="#FFFFFF" offset="0%"></stop>
            <stop stop-color="#AAB4F7" offset="100%"></stop>
        </linearGradient>
        <linearGradient x1="52.6079359%" y1="46.3820685%" x2="52.6079359%" y2="-64.5983574%" id="linearGradient-6">
            <stop stop-color="#FFFFFF" offset="0%"></stop>
            <stop stop-color="#AAB4F7" offset="100%"></stop>
        </linearGradient>
        <linearGradient x1="53.1834303%" y1="59.2998798%" x2="53.1834303%" y2="-58.3909255%" id="linearGradient-7">
            <stop stop-color="#E3E6FF" stop-opacity="0" offset="0%"></stop>
            <stop stop-color="#AAB4F7" offset="100%"></stop>
        </linearGradient>
        <linearGradient x1="50%" y1="-79.9879808%" x2="50%" y2="130.913808%" id="linearGradient-8">
            <stop stop-color="#B9C3FF" offset="0%"></stop>
            <stop stop-color="#CDD4FF" offset="100%"></stop>
        </linearGradient>
        <path d="M1.05644339,60.4938222 C1.05644339,27.5408321 27.7385079,0.827155514 60.6525025,0.827155514 C93.5664971,0.827155514 120.248562,27.5408321 120.248562,60.4938222 L1.05644339,60.4938222 Z" id="path-9"></path>
        <linearGradient x1="63.7111418%" y1="92.6309088%" x2="50%" y2="44.3936018%" id="linearGradient-11">
            <stop stop-color="#4662EA" offset="0%"></stop>
            <stop stop-color="#1A33D0" offset="100%"></stop>
        </linearGradient>
        <linearGradient x1="50%" y1="0%" x2="50%" y2="100%" id="linearGradient-12">
            <stop stop-color="#4662EA" offset="0%"></stop>
            <stop stop-color="#1A33D0" offset="100%"></stop>
        </linearGradient>
    </defs>
    <g id="Page-1" stroke="none" stroke-width="1" fill="none" fill-rule="evenodd">
        <g id="404" transform="translate(-265.000000, -169.000000)">
            <g id="Group-2" transform="translate(194.000000, 159.000000)">
                <g transform="translate(0.000000, 10.376812)">
                    <g id="Group-3" transform="translate(279.842365, 0.000000)">
                        <ellipse id="Oval" fill="url(#linearGradient-1)" cx="77.7339901" cy="92.0942029" rx="23.320197" ry="23.3478261"></ellipse>
                        <ellipse id="Oval-Copy-4" fill="url(#linearGradient-2)" cx="291.502463" cy="41.5072464" rx="23.320197" ry="23.3478261"></ellipse>
                        <ellipse id="Oval-Copy-2" fill="url(#linearGradient-3)" cx="472.881773" cy="103.768116" rx="18.137931" ry="18.1594203"></ellipse>
                        <ellipse id="Oval-Copy" fill="url(#linearGradient-4)" cx="32.3891626" cy="92.0942029" rx="32.3891626" ry="32.4275362"></ellipse>
                        <ellipse id="Oval-Copy-5" fill="url(#linearGradient-5)" cx="343.325123" cy="36.3188406" rx="36.2758621" ry="36.3188406"></ellipse>
                        <ellipse id="Oval-Copy-3" fill="url(#linearGradient-6)" cx="514.339901" cy="99.8768116" rx="27.2068966" ry="27.2391304"></ellipse>
                    </g>
                    <path d="M1052,337.730628 C1022.81053,316.286912 983.849555,299.334397 935.117073,286.873083 C838.686455,262.214946 691.241402,246.449275 526,246.449275 C311.832187,246.449275 127.559583,272.933247 45.5058789,310.936585 C26.0087548,319.966717 10.8401285,328.898065 0,337.730628 L1052,337.730628 Z" id="Mask-Copy" fill="url(#linearGradient-7)"></path>
                    <path d="M461.312274,221.419646 L443.611865,221.419646 L443.611865,252.345191 L415.422325,252.345191 L415.422325,221.419646 L344.62069,221.419646 L344.62069,200.578518 L412.800042,103.768116 L443.611865,103.768116 L443.611865,197.88934 L461.312274,197.88934 L461.312274,221.419646 Z M416.918736,138.055133 C415.670477,141.17753 413.798115,144.745929 411.301595,148.760439 L377.598746,200.27972 L416.29461,200.27972 L416.29461,153.44401 C416.29461,146.75316 416.50265,141.623586 416.918736,138.055133 Z M580.510795,181.272286 C581.395949,232.496563 562.586706,257.440184 524.082501,256.103899 C486.906028,255.213042 468.096785,230.26942 467.654208,181.272286 C468.981939,131.384295 487.791182,105.54983 524.082501,103.768116 C561.258975,104.658973 580.068218,130.493438 580.510795,181.272286 Z M548.811752,178.432826 C549.247168,141.737718 542.280621,124.069969 527.911902,125.429047 C513.107768,124.976021 505.705811,142.64377 505.705811,178.432826 C505.705811,213.315829 513.107768,230.757069 527.911902,230.757069 C542.280621,230.757069 549.247168,213.315829 548.811752,178.432826 Z M707.37931,221.419646 L689.678901,221.419646 L689.678901,252.345191 L661.489361,252.345191 L661.489361,221.419646 L590.687726,221.419646 L590.687726,200.578518 L658.867079,103.768116 L689.678901,103.768116 L689.678901,197.88934 L707.37931,197.88934 L707.37931,221.419646 Z M660.448999,138.055133 C659.200739,141.17753 657.328378,144.745929 654.831858,148.760439 L621.129009,200.27972 L659.824872,200.27972 L659.824872,153.44401 C659.824872,146.75316 660.032913,141.623586 660.448999,138.055133 Z" id="404" fill="url(#linearGradient-8)" fill-rule="nonzero"></path>
                    <ellipse id="Oval-Copy-13" fill="#E3E6F6" cx="726.165025" cy="313.25" rx="25.2635468" ry="11.0253623"></ellipse>
                    <ellipse id="Oval-Copy-16" fill="#E3E6F6" cx="718.353521" cy="332.057971" rx="14.8609099" ry="6.48550725"></ellipse>
                    <ellipse id="Oval-Copy-24" fill="#E3E6F6" opacity="0.702590216" cx="737.17734" cy="273.039855" rx="12.955665" ry="5.83695652"></ellipse>
                    <ellipse id="Oval-Copy-25" fill="#E3E6F6" opacity="0.702590216" cx="662.034483" cy="283.416667" rx="12.955665" ry="5.83695652"></ellipse>
                    <ellipse id="Oval-Copy-18" fill="#E3E6F6" cx="436.567806" cy="284.065217" rx="11.0123153" ry="5.1884058"></ellipse>
                    <path d="M597.256158,289.253623 C597.256158,272.060759 611.177235,258.123188 628.349754,258.123188 C645.522273,258.123188 659.44335,272.060759 659.44335,289.253623 L597.256158,289.253623 Z" id="Combined-Shape-Copy-10" fill="#5CBCEA"></path>
                    <path d="M391.261084,289.253623 C391.261084,276.358975 401.701892,265.905797 414.581281,265.905797 C427.46067,265.905797 437.901478,276.358975 437.901478,289.253623 L391.261084,289.253623 Z" id="Combined-Shape-Copy-11" fill="#FFB68E"></path>
                    <path d="M368.579224,299.630435 C368.579224,296.764957 370.899403,294.442029 373.76149,294.442029 C376.623576,294.442029 378.943756,296.764957 378.943756,299.630435 L368.579224,299.630435 Z" id="Combined-Shape-Copy-6" fill="#C9D1FD"></path>
                    <path d="M633.53202,324.275362 C633.53202,298.486066 654.413635,277.57971 680.172414,277.57971 C705.931192,277.57971 726.812808,298.486066 726.812808,324.275362 L633.53202,324.275362 Z" id="Combined-Shape-Copy-7" fill="#F16767"></path>
                    <path d="M702.197044,278.876812 C702.197044,268.131271 710.607695,259.42029 720.982759,259.42029 C731.357822,259.42029 739.768473,268.131271 739.768473,278.876812 L702.197044,278.876812 Z" id="Combined-Shape-Copy-2" fill="#C9D1FD"></path>
                    <ellipse id="Oval-Copy-9" fill="#E3E6F6" cx="398.3867" cy="326.221014" rx="25.2635468" ry="11.0253623"></ellipse>
                    <g id="Combined-Shape" transform="translate(278.785921, 276.752555)">
                        <mask id="mask-10" fill="white">
                            <use xlink:href="#path-9"></use>
                        </mask>
                        <use id="Mask" fill="#6E42F2" xlink:href="#path-9"></use>
                        <path d="M-10.6719191,36.2689778 L-4.89515786,31.0613962 L28.0471637,67.6908969 L22.2704025,72.8984786 L-10.6719191,36.2689778 Z M0.881603394,25.8538145 L6.65836465,20.6462328 L39.6006862,57.2757335 L33.823925,62.4833152 L0.881603394,25.8538145 Z M12.4351259,15.4386511 L18.2118872,10.2310695 L51.1542087,46.8605702 L45.3774475,52.0681519 L12.4351259,15.4386511 Z M23.9886484,5.02348777 L29.7654097,-0.184093901 L62.7077312,36.4454068 L56.93097,41.6529885 L23.9886484,5.02348777 Z M35.5421709,-5.39167558 L41.3189322,-10.5992573 L74.2612537,26.0302435 L68.4844925,31.2378252 L35.5421709,-5.39167558 Z M47.0956934,-15.8068389 L52.8724547,-21.0144206 L85.8147763,15.6150801 L80.038015,20.8226618 L47.0956934,-15.8068389 Z" id="Shape" fill="#845DF7" mask="url(#mask-10)"></path>
                        <path d="M82.677133,24.1749816 L82.677133,70.8706338 L36.036739,70.8706338 C36.036739,45.0813372 56.9183547,24.1749816 82.677133,24.1749816 Z" id="Path" fill="#5A2BE5" opacity="0.473656064" mask="url(#mask-10)"></path>
                    </g>
                    <path d="M343.325123,300.927536 L343.325123,347.623188 L296.684729,347.623188 C296.684729,321.833892 317.566345,300.927536 343.325123,300.927536 Z" id="Combined-Shape" fill="#3BB8F5"></path>
                    <ellipse id="Oval" fill="#E3E6F6" cx="526.647783" cy="338.543478" rx="25.2635468" ry="6.48550725"></ellipse>
                    <g id="Group" transform="translate(510.453202, 242.557971)">
                        <g>
                            <path d="M10.6373857,86.9667468 L14.2617872,86.9667468 L14.2617872,93.3119457 L10.6373857,93.3119457 L10.6373857,86.9667468 Z M24.3731739,88.4414423 L28.6414666,88.4414423 L28.6414666,94.9332455 L24.3731739,94.9332455 L24.3731739,88.4414423 Z" id="Combined-Shape" fill="#DC8E6C"></path>
                            <path d="M13.4781054,39.7622951 L24.4656244,39.7622951 L23.6319735,62.7011359 L23.6319735,91.3955879 L19.3662273,91.3955879 C17.4445247,84.9817095 16.0578702,76.7590492 15.2062637,66.7276071 C8.07827052,51.6912742 7.50221773,42.7028368 13.4781054,39.7622951 Z" id="Rectangle-Copy-5" fill="url(#linearGradient-11)" transform="translate(16.927934, 65.578941) scale(-1, 1) translate(-16.927934, -65.578941) "></path>
                            <path d="M9.3902439,42.1967213 L27.074539,42.1967213 L28.5617722,64.9778632 L29.2649568,92.5081967 L23.7411858,92.5081967 C21.4049792,83.2496638 20.0359661,74.729172 19.6341463,66.9467213 C12.5061531,51.9103884 9.09151899,43.6603884 9.3902439,42.1967213 Z" id="Rectangle" fill="url(#linearGradient-12)"></path>
                            <path d="M17.9268293,14.2921986 L17.9268293,17.1520686 C17.9268293,18.0949938 17.1624374,18.8593857 16.2195122,18.8593857 C15.276587,18.8593857 14.5121951,18.0949938 14.5121951,17.1520686 L14.5121951,14.7592819 C13.6023521,14.2816254 12.6184112,13.2971557 12.2389854,11.4126607 C12.2990083,11.406321 10.3180453,11.270811 10.447678,9.4602461 C10.5773107,7.64968122 15.4888285,2.66269719 15.4888285,3.30207867 L19.7386147,6.61514099 C20.1833962,10.4120599 19.5794677,12.9710791 17.9268293,14.2921986 Z" id="Combined-Shape" fill="#EE9D7A"></path>
                            <path d="M11.5728983,11.2529312 C9.54868968,10.1937141 8.53658537,8.57470903 8.53658537,6.39591605 C8.53658537,4.21712306 10.0509123,2.86971596 13.079566,2.35369473 C14.5775672,0.784564909 15.9329447,-1.08367379e-15 17.1456984,-8.8817842e-16 C18.358452,-8.87359332e-16 19.2277068,0.423303823 19.7534626,1.26991147 C22.5273666,0.578477642 23.9143185,1.13831122 23.9143185,2.94941219 C23.9143185,5.66606365 19.7714903,6.61810103 19.5875661,6.61810103 C19.4036419,6.61810103 18.4539051,4.99505115 16.6864609,6.61810103 C14.00669,8.25075944 14.9121391,6.019103 13.7660776,10.045079 C12.3298012,7.52823726 10.6020597,7.23463215 10.7551389,9.91234251 C10.8845632,10.3788352 11.1571496,10.8256981 11.5728983,11.2529312 Z" id="Path-7" fill="#5E2000"></path>
                            <path d="M19.3775529,43.8771252 C15.0687274,44.0305976 11.7900377,43.841993 9.54148368,43.3113113 C8.49805404,40.5385062 8.68012319,38.8279889 8.68012319,31.2729072 C8.69659611,28.7412069 9.01456688,16.1171775 16.6751265,17.131918 C18.7281729,17.2002674 28.1821136,16.744803 27.402901,42.03823 C26.0534218,43.0457063 23.3783057,43.6586714 19.3775529,43.8771252 Z" id="Path-8" fill="#1A2EA4"></path>
                            <path d="M5.66792339,17.9767049 C7.06313549,17.3756503 8.61240452,17.0409836 10.2439024,17.0409836 C16.3729161,17.0409836 21.3414634,21.7640125 21.3414634,27.5901639 C21.3414634,33.4163154 16.3729161,38.1393443 10.2439024,38.1393443 C9.66330405,38.1393443 9.09311931,38.0969613 8.53658537,38.0152726 L8.53658537,39.1667333 C8.53658537,41.288315 6.81670361,43.0081967 4.69512195,43.0081967 C2.57354029,43.0081967 0.853658537,41.288315 0.853658537,39.1667333 L0.853658537,31.6369093 C0.370744926,31.5660962 6.15475213e-17,31.1501146 0,30.647541 L-1.11022302e-16,24.5327869 C-1.72569824e-16,24.0302132 0.370744926,23.6142317 0.853658537,23.5434185 L0.853658537,21.6939224 C0.853658537,19.5723408 2.57354029,17.852459 4.69512195,17.852459 C5.03121704,17.852459 5.35723106,17.8956212 5.66792339,17.9767049 Z M7.48664969,19.054929 C8.13749124,19.7431489 8.53658537,20.6719289 8.53658537,21.6939224 L8.53658537,36.3692111 C9.09022774,36.4658819 9.66085964,36.5163934 10.2439024,36.5163934 C15.4299909,36.5163934 19.6341463,32.5199844 19.6341463,27.5901639 C19.6341463,22.6603435 15.4299909,18.6639344 10.2439024,18.6639344 C9.28440435,18.6639344 8.35851794,18.800732 7.48664969,19.054929 Z" id="Combined-Shape" fill="#989DBD"></path>
                            <path d="M10.7358676,93.3040389 L14.9145457,93.2368801 C14.9905133,93.2356591 15.06576,93.2517668 15.1345706,93.2839797 L20.3709642,95.7353382 C20.5467042,95.8176089 20.6589743,95.9941301 20.6589743,96.188174 L20.6589743,96.9539703 C20.6589743,97.2301127 20.4351166,97.4539703 20.1589743,97.4539703 L10.7439024,97.4539703 C10.4677601,97.4539703 10.2439024,97.2301127 10.2439024,96.9539703 L10.2439024,93.8039744 C10.2439024,93.5309647 10.4628932,93.3084261 10.7358676,93.3040389 Z M24.3468466,94.1749307 L29.2107961,94.1065143 C29.2843341,94.10548 29.3571949,94.1206811 29.4241845,94.1510341 L34.6577959,96.522388 C34.8365877,96.6033987 34.9514398,96.7815301 34.9514398,96.9778188 L34.9514398,97.7392418 C34.9514398,98.0153842 34.7275822,98.2392418 34.4514398,98.2392418 L24.3538789,98.2392418 C24.0777365,98.2392418 23.8538789,98.0153842 23.8538789,97.7392418 L23.8538789,94.6748812 C23.8538789,94.4014812 24.0734736,94.1787759 24.3468466,94.1749307 Z" id="Combined-Shape" fill="#161C43"></path>
                            <path d="M28.8801686,24.9639372 L23.0487805,24.3862365 C23.8415825,17.2122602 24.5852686,12.4359931 25.2798387,10.0574351 C25.6118402,6.7297123 25.5213891,4.13768629 27.8756193,5.05564803 C29.4451061,5.66762253 29.7799559,12.3037189 28.8801686,24.9639372 Z" id="Path-12" fill="#E38661"></path>
                            <path d="M21.3414634,8.02489646 L21.3414634,8.60611338 C21.3414634,8.88225575 21.565321,9.10611338 21.8414634,9.10611338 C21.8528772,9.10611338 21.8642876,9.10572255 21.8756747,9.10494159 L31.7330399,8.42889126 C32.0085352,8.4099969 32.2165512,8.17134699 32.1976569,7.89585177 C32.1965903,7.8803004 32.1947971,7.8648074 32.1922831,7.84942355 L31.7942835,5.41395844 C31.7497475,5.14143108 31.4927169,4.95660754 31.2201896,5.0011435 C31.2038388,5.00381552 31.1876309,5.00729858 31.1716259,5.01157978 L21.7122602,7.54187831 C21.4935668,7.60037692 21.3414634,7.79851421 21.3414634,8.02489646 Z" id="Path-10" fill="#161C43"></path>
                            <path d="M20.4878049,23.0386903 C20.3285776,25.7056364 19.7594719,27.4832153 18.7804878,28.3714269 C18.9226253,28.5367862 21.3512588,29.0822979 26.0663884,30.0079622 C29.7882229,30.3837186 31.3178334,28.1772557 30.6552198,23.3885734 C30.2492319,18.7478163 29.7862082,14.2171447 29.266149,9.79655841 C30.445904,6.71865753 30.445904,4.86232829 29.266149,4.22757067 C27.4965165,3.27543424 27.1019912,6.4963735 27.1019912,9.45837761 C27.1019912,11.433047 26.6089215,16.4655519 25.6227819,24.5558921 L20.4878049,23.0386903 Z" id="Path-11" fill="#EE9D7A"></path>
                            <path d="M12.1308861,22.0379056 C10.9266873,25.5369951 13.4392417,27.7993263 19.6685493,28.8248989 C19.8254841,28.710389 22.0702976,27.3644017 21.6203345,22.9737967 C16.6656692,19.73648 13.5025198,19.4245163 12.1308861,22.0379056 Z" id="Path-9" fill="#273DBD"></path>
                        </g>
                    </g>
                    <path d="M678.229064,295.73913 C677.155782,295.73913 676.285714,294.868032 676.285714,293.793478 C676.285714,292.718924 677.155782,291.847826 678.229064,291.847826 C679.302346,291.847826 680.172414,292.718924 680.172414,293.793478 C680.172414,294.868032 679.302346,295.73913 678.229064,295.73913 Z M678.229064,287.956522 C677.155782,287.956522 676.285714,287.085424 676.285714,286.01087 C676.285714,284.936316 677.155782,284.065217 678.229064,284.065217 C679.302346,284.065217 680.172414,284.936316 680.172414,286.01087 C680.172414,287.085424 679.302346,287.956522 678.229064,287.956522 Z M670.455665,295.73913 C669.382383,295.73913 668.512315,294.868032 668.512315,293.793478 C668.512315,292.718924 669.382383,291.847826 670.455665,291.847826 C671.528947,291.847826 672.399015,292.718924 672.399015,293.793478 C672.399015,294.868032 671.528947,295.73913 670.455665,295.73913 Z M662.682266,303.521739 C661.608984,303.521739 660.738916,302.650641 660.738916,301.576087 C660.738916,300.501533 661.608984,299.630435 662.682266,299.630435 C663.755548,299.630435 664.625616,300.501533 664.625616,301.576087 C664.625616,302.650641 663.755548,303.521739 662.682266,303.521739 Z M654.908867,311.304348 C653.835585,311.304348 652.965517,310.43325 652.965517,309.358696 C652.965517,308.284142 653.835585,307.413043 654.908867,307.413043 C655.982149,307.413043 656.852217,308.284142 656.852217,309.358696 C656.852217,310.43325 655.982149,311.304348 654.908867,311.304348 Z M647.135468,319.086957 C646.062186,319.086957 645.192118,318.215858 645.192118,317.141304 C645.192118,316.06675 646.062186,315.195652 647.135468,315.195652 C648.20875,315.195652 649.078818,316.06675 649.078818,317.141304 C649.078818,318.215858 648.20875,319.086957 647.135468,319.086957 Z M678.229064,303.521739 C677.155782,303.521739 676.285714,302.650641 676.285714,301.576087 C676.285714,300.501533 677.155782,299.630435 678.229064,299.630435 C679.302346,299.630435 680.172414,300.501533 680.172414,301.576087 C680.172414,302.650641 679.302346,303.521739 678.229064,303.521739 Z M678.229064,311.304348 C677.155782,311.304348 676.285714,310.43325 676.285714,309.358696 C676.285714,308.284142 677.155782,307.413043 678.229064,307.413043 C679.302346,307.413043 680.172414,308.284142 680.172414,309.358696 C680.172414,310.43325 679.302346,311.304348 678.229064,311.304348 Z M678.229064,319.086957 C677.155782,319.086957 676.285714,318.215858 676.285714,317.141304 C676.285714,316.06675 677.155782,315.195652 678.229064,315.195652 C679.302346,315.195652 680.172414,316.06675 680.172414,317.141304 C680.172414,318.215858 679.302346,319.086957 678.229064,319.086957 Z M670.455665,319.086957 C669.382383,319.086957 668.512315,318.215858 668.512315,317.141304 C668.512315,316.06675 669.382383,315.195652 670.455665,315.195652 C671.528947,315.195652 672.399015,316.06675 672.399015,317.141304 C672.399015,318.215858 671.528947,319.086957 670.455665,319.086957 Z M670.455665,311.304348 C669.382383,311.304348 668.512315,310.43325 668.512315,309.358696 C668.512315,308.284142 669.382383,307.413043 670.455665,307.413043 C671.528947,307.413043 672.399015,308.284142 672.399015,309.358696 C672.399015,310.43325 671.528947,311.304348 670.455665,311.304348 Z M670.455665,303.521739 C669.382383,303.521739 668.512315,302.650641 668.512315,301.576087 C668.512315,300.501533 669.382383,299.630435 670.455665,299.630435 C671.528947,299.630435 672.399015,300.501533 672.399015,301.576087 C672.399015,302.650641 671.528947,303.521739 670.455665,303.521739 Z M662.682266,319.086957 C661.608984,319.086957 660.738916,318.215858 660.738916,317.141304 C660.738916,316.06675 661.608984,315.195652 662.682266,315.195652 C663.755548,315.195652 664.625616,316.06675 664.625616,317.141304 C664.625616,318.215858 663.755548,319.086957 662.682266,319.086957 Z M662.682266,311.304348 C661.608984,311.304348 660.738916,310.43325 660.738916,309.358696 C660.738916,308.284142 661.608984,307.413043 662.682266,307.413043 C663.755548,307.413043 664.625616,308.284142 664.625616,309.358696 C664.625616,310.43325 663.755548,311.304348 662.682266,311.304348 Z M654.908867,319.086957 C653.835585,319.086957 652.965517,318.215858 652.965517,317.141304 C652.965517,316.06675 653.835585,315.195652 654.908867,315.195652 C655.982149,315.195652 656.852217,316.06675 656.852217,317.141304 C656.852217,318.215858 655.982149,319.086957 654.908867,319.086957 Z" id="Combined-Shape" fill="#FFFFFF" opacity="0.4"></path>
                    <path d="M720.334975,307.413043 L720.334975,338.543478 L689.241379,338.543478 C689.241379,321.350614 703.162456,307.413043 720.334975,307.413043 Z" id="Combined-Shape-Copy" fill="#6E42F2" transform="translate(704.788177, 322.978261) scale(-1, 1) translate(-704.788177, -322.978261) "></path>
                    <polygon id="Path-3" fill="#D8D8D8" points="343.325123 337.246377 343.325123 347.623188 361.463054 337.246377"></polygon>
                </g>
            </g>
        </g>
    </g>
</svg>