<?xml version="1.0" encoding="UTF-8"?>
<svg width="354px" height="106px" viewBox="0 0 354 106" version="1.1" xmlns="http://www.w3.org/2000/svg" xmlns:xlink="http://www.w3.org/1999/xlink">
    <!-- Generator: Sketch 53.2 (72643) - https://sketchapp.com -->
    <title>Group</title>
    <desc>Created with Sketch.</desc>
    <defs>
        <linearGradient x1="53.1834303%" y1="59.2998798%" x2="53.1834303%" y2="-31.6469254%" id="linearGradient-1">
            <stop stop-color="#E3E6FF" stop-opacity="0" offset="0%"></stop>
            <stop stop-color="#AAB4F7" offset="100%"></stop>
        </linearGradient>
        <linearGradient x1="35.8710937%" y1="56.2637326%" x2="63.6744792%" y2="50%" id="linearGradient-2">
            <stop stop-color="#FFFFFF" stop-opacity="0.00505354021" offset="0%"></stop>
            <stop stop-color="#C6CDF4" offset="100%"></stop>
        </linearGradient>
        <linearGradient x1="45.6312747%" y1="75.4346891%" x2="81.1734453%" y2="-57.5422519%" id="linearGradient-3">
            <stop stop-color="#E3E6FF" stop-opacity="0" offset="0%"></stop>
            <stop stop-color="#AAB4F7" offset="100%"></stop>
        </linearGradient>
        <linearGradient x1="45.9711268%" y1="75.4346891%" x2="84.1651093%" y2="-95.6990946%" id="linearGradient-4">
            <stop stop-color="#E3E6FF" stop-opacity="0" offset="0%"></stop>
            <stop stop-color="#AAB4F7" offset="100%"></stop>
        </linearGradient>
        <linearGradient x1="60.1758675%" y1="40.4434781%" x2="32.5242806%" y2="73.0165749%" id="linearGradient-5">
            <stop stop-color="#98A6F8" offset="0%"></stop>
            <stop stop-color="#BFC9FF" offset="100%"></stop>
        </linearGradient>
        <linearGradient x1="76.1951281%" y1="46.2372449%" x2="28.9192463%" y2="62.1972656%" id="linearGradient-6">
            <stop stop-color="#9FACF9" offset="0%"></stop>
            <stop stop-color="#B4BEFB" offset="100%"></stop>
        </linearGradient>
        <linearGradient x1="83.1572116%" y1="50%" x2="16.8427884%" y2="67.8152902%" id="linearGradient-7">
            <stop stop-color="#A3AEFA" offset="0%"></stop>
            <stop stop-color="#B9C2FB" offset="100%"></stop>
        </linearGradient>
        <linearGradient x1="72.0687218%" y1="46.2372449%" x2="27.3219492%" y2="67.8152902%" id="linearGradient-8">
            <stop stop-color="#98A6F9" offset="0%"></stop>
            <stop stop-color="#BBC4FA" offset="100%"></stop>
        </linearGradient>
        <linearGradient x1="68.1670513%" y1="53.719723%" x2="31.7491319%" y2="69.0287272%" id="linearGradient-9">
            <stop stop-color="#95A4F8" offset="0%"></stop>
            <stop stop-color="#B9C2FB" offset="100%"></stop>
        </linearGradient>
        <linearGradient x1="83.6987688%" y1="32.2895499%" x2="21.1280428%" y2="62.7214622%" id="linearGradient-10">
            <stop stop-color="#D1DAF8" offset="0%"></stop>
            <stop stop-color="#BAC0FA" offset="100%"></stop>
        </linearGradient>
        <linearGradient x1="89.9495086%" y1="12.1015294%" x2="50%" y2="72.2100172%" id="linearGradient-11">
            <stop stop-color="#98A6F9" offset="0%"></stop>
            <stop stop-color="#BBC4FA" offset="100%"></stop>
        </linearGradient>
        <linearGradient x1="28.635411%" y1="109.48691%" x2="46.2817912%" y2="35.3445868%" id="linearGradient-12">
            <stop stop-color="#FFFFFF" offset="0%"></stop>
            <stop stop-color="#919EEA" offset="100%"></stop>
        </linearGradient>
    </defs>
    <g id="我的线索" stroke="none" stroke-width="1" fill="none" fill-rule="evenodd">
        <g id="3、Facebook收件箱-未绑定（空页面）" transform="translate(-702.000000, -374.000000)">
            <g id="Group" transform="translate(675.000000, 371.918224)">
                <g id="Rectangle" transform="translate(0.000000, 77.081776)">
                    <path d="M408,52 C396.679369,39.7842167 381.569029,30.1269236 362.668979,23.0281207 C325.270032,8.98118681 268.086019,9.09494702e-13 204,9.09494702e-13 C120.938719,9.09494702e-13 49.4717774,15.0870521 17.6486679,36.7363104 C10.0870456,41.8804813 4.20415632,46.9683778 0,52 L408,52 Z" id="Mask-Copy" fill="url(#linearGradient-1)"></path>
                    <polygon fill="url(#linearGradient-2)" points="129 12 188.938188 12 204 31 129 31"></polygon>
                </g>
                <path d="M141.065949,51.6754349 C141.145474,51.5998777 141.214702,51.4907765 141.215299,51.3844328 C142.494893,48.881457 143.684127,46.3034719 144.783,43.6504774 C146.85002,44.4815024 150.601486,45.9065315 156.771732,42.7826193 C156.786532,43.6894356 156.599528,44.6189352 156.129206,45.559232 C153.444306,50.70976 147.791862,49.9090954 147.466337,53.4088185 C147.140811,56.9085416 154.186824,67.2124634 142.249897,72.847643 C141.398588,73.2190811 137.531021,72.5392372 130.647195,70.8081112 C130.039174,70.5520314 129.447534,70.2895317 128.872272,70.0206119 C133.576956,64.4369287 137.641515,58.3218696 141.065949,51.6754349 Z M131.714366,39.7568737 C132.16953,38.4267249 132.097916,36.4994923 131.499524,33.9751759 C130.746653,31.1950613 128.491844,24.2591967 140.31132,27.4751186 C141.053629,27.4755397 144.067434,29.2198221 148.310253,19.8950169 C148.673673,18.9768738 150.213108,17.7219446 151.601325,17.9804361 C150.655315,24.4437481 147.159822,37.9418232 140.753799,50.989497 C139.386727,50.1142243 135.614768,46.7492551 133.305792,43.2353076 C132.72682,42.3541913 132.196344,41.1947134 131.714366,39.7568737 Z M131.399801,40.4471435 C133.493823,46.1811309 138.642043,50.1201143 140.522331,51.4581858 C137.25445,58.0364365 133.244298,64.477159 128.445481,69.8184782 C122.146863,66.7961553 117.86879,62.9818767 115.611262,58.3756423 C112.81215,50.6209369 117.019279,45.1554878 128.232649,41.9792951 C129.738947,41.9792951 130.794665,41.4685779 131.399801,40.4471435 Z M156.739083,42.2393534 C152.105106,44.1933569 148.171408,44.5383494 144.937988,43.274331 C148.107576,35.5415937 150.513578,27.1749953 152.155996,18.174536 C153.90307,19.1050122 155.071266,23.1155933 152.601023,34.4714068 C154.004536,36.4712567 156.426929,39.2126654 156.739083,42.2393534 Z" id="Combined-Shape" fill="url(#linearGradient-3)" transform="translate(135.772542, 45.446070) rotate(-22.000000) translate(-135.772542, -45.446070) "></path>
                <path d="M276.074656,44.3326368 C276.116313,44.2914233 276.152577,44.2319119 276.152889,44.1739049 C276.823153,42.8086448 277.446085,41.4024723 278.021684,39.9553856 C279.049338,40.3856162 280.871847,41.1077276 283.818102,39.7231267 C283.816493,40.1969067 283.716597,40.6817269 283.481137,41.171927 C282.07476,43.9813058 279.113956,43.5445797 278.943443,45.4535196 C278.772929,47.3624595 282.463698,52.9827805 276.211022,56.0565147 C275.765098,56.2591174 273.73923,55.8882934 270.133416,54.9440429 C269.921035,54.8508982 269.712469,54.7561963 269.507719,54.6599373 C269.531446,54.5994941 269.556401,54.5356495 269.582633,54.4682672 C272.091505,51.3878297 274.255513,48.0092867 276.074656,44.3326383 Z M270.841972,36.644996 C270.821044,36.1261978 270.733678,35.5289828 270.579874,34.8533509 C270.185514,33.3369248 269.004423,29.5537259 275.195577,31.3078651 C275.584405,31.3080948 277.163066,32.2595215 279.385494,27.1732642 C279.614631,26.5704522 280.736277,25.7014827 281.537992,26.3263762 C280.971361,29.9794755 279.152572,37.0836053 275.911151,43.9584872 C275.195065,43.4810657 273.219278,41.6456279 272.009814,39.7289293 C271.566172,39.0258677 271.176891,37.9978899 270.841972,36.644996 Z M270.803158,37.5271778 C271.71669,41.0234523 274.735054,43.4324511 275.789906,44.2141356 C274.063894,47.832173 271.942567,51.3739396 269.40101,54.3015504 C269.40723,54.3326245 269.384486,54.4417937 269.348958,54.5846213 C265.847351,52.9083587 263.483515,50.767717 262.257451,48.1626962 C260.79125,43.9328569 262.994984,40.9517029 268.868654,39.2192341 C269.991349,39.2192341 270.636183,38.6552153 270.803158,37.5271778 Z M283.80311,39.3874276 C281.583563,40.2727172 279.683483,40.3936463 278.102869,39.7502148 C279.703288,35.684382 280.932048,31.2972808 281.789147,26.5889112 C282.456659,27.4965316 282.731089,29.8676598 281.633041,35.1240223 C282.372123,36.2206487 283.650593,37.7260739 283.80311,39.3874276 Z" id="Combined-Shape-Copy" fill="url(#linearGradient-4)" transform="translate(272.818112, 41.110202) rotate(-22.000000) translate(-272.818112, -41.110202) "></path>
                <path d="M119.074656,59.3326368 C119.116313,59.2914233 119.152577,59.2319119 119.152889,59.1739049 C119.823153,57.8086448 120.446085,56.4024723 121.021684,54.9553856 C122.049338,55.3856162 123.871847,56.1077276 126.818102,54.7231267 C126.816493,55.1969067 126.716597,55.6817269 126.481137,56.171927 C125.07476,58.9813058 122.113956,58.5445797 121.943443,60.4535196 C121.772929,62.3624595 125.463698,67.9827805 119.211022,71.0565147 C118.765098,71.2591174 116.73923,70.8882934 113.133416,69.9440429 C112.921035,69.8508982 112.712469,69.7561963 112.507719,69.6599373 C112.531446,69.5994941 112.556401,69.5356495 112.582633,69.4682672 C115.091505,66.3878297 117.255513,63.0092867 119.074656,59.3326383 Z M113.841972,51.644996 C113.821044,51.1261978 113.733678,50.5289828 113.579874,49.8533509 C113.185514,48.3369248 112.004423,44.5537259 118.195577,46.3078651 C118.584405,46.3080948 120.163066,47.2595215 122.385494,42.1732642 C122.614631,41.5704522 123.736277,40.7014827 124.537992,41.3263762 C123.971361,44.9794755 122.152572,52.0836053 118.911151,58.9584872 C118.195065,58.4810657 116.219278,56.6456279 115.009814,54.7289293 C114.566172,54.0258677 114.176891,52.9978899 113.841972,51.644996 Z M113.803158,52.5271778 C114.71669,56.0234523 117.735054,58.4324511 118.789906,59.2141356 C117.063894,62.832173 114.942567,66.3739396 112.40101,69.3015504 C112.40723,69.3326245 112.384486,69.4417937 112.348958,69.5846213 C108.847351,67.9083587 106.483515,65.767717 105.257451,63.1626962 C103.79125,58.9328569 105.994984,55.9517029 111.868654,54.2192341 C112.991349,54.2192341 113.636183,53.6552153 113.803158,52.5271778 Z M126.80311,54.3874276 C124.583563,55.2727172 122.683483,55.3936463 121.102869,54.7502148 C122.703288,50.684382 123.932048,46.2972808 124.789147,41.5889112 C125.456659,42.4965316 125.731089,44.8676598 124.633041,50.1240223 C125.372123,51.2206487 126.650593,52.7260739 126.80311,54.3874276 Z" id="Combined-Shape-Copy-2" fill="url(#linearGradient-4)" transform="translate(115.818112, 56.110202) rotate(-22.000000) translate(-115.818112, -56.110202) "></path>
                <path d="M171,59.0817757 L175.491455,77.7221565 L163.285168,71.8511645 C162.787462,71.6117769 162.578053,71.0142439 162.81744,70.5165371 C162.842576,70.4642763 162.872211,70.4143011 162.906009,70.3671765 L171,59.0817757 Z" id="Triangle" fill="url(#linearGradient-5)"></path>
                <polygon id="Rectangle-Copy-2" fill="url(#linearGradient-6)" points="171 59.0426523 200 51.5579964 200 81.9174704 171 91.0817757"></polygon>
                <polygon id="Rectangle-Copy-3" fill="url(#linearGradient-7)" points="200 51.5579964 233 60.0817757 233 92.0817757 200 84.8885872"></polygon>
                <polygon id="Rectangle" fill="url(#linearGradient-8)" points="171 59.0817757 204 68.605555 204 108.081776 171 93.5854378"></polygon>
                <polygon id="Rectangle-Copy" fill="url(#linearGradient-9)" points="204 68.5664316 233 60.0817757 233 91.9174704 204 108.081776"></polygon>
                <path d="M204,68.605555 L233,60.0817757 L241.64006,73.8140586 C241.934174,74.2815151 241.793652,74.8988897 241.326195,75.1930034 C241.284011,75.219545 241.239901,75.2428958 241.194235,75.2628605 L214.302488,87.0196295 C213.815332,87.2326084 213.246693,87.0271492 213.008179,86.5519737 L204,68.605555 Z" id="Rectangle" fill="url(#linearGradient-10)"></path>
                <path d="M217.144275,11.9490002 L222.644275,15.3490002 L234.019275,4.49515405 L224.644275,15.6105387 L232.144275,18.2259233 L237.144275,1.22592328 L217.144275,11.9490002 Z M224.15677,21.2278879 L227.15677,18.4043585 L224.15677,17.2278879 L224.15677,21.2278879 Z" id="Shape" fill="url(#linearGradient-11)" fill-rule="nonzero" transform="translate(227.144275, 11.226906) rotate(7.000000) translate(-227.144275, -11.226906) "></path>
                <path d="M220.278745,21.908271 L220.602114,22.854544 C220.400082,22.9235842 219.63824,23.2351529 218.79545,23.6073404 L218.391476,22.6925704 C219.258591,22.3096402 220.043154,21.9887794 220.278745,21.908271 Z M216.560359,23.5336385 L216.990299,24.4364962 C216.407736,24.7139119 215.81217,25.0067113 215.206932,25.3142729 L214.753903,24.4227768 C215.366899,24.111273 215.970157,23.8146919 216.560359,23.5336385 Z M212.970758,25.3574664 L213.446214,26.2372062 C212.866155,26.5506991 212.287032,26.8731829 211.710298,27.2044642 L211.212212,26.3373369 C211.796538,26.0016941 212.383202,25.6750115 212.970758,25.3574664 Z M209.479401,27.3639196 L210.000843,28.2172062 C209.433883,28.5636745 208.873852,28.9168207 208.321753,29.2765288 L207.775865,28.4386706 C208.33615,28.0736294 208.904326,27.7153468 209.479401,27.3639196 Z M206.103973,29.5649842 L206.675736,30.3854028 C206.128393,30.7668557 205.592278,31.1538206 205.068222,31.5462047 L204.468865,30.7457229 C205.002134,30.3464403 205.547444,29.9528383 206.103973,29.5649842 Z M202.872301,31.9878523 L203.501329,32.7652353 C202.981465,33.1858886 202.476904,33.6113695 201.98841,34.0415901 L201.327482,33.2911404 C201.826576,32.8515841 202.34177,32.4171374 202.872301,31.9878523 Z M199.836043,34.6669099 L200.531476,35.3855002 C200.050845,35.8506427 199.589979,36.3201563 199.14963,36.7939487 L198.417144,36.1131662 C198.869696,35.6262446 199.342916,35.1441455 199.836043,34.6669099 Z M197.068775,37.6533086 L197.841259,38.2883427 C197.417051,38.8043696 197.017879,39.3244187 196.644517,39.8483894 L195.83012,39.2680808 C196.217033,38.7250932 196.63019,38.1868238 197.068775,37.6533086 Z M194.69847,40.9952115 L195.556593,41.5086559 C195.215723,42.0783542 194.905841,42.6517313 194.627739,43.2286943 L193.726924,42.7944923 C194.018255,42.1900831 194.342405,41.5903061 194.69847,40.9952115 Z M192.933252,44.6739647 L193.873256,45.0151263 C193.64933,45.6321118 193.462,46.2524439 193.312062,46.8760882 L192.339768,46.6423274 C192.498549,45.9819 192.696698,45.3257416 192.933252,44.6739647 Z M191.974164,48.7087231 L192.967759,48.8217162 C192.894766,49.4635749 192.861458,50.1085133 192.868621,50.7565772 L191.868682,50.7676287 C191.861059,50.0779541 191.896507,49.3915915 191.974164,48.7087231 Z M192.019108,52.8274995 L193.010136,52.6938428 C193.095441,53.3263579 193.219304,53.9616176 193.382428,54.5996571 L192.413591,54.847355 C192.240897,54.1718871 192.109611,53.4985538 192.019108,52.8274995 Z M193.044316,56.8474946 L193.980649,56.4963817 C194.20402,57.0920594 194.461567,57.6898963 194.753813,58.2898768 L193.854792,58.7277832 C193.548857,58.099699 193.27884,57.4729154 193.044316,56.8474946 Z M194.821877,60.5171542 L195.681695,60.0065524 C196.007449,60.5550989 196.362123,61.1051826 196.74607,61.6567715 L195.925328,62.2280699 C195.52776,61.6569134 195.160043,61.0866011 194.821877,60.5171542 Z M197.123987,63.8385939 L197.907718,63.217493 C198.306067,63.7201467 198.728643,64.2238576 199.175682,64.7285976 L198.427082,65.3916194 C197.968067,64.8733587 197.533774,64.3556805 197.123987,63.8385939 Z M202.12014,66.9467419 L201.826182,67.9025603 C201.175707,67.7025094 200.560535,67.4165017 199.988831,67.0438297 L199.904936,66.9751018 C199.864635,66.9339829 199.864635,66.9339829 199.824484,66.8928798 L200.540128,66.194414 C200.56015,66.214911 200.569962,66.2249562 200.579997,66.2352114 C201.059976,66.5422472 201.575017,66.7790915 202.12014,66.9467419 Z M203.974509,68.2449276 L203.997681,67.2451961 C204.616502,67.2595396 205.246464,67.1968333 205.869825,67.0605403 L206.083421,68.0374623 C205.383339,68.19053 204.673971,68.2611402 203.974509,68.2449276 Z M208.108637,67.3471254 L207.68171,66.4428394 C208.259941,66.1698481 208.800043,65.835026 209.283063,65.4499585 L209.906426,66.2318912 C209.362316,66.6656601 208.756228,67.0413879 208.108637,67.3471254 Z M211.371734,64.7154149 L210.563929,64.1259654 C210.939432,63.6113609 211.218957,63.0614329 211.391966,62.4908004 L212.348949,62.7809463 C212.142559,63.4616765 211.811917,64.1121711 211.371734,64.7154149 Z M212.285585,60.4338643 L211.344914,60.773185 C211.15528,60.2474787 210.838385,59.7068884 210.417994,59.1949333 L211.190827,58.5603238 C211.680965,59.1572182 212.055609,59.7963199 212.285585,60.4338643 Z M209.614182,57.0889843 L209.030547,57.9010009 C208.519158,57.5334418 207.963681,57.2303243 207.384728,57.0066635 L207.745092,56.0738516 C208.404456,56.3285771 209.034756,56.6725243 209.614182,57.0889843 Z M205.542833,55.5799943 L205.476823,56.5778133 C205.010976,56.5469955 204.545671,56.5702897 204.126106,56.6408071 C204.015104,56.669715 204.015104,56.669715 203.904753,56.6984488 C203.821006,56.7202828 203.821006,56.7202828 203.737664,56.7420972 L203.484109,55.7747763 C203.568362,55.7527232 203.568362,55.7527232 203.652601,55.730761 C203.763282,55.7019416 203.763282,55.7019416 203.91507,55.6642368 C204.454444,55.571268 204.998905,55.544011 205.542833,55.5799943 Z M201.516314,56.3835531 L201.883083,57.3138651 C201.25385,57.561936 200.732965,57.853501 200.279507,58.2257814 L199.644974,57.452886 C200.18512,57.0094359 200.795784,56.6676171 201.516314,56.3835531 Z M198.223479,59.14948 L199.089281,59.6498664 C198.804744,60.142192 198.562553,60.7173631 198.362886,61.3873888 L197.404533,61.1018008 C197.625808,60.3592664 197.898312,59.7121058 198.223479,59.14948 Z M196.962022,63.1335906 L197.950706,63.2836038 C197.860243,63.8798124 197.79225,64.5275434 197.747207,65.22981 L196.749258,65.1658017 C196.796093,64.4355943 196.867087,63.7592743 196.962022,63.1335906 Z M196.682075,67.1928622 L197.682059,67.1984917 C197.68152,67.3135234 197.68152,67.3135234 197.681411,67.4297594 L196.681411,67.4297439 C196.681523,67.3107223 196.681523,67.3107223 196.682075,67.1928622 Z" id="Path-2" fill="url(#linearGradient-12)" fill-rule="nonzero"></path>
                <path d="M181.184088,87.1682944 L181.151388,87.1584476 C180.286788,86.8515721 179.452588,86.2776066 178.778888,85.574051 C178.670088,84.0212381 179.295188,82.7980848 180.282188,82.1617005 C181.289088,81.5059224 182.558188,81.3170156 184.054588,81.7342643 C185.389388,82.1064532 186.683588,82.9339701 187.788588,84.3028118 C188.550288,85.2513161 188.949588,86.2390853 189.142388,87.0401967 C189.406488,88.1373831 189.311288,88.9175418 189.132988,89.5618948 L181.184088,87.1682944 Z M193.696698,86.0903279 C192.977098,85.8855721 192.359098,85.8870442 191.783598,86.0462181 C191.297598,86.1795072 190.874998,86.4306512 190.526098,86.813596 C190.350498,86.0433067 190.096198,85.3672101 189.788198,84.7851746 C189.125998,83.5383902 188.298998,82.5203127 187.302998,81.6930142 C186.306298,80.8694603 185.202598,80.2616275 183.955498,79.921772 C182.714198,79.5834971 181.612298,79.5829315 180.617798,79.8488281 C179.623998,80.1110858 178.779998,80.6202937 178.129798,81.4733437 C177.824798,81.8718447 177.581798,82.3243803 177.397098,82.9779712 C177.368098,83.0802165 177.338498,83.2127032 177.316598,83.3208887 C177.094598,82.7262227 176.991898,82.2001004 177.000498,81.6133748 C177.019198,80.3624531 177.637798,79.2817635 178.782198,78.7748647 C178.736398,78.560292 178.718798,78.37138 178.718798,78.159961 C178.718798,76.5207833 180.133498,75.5491006 181.879898,76.0041474 C182.083398,76.0571719 182.283298,76.120854 182.533798,76.2337004 C183.556598,74.8086746 185.432398,74.2083121 187.502998,74.7279889 C190.360498,75.4451609 192.756398,78.0639303 193.215798,80.9165784 C195.352198,82.0837037 196.921998,84.4726586 196.921998,86.8327586 C196.921998,87.3707586 196.826698,87.8805516 196.672898,88.3270066 C196.369398,87.8801923 196.038098,87.501617 195.648198,87.1677492 C195.069998,86.6752635 194.419798,86.2960796 193.696698,86.0903279 Z M191.525648,87.4735477 C192.051348,87.0080286 192.806548,86.8311015 193.729548,87.1123137 C194.608748,87.380312 195.350148,87.9962251 195.869948,88.7279911 C195.989848,88.8971053 196.084248,89.0744306 196.177648,89.2566461 C195.562148,90.1118844 194.511148,90.5732978 193.444248,90.6125749 C192.643048,90.6405475 191.930048,90.4144877 191.792648,90.3760563 C191.573648,90.314617 191.055148,90.1517877 191.055148,90.1517877 C191.055148,90.1517877 190.781548,89.4396555 190.881648,88.7261992 C190.954248,88.2114737 191.136748,87.8159056 191.525648,87.4735477 Z" id="Fill-8" fill="#FFFFFF" opacity="0.601609003"></path>
            </g>
        </g>
    </g>
</svg>