<svg width="32" height="32" viewBox="0 0 32 32" fill="none" xmlns="http://www.w3.org/2000/svg">
<path d="M10.665 10.4573C10.665 10.4573 15.2009 10.5167 17.9387 7.12012C17.9387 7.12012 19.5911 5.73775 23.5276 6.27773C23.5276 6.27773 26.5947 6.18594 29.4459 3H32V6.57473C32 6.57473 27.9447 6.84472 25.1476 9.64187C25.1476 9.64187 21.9022 11.3104 18.7001 10.8136C18.7001 10.8136 16.3403 13.0978 13.878 13.3354L13.9698 15.6789C13.9698 15.6789 17.6201 12.2824 22.5772 12.4012C22.5772 12.4012 24.3106 12.7468 25.7523 11.1484C25.7523 11.1484 28.8411 8.0759 31.9946 8.85888V12.5254C31.9946 12.5254 28.1391 13.0438 25.5741 15.4306C25.5741 15.4306 23.4628 17.1207 18.4463 16.8939L13.5162 19.5237H10.908L10.665 10.4573Z" fill="#CF2E28"/>
<path d="M0 19.5365V23.2624C0 23.2624 3.78532 23.3218 7.39245 20.3195C7.39245 20.3195 8.05124 19.4771 13.5213 19.5365C13.5213 19.5365 14.9631 18.8777 18.4514 16.653V18.6941L13.4349 21.5021C13.4349 21.5021 7.66785 20.6435 4.42251 24.2992C4.42251 24.2992 1.17718 26.0596 0.00539989 25.606V29.2995C0.00539989 29.2995 4.19572 29.7477 6.40427 27.2692C6.40427 27.2692 8.29964 24.7906 11.3614 25.8706C11.3614 25.8706 14.9091 25.7518 16.2267 23.4082C16.2267 23.4082 18.4784 21.2429 21.335 21.4265V12.4141C21.335 12.4141 16.2267 13.1646 13.9749 15.6918C13.9749 15.6918 8.04584 15.5568 4.9625 17.4738C4.9571 17.4684 3.06714 19.2827 0 19.5365Z" fill="#FFF100"/>
<path d="M14.1099 19.5365C14.1099 19.5365 14.7201 18.8831 18.446 16.9068L21.3296 16.815V12.4141C21.3296 12.4141 16.2213 13.1646 13.9695 15.6918C13.9695 15.6918 11.6476 15.6594 10.8052 15.8376C10.8322 17.1552 10.8646 18.7481 10.8538 19.5905C11.2966 19.6067 13.3161 19.5257 14.1099 19.5365Z" fill="#EA5514"/>
</svg>
