<?xml version="1.0" standalone="no"?><!DOCTYPE svg PUBLIC "-//W3C//DTD SVG 1.1//EN" "http://www.w3.org/Graphics/SVG/1.1/DTD/svg11.dtd"><svg t="1686819317528" class="icon" viewBox="0 0 2600 1024" version="1.1" xmlns="http://www.w3.org/2000/svg" p-id="24845" data-spm-anchor-id="a313x.7781069.0.i0" xmlns:xlink="http://www.w3.org/1999/xlink" width="507.8125" height="200"><path d="M857.25184 886.70208v55.9104h159.76448s41.984-5.12 46.08-46.6944c0 0 13.7216-71.8848-46.6944-84.992h-109.3632s-27.4432-24.576 1.2288-34.2016h148.6848v-45.69088h-155.648s-53.06368 7.9872-49.58208 58.1632c0 0-3.072 63.09888 50.7904 65.55648l113.27488 1.2288s19.456 16.9984-0.4096 31.9488l-158.12608-1.2288z m740.29056 0v55.9104h159.76448s41.984-5.12 46.08-46.6944c0 0 13.7216-71.8848-46.6944-84.992h-109.3632s-27.46368-24.576 1.2288-34.2016h148.6848v-45.69088h-155.66848s-53.0432 7.9872-49.5616 58.1632c0 0-3.072 63.09888 50.7904 65.55648l113.27488 1.2288s19.456 16.9984-0.4096 31.9488l-158.12608-1.2288z m-478.1056-108.7488h138.89536v-46.91968H1089.1264v215.28576h167.54688l1.6384-61.44h-138.4448v-31.35488l138.4448 1.4336v-46.2848l-139.264-0.4096 0.4096-30.3104z m938.78272 0h138.87488v-46.91968h-169.18528v215.28576h167.54688l1.6384-61.44h-138.46528v-31.35488l138.46528 1.4336v-46.2848l-139.28448-0.4096 0.4096-30.3104z m-692.14208-55.86944h53.6576l92.3648 210.78016-146.0224-1.024 18.6368-40.1408 64.7168-0.4096-44.4416-111.24736h-18.8416l-59.8016 152.82176h-48.35328l88.064-210.78016z m461.29152 8.94976v216.10496h47.104v-94.02368l75.1616 0.4096v93.5936h46.91968V731.05408h-46.08v77.6192h-77.4144l0.4096-77.6192h-46.10048z m400.85504 0v216.10496l169.00096-0.8192v-45.4656l-123.10528-0.2048-1.2288-169.61536H2228.224z m183.95136 0v216.10496l168.79616-0.8192v-45.4656l-123.12576-0.2048-1.2288-169.61536h-44.4416z" fill="#000000" p-id="24846"></path><path d="M404.56192 303.2064s172.05248 2.2528 275.90656-126.58688c0 0 62.6688-52.4288 212.00896-31.9488 0 0 116.34688-3.4816 224.50176-124.35456h96.89088v135.59808s-153.82528 10.24-259.93216 116.34688c0 0-123.10528 63.30368-244.59264 44.4416 0 0-89.4976 86.67136-182.90688 95.68256l3.4816 88.8832s138.46528-128.8192 326.51264-124.3136c0 0 65.7408 13.1072 120.4224-47.53408 0 0 117.18656-116.55168 236.81024-86.8352v139.0592s-146.24768 19.6608-243.54816 110.20288c0 0-80.0768 64.12288-270.39744 55.52128l-187.00288 99.7376h-98.93888l-9.216-343.90016z" fill="#CF2E28" p-id="24847"></path><path d="M0 647.45472v141.35296s143.58528 2.2528 280.43264-111.63648c0 0 24.9856-31.9488 232.48896-29.696 0 0 54.6816-24.9856 187.00288-109.40416v77.43488l-190.27968 106.51648s-218.76736-32.5632-341.87264 106.10688c0 0-123.12576 66.7648-167.56736 49.5616v140.12416s158.94528 16.9984 242.72896-77.02528c0 0 71.8848-94.0032 188.04736-53.0432 0 0 134.57408-4.5056 184.56576-93.40928 0 0 85.4016-82.14528 193.76128-75.18208V377.28256s-193.76128 28.4672-279.18336 124.33408c0 0-224.91136-5.12-341.87264 67.584-0.2048-0.2048-71.8848 68.62848-188.25216 78.25408z" fill="#FFF100" p-id="24848"></path><path d="M535.2448 647.45472s23.1424-24.7808 164.47488-99.7376l109.38368-3.4816v-166.95296s-193.76128 28.4672-279.18336 124.33408c0 0-88.08448-1.2288-120.03328 5.5296 1.024 49.9712 2.2528 110.40768 1.8432 142.35648 16.7936 0.6144 93.3888-2.4576 123.4944-2.048z" fill="#EA5514" p-id="24849"></path></svg>