<svg width="70" height="20" viewBox="0 0 70 20" fill="none" xmlns="http://www.w3.org/2000/svg">
<rect width="70" height="20" fill="white"/>
<path d="M12.1504 11.2869V12.7604H16.3717C16.3717 12.7604 17.4867 12.6276 17.5929 11.5259C17.5929 11.5259 17.9513 9.62763 16.3584 9.2825H13.4646C13.4646 9.2825 12.7345 8.63206 13.4911 8.37984H17.4336V7.17188H13.3186C13.3186 7.17188 11.9115 7.38426 12.0044 8.7117C12.0044 8.7117 11.9248 10.3843 13.3451 10.4506L16.3451 10.4772C16.3451 10.4772 16.8628 10.9285 16.3319 11.3268L12.1504 11.2869Z" fill="black"/>
<path d="M31.7452 11.2869V12.7604H35.9664C35.9664 12.7604 37.0815 12.6276 37.1876 11.5259C37.1876 11.5259 37.5461 9.62763 35.9531 9.2825H33.0593C33.0593 9.2825 32.3292 8.63206 33.0859 8.37984H37.0151V7.17188H32.9133C32.9133 7.17188 31.5062 7.38426 31.5991 8.7117C31.5991 8.7117 31.5195 10.3843 32.9398 10.4506L35.9399 10.4772C35.9399 10.4772 36.4576 10.9285 35.9266 11.3268L31.7452 11.2869Z" fill="black"/>
<path d="M19.0938 8.41185H22.7708V7.16406H18.2974V12.872H22.731L22.7708 11.2393H19.1071V10.4163L22.7708 10.4428V9.22159L19.0806 9.20832L19.0938 8.41185Z" fill="black"/>
<path d="M43.9288 8.41185H47.6058V7.16406H43.1323V12.872H47.566L47.6058 11.2393H43.9421V10.4163L47.6058 10.4428V9.22159L43.9155 9.20832L43.9288 8.41185Z" fill="black"/>
<path d="M25.6273 7H27.0477L29.4901 12.5885L25.6273 12.562L26.1185 11.4867H27.8308L26.6494 8.53983H26.1583L24.5786 12.5885H23.291L25.6273 7Z" fill="black"/>
<path d="M37.8247 7.16406V12.8853H39.0725V10.403L41.0637 10.4163V12.8853H42.3114V7.16406H41.0902V9.22159H39.0327L39.0459 7.16406H37.8247Z" fill="black"/>
<path d="M48.4297 7.16406V12.8853L52.9032 12.872V11.6641L49.6509 11.6508L49.6111 7.16406H48.4297Z" fill="black"/>
<path d="M53.3003 7.16406V12.8853L57.7605 12.872V11.6641L54.5083 11.6508L54.4817 7.16406H53.3003Z" fill="black"/>
</svg>
