<?xml version="1.0" encoding="UTF-8"?>
<svg width="32px" height="32px" viewBox="0 0 32 32" version="1.1" xmlns="http://www.w3.org/2000/svg" xmlns:xlink="http://www.w3.org/1999/xlink">
    <!-- Generator: Sketch 62 (91390) - https://sketch.com -->
    <title>帮助中心/icon/BI商业智能</title>
    <desc>Created with Sketch.</desc>
    <defs>
        <linearGradient x1="50%" y1="0%" x2="50%" y2="100%" id="linearGradient-1">
            <stop stop-color="#48E8D3" offset="0%"></stop>
            <stop stop-color="#01BAC2" offset="25.2929688%"></stop>
            <stop stop-color="#47E8D2" offset="100%"></stop>
        </linearGradient>
        <filter x="-7.0%" y="-8.7%" width="114.0%" height="117.5%" filterUnits="objectBoundingBox" id="filter-2">
            <feGaussianBlur stdDeviation="0.7" in="SourceGraphic"></feGaussianBlur>
        </filter>
        <linearGradient x1="50%" y1="-16.2638346%" x2="50%" y2="100%" id="linearGradient-3">
            <stop stop-color="#48E8D3" offset="0%"></stop>
            <stop stop-color="#01BAC2" offset="100%"></stop>
        </linearGradient>
    </defs>
    <g id="帮助中心/icon/BI商业智能" stroke="none" stroke-width="1" fill="none" fill-rule="evenodd">
        <path d="M28.5,4 C29.8807119,4 31,5.11928813 31,6.5 C31,7.70932545 30.1413382,8.71809967 29.0004345,8.94990271 L29,25 C29,26.6568542 27.6568542,28 26,28 L6,28 C4.34314575,28 3,26.6568542 3,25 L3.00057405,8.9501074 C1.85916789,8.7186941 1,7.70968176 1,6.5 C1,5.11928813 2.11928813,4 3.5,4 L28.5,4 Z" id="形状结合" fill="url(#linearGradient-1)" opacity="0.7" filter="url(#filter-2)"></path>
        <path d="M28,4 C29.6568542,4 31,5.34314575 31,7 C31,8.30588222 30.1656226,9.41688515 29.0009007,9.82897577 L29,25 C29,26.6568542 27.6568542,28 26,28 L6,28 C4.34314575,28 3,26.6568542 3,25 L3.00008893,9.82932572 C1.8348501,9.41751442 1,8.30625206 1,7 C1,5.34314575 2.34314575,4 4,4 L28,4 Z" id="形状结合备份" fill="url(#linearGradient-3)"></path>
        <path d="M21.8449363,13.6254144 L21.8794411,13.6599192 C22.2509089,14.031387 22.2509089,14.6336553 21.8794411,15.0051231 C21.8682289,15.0163353 21.856738,15.0272654 21.8449794,15.0379032 L18.1735441,18.3593528 C17.7783954,18.7168333 17.1723458,18.7016768 16.7955601,18.3248912 L16.7743245,18.3054029 C16.7677952,18.2992917 16.7613277,18.2930766 16.7549241,18.2867574 L14.4266872,15.9895194 L11.4897769,18.6475578 C11.0946281,19.0050383 10.4885785,18.9898818 10.1117929,18.6130962 L10.0772881,18.5785914 C9.70582024,18.2071235 9.70582024,17.6048552 10.0772881,17.2333874 C10.0885003,17.2221752 10.0999911,17.2112451 10.1117497,17.2006074 L13.783185,13.8791577 C14.1783337,13.5216772 14.7843834,13.5368337 15.161169,13.9136194 L15.1956738,13.9481242 L15.2062689,13.9595185 C15.2691399,13.9983827 15.32865,14.044866 15.3834807,14.0989728 L17.5456872,16.2325194 L20.4669523,13.5909527 C20.862101,13.2334722 21.4681506,13.2486287 21.8449363,13.6254144 Z" id="Combined-Shape" fill="#FFFFFF"></path>
    </g>
</svg>