<?xml version="1.0" encoding="UTF-8"?>
<svg width="30px" height="30px" viewBox="0 0 30 30" version="1.1" xmlns="http://www.w3.org/2000/svg" xmlns:xlink="http://www.w3.org/1999/xlink">
    <!-- Generator: Sketch 62 (91390) - https://sketch.com -->
    <title>icon智能物料</title>
    <desc>Created with Sketch.</desc>
    <defs>
        <linearGradient x1="50%" y1="0%" x2="50%" y2="100%" id="linearGradient-1">
            <stop stop-color="#FB802F" offset="0%"></stop>
            <stop stop-color="#E3452A" offset="100%"></stop>
        </linearGradient>
        <filter x="-8.2%" y="-8.4%" width="116.5%" height="116.9%" filterUnits="objectBoundingBox" id="filter-2">
            <feGaussianBlur stdDeviation="0.7" in="SourceGraphic"></feGaussianBlur>
        </filter>
    </defs>
    <g id="icon智能物料" stroke="none" stroke-width="1" fill="none" fill-rule="evenodd">
        <g transform="translate(2.000000, 2.000000)" fill-rule="nonzero">
            <path d="M7.05163574,0.578857422 C8.24211044,0.578857422 9.27062877,1.27227503 9.75532784,2.27724735 L20,2.27722168 C21.6568542,2.27722168 23,3.62036743 23,5.27722168 L23.0009153,6.5886757 C24.5543711,6.7020121 25.77948,7.99825001 25.77948,9.58062744 L25.77948,22.494873 C25.77948,24.1517273 24.4363342,25.494873 22.77948,25.494873 L3.24890137,25.494873 C1.59204712,25.494873 0.248901367,24.1517273 0.248901367,22.494873 L0.248901367,3.57885742 C0.248901367,1.92200317 1.59204712,0.578857422 3.24890137,0.578857422 L7.05163574,0.578857422 Z M18.6560364,18.6051636 L8.80926514,18.6051636 C8.18794479,18.6051636 7.68426514,19.1088432 7.68426514,19.7301636 C7.68426514,20.3100626 8.12302608,20.7874834 8.68668399,20.8485622 L8.80926514,20.8551636 L18.6560364,20.8551636 C19.2773567,20.8551636 19.7810364,20.3514839 19.7810364,19.7301636 C19.7810364,19.1502646 19.3422754,18.6728437 18.7786175,18.6117649 L18.6560364,18.6051636 Z M20.1166211,4.28394941 L20,4.27722168 L10.0519014,4.27685742 L10.0567284,4.42895833 C10.1479749,6.00376558 11.4539549,6.58062744 13.0516357,6.58062744 L21,6.57979932 L21,5.27722168 C21,4.76438584 20.6139598,4.34171452 20.1166211,4.28394941 Z" id="形状" fill="url(#linearGradient-1)" filter="url(#filter-2)"></path>
            <path d="M7.05163574,0.578857422 C8.24211044,0.578857422 9.27062877,1.27227503 9.75532784,2.27724735 L20,2.27722168 C21.6568542,2.27722168 23,3.62036743 23,5.27722168 L23.0009153,6.5886757 C24.5543711,6.7020121 25.77948,7.99825001 25.77948,9.58062744 L25.77948,22.494873 C25.77948,24.1517273 24.4363342,25.494873 22.77948,25.494873 L3.24890137,25.494873 C1.59204712,25.494873 0.248901367,24.1517273 0.248901367,22.494873 L0.248901367,3.57885742 C0.248901367,1.92200317 1.59204712,0.578857422 3.24890137,0.578857422 L7.05163574,0.578857422 Z M20.1166211,4.28394941 L20,4.27722168 L10.0519014,4.27685742 L10.0567284,4.42895833 C10.1479749,6.00376558 11.4539549,6.58062744 13.0516357,6.58062744 L21,6.57979932 L21,5.27722168 C21,4.76438584 20.6139598,4.34171452 20.1166211,4.28394941 Z" id="形状备份" fill="url(#linearGradient-1)"></path>
            <path d="M18.6560364,18.6051636 L8.80926514,18.6051636 C8.18794479,18.6051636 7.68426514,19.1088432 7.68426514,19.7301636 C7.68426514,20.3100626 8.12302608,20.7874834 8.68668399,20.8485622 L8.80926514,20.8551636 L18.6560364,20.8551636 C19.2773567,20.8551636 19.7810364,20.3514839 19.7810364,19.7301636 C19.7810364,19.1502646 19.3422754,18.6728437 18.7786175,18.6117649 L18.6560364,18.6051636 Z" id="路径" fill="#FFFFFF"></path>
        </g>
    </g>
</svg>