<?xml version="1.0" encoding="UTF-8"?>
<svg width="30px" height="30px" viewBox="0 0 30 30" version="1.1" xmlns="http://www.w3.org/2000/svg" xmlns:xlink="http://www.w3.org/1999/xlink">
    <!-- Generator: Sketch 62 (91390) - https://sketch.com -->
    <title>帮助中心/icon/线索管理</title>
    <desc>Created with Sketch.</desc>
    <defs>
        <linearGradient x1="50%" y1="0%" x2="50%" y2="97.8779561%" id="linearGradient-1">
            <stop stop-color="#6CE39C" offset="0%"></stop>
            <stop stop-color="#2BC03E" offset="100%"></stop>
        </linearGradient>
        <filter x="-7.5%" y="-7.5%" width="114.9%" height="114.9%" filterUnits="objectBoundingBox" id="filter-2">
            <feGaussianBlur stdDeviation="0.7" in="SourceGraphic"></feGaussianBlur>
        </filter>
        <linearGradient x1="50%" y1="0%" x2="50%" y2="97.8779561%" id="linearGradient-3">
            <stop stop-color="#4DEB8D" offset="0%"></stop>
            <stop stop-color="#2BC03E" offset="100%"></stop>
        </linearGradient>
    </defs>
    <g id="页面-1" stroke="none" stroke-width="1" fill="none" fill-rule="evenodd">
        <g id="帮助中心展开" transform="translate(-1138.000000, -619.000000)" fill-rule="nonzero">
            <g id="帮助中心/icon/线索管理" transform="translate(1138.000000, 619.000000)">
                <path d="M15,0.9375 C22.7665043,0.9375 29.0625,7.23349571 29.0625,15 C29.0625,22.7665043 22.7665043,29.0625 15,29.0625 C7.23349571,29.0625 0.9375,22.7665043 0.9375,15 C0.9375,7.23349571 7.23349571,0.9375 15,0.9375 Z M17.7043269,9.59134615 C15.613345,9.59134615 13.9182692,11.2864219 13.9182692,13.3774038 L13.9182692,13.3774038 L13.9182692,16.6225962 C13.9182692,17.5187313 13.1918082,18.2451923 12.2956731,18.2451923 C11.399538,18.2451923 10.6730769,17.5187313 10.6730769,16.6225962 L10.6730769,16.6225962 L10.6740116,12.9634031 C11.0054248,12.666321 11.2139423,12.2349153 11.2139423,11.7548077 C11.2139423,10.8586726 10.4874813,10.1322115 9.59134615,10.1322115 C8.69521104,10.1322115 7.96875,10.8586726 7.96875,11.7548077 C7.96875,12.2346012 8.17699473,12.6657565 8.50803034,12.9628198 L8.50803034,12.9628198 L8.50961538,16.6225962 C8.50961538,18.7135781 10.2046912,20.4086538 12.2956731,20.4086538 C14.386655,20.4086538 16.0817308,18.7135781 16.0817308,16.6225962 L16.0817308,16.6225962 L16.0817308,13.3774038 C16.0817308,12.4812687 16.8081918,11.7548077 17.7043269,11.7548077 C18.600462,11.7548077 19.3269231,12.4812687 19.3269231,13.3774038 L19.3269231,13.3774038 L19.3263487,17.036274 C18.9947263,17.3333664 18.7860577,17.7649107 18.7860577,18.2451923 C18.7860577,19.1413274 19.5125187,19.8677885 20.4086538,19.8677885 C21.304789,19.8677885 22.03125,19.1413274 22.03125,18.2451923 C22.03125,17.7649107 21.8225814,17.3333664 21.490959,17.036274 L21.490959,17.036274 L21.4903846,13.3774038 C21.4903846,11.2864219 19.7953088,9.59134615 17.7043269,9.59134615 Z" id="形状结合" fill="url(#linearGradient-1)" opacity="0.7" filter="url(#filter-2)"></path>
                <path d="M15,29.0625 C7.23349571,29.0625 0.9375,22.7665043 0.9375,15 C0.9375,7.23349571 7.23349571,0.9375 15,0.9375 C22.7665043,0.9375 29.0625,7.23349571 29.0625,15 C29.0625,22.7665043 22.7665043,29.0625 15,29.0625 Z" id="Path" fill="url(#linearGradient-3)"></path>
                <path d="M17.7043269,9.59134615 C19.7953088,9.59134615 21.4903846,11.2864219 21.4903846,13.3774038 L21.4914959,16.9666979 C21.9708094,17.3063451 22.2836538,17.8654362 22.2836538,18.4975962 C22.2836538,19.5331301 21.4441878,20.3725962 20.4086538,20.3725962 C19.3731199,20.3725962 18.5336538,19.5331301 18.5336538,18.4975962 C18.5336538,17.8650687 18.8468621,17.305695 19.3266479,16.9661058 L19.3269231,13.3774038 C19.3269231,12.4812687 18.600462,11.7548077 17.7043269,11.7548077 C16.8081918,11.7548077 16.0817308,12.4812687 16.0817308,13.3774038 L16.0817308,16.6225962 C16.0817308,18.7135781 14.386655,20.4086538 12.2956731,20.4086538 C10.2046912,20.4086538 8.50961538,18.7135781 8.50961538,16.6225962 L8.50934025,12.9978365 C8.02955443,12.6582473 7.71634615,12.0988736 7.71634615,11.4663462 C7.71634615,10.4308122 8.55581225,9.59134615 9.59134615,9.59134615 C10.6268801,9.59134615 11.4663462,10.4308122 11.4663462,11.4663462 C11.4663462,12.0988736 11.1531379,12.6582473 10.6733521,12.9978365 L10.6730769,16.6225962 C10.6730769,17.5187313 11.399538,18.2451923 12.2956731,18.2451923 C13.1918082,18.2451923 13.9182692,17.5187313 13.9182692,16.6225962 L13.9182692,13.3774038 C13.9182692,11.2864219 15.613345,9.59134615 17.7043269,9.59134615 Z" id="合并形状" fill="#FFFFFF"></path>
            </g>
        </g>
    </g>
</svg>