<?xml version="1.0" encoding="UTF-8"?>
<svg width="32px" height="32px" viewBox="0 0 32 32" version="1.1" xmlns="http://www.w3.org/2000/svg" xmlns:xlink="http://www.w3.org/1999/xlink">
    <title>帮助中心/icon/仪表盘</title>
    <defs>
        <linearGradient x1="50%" y1="0%" x2="50%" y2="100%" id="linearGradient-1">
            <stop stop-color="#FB802F" offset="0%"></stop>
            <stop stop-color="#E3452A" offset="100%"></stop>
        </linearGradient>
        <filter x="-7.0%" y="-8.2%" width="114.0%" height="116.3%" filterUnits="objectBoundingBox" id="filter-2">
            <feGaussianBlur stdDeviation="0.7" in="SourceGraphic"></feGaussianBlur>
        </filter>
    </defs>
    <g id="帮助中心/icon/仪表盘" stroke="none" stroke-width="1" fill="none" fill-rule="evenodd">
        <path d="M16,3 C24.2842712,3 31,9.74397055 31,18.0630798 C31,21.6269488 29.7675113,24.9017441 27.7072072,27.4810906 C27.5841519,27.6351465 27.4216545,27.8247258 27.2197148,28.0498284 C26.84036,28.4726964 26.2990731,28.7142857 25.7309821,28.7142857 L6.27146265,28.7142857 C5.70239594,28.7142745 5.16027502,28.4718563 4.78086386,28.0477288 C4.54017358,27.7786715 4.34903843,27.5538474 4.2074584,27.3732565 C2.19850318,24.8107555 1,21.577469 1,18.0630798 C1,9.74397055 7.71572875,3 16,3 Z M23.3311609,11.7590276 C23.1060421,11.5088956 22.7410524,11.5088956 22.5159336,11.7590276 C17.6866116,15.9171966 14.9691872,18.332685 14.3636602,19.0054928 C13.6883037,19.7558888 13.6883037,20.9725212 14.3636602,21.7229173 C15.0390166,22.4733133 16.1339858,22.4733133 16.8093422,21.7229173 C17.4148692,21.0501095 19.5888088,18.030749 23.3311609,12.6648357 C23.5562797,12.4147037 23.5562797,12.0091596 23.3311609,11.7590276 Z" id="Shape" fill="url(#linearGradient-1)" fill-rule="nonzero" opacity="0.7" filter="url(#filter-2)"></path>
        <path d="M4.78086386,28.0477288 C4.54017358,27.7786715 4.34903843,27.5538474 4.2074584,27.3732565 C2.19850318,24.8107555 1,21.577469 1,18.0630798 C1,9.74397055 7.71572875,3 16,3 C24.2842712,3 31,9.74397055 31,18.0630798 C31,21.6269488 29.7675113,24.9017441 27.7072072,27.4810906 C27.5841519,27.6351465 27.4216545,27.8247258 27.2197148,28.0498284 C26.84036,28.4726964 26.2990731,28.7142857 25.7309821,28.7142857 L6.27146265,28.7142857 C5.70239594,28.7142745 5.16027502,28.4718563 4.78086386,28.0477288 Z" id="Shape备份" fill="url(#linearGradient-1)" fill-rule="nonzero"></path>
        <path d="M22.5159336,11.7590276 C22.7410524,11.5088956 23.1060421,11.5088956 23.3311609,11.7590276 C23.5562797,12.0091596 23.5562797,12.4147037 23.3311609,12.6648357 C19.5888088,18.030749 17.4148692,21.0501095 16.8093422,21.7229173 C16.1339858,22.4733133 15.0390166,22.4733133 14.3636602,21.7229173 C13.6883037,20.9725212 13.6883037,19.7558888 14.3636602,19.0054928 C14.9691872,18.332685 17.6866116,15.9171966 22.5159336,11.7590276 Z" id="Path" fill="#FFFFFF" fill-rule="nonzero"></path>
    </g>
</svg>