<?xml version="1.0" encoding="UTF-8"?>
<svg width="28px" height="28px" viewBox="0 0 28 28" version="1.1" xmlns="http://www.w3.org/2000/svg" xmlns:xlink="http://www.w3.org/1999/xlink">
    <!-- Generator: Sketch 62 (91390) - https://sketch.com -->
    <title>帮助中心/icon/数据报告</title>
    <desc>Created with Sketch.</desc>
    <defs>
        <linearGradient x1="50%" y1="0%" x2="50%" y2="99.3718328%" id="linearGradient-1">
            <stop stop-color="#FA6781" offset="0%"></stop>
            <stop stop-color="#EB3655" offset="100%"></stop>
        </linearGradient>
        <filter x="-8.0%" y="-8.0%" width="116.0%" height="116.0%" filterUnits="objectBoundingBox" id="filter-2">
            <feGaussianBlur stdDeviation="0.7" in="SourceGraphic"></feGaussianBlur>
        </filter>
    </defs>
    <g id="页面-1" stroke="none" stroke-width="1" fill="none" fill-rule="evenodd">
        <g id="帮助中心展开" transform="translate(-1139.000000, -738.000000)" fill-rule="nonzero">
            <g id="帮助中心/icon/数据报告" transform="translate(1138.000000, 737.000000)">
                <path d="M25.125,1.875 C26.7818542,1.875 28.125,3.21814575 28.125,4.875 L28.125,21.375 C28.125,23.0318542 26.7818542,24.375 25.125,24.375 L22.482,24.375 L24.194103,26.0879719 C24.6600694,26.5539703 24.6600694,27.3095029 24.194103,27.7755012 C23.7281365,28.2414996 22.9726555,28.2414996 22.506689,27.7755012 L19.1318612,24.4004426 L19.109,24.375 L10.8898682,24.3761686 C10.8821371,24.3843434 10.8742683,24.3924358 10.866262,24.4004426 L7.49143423,27.7755012 C7.02546774,28.2414996 6.2699868,28.2414996 5.80402032,27.7755012 C5.33805383,27.3095029 5.33805383,26.5539703 5.80402032,26.0879719 L7.515,24.375 L4.875,24.375 C3.21814575,24.375 1.875,23.0318542 1.875,21.375 L1.875,4.875 C1.875,3.21814575 3.21814575,1.875 4.875,1.875 L25.125,1.875 Z" id="形状结合" fill="url(#linearGradient-1)" opacity="0.699590774" filter="url(#filter-2)"></path>
                <path d="M25.125,1.875 C26.7818542,1.875 28.125,3.21814575 28.125,4.875 L28.125,21.375 C28.125,23.0318542 26.7818542,24.375 25.125,24.375 L22.482,24.375 L24.194103,26.0879719 C24.6600694,26.5539703 24.6600694,27.3095029 24.194103,27.7755012 C23.7281365,28.2414996 22.9726555,28.2414996 22.506689,27.7755012 L19.1318612,24.4004426 L19.109,24.375 L10.8898682,24.3761686 C10.8821371,24.3843434 10.8742683,24.3924358 10.866262,24.4004426 L7.49143423,27.7755012 C7.02546774,28.2414996 6.2699868,28.2414996 5.80402032,27.7755012 C5.33805383,27.3095029 5.33805383,26.5539703 5.80402032,26.0879719 L7.515,24.375 L4.875,24.375 C3.21814575,24.375 1.875,23.0318542 1.875,21.375 L1.875,4.875 C1.875,3.21814575 3.21814575,1.875 4.875,1.875 L25.125,1.875 Z" id="形状结合备份" fill="url(#linearGradient-1)"></path>
                <path d="M13.0737537,9.63280523 L17.4418757,14.0010237 L21.9261988,9.6705626 C22.3234792,9.28691338 22.9565477,9.29796363 23.340197,9.69524403 L23.6085877,9.97317077 C23.9922369,10.3704512 23.9811867,11.0035197 23.5839063,11.3871689 L18.3588757,16.4320237 L18.1359955,16.6556612 C17.7454712,17.0461855 17.1123062,17.0461855 16.7217819,16.6556612 L12.3408757,12.2750237 L8.5308006,15.9555478 C8.1335202,16.3391971 7.50045165,16.3281468 7.11680243,15.9308664 L6.84841169,15.6529397 C6.46476247,15.2556593 6.47581272,14.6225907 6.87309312,14.2389415 L11.4425357,9.82628207 C11.4808856,9.78924806 11.5214325,9.75589194 11.5637402,9.7262061 L11.6595402,9.63280523 C12.0500645,9.24228094 12.6832295,9.24228094 13.0737537,9.63280523 Z" id="Combined-Shape" fill="#FFFFFF"></path>
            </g>
        </g>
    </g>
</svg>