<?xml version="1.0" encoding="UTF-8"?>
<svg width="64px" height="64px" viewBox="0 0 64 64" version="1.1" xmlns="http://www.w3.org/2000/svg" xmlns:xlink="http://www.w3.org/1999/xlink">
    <!-- Generator: Sketch 62 (91390) - https://sketch.com -->
    <title>编组</title>
    <desc>Created with Sketch.</desc>
    <g id="页面-1" stroke="none" stroke-width="1" fill="none" fill-rule="evenodd">
        <g id="1、网站管理-卡片" transform="translate(-1076.000000, -503.000000)">
            <g id="编组" transform="translate(1076.000000, 503.000000)">
                <path d="M4,0 L60,0 C62.209139,0 64,1.790861 64,4 L64,60 C64,62.209139 62.209139,64 60,64 L4,64 C1.790861,64 0,62.209139 0,60 L0,4 C0,1.790861 1.790861,0 4,0 Z" id="logo备份" fill="#F5F6F9"></path>
                <path d="M26.2402719,17 C23.6902719,17 21.6277719,19.06715 21.6277719,21.61715 L21.6277719,29.69375 L18.1636719,29.69375 C17.5291719,29.69375 17.0104719,30.2123 17.0104719,30.84695 L17.0104719,37.77035 C17.0104719,38.40485 17.5290219,38.9234 18.1636719,38.9234 L21.6277719,38.9234 L21.6277719,42.38285 C21.6277719,44.93285 23.6902719,47 26.2402719,47 L40.0870719,47 C42.6370719,47 44.7042219,44.93285 44.7042219,42.38285 L44.7042219,26.2295 C44.7042219,25.0064 43.5619719,23.8292 41.5542219,21.8561 L40.7011719,21.0029 L39.8479719,20.15 C37.8751719,18.14225 36.6990219,17 35.4745719,17 L26.2404219,17 L26.2402719,17 Z M26.2402719,19.30625 L34.6543719,19.30625 C35.4850719,19.514 35.4745719,20.54075 35.4745719,21.55625 L35.4745719,25.0766 C35.4745719,25.7111 35.9931219,26.22965 36.6277719,26.22965 L40.0870719,26.22965 C41.2410219,26.22965 42.3979719,26.2289 42.3979719,27.38285 L42.3979719,42.38285 C42.3979719,43.652 41.3563719,44.69375 40.0870719,44.69375 L26.2404219,44.69375 C24.9711219,44.69375 23.9340219,43.652 23.9340219,42.38285 L23.9340219,38.9234 L35.4747219,38.9234 C36.1093719,38.9234 36.6279219,38.405 36.6279219,37.77035 L36.6279219,30.84695 C36.6279219,30.2123 36.1093719,29.69375 35.4747219,29.69375 L23.9340219,29.69375 L23.9340219,21.61715 C23.9340219,20.348 24.9709719,19.30625 26.2402719,19.30625 Z M30.1215219,31.6016 C30.7965219,31.6016 31.3308219,31.8359 31.7245719,32.30465 C32.1370719,32.75465 32.3433219,33.4016 32.3433219,34.24535 C32.3433219,35.10785 32.1370719,35.7641 31.7245719,36.2141 C31.3308219,36.6641 30.7965219,36.8891 30.1215219,36.8891 C29.4277719,36.8891 28.8840219,36.6734 28.4902719,36.24215 C28.0965219,35.79215 27.8995719,35.1266 27.8995719,34.24535 C27.8995719,33.38285 28.0965219,32.7266 28.4902719,32.2766 C28.8840219,31.8266 29.4277719,31.6016 30.1215219,31.6016 L30.1215219,31.6016 Z M26.0433219,31.62965 C26.5683219,31.62965 27.0183219,31.7234 27.3933219,31.9109 L27.1120719,32.4734 C26.7558219,32.2859 26.3995719,32.19215 26.0433219,32.19215 C25.5558219,32.19215 25.1527719,32.37965 24.8340219,32.75465 C24.5340219,33.1109 24.3840219,33.61715 24.3840219,34.2734 C24.3840219,34.9484 24.5245719,35.4641 24.8058219,35.82035 C25.0870719,36.15785 25.4995719,36.3266 26.0433219,36.3266 C26.3433219,36.3266 26.7277719,36.2609 27.1965219,36.12965 L27.1965219,36.69215 C26.8590219,36.8234 26.4370719,36.8891 25.9308219,36.8891 C25.2370719,36.8891 24.6933219,36.6734 24.2995719,36.24215 C23.9058219,35.79215 23.7090219,35.1266 23.7090219,34.24535 C23.7090219,33.42035 23.9152719,32.78285 24.3277719,32.33285 C24.7590219,31.8641 25.3308219,31.62965 26.0433219,31.62965 L26.0433219,31.62965 Z M21.1777719,31.6859 L23.0619219,31.6859 L23.0619219,32.0516 L22.4431719,32.19215 L22.4431719,36.3266 L23.0619219,36.46715 L23.0619219,36.83285 L21.1779219,36.83285 L21.1779219,36.46715 L21.7966719,36.3266 L21.7966719,32.192 L21.1779219,32.05145 L21.1779219,31.68575 L21.1777719,31.6859 Z M30.1215219,32.19215 C29.6152719,32.19215 29.2308219,32.37035 28.9683219,32.7266 C28.7058219,33.0641 28.5745719,33.57035 28.5745719,34.24535 C28.5745719,34.9391 28.7058219,35.4641 28.9683219,35.82035 C29.2308219,36.15785 29.6152719,36.3266 30.1215219,36.3266 C30.6277719,36.3266 31.0120719,36.15785 31.2745719,35.82035 C31.5370719,35.4641 31.6683219,34.9391 31.6683219,34.24535 C31.6683219,33.57035 31.5370719,33.0641 31.2745719,32.7266 C31.0120719,32.37035 30.6277719,32.19215 30.1215219,32.19215 Z" id="形状" fill="#A4B2C2" fill-rule="nonzero"></path>
            </g>
        </g>
    </g>
</svg>