<?xml version="1.0" encoding="UTF-8"?>
<svg width="32px" height="32px" viewBox="0 0 32 32" version="1.1" xmlns="http://www.w3.org/2000/svg" xmlns:xlink="http://www.w3.org/1999/xlink">
    <!-- Generator: Sketch 62 (91390) - https://sketch.com -->
    <title>帮助中心/icon/Facebook营销</title>
    <desc>Created with Sketch.</desc>
    <defs>
        <linearGradient x1="50%" y1="0%" x2="50%" y2="100%" id="linearGradient-1">
            <stop stop-color="#17A9FD" offset="0%"></stop>
            <stop stop-color="#0169E4" offset="99.6120144%"></stop>
            <stop stop-color="#0063E0" offset="100%"></stop>
        </linearGradient>
        <filter x="-7.0%" y="-7.0%" width="114.0%" height="114.1%" filterUnits="objectBoundingBox" id="filter-2">
            <feGaussianBlur stdDeviation="0.7" in="SourceGraphic"></feGaussianBlur>
        </filter>
        <linearGradient x1="50%" y1="0%" x2="50%" y2="100%" id="linearGradient-3">
            <stop stop-color="#17A9FD" offset="0%"></stop>
            <stop stop-color="#0169E4" offset="99.6120144%"></stop>
            <stop stop-color="#0063E0" offset="100%"></stop>
        </linearGradient>
    </defs>
    <g id="帮助中心/icon/Facebook营销" stroke="none" stroke-width="1" fill="none" fill-rule="evenodd">
        <g id="编组" transform="translate(1.000000, 1.000000)">
            <path d="M15,0 C23.2842712,0 30,6.71572875 30,15 C30,22.5224433 24.4626449,28.751568 17.2416864,29.8336225 L17.2415865,18.9558293 L21.1283053,18.9558293 L21.7142428,14.4245793 L17.2415865,14.4245793 L17.2415865,11.5339543 C17.2415865,10.8047877 17.3945813,10.2579127 17.7005709,9.89332933 C18.0065605,9.52874599 18.6022636,9.34645432 19.4876803,9.34645432 L21.8704928,9.32692309 L21.8704928,5.28395434 C21.0501803,5.16676684 19.8913261,5.10817309 18.3939303,5.10817309 C16.6230969,5.10817309 15.2070813,5.62900642 14.1458834,6.67067308 C13.0846855,7.71233974 12.5540865,9.18369391 12.5540865,11.0847356 L12.5540865,14.4245793 L8.64783653,14.4245793 L8.64783653,18.9558293 L12.5540865,18.9558293 L12.5547752,29.8016889 C5.43356058,28.6341397 1.61041052e-13,22.4516079 1.61041052e-13,15 C1.61041052e-13,6.71572875 6.71572875,0 15,0 Z" id="形状结合" fill="url(#linearGradient-1)" opacity="0.7" filter="url(#filter-2)"></path>
            <circle id="形状结合备份" fill="url(#linearGradient-3)" cx="15" cy="15" r="15"></circle>
            <path d="M16.1994092,23 L16.1994092,15.901014 L18.5509601,15.901014 L18.9054653,12.9884114 L16.1994092,12.9884114 L16.1994092,11.1303718 C16.1994092,10.6616771 16.2919744,10.3101561 16.4771049,10.0758088 C16.6622353,9.84146144 17.0226489,9.72428777 17.5583456,9.72428777 L19,9.71173346 L19,7.11298889 C18.5036928,7.03766296 17.8025603,7 16.8966027,7 C15.8252093,7 14.9684884,7.33478191 14.3264402,8.00434572 C13.6843919,8.67390953 13.3633678,9.61966843 13.3633678,10.8416224 L13.3633678,12.9884114 L11,12.9884114 L11,15.901014 L13.3633678,15.901014 L13.3633678,23 L16.1994092,23 Z" id="路径" fill="#FDFDFD"></path>
        </g>
    </g>
</svg>