<?xml version="1.0" encoding="UTF-8"?>
<svg width="30px" height="30px" viewBox="0 0 30 30" version="1.1" xmlns="http://www.w3.org/2000/svg" xmlns:xlink="http://www.w3.org/1999/xlink">
    <!-- Generator: Sketch 62 (91390) - https://sketch.com -->
    <title>帮助中心/icon/Facebook营销</title>
    <desc>Created with Sketch.</desc>
    <defs>
        <linearGradient x1="50%" y1="0%" x2="50%" y2="100%" id="linearGradient-1">
            <stop stop-color="#17A9FD" offset="0%"></stop>
            <stop stop-color="#0169E4" offset="99.6120144%"></stop>
            <stop stop-color="#0063E0" offset="100%"></stop>
        </linearGradient>
        <filter x="-7.5%" y="-7.5%" width="114.9%" height="115.0%" filterUnits="objectBoundingBox" id="filter-2">
            <feGaussianBlur stdDeviation="0.7" in="SourceGraphic"></feGaussianBlur>
        </filter>
        <linearGradient x1="50%" y1="0%" x2="50%" y2="100%" id="linearGradient-3">
            <stop stop-color="#17A9FD" offset="0%"></stop>
            <stop stop-color="#0169E4" offset="99.6120144%"></stop>
            <stop stop-color="#0063E0" offset="100%"></stop>
        </linearGradient>
    </defs>
    <g id="页面-1" stroke="none" stroke-width="1" fill="none" fill-rule="evenodd">
        <g id="帮助中心展开" transform="translate(-1138.000000, -501.000000)">
            <g id="帮助中心/icon/Facebook营销" transform="translate(1138.000000, 501.000000)">
                <g id="编组" transform="translate(0.937500, 0.937500)">
                    <path d="M14.0625,0 C21.8290043,0 28.125,6.29599571 28.125,14.0625 C28.125,21.114839 22.9336584,26.9546752 16.1639417,27.969042 L16.1639874,17.77109 L19.8077862,17.77109 L20.3571026,13.5230431 L16.1639874,13.5230431 L16.1639874,10.8130822 C16.1639874,10.1294884 16.30742,9.61679313 16.5942852,9.27499624 C16.8811504,8.93319936 17.4396221,8.76230092 18.2697003,8.76230092 L20.503587,8.74399039 L20.503587,4.95370719 C19.734544,4.84384391 18.6481182,4.78891227 17.2443096,4.78891227 C15.5841534,4.78891227 14.2566387,5.27719352 13.2617657,6.25375601 C12.2668927,7.2303185 11.7694561,8.60971304 11.7694561,10.3919396 L11.7694561,13.5230431 L8.10734675,13.5230431 L8.10734675,17.77109 L11.7694561,17.77109 L11.7688922,27.938885 C5.09334778,26.8438059 1.50975987e-13,21.0479605 1.50975987e-13,14.0625 C1.50975987e-13,6.29599571 6.29599571,0 14.0625,0 Z" id="形状结合" fill="url(#linearGradient-1)" opacity="0.7" filter="url(#filter-2)"></path>
                    <circle id="形状结合备份" fill="url(#linearGradient-3)" cx="14.0625" cy="14.0625" r="14.0625"></circle>
                    <path d="M15.1869461,21.5625 L15.1869461,14.9072006 L17.3915251,14.9072006 L17.7238737,12.1766357 L15.1869461,12.1766357 L15.1869461,10.4347236 C15.1869461,9.99532231 15.273726,9.66577137 15.4472858,9.44607073 C15.6208456,9.2263701 15.9587334,9.11651979 16.460949,9.11651979 L17.8125,9.10475012 L17.8125,6.66842709 C17.347212,6.59780903 16.6899003,6.5625 15.840565,6.5625 C14.8361337,6.5625 14.0329579,6.87635804 13.4310377,7.50407411 C12.8291174,8.13179019 12.5281573,9.01843915 12.5281573,10.164021 L12.5281573,12.1766357 L10.3125,12.1766357 L10.3125,14.9072006 L12.5281573,14.9072006 L12.5281573,21.5625 L15.1869461,21.5625 Z" id="路径" fill="#FDFDFD"></path>
                </g>
            </g>
        </g>
    </g>
</svg>