<?xml version="1.0" encoding="UTF-8"?>
<svg width="30px" height="30px" viewBox="0 0 30 30" version="1.1" xmlns="http://www.w3.org/2000/svg" xmlns:xlink="http://www.w3.org/1999/xlink">
    <!-- Generator: Sketch 62 (91390) - https://sketch.com -->
    <title>icon/应用中心/Facebook私信</title>
    <desc>Created with Sketch.</desc>
    <defs>
        <linearGradient x1="50%" y1="0%" x2="50%" y2="100%" id="linearGradient-1">
            <stop stop-color="#E13592" offset="0%"></stop>
            <stop stop-color="#5868F5" offset="100%"></stop>
        </linearGradient>
        <path d="M15,0 C23.1794071,0 29.8297302,6.54678637 29.9967822,14.6861718 L30,14.971 C29.9903982,15.7954738 29.320916,16.4616089 28.4958496,16.4616089 C27.6674225,16.4616089 26.9958496,15.790036 26.9958496,14.9616089 C26.9958496,14.8433645 27.0095315,14.7283157 27.0353985,14.6179593 L27.0384365,14.6708553 C26.8766291,8.18437445 21.5676931,2.97583008 15.0422363,2.97583008 C8.41481933,2.97583008 3.04223633,8.34841308 3.04223633,14.9758301 C3.04223633,21.5012868 8.2507807,26.8102228 14.7372615,26.9720302 L15,26.9758301 L14.9996671,27 C15.8267039,27.0016349 16.4966431,27.6725811 16.4966431,28.5 C16.4966431,29.2796961 15.901755,29.9204487 15.1411031,29.9931334 L14.9989981,30 C6.7151873,29.9994585 0,23.2839373 0,15 C0,6.71572875 6.71572875,0 15,0 Z M21.7320033,19.1199777 L24.7320033,19.1199777 L24.7320033,21.3771554 L21.7241069,21.3771554 C21.3098049,21.3771554 20.9739467,21.7130136 20.9739467,22.1273156 C20.9739467,22.5070925 21.2561609,22.8209547 21.6223146,22.8706278 L21.7318987,22.8774758 L21.7318987,22.8699777 L24.7318987,22.8699777 C26.388753,22.8699777 27.7318987,24.2131234 27.7318987,25.8699777 C27.7318987,27.5268319 26.388753,28.8699777 24.7318987,28.8699777 L21.20577,28.8699777 C20.9432765,29.0955651 20.6018609,29.2318987 20.2286028,29.2318987 C19.4001757,29.2318987 18.7286028,28.5603258 18.7286028,27.7318987 C18.7286028,26.9034716 19.4001757,26.2318987 20.2286028,26.2318987 C20.6243557,26.2318987 20.9843125,26.3851601 21.2523581,26.6355678 L21.731,26.635 L21.7318987,26.6274758 L24.7397951,26.6274758 C25.1540972,26.6274758 25.4899554,26.2916177 25.4899554,25.8773156 C25.4899554,25.4630136 25.1540972,25.1271554 24.7397951,25.1271554 L21.7318987,25.1271554 L21.7318987,25.1199777 C20.0750926,25.1199211 18.7320033,23.7767971 18.7320033,22.1199777 C18.7320033,20.4631234 20.0751491,19.1199777 21.7320033,19.1199777 Z M16.9453433,7.05248993 C17.8810812,7.05248993 18.6066791,7.09210016 19.122137,7.17131941 L19.1226717,9.78888625 L17.6233522,9.78888625 C17.0758119,9.78888625 16.7066856,9.90790021 16.5159733,10.1459281 C16.325261,10.3839561 16.2297266,10.740998 16.2293701,11.2170538 L16.2293701,13.0911073 L19.0269591,13.0911073 L18.6548027,16.0262915 L16.2293701,16.0262915 L16.2293701,23.5524899 L13.3077291,23.5524899 L13.3077291,16.0262915 L10.8726717,16.0262915 L10.8726717,13.0911073 L13.3077291,13.0911073 L13.3077291,10.9294213 C13.3077291,9.70004223 13.6387129,8.74644979 14.3006806,8.06864398 C14.9626484,7.39083817 15.8442026,7.05212035 16.9453433,7.05248993 Z M26.2318987,18.7713972 C27.0603258,18.7713972 27.7318987,19.4429701 27.7318987,20.2713972 C27.7318987,20.415287 27.7116385,20.5544447 27.6738151,20.6861733 C27.4938753,21.3128555 26.9164361,21.7713972 26.2318987,21.7713972 C25.8373323,21.7713972 25.4783477,21.6190534 25.2105567,21.3699777 L24.732,21.369 L24.732,19.135 L25.25212,19.1355678 C25.5149586,18.9086375 25.8574016,18.7713972 26.2318987,18.7713972 Z" id="path-2"></path>
        <filter x="-8.3%" y="-11.7%" width="123.3%" height="123.3%" filterUnits="objectBoundingBox" id="filter-3">
            <feMorphology radius="0.5" operator="dilate" in="SourceAlpha" result="shadowSpreadOuter1"></feMorphology>
            <feOffset dx="1" dy="0" in="shadowSpreadOuter1" result="shadowOffsetOuter1"></feOffset>
            <feGaussianBlur stdDeviation="0.5" in="shadowOffsetOuter1" result="shadowBlurOuter1"></feGaussianBlur>
            <feColorMatrix values="0 0 0 0 0.576470588   0 0 0 0 0.325490196   0 0 0 0 0.796078431  0 0 0 0.15 0" type="matrix" in="shadowBlurOuter1"></feColorMatrix>
        </filter>
    </defs>
    <g id="icon/应用中心/Facebook私信" stroke="none" stroke-width="1" fill="none" fill-rule="evenodd">
        <g id="形状">
            <use fill="black" fill-opacity="1" filter="url(#filter-3)" xlink:href="#path-2"></use>
            <use fill="url(#linearGradient-1)" fill-rule="evenodd" xlink:href="#path-2"></use>
        </g>
    </g>
</svg>