<?xml version="1.0" standalone="no"?><!DOCTYPE svg PUBLIC "-//W3C//DTD SVG 1.1//EN" "http://www.w3.org/Graphics/SVG/1.1/DTD/svg11.dtd"><svg t="1698214350136" class="icon" viewBox="0 0 1763 1024" version="1.1" xmlns="http://www.w3.org/2000/svg" p-id="26404" xmlns:xlink="http://www.w3.org/1999/xlink" width="344.3359375" height="200"><path d="M625.777778 0C280.177778 0 0 280.177778 0 625.777778v256A142.222222 142.222222 0 0 0 142.222222 1024H1251.555556a512 512 0 1 0 0-1024H625.777778z" fill="#FFFFFF" p-id="26405"></path><path d="M56.888889 625.777778C56.888889 311.580444 311.580444 56.888889 625.777778 56.888889h625.777778a455.111111 455.111111 0 1 1 0 910.222222H142.222222A85.333333 85.333333 0 0 1 56.888889 881.777778V625.777778z" fill="#EA4335" fill-opacity=".95" p-id="26406"></path><path d="M326.542222 292.408889v506.311111h52.906667V343.04h77.937778c-14.791111 45.511111-34.702222 97.28-60.302223 154.168889 38.684444 47.786667 58.026667 90.453333 58.026667 129.137778 0 9.671111-2.844444 16.497778-7.964444 20.48-5.688889 3.413333-15.928889 5.688889-31.857778 6.826666-7.964444 0-17.635556-1.137778-29.013333-2.844444l17.635555 54.613333c42.097778-0.568889 71.111111-7.964444 88.177778-22.186666 11.377778-11.377778 17.066667-30.72 17.066667-56.888889-2.275556-39.253333-21.617778-84.764444-57.457778-137.102223 22.755556-54.044444 42.666667-105.244444 59.733333-154.168888v-42.666667H326.542222z m257.137778 152.462222h150.755556v51.768889h-150.755556v-51.768889z m150.755556-48.924444h-150.755556v-52.906667h150.755556v52.906667zM637.155556 546.133333c18.204444 104.675556 74.524444 187.164444 167.822222 248.035556l30.151111-47.786667c-39.253333-22.755556-71.111111-50.062222-95.004445-81.351111 30.151111-15.928889 57.457778-38.115556 81.351112-66.56l-34.702223-34.702222c-22.755556 27.306667-46.648889 48.355556-71.68 63.146667a280.462222 280.462222 0 0 1-29.582222-80.782223h101.831111V291.84H530.773333v434.631111c0 7.395556-5.12 12.515556-14.222222 15.928889l13.084445 47.217778c63.146667-16.497778 115.484444-33.564444 157.013333-50.631111l-12.515556-50.062223c-29.582222 13.653333-59.733333 25.031111-90.453333 34.133334V546.133333h53.475556zM946.631111 455.111111v153.031111h135.395556c-2.275556 4.551111-5.12 9.671111-7.395556 15.36-30.72 52.906667-94.435556 97.848889-192.284444 134.257778l34.133333 42.097778c111.502222-43.235556 181.475556-97.848889 211.057778-162.702222 4.551111-9.102222 8.533333-18.773333 11.946666-29.013334h19.911112v114.915556c0 44.373333 19.342222 66.56 58.595555 66.56h113.208889c20.48 0 35.271111-5.12 44.942222-15.36 10.24-11.377778 17.066667-44.942222 21.617778-101.831111l-51.2-16.497778c-1.137778 39.253333-3.982222 62.577778-8.533333 70.542222-3.413333 6.826667-9.102222 10.808889-17.066667 10.808889H1234.488889c-14.222222 0-21.048889-8.533333-21.048889-25.6v-103.537778h128.568889V425.528889H1211.733333c19.911111-18.204444 39.822222-40.391111 60.302223-65.991111V318.577778h-190.008889c8.533333-11.946667 17.066667-23.893333 25.031111-36.408889l-54.613334-11.946667c-47.786667 70.542222-104.675556 125.155556-171.804444 164.977778l34.133333 41.528889c10.808889-6.826667 21.617778-14.222222 31.857778-21.617778z m197.404445-29.582222h-160.426667c20.48-17.635556 39.822222-36.977778 59.164444-58.026667h159.288889c-19.342222 21.617778-38.684444 40.96-58.026666 58.026667z m146.204444 131.982222h-135.964444c5.12-25.031111 8.533333-52.337778 9.671111-81.92h126.293333V557.511111z m-191.715556 0h-99.555555V475.591111h110.933333c-1.706667 29.582222-5.688889 56.888889-11.377778 81.92z" fill="#FFFFFF" p-id="26407"></path></svg>