<?xml version="1.0" encoding="UTF-8"?>
<svg width="32px" height="32px" viewBox="0 0 32 32" version="1.1" xmlns="http://www.w3.org/2000/svg" xmlns:xlink="http://www.w3.org/1999/xlink">
    <!-- Generator: Sketch 62 (91390) - https://sketch.com -->
    <title>Google营销</title>
    <desc>Created with Sketch.</desc>
    <defs>
        <filter x="-10.0%" y="-19.1%" width="120.0%" height="138.2%" filterUnits="objectBoundingBox" id="filter-1">
            <feGaussianBlur stdDeviation="0.7" in="SourceGraphic"></feGaussianBlur>
        </filter>
        <filter x="-10.0%" y="-19.1%" width="120.0%" height="138.2%" filterUnits="objectBoundingBox" id="filter-2">
            <feGaussianBlur stdDeviation="0.7" in="SourceGraphic"></feGaussianBlur>
        </filter>
        <filter x="-35.0%" y="-16.2%" width="170.0%" height="132.3%" filterUnits="objectBoundingBox" id="filter-3">
            <feGaussianBlur stdDeviation="0.7" in="SourceGraphic"></feGaussianBlur>
        </filter>
        <filter x="-15.0%" y="-15.0%" width="130.0%" height="130.0%" filterUnits="objectBoundingBox" id="filter-4">
            <feGaussianBlur stdDeviation="0.7" in="SourceGraphic"></feGaussianBlur>
        </filter>
    </defs>
    <g id="Google营销" stroke="none" stroke-width="1" fill="none" fill-rule="evenodd">
        <g id="编组" transform="translate(2.000000, 2.000000)" fill-rule="nonzero" opacity="0.7">
            <path d="M23,24.9394945 C19.7713044,27.5239752 15.5579458,28.543456 11.5008159,27.7218824 C7.44368606,26.9003088 3.96253953,24.3226815 2,20.6869695 L6.51704687,17 C7.37550643,19.2818119 9.19969078,21.0695451 11.5021793,21.8855185 C13.8046678,22.701492 16.3508204,22.4625522 18.4603069,21.2325437 L23,24.9394945 Z" id="路径" fill="#28B446" filter="url(#filter-1)"></path>
            <path d="M23,3.13838076 L18.5427448,6.75475971 C16.4277972,5.44960464 13.8280019,5.17070115 11.4802349,5.99710054 C9.1324678,6.82349992 7.292627,8.66512763 6.48218967,11 L2.00085982,7.36402242 L2,7.36402242 C3.91490358,3.7006643 7.40038303,1.09346398 11.4801643,0.272691737 C15.5599456,-0.548080509 19.7953311,0.50583269 23,3.13923289 L23,3.13838076 Z" id="路径" fill="#F14336" filter="url(#filter-2)"></path>
            <path d="M1.61320476,21 L6,17.307095 C5.34662332,15.5074857 5.31971546,13.530633 5.92385507,11.7129183 L1.51421633,8 L1.51337026,8 C-0.539205485,12.0852726 -0.501857326,16.9485819 1.61320476,21 L1.61320476,21 Z" id="路径" fill="#FBBB00" filter="url(#filter-3)"></path>
            <path d="M27.749517,11 L14,11 L14,16.7299884 L21.654029,16.7299884 C20.9658099,18.5816177 19.6698817,20.1378997 17.983137,21.138368 L22.6462345,24.9990948 L22.6462345,25 C26.7719212,21.6447848 28.734027,16.2620764 27.749517,11 L27.749517,11 Z" id="路径" fill="#518EF8" filter="url(#filter-4)"></path>
        </g>
        <g id="编组" transform="translate(2.000000, 2.000000)" fill-rule="nonzero">
            <g id="路径">
                <path d="M22.7629674,24.9175166 C19.5196227,27.520475 15.2871472,28.5472446 11.2116094,27.7197972 C7.13607159,26.8923498 3.63913045,24.2962938 1.66768651,20.6345884 L6.20522807,16.9212589 C7.06758262,19.2193846 8.90004363,21.0198991 11.212979,21.8417064 C13.5259143,22.6635136 16.0836192,22.4228655 18.202677,21.1840631 L22.7629674,24.9175166 Z" fill="#28B446"></path>
                <path d="M22.9353345,3.22376316 L18.3995429,6.93709259 C16.24733,5.59694798 13.6017266,5.31056745 11.2125921,6.15912154 C8.82345753,7.00767563 6.95119888,8.89867501 6.1264817,11.2961423 L1.56619118,7.56268885 L1.56531621,7.56268885 C3.51396024,3.80112079 7.06085356,1.12402478 11.2125202,0.281248681 C15.3641869,-0.561527416 19.6741996,0.520639844 22.9353345,3.22463813 L22.9353345,3.22376316 Z" fill="#F14336"></path>
                <path d="M1.66856148,20.6345884 L6.20522807,16.9212589 C5.52952929,15.1116964 5.50170215,13.1239103 6.1264817,11.2961423 L1.56619118,7.56268885 L1.56531621,7.56268885 C-0.557384143,11.670556 -0.518760014,16.5607629 1.66856148,20.6345884 L1.66856148,20.6345884 Z" fill="#FBBB00"></path>
                <path d="M27.7537382,11.3853882 L14.3073559,11.3853882 L14.3073559,16.9238838 L21.792637,16.9238838 C21.119591,18.7136328 19.8522341,20.2179048 18.202677,21.1849381 L22.7629674,24.9166416 L22.7629674,24.9175166 C26.7976954,21.6744307 28.7165428,16.4716092 27.7537382,11.3853882 L27.7537382,11.3853882 Z" fill="#518EF8"></path>
            </g>
        </g>
    </g>
</svg>