<?xml version="1.0" encoding="UTF-8"?>
<svg width="30px" height="24px" viewBox="0 0 30 24" version="1.1" xmlns="http://www.w3.org/2000/svg" xmlns:xlink="http://www.w3.org/1999/xlink">
    <!-- Generator: Sketch 62 (91390) - https://sketch.com -->
    <title>帮助中心/icon/邮件</title>
    <desc>Created with Sketch.</desc>
    <defs>
        <linearGradient x1="50%" y1="-30.6152344%" x2="50%" y2="100%" id="linearGradient-1">
            <stop stop-color="#66DFFD" offset="0%"></stop>
            <stop stop-color="#3683FA" offset="100%"></stop>
        </linearGradient>
        <filter x="-7.5%" y="-10.2%" width="114.9%" height="120.4%" filterUnits="objectBoundingBox" id="filter-2">
            <feGaussianBlur stdDeviation="0.7" in="SourceGraphic"></feGaussianBlur>
        </filter>
    </defs>
    <g id="页面-1" stroke="none" stroke-width="1" fill="none" fill-rule="evenodd">
        <g id="帮助中心展开" transform="translate(-1138.000000, -150.000000)">
            <g id="帮助中心/icon/邮件" transform="translate(1138.000000, 147.000000)">
                <g id="邮件" transform="translate(0.937500, 4.687500)">
                    <path d="M28.1184099,3.01751363 L14.1220533,9.71530151 L0,3.19936799 L0,2.18225232 C0.00219669854,0.979053124 1.01487473,0 2.2669929,0 L25.8602038,0 C27.1101253,0 28.125,0.974823953 28.125,2.18225232 L28.125,3.01751363 L28.1184099,3.01751363 Z M28.1184099,18.4448623 C28.1184099,19.6480615 27.1079286,20.625 25.8536137,20.625 L2.2625995,20.625 C1.01487473,20.625 0,19.6522906 0,18.4448623 L0,5.71361024 L13.5553051,11.9186997 C13.9441872,12.136447 14.4303503,12.1106784 14.7920463,11.8531475 L14.8403737,11.8298871 L28.1184099,5.53175588 L28.1184099,18.4448623 Z" id="形状" fill="url(#linearGradient-1)" fill-rule="nonzero" opacity="0.7" filter="url(#filter-2)"></path>
                    <path d="M28.1184099,3.01751363 L14.9698622,9.30959277 C14.4328286,9.56658371 13.8092212,9.57096037 13.2686334,9.32153249 L0,3.19936799 L0,3.19936799 L0,2.18225232 C0.00219669854,0.979053124 1.01487473,0 2.2669929,0 L25.8602038,0 C27.1101253,0 28.125,0.974823953 28.125,2.18225232 L28.125,3.01751363 L28.1184099,3.01751363 Z M28.1184099,18.4448623 C28.1184099,19.6480615 27.1079286,20.625 25.8536137,20.625 L2.2625995,20.625 C1.01487473,20.625 0,19.6522906 0,18.4448623 L0,5.71361024 L13.1071758,11.7419243 C13.7926769,11.9592476 14.453516,11.9413757 15.0896931,11.6883087 L28.1184099,5.53175588 L28.1184099,18.4448623 Z" id="形状备份" fill="url(#linearGradient-1)" fill-rule="nonzero"></path>
                    <path d="M0,5.71361024 L12.7902571,11.6008144 C13.5966455,11.9719855 14.5260117,11.966967 15.3283445,11.587109 L28.1184099,5.53175588 L28.1184099,5.53175588 L28.1184099,3.01751363 L14.9109322,9.31101472 C14.3735011,9.56710625 13.7499201,9.57046598 13.2097608,9.3201803 L0,3.19936799 L0,3.19936799 L0,5.71361024 Z" id="路径-2" fill="#FFFFFF" fill-rule="nonzero"></path>
                </g>
            </g>
        </g>
    </g>
</svg>