<?xml version="1.0" encoding="UTF-8"?>
<svg width="30px" height="30px" viewBox="0 0 30 30" version="1.1" xmlns="http://www.w3.org/2000/svg" xmlns:xlink="http://www.w3.org/1999/xlink">
    <!-- Generator: Sketch 62 (91390) - https://sketch.com -->
    <title>icon/应用中心/我的任务</title>
    <desc>Created with Sketch.</desc>
    <defs>
        <linearGradient x1="50%" y1="1.04440206%" x2="50%" y2="97.8779561%" id="linearGradient-1">
            <stop stop-color="#19B2EB" offset="0%"></stop>
            <stop stop-color="#1F77FB" offset="100%"></stop>
        </linearGradient>
        <path d="M7.01537684,1.05826855 L7.01537684,1.06426855 L7.53258463,1.06516927 C8.34301576,1.06516927 9,1.72215351 9,2.53258464 C9,3.34301576 8.34301576,4 7.53258463,4 L7.01537684,3.99926855 L7.01537684,4.00626855 L4.54488596,4.00759066 L4.53637684,27 L25.5363768,27 L25.5363768,4 L22.4674154,4 C21.6569842,4 21,3.34301576 21,2.53258464 C21,1.72215351 21.6569842,1.06516927 22.4674154,1.06516927 L23.0383768,1.06426855 L23.0383768,1.05826855 L25.5363768,1.05895996 C27.1932311,1.05895996 28.5363768,2.40210571 28.5363768,4.05895996 L28.5363768,27.1782894 C28.5363768,28.8351436 27.1932311,30.1782894 25.5363768,30.1782894 L4.53637684,30.1782894 C2.87952259,30.1782894 1.53637684,28.8351436 1.53637684,27.1782894 L1.53637684,4.05895996 C1.53637684,2.40210571 2.87952259,1.05895996 4.53637684,1.05895996 L7.01537684,1.05826855 Z M15.5325846,20 C16.3430158,20 17,20.6569842 17,21.4674154 C17,22.2778465 16.3430158,22.9348307 15.5325846,22.9348307 L9.46741536,22.9348307 C8.65698424,22.9348307 8,22.2778465 8,21.4674154 C8,20.6569842 8.65698424,20 9.46741536,20 L15.5325846,20 Z M20.5325846,14 C21.3430158,14 22,14.6569842 22,15.4674154 C22,16.2778465 21.3430158,16.9348307 20.5325846,16.9348307 L9.46741536,16.9348307 C8.65698424,16.9348307 8,16.2778465 8,15.4674154 C8,14.6569842 8.65698424,14 9.46741536,14 L20.5325846,14 Z M20.5325846,8 C21.3430158,8 22,8.65698424 22,9.46741536 C22,10.2778465 21.3430158,10.9348307 20.5325846,10.9348307 L9.46741536,10.9348307 C8.65698424,10.9348307 8,10.2778465 8,9.46741536 C8,8.65698424 8.65698424,8 9.46741536,8 L20.5325846,8 Z M17.5325846,1.06516927 C18.3430158,1.06516927 19,1.72215351 19,2.53258464 C19,3.34301576 18.3430158,4 17.5325846,4 L12.5208211,4 C11.71039,4 11.0534058,3.34301576 11.0534058,2.53258464 C11.0534058,1.72215351 11.71039,1.06516927 12.5208211,1.06516927 L17.5325846,1.06516927 Z" id="path-2"></path>
        <filter x="-9.3%" y="-12.0%" width="125.9%" height="124.0%" filterUnits="objectBoundingBox" id="filter-3">
            <feMorphology radius="0.5" operator="dilate" in="SourceAlpha" result="shadowSpreadOuter1"></feMorphology>
            <feOffset dx="1" dy="0" in="shadowSpreadOuter1" result="shadowOffsetOuter1"></feOffset>
            <feGaussianBlur stdDeviation="0.5" in="shadowOffsetOuter1" result="shadowBlurOuter1"></feGaussianBlur>
            <feColorMatrix values="0 0 0 0 0.11372549   0 0 0 0 0.576470588   0 0 0 0 0.956862745  0 0 0 0.15 0" type="matrix" in="shadowBlurOuter1"></feColorMatrix>
        </filter>
    </defs>
    <g id="icon/应用中心/我的任务" stroke="none" stroke-width="1" fill="none" fill-rule="evenodd">
        <g id="形状" fill-rule="nonzero">
            <use fill="black" fill-opacity="1" filter="url(#filter-3)" xlink:href="#path-2"></use>
            <use fill="url(#linearGradient-1)" xlink:href="#path-2"></use>
        </g>
    </g>
</svg>