<?xml version="1.0" encoding="UTF-8"?>
<svg width="30px" height="30px" viewBox="0 0 30 30" version="1.1" xmlns="http://www.w3.org/2000/svg" xmlns:xlink="http://www.w3.org/1999/xlink">
    <!-- Generator: Sketch 62 (91390) - https://sketch.com -->
    <title>icon/应用中心/设置</title>
    <desc>Created with Sketch.</desc>
    <defs>
        <linearGradient x1="50%" y1="0%" x2="50%" y2="100%" id="linearGradient-1">
            <stop stop-color="#E13592" offset="0%"></stop>
            <stop stop-color="#5868F5" offset="100%"></stop>
        </linearGradient>
        <path d="M12.8478782,1.61313302 L13.0798567,1.86859243 C13.5943173,2.36502185 14.2762435,2.64579884 15.0025451,2.64579884 C15.7296258,2.64579884 16.4028215,2.36987299 16.8527369,1.94279034 L17.1606184,1.60968565 C17.9967082,0.708482225 19.4478063,0.35083968 20.6066626,0.778713749 L20.7824119,0.849389757 C21.1418105,1.00254767 21.7074989,1.28822024 22.5081203,1.75253888 L22.9186927,1.99689833 C23.623699,2.4247188 24.0695195,2.74156901 24.3092541,2.947035 C25.2324157,3.74225152 25.6447807,5.17401262 25.2820159,6.37505423 L25.180419,6.66645544 C25.0108703,7.37790358 25.1135695,8.12982996 25.4819152,8.77742434 C25.8482186,9.41813509 26.4240437,9.87226099 27.0055607,10.0543377 L27.438232,10.1545879 C28.6324856,10.4271762 29.6612542,11.5201423 29.8756845,12.7249585 C29.8974679,12.8474514 29.922583,13.0490369 29.9452716,13.340198 C29.9776555,13.7557795 29.9975782,14.2683168 30,14.8924927 C30,15.4196654 29.9866271,15.8698524 29.9631546,16.2484149 L29.9478854,16.4670004 C29.9262812,16.7432535 29.902275,16.9357359 29.8816515,17.0519128 C29.6685469,18.2606997 28.636524,19.350986 27.4518131,19.622913 L27.1326455,19.694542 C26.4474717,19.8999244 25.8601105,20.3619404 25.4928034,21.0075611 C25.1265401,21.6482017 25.0249803,22.3941855 25.1694006,23.0217814 L25.2948168,23.4451759 C25.6445423,24.614771 25.2313135,26.0493769 24.3144798,26.8281718 L24.1640648,26.9517928 C23.8778416,27.1764052 23.4111971,27.493875 22.722679,27.9037718 L22.5094259,28.0295132 C21.5660613,28.5769226 20.9432984,28.8769006 20.602143,29.0027162 C19.4460011,29.4297978 17.9852683,29.0705532 17.1573261,28.1663647 L16.9303179,27.9162598 C16.4125304,27.4164197 15.7296364,27.133839 15.0025179,27.133839 C14.2725195,27.133839 13.5936208,27.4132892 13.1383169,27.8455046 L12.8447064,28.1642397 C12.0088044,29.065689 10.5579772,29.4232272 9.41164844,29.0007562 L9.23277913,28.9303965 C8.90102393,28.7913918 8.39974326,28.5413436 7.70903165,28.1449872 L7.08580457,27.7772808 C6.38123357,27.3494539 5.93561207,27.0327163 5.69597019,26.827452 C4.77253391,26.0324428 4.360091,24.6002879 4.7085664,23.4450621 L4.80864956,23.1134502 C4.97811286,22.4017432 4.8754074,21.6497676 4.50347066,20.9958171 C4.14047863,20.3541583 3.55660689,19.8958752 2.95912321,19.7139182 L2.55724466,19.6198543 C1.36054989,19.3475655 0.331462434,18.2571758 0.118969663,17.0490364 L0.0926494004,16.870988 C0.0836183751,16.7993208 0.0744466765,16.7151389 0.0654850981,16.6178513 L0.0522441699,16.4620166 C0.0247944558,16.111785 0.00681359167,15.6910427 0.00158246234,15.1944433 L0,14.8873381 C0,14.3600186 0.0134054204,13.9096758 0.0369355486,13.5309541 L0.0522423448,13.3122728 C0.0739014316,13.0358705 0.0979705755,12.8432536 0.118480516,12.7279362 C0.331134207,11.5194551 1.36282615,10.4294813 2.55647788,10.154528 L2.87839858,10.0846349 C3.56410455,9.87940391 4.14550699,9.4225603 4.51073421,8.780174 C4.87887913,8.13321345 4.98043493,7.38514002 4.8370658,6.75726579 L4.7104062,6.33451682 C4.36076547,5.16465102 4.77412167,3.73555183 5.69161728,2.95613238 L5.84122441,2.83322176 C6.15463085,2.58714119 6.6867819,2.22682219 7.49621664,1.74988721 L7.90889529,1.51471994 C8.62423454,1.11476883 9.11423397,0.883660613 9.40316065,0.776913158 C10.559134,0.34991448 12.0196198,0.709224025 12.8478782,1.61313302 Z M19.5267146,3.68806485 C19.5566899,3.69944329 19.4251339,3.73185526 19.4377145,3.71829087 L19.0657607,4.1165044 C17.977589,5.15904076 16.5376209,5.74924711 15.0025451,5.74924711 C13.4646234,5.74924711 12.0124854,5.15134234 10.8616159,4.03714277 L10.5630713,3.71337696 C10.5801749,3.73204248 10.4477501,3.69946328 10.478608,3.68806485 L10.316444,3.75706175 C10.0824991,3.86451984 9.66822615,4.07783712 9.06243595,4.42910935 L8.722894,4.63237613 C8.14803109,4.98242736 7.83150254,5.20820988 7.71334192,5.31065107 C7.72803545,5.29816702 7.68462101,5.44826406 7.68359042,5.44481704 L7.83468026,5.95948665 C8.1779718,7.4314923 7.96775243,8.97999591 7.20833971,10.3145519 C6.44494582,11.6572611 5.21282449,12.6254145 3.66836442,13.0840807 L3.24983267,13.1795303 C3.27559737,13.1735954 3.17191379,13.2831362 3.17447888,13.2685445 L3.14620606,13.554718 C3.12417561,13.8358595 3.10916967,14.1891709 3.10477965,14.6197081 L3.10344828,14.8873381 C3.10344828,15.3487897 3.11478198,15.7320555 3.13385816,16.0421839 L3.16746932,16.4501965 C3.17105179,16.4819995 3.17368393,16.5012023 3.17498917,16.5085483 C3.17242038,16.4939435 3.27231288,16.5997866 3.25504859,16.5958882 L3.7578261,16.7165074 C5.20608141,17.1502248 6.44270647,18.1208565 7.20288074,19.4646203 C7.964968,20.8045282 8.17772472,22.3622629 7.80650958,23.911855 L7.68252006,24.3321361 C7.68451865,24.32551 7.7300114,24.4834777 7.71780776,24.4729778 L7.85584266,24.5795304 C8.04214035,24.7147376 8.37630992,24.9355314 8.88610295,25.2385182 L9.0625766,25.3425533 C9.85594395,25.8062643 10.3129431,26.0263954 10.4771869,26.0859743 C10.4476764,26.075099 10.5797363,26.0425545 10.5655697,26.0578444 L10.9232978,25.6739258 C12.0173851,24.6253164 13.4627026,24.0303907 15.0025179,24.0303907 C16.5433849,24.0303907 17.9960414,24.6314982 19.1488861,25.7480378 L19.4425964,26.0666259 C19.4252761,26.0477109 19.5574285,26.0802117 19.5275295,26.0912567 L19.6895265,26.0223799 C19.8766466,25.9364467 20.1796295,25.7824691 20.6054251,25.5432224 L20.9479078,25.3475303 C21.7385342,24.885662 22.1532344,24.5947672 22.2919735,24.4743325 C22.2763067,24.4876427 22.3209589,24.3326234 22.3203143,24.3304497 L22.1707928,23.8165787 C21.8266594,22.348159 22.0376791,20.7981636 22.7969634,19.4700869 C23.5606706,18.1276935 24.7978607,17.1545248 26.3337429,16.6972027 L26.7513005,16.5995651 C26.7247356,16.6056628 26.8283062,16.496245 26.8256533,16.5112993 L26.8458597,16.3217628 L26.853884,16.2250364 C26.8802653,15.8876981 26.8965635,15.4464318 26.8965635,14.8985426 C26.8944439,14.354905 26.8774821,13.9185402 26.851203,13.5813016 L26.82026,13.2688104 C26.8226722,13.2834879 26.7194361,13.1737865 26.742703,13.1790887 L26.2008138,13.0496861 C24.7669426,12.610422 23.5495535,11.6503251 22.7860072,10.3147791 C22.0239616,8.97503039 21.8111742,7.4170788 22.1969468,5.82184641 L22.3223797,5.44207145 C22.3203867,5.44867897 22.274896,5.29073211 22.2867451,5.30093254 L22.1490019,5.19458487 C21.9424154,5.04464695 21.5537371,4.7893748 20.9466599,4.43455401 L20.4472251,4.15130787 C19.9509639,3.87695297 19.6488427,3.73377167 19.5267146,3.68806485 Z M15,11.8873381 C16.6568542,11.8873381 18,13.2304838 18,14.8873381 C18,16.5441923 16.6568542,17.8873381 15,17.8873381 C13.3431458,17.8873381 12,16.5441923 12,14.8873381 C12,13.2304838 13.3431458,11.8873381 15,11.8873381 Z" id="path-2"></path>
        <filter x="-8.3%" y="-12.2%" width="123.3%" height="124.5%" filterUnits="objectBoundingBox" id="filter-3">
            <feMorphology radius="0.5" operator="dilate" in="SourceAlpha" result="shadowSpreadOuter1"></feMorphology>
            <feOffset dx="1" dy="0" in="shadowSpreadOuter1" result="shadowOffsetOuter1"></feOffset>
            <feGaussianBlur stdDeviation="0.5" in="shadowOffsetOuter1" result="shadowBlurOuter1"></feGaussianBlur>
            <feColorMatrix values="0 0 0 0 0.576470588   0 0 0 0 0.325490196   0 0 0 0 0.796078431  0 0 0 0.2 0" type="matrix" in="shadowBlurOuter1"></feColorMatrix>
        </filter>
    </defs>
    <g id="icon/应用中心/设置" stroke="none" stroke-width="1" fill="none" fill-rule="evenodd">
        <g id="形状">
            <g>
                <use fill="black" fill-opacity="1" filter="url(#filter-3)" xlink:href="#path-2"></use>
                <use fill="url(#linearGradient-1)" fill-rule="evenodd" xlink:href="#path-2"></use>
            </g>
        </g>
    </g>
</svg>