<?xml version="1.0" standalone="no"?><!DOCTYPE svg PUBLIC "-//W3C//DTD SVG 1.1//EN" "http://www.w3.org/Graphics/SVG/1.1/DTD/svg11.dtd"><svg t="1686710057278" class="icon" viewBox="0 0 1024 1024" version="1.1" xmlns="http://www.w3.org/2000/svg" p-id="25060" width="128" height="128" xmlns:xlink="http://www.w3.org/1999/xlink"><path d="M271.685818 87.086545c-14.429091-37.236364-25.460364-38.632727-47.383273-39.563636A392.517818 392.517818 0 0 0 199.307636 46.545455c-28.578909 0-58.368 8.983273-76.474181 28.76509C101.050182 99.328 46.545455 155.368727 46.545455 270.568727c0 115.013818 78.149818 226.304 88.622545 241.896728 10.984727 15.499636 152.389818 255.069091 371.758545 352.721454 171.613091 76.427636 222.533818 69.352727 261.632 60.369455 57.064727-13.218909 128.558545-58.507636 146.571637-113.152 17.966545-54.784 17.966545-101.469091 12.753454-111.383273-5.306182-9.821091-19.781818-15.499636-41.704727-27.322182-21.969455-11.776-128.605091-68.375273-148.805818-75.915636-19.781818-7.959273-38.632727-5.166545-53.527273 17.501091-21.085091 31.557818-41.704727 63.627636-58.414545 82.990545-13.125818 15.080727-34.676364 16.989091-52.596364 8.936727-24.203636-10.845091-91.741091-36.305455-175.197091-116.037818-64.512-61.765818-108.404364-138.658909-121.111273-161.698909-12.753455-23.598545-1.303273-37.236364 8.797091-49.989818 10.938182-14.615273 21.457455-24.994909 32.488728-38.632727 10.984727-13.684364 17.035636-20.759273 24.110545-36.817455 7.447273-15.592727 2.187636-31.650909-3.118545-43.426909-5.213091-11.729455-49.105455-126.836364-67.118546-173.428364V87.04z" fill="#5880f6" p-id="25061"></path><path d="M465.454545 139.636364m34.909091 0l488.727273 0q34.909091 0 34.909091 34.909091l0 0q0 34.909091-34.909091 34.90909l-488.727273 0q-34.909091 0-34.909091-34.90909l0 0q0-34.909091 34.909091-34.909091Z" fill="#5880f6" p-id="25062"></path><path d="M651.636364 279.272727m34.909091 0l302.545454 0q34.909091 0 34.909091 34.909091l0 0q0 34.909091-34.909091 34.909091l-302.545454 0q-34.909091 0-34.909091-34.909091l0 0q0-34.909091 34.909091-34.909091Z" fill="#5880f6" p-id="25063"></path><path d="M791.272727 418.909091m34.909091 0l162.909091 0q34.909091 0 34.909091 34.909091l0 0q0 34.909091-34.909091 34.909091l-162.909091 0q-34.909091 0-34.909091-34.909091l0 0q0-34.909091 34.909091-34.909091Z" fill="#5880f6" p-id="25064"></path></svg>