<?xml version="1.0" encoding="UTF-8"?>
<svg width="30px" height="30px" viewBox="0 0 30 30" version="1.1" xmlns="http://www.w3.org/2000/svg" xmlns:xlink="http://www.w3.org/1999/xlink">
    <!-- Generator: Sketch 62 (91390) - https://sketch.com -->
    <title>帮助中心/icon/设置</title>
    <desc>Created with Sketch.</desc>
    <defs>
        <linearGradient x1="50%" y1="0%" x2="50%" y2="100%" id="linearGradient-1">
            <stop stop-color="#5994F7" offset="0%"></stop>
            <stop stop-color="#5868F5" offset="100%"></stop>
        </linearGradient>
        <filter x="-7.5%" y="-7.8%" width="114.9%" height="115.6%" filterUnits="objectBoundingBox" id="filter-2">
            <feGaussianBlur stdDeviation="0.7" in="SourceGraphic"></feGaussianBlur>
        </filter>
    </defs>
    <g id="页面-1" stroke="none" stroke-width="1" fill="none" fill-rule="evenodd">
        <g id="帮助中心展开" transform="translate(-1311.000000, -737.000000)" fill-rule="nonzero">
            <g id="帮助中心/icon/设置" transform="translate(1311.000000, 737.000000)">
                <path d="M28.948943,12.998688 C28.9674981,13.1037876 28.9900606,13.2862037 29.0109316,13.5559898 C29.0413713,13.9494667 29.0602045,14.4375035 29.0625,15.0326762 C29.0625,15.637116 29.0443107,16.1335261 29.0134635,16.5308433 C28.9936379,16.7861998 28.9721379,16.9598435 28.9545843,17.0594481 C28.7778551,18.0692047 27.9061776,18.9968001 26.9242046,19.223836 L26.5914139,19.3001148 C25.8283717,19.5305043 25.1743126,20.0487315 24.7668505,20.7701525 C24.3604133,21.4862399 24.2477098,22.3201063 24.4169629,23.055543 L24.538323,23.4682231 C24.828941,24.4472224 24.479489,25.6692502 23.7177772,26.3210079 C23.4678558,26.5397687 22.9373869,26.9145805 22.0395598,27.442888 C21.1487023,27.9635938 20.5689371,28.2448943 20.263226,28.3584595 C19.3063814,28.7144944 18.0745389,28.4093354 17.3882172,27.6543523 L17.1521722,27.393736 C16.5757127,26.8332047 15.8133635,26.515448 15.0024304,26.515448 C14.1892445,26.515448 13.4312,26.829749 12.8970244,27.3425262 L12.6145572,27.651401 C11.9212065,28.4045667 10.6976096,28.7083029 9.74774576,28.355691 C9.44068567,28.243537 8.86082141,27.962189 7.9670327,27.4359784 C7.07431829,26.9100197 6.54344071,26.5369666 6.29085781,26.3190433 C5.52455588,25.6545101 5.17564443,24.4341362 5.46538573,23.4666097 L5.5676698,23.1227113 C5.75544891,22.3283384 5.64156029,21.4884104 5.23048648,20.7603873 C4.82662974,20.0412929 4.17554678,19.5265335 3.47249376,19.3123285 L3.08210239,19.220296 C2.09099457,18.9931428 1.22225008,18.0659436 1.04590714,17.0560361 C1.02808572,16.9550925 1.00653101,16.7813593 0.986655994,16.5259266 C0.95573339,16.1285107 0.9375,15.632061 0.9375,15.0276645 C0.9375,14.423075 0.955732897,13.9265029 0.986654722,13.5290202 C1.00652952,13.2735409 1.02808441,13.0997884 1.04556615,13.000779 C1.22190935,11.9913466 2.09332685,11.0639962 3.08156786,10.8347001 L3.41908037,10.7596403 C4.18268264,10.5294305 4.8311094,10.0162109 5.2369805,9.29713811 C5.64481919,8.57520167 5.75741209,7.73978714 5.58890969,7.00278836 L5.46673397,6.59203554 C5.17621876,5.61291881 5.52561069,4.39616604 6.28788902,3.74387364 C6.53658628,3.52649048 7.06565846,3.15133964 7.96578961,2.61709101 C8.85657411,2.096751 9.4359974,1.81552554 9.74188719,1.70168776 C10.698581,1.34572609 11.9302548,1.65095007 12.616834,2.40569502 L12.8577087,2.67154519 C13.4311221,3.22889103 14.1925973,3.54470511 15.0024567,3.54470511 C15.8125819,3.54470511 16.5651692,3.23399212 17.0938635,2.72656467 L17.3905123,2.40327431 C18.0840265,1.65030579 19.3078226,1.34648813 20.2662745,1.70294468 C20.5685159,1.8165736 21.1442997,2.09736291 22.0371753,2.61895299 C22.9304158,3.14481933 23.4614714,3.51793573 23.7140978,3.73602639 C24.480216,4.40077123 24.8290624,5.62081265 24.5293628,6.62050061 L24.4217977,6.93762243 C24.2339059,7.73178222 24.3477935,8.57169839 24.7563407,9.29519988 C25.162938,10.0115694 25.8047541,10.5214257 26.4943039,10.7369662 L26.9132554,10.8347422 C27.9021068,11.0620913 28.7710714,11.9920049 28.948943,12.998688 Z" id="合并形状" fill="url(#linearGradient-1)" opacity="0.7" filter="url(#filter-2)"></path>
                <path d="M28.948943,12.998688 C28.9674981,13.1037876 28.9900606,13.2862037 29.0109316,13.5559898 C29.0413713,13.9494667 29.0602045,14.4375035 29.0625,15.0326762 C29.0625,15.637116 29.0443107,16.1335261 29.0134635,16.5308433 C28.9936379,16.7861998 28.9721379,16.9598435 28.9545843,17.0594481 C28.7778551,18.0692047 27.9061776,18.9968001 26.9242046,19.223836 L26.5914139,19.3001148 C25.8283717,19.5305043 25.1743126,20.0487315 24.7668505,20.7701525 C24.3604133,21.4862399 24.2477098,22.3201063 24.4169629,23.055543 L24.538323,23.4682231 C24.828941,24.4472224 24.479489,25.6692502 23.7177772,26.3210079 C23.4678558,26.5397687 22.9373869,26.9145805 22.0395598,27.442888 C21.1487023,27.9635938 20.5689371,28.2448943 20.263226,28.3584595 C19.3063814,28.7144944 18.0745389,28.4093354 17.3882172,27.6543523 L17.1521722,27.393736 C16.5757127,26.8332047 15.8133635,26.515448 15.0024304,26.515448 C14.1892445,26.515448 13.4312,26.829749 12.8970244,27.3425262 L12.6145572,27.651401 C11.9212065,28.4045667 10.6976096,28.7083029 9.74774576,28.355691 C9.44068567,28.243537 8.86082141,27.962189 7.9670327,27.4359784 C7.07431829,26.9100197 6.54344071,26.5369666 6.29085781,26.3190433 C5.52455588,25.6545101 5.17564443,24.4341362 5.46538573,23.4666097 L5.5676698,23.1227113 C5.75544891,22.3283384 5.64156029,21.4884104 5.23048648,20.7603873 C4.82662974,20.0412929 4.17554678,19.5265335 3.47249376,19.3123285 L3.08210239,19.220296 C2.09099457,18.9931428 1.22225008,18.0659436 1.04590714,17.0560361 C1.02808572,16.9550925 1.00653101,16.7813593 0.986655994,16.5259266 C0.95573339,16.1285107 0.9375,15.632061 0.9375,15.0276645 C0.9375,14.423075 0.955732897,13.9265029 0.986654722,13.5290202 C1.00652952,13.2735409 1.02808441,13.0997884 1.04556615,13.000779 C1.22190935,11.9913466 2.09332685,11.0639962 3.08156786,10.8347001 L3.41908037,10.7596403 C4.18268264,10.5294305 4.8311094,10.0162109 5.2369805,9.29713811 C5.64481919,8.57520167 5.75741209,7.73978714 5.58890969,7.00278836 L5.46673397,6.59203554 C5.17621876,5.61291881 5.52561069,4.39616604 6.28788902,3.74387364 C6.53658628,3.52649048 7.06565846,3.15133964 7.96578961,2.61709101 C8.85657411,2.096751 9.4359974,1.81552554 9.74188719,1.70168776 C10.698581,1.34572609 11.9302548,1.65095007 12.616834,2.40569502 L12.8577087,2.67154519 C13.4311221,3.22889103 14.1925973,3.54470511 15.0024567,3.54470511 C15.8125819,3.54470511 16.5651692,3.23399212 17.0938635,2.72656467 L17.3905123,2.40327431 C18.0840265,1.65030579 19.3078226,1.34648813 20.2662745,1.70294468 C20.5685159,1.8165736 21.1442997,2.09736291 22.0371753,2.61895299 C22.9304158,3.14481933 23.4614714,3.51793573 23.7140978,3.73602639 C24.480216,4.40077123 24.8290624,5.62081265 24.5293628,6.62050061 L24.4217977,6.93762243 C24.2339059,7.73178222 24.3477935,8.57169839 24.7563407,9.29519988 C25.162938,10.0115694 25.8047541,10.5214257 26.4943039,10.7369662 L26.9132554,10.8347422 C27.9021068,11.0620913 28.7710714,11.9920049 28.948943,12.998688 Z" id="合并形状备份" fill="url(#linearGradient-1)"></path>
                <path d="M15,18.75 C17.0710678,18.75 18.75,17.0710678 18.75,15 C18.75,12.9289322 17.0710678,11.25 15,11.25 C12.9289322,11.25 11.25,12.9289322 11.25,15 C11.25,17.0710678 12.9289322,18.75 15,18.75 Z" id="Oval-8" fill="#FFFFFF"></path>
            </g>
        </g>
    </g>
</svg>