<?xml version="1.0" encoding="UTF-8"?>
<svg width="30px" height="30px" viewBox="0 0 30 30" version="1.1" xmlns="http://www.w3.org/2000/svg" xmlns:xlink="http://www.w3.org/1999/xlink">
    <!-- Generator: Sketch 62 (91390) - https://sketch.com -->
    <title>icon/应用中心/网站留言</title>
    <desc>Created with Sketch.</desc>
    <defs>
        <linearGradient x1="50%" y1="1.04440206%" x2="50%" y2="97.8779561%" id="linearGradient-1">
            <stop stop-color="#19B2EB" offset="0%"></stop>
            <stop stop-color="#1F77FB" offset="100%"></stop>
        </linearGradient>
        <path d="M22.7519531,25.5039062 C23.4412304,25.5039062 24,26.0626759 24,26.7519531 C24,27.4412304 23.4412304,28 22.7519531,28 L7.24804687,28 C6.55876962,28 6,27.4412304 6,26.7519531 C6,26.0626759 6.55876962,25.5039062 7.24804687,25.5039062 L22.7519531,25.5039062 Z M26,1.57348633 C27.6568542,1.57348633 29,2.91663208 29,4.57348633 L29,20.5734863 C29,22.2303406 27.6568542,23.5734863 26,23.5734863 L4,23.5734863 C2.34314575,23.5734863 1,22.2303406 1,20.5734863 L1,4.57348633 C1,2.91663208 2.34314575,1.57348633 4,1.57348633 L26,1.57348633 Z M26,4.57348633 L4,4.57348633 L4,20.5734863 L26,20.5734863 L26,4.57348633 Z M14.2747192,15.0800062 C14.9650752,15.0800062 15.5247192,15.6396502 15.5247192,16.3300062 C15.5247192,17.0203621 14.9650752,17.5800062 14.2747192,17.5800062 C13.5843633,17.5800062 13.0247192,17.0203621 13.0247192,16.3300062 C13.0247192,15.6396502 13.5843633,15.0800062 14.2747192,15.0800062 Z M17.8100586,15.0800062 C18.5004145,15.0800062 19.0600586,15.6396502 19.0600586,16.3300062 C19.0600586,17.0203621 18.5004145,17.5800062 17.8100586,17.5800062 C17.1197027,17.5800062 16.5600586,17.0203621 16.5600586,16.3300062 C16.5600586,15.6396502 17.1197027,15.0800062 17.8100586,15.0800062 Z M21.3452148,15.0800062 C22.0355708,15.0800062 22.5952148,15.6396502 22.5952148,16.3300062 C22.5952148,17.0203621 22.0355708,17.5800062 21.3452148,17.5800062 C20.6548589,17.5800062 20.0952148,17.0203621 20.0952148,16.3300062 C20.0952148,15.6396502 20.6548589,15.0800062 21.3452148,15.0800062 Z M15.9241972,7.92480583 C16.1904638,7.65853927 16.6071275,7.63433322 16.900739,7.85218768 L16.9848574,7.92480583 L17.4562619,8.39621035 C17.7225285,8.66247691 17.7467345,9.0791406 17.5288801,9.37275209 L17.4562619,9.45687052 L9.82133557,17.0917969 L8.52672501,17.4914528 C8.42811989,17.5218929 8.32251139,17.5210769 8.22438841,17.4891168 C7.99099683,17.4130975 7.85166402,17.1816935 7.88364716,16.9468008 L7.90382216,16.8588491 L8.34517292,15.5038301 L15.9241972,7.92480583 Z" id="path-2"></path>
        <filter x="-8.9%" y="-13.2%" width="125.0%" height="126.5%" filterUnits="objectBoundingBox" id="filter-3">
            <feMorphology radius="0.5" operator="dilate" in="SourceAlpha" result="shadowSpreadOuter1"></feMorphology>
            <feOffset dx="1" dy="0" in="shadowSpreadOuter1" result="shadowOffsetOuter1"></feOffset>
            <feGaussianBlur stdDeviation="0.5" in="shadowOffsetOuter1" result="shadowBlurOuter1"></feGaussianBlur>
            <feColorMatrix values="0 0 0 0 0.11372549   0 0 0 0 0.576470588   0 0 0 0 0.956862745  0 0 0 0.15 0" type="matrix" in="shadowBlurOuter1"></feColorMatrix>
        </filter>
    </defs>
    <g id="icon/应用中心/网站留言" stroke="none" stroke-width="1" fill="none" fill-rule="evenodd">
        <g id="形状">
            <use fill="black" fill-opacity="1" filter="url(#filter-3)" xlink:href="#path-2"></use>
            <use fill="url(#linearGradient-1)" fill-rule="evenodd" xlink:href="#path-2"></use>
        </g>
    </g>
</svg>