<?xml version="1.0" encoding="UTF-8"?>
<svg width="32px" height="32px" viewBox="0 0 32 32" version="1.1" xmlns="http://www.w3.org/2000/svg" xmlns:xlink="http://www.w3.org/1999/xlink">
    <!-- Generator: Sketch 62 (91390) - https://sketch.com -->
    <title>帮助中心/icon/网站交互</title>
    <desc>Created with Sketch.</desc>
    <defs>
        <linearGradient x1="100%" y1="40.7583303%" x2="0%" y2="40.7583303%" id="linearGradient-1">
            <stop stop-color="#208BE6" offset="0%"></stop>
            <stop stop-color="#35C0CF" offset="100%"></stop>
        </linearGradient>
        <filter x="-7.3%" y="-7.7%" width="114.5%" height="115.5%" filterUnits="objectBoundingBox" id="filter-2">
            <feGaussianBlur stdDeviation="0.7" in="SourceGraphic"></feGaussianBlur>
        </filter>
        <linearGradient x1="94.9397786%" y1="77.6234447%" x2="9.33186849%" y2="9.97854578%" id="linearGradient-3">
            <stop stop-color="#208BE6" offset="0%"></stop>
            <stop stop-color="#35C0CF" offset="100%"></stop>
        </linearGradient>
    </defs>
    <g id="帮助中心/icon/网站交互" stroke="none" stroke-width="1" fill="none" fill-rule="evenodd">
        <path d="M22.7642345,27.4517663 C23.364479,27.4518582 23.8510246,27.9384783 23.8510246,28.5387228 C23.8510246,29.1389674 23.364479,29.6255875 22.7642345,29.6256793 L9.32413383,29.6256793 C8.72388931,29.6255875 8.23734371,29.1389674 8.23734371,28.5387228 C8.23734371,27.9384783 8.72388931,27.4518582 9.32413383,27.4517663 L22.7642345,27.4517663 Z M26.5395508,2.51611328 C28.7486898,2.51611328 30.5395508,4.30697428 30.5395508,6.51611328 L30.5395508,21.024292 C30.5395508,23.233431 28.7486898,25.024292 26.5395508,25.024292 L5.58483887,25.024292 C3.37569987,25.024292 1.58483887,23.233431 1.58483887,21.024292 L1.58483887,6.51611328 C1.58483887,4.30697428 3.37569987,2.51611328 5.58483887,2.51611328 L26.5395508,2.51611328 Z" id="形状结合" fill="url(#linearGradient-1)" fill-rule="nonzero" opacity="0.7" filter="url(#filter-2)"></path>
        <path d="M23.7642345,27.4517663 C24.364479,27.4518582 24.8510246,27.9384783 24.8510246,28.5387228 C24.8510246,29.1389674 24.364479,29.6255875 23.7642345,29.6256793 L8.32413383,29.6256793 C7.72388931,29.6255875 7.23734371,29.1389674 7.23734371,28.5387228 C7.23734371,27.9384783 7.72388931,27.4518582 8.32413383,27.4517663 L23.7642345,27.4517663 Z M26.0568848,2.06863839 C28.2660238,2.06863839 30.0568848,3.85949939 30.0568848,6.06863839 L30.0568848,21.024292 C30.0568848,23.233431 28.2660238,25.024292 26.0568848,25.024292 L6.0378418,25.024292 C3.8287028,25.024292 2.0378418,23.233431 2.0378418,21.024292 L2.0378418,6.06863839 C2.0378418,3.85949939 3.8287028,2.06863839 6.0378418,2.06863839 L26.0568848,2.06863839 Z" id="形状结合备份" fill="url(#linearGradient-3)" fill-rule="nonzero"></path>
        <path d="M22.8893734,9 C23.502783,9.00008454 24,9.44777503 24,10 C24,10.552225 23.502783,10.9999155 22.8893734,11 L9.11062659,11 C8.49721696,10.9999155 8,10.552225 8,10 C8,9.44777503 8.49721696,9.00008454 9.11062659,9 L22.8893734,9 Z" id="路径" fill="#FFFFFF" fill-rule="nonzero"></path>
        <path d="M15.8893734,16 C16.502783,16.0000845 17,16.447775 17,17 C17,17.552225 16.502783,17.9999155 15.8893734,18 L9.11062659,18 C8.49721696,17.9999155 8,17.552225 8,17 C8,16.447775 8.49721696,16.0000845 9.11062659,16 L15.8893734,16 Z" id="路径备份" fill="#FFFFFF" fill-rule="nonzero"></path>
    </g>
</svg>