<svg width="16" height="16" viewBox="0 0 16 16" fill="none" xmlns="http://www.w3.org/2000/svg">
<path d="M13.6867 2.3476C12.1446 0.869483 10.174 0 8.03213 0C5.20482 0 2.54886 1.47812 1.09237 3.99962C-0.364123 6.52112 -0.364123 9.56431 1.09237 12.0858L0.531529 15.6476L4.26238 15.042C5.37617 15.6507 6.66131 15.9985 8.03213 15.9985C12.4016 16.0854 16 12.4336 16 7.99924C16 5.91248 15.1432 3.82572 13.6867 2.3476Z" fill="url(#paint0_linear_467_1376)"/>
<path d="M8.03213 0C10.174 0 12.1446 0.869483 13.6867 2.3476C15.1432 3.82572 16 5.91248 16 7.99924C16 12.4336 12.4016 16.0854 8.03213 15.9985C6.66131 15.9985 5.37617 15.6507 4.26238 15.042L0.531529 15.6476L1.09237 12.0858C-0.364123 9.56431 -0.364123 6.52112 1.09237 3.99962C2.54886 1.47812 5.20482 0 8.03213 0ZM8.03213 1.33333C5.64535 1.33333 3.44759 2.58793 2.24693 4.66653C1.06172 6.71837 1.02969 9.17336 2.15083 11.247L2.24693 11.4189L2.48284 11.8273L2.13493 14.0363L4.50032 13.6526L4.90176 13.872C5.84854 14.3894 6.9173 14.6651 8.05866 14.6654C11.6601 14.7371 14.6667 11.7084 14.6667 7.99924C14.6667 6.26494 13.9493 4.5137 12.7641 3.31019C11.429 2.03054 9.77651 1.33333 8.03213 1.33333Z" fill="white"/>
<path d="M8.22126 11.3256H6.06117C5.76661 11.3256 5.52783 11.0868 5.52783 10.7922V5.33338C5.52783 5.03883 5.76661 4.80005 6.06117 4.80005H8.43376C9.23358 4.81185 9.80025 5.04354 10.1338 5.4951C10.3345 5.77253 10.4348 6.10456 10.4348 6.49119C10.4348 6.88963 10.3345 7.20986 10.1338 7.45187C10.0216 7.58764 9.85633 7.71159 9.63792 7.82375C9.97143 7.94475 10.223 8.13659 10.3927 8.39927C10.5624 8.66194 10.6473 8.98069 10.6473 9.35552C10.6473 9.74215 10.5499 10.0889 10.3551 10.3959C10.2312 10.5995 10.0762 10.7707 9.89027 10.9094C9.68072 11.0688 9.43354 11.178 9.14873 11.237C8.86392 11.2961 8.55476 11.3256 8.22126 11.3256ZM8.19027 8.45239H6.77555V10.1922H8.16813C8.45442 10.1922 8.67725 10.1539 8.83662 10.0771C9.12586 9.93547 9.27048 9.66394 9.27048 9.26255C9.27048 8.92314 9.13028 8.68998 8.8499 8.56307C8.69348 8.49224 8.4736 8.45534 8.19027 8.45239ZM8.86761 7.20838C9.04469 7.10213 9.13324 6.91177 9.13324 6.63729C9.13324 6.3333 9.01518 6.1326 8.77907 6.03521C8.57542 5.96732 8.3157 5.93338 7.9999 5.93338H6.77555V7.37218H8.16813C8.45442 7.37218 8.68758 7.31758 8.86761 7.20838Z" fill="white"/>
<defs>
<linearGradient id="paint0_linear_467_1376" x1="8" y1="0" x2="8" y2="16" gradientUnits="userSpaceOnUse">
<stop stop-color="#4DEB8D"/>
<stop offset="1" stop-color="#2FC642"/>
</linearGradient>
</defs>
</svg>
