<?xml version="1.0" encoding="UTF-8"?>
<svg width="30px" height="30px" viewBox="0 0 30 30" version="1.1" xmlns="http://www.w3.org/2000/svg" xmlns:xlink="http://www.w3.org/1999/xlink">
    <!-- Generator: Sketch 62 (91390) - https://sketch.com -->
    <title>帮助中心/icon/WhatsApp</title>
    <desc>Created with Sketch.</desc>
    <defs>
        <linearGradient x1="50%" y1="0%" x2="50%" y2="100%" id="linearGradient-1">
            <stop stop-color="#6CE39C" offset="0%"></stop>
            <stop stop-color="#2FC642" offset="100%"></stop>
        </linearGradient>
        <filter x="-7.5%" y="-7.5%" width="114.9%" height="114.9%" filterUnits="objectBoundingBox" id="filter-2">
            <feGaussianBlur stdDeviation="0.7" in="SourceGraphic"></feGaussianBlur>
        </filter>
        <linearGradient x1="50%" y1="0%" x2="50%" y2="100%" id="linearGradient-3">
            <stop stop-color="#4DEB8D" offset="0%"></stop>
            <stop stop-color="#2FC642" offset="100%"></stop>
        </linearGradient>
    </defs>
    <g id="页面-1" stroke="none" stroke-width="1" fill="none" fill-rule="evenodd">
        <g id="帮助中心展开" transform="translate(-1311.000000, -501.000000)">
            <g id="帮助中心/icon/WhatsApp" transform="translate(1311.000000, 501.000000)">
                <g id="编组" transform="translate(0.937500, 0.937500)">
                    <path d="M1.14907497,26.1417695 L1.92018073,21.2445832 L1.92018073,21.2445832 C-0.640060243,16.8122601 -0.640060243,11.4629046 1.92018073,7.03058148 C4.4804217,2.59825836 9.1490964,0 14.1189759,0 C17.8840361,0 21.3478916,1.52838729 24.0587349,4.12664565 C26.6189759,6.72490404 28.125,10.3930335 28.125,14.061163 C28.125,21.8559381 21.7996988,28.2751647 14.1189759,28.122326 C11.7093373,28.122326 9.4503012,27.5109711 7.49246988,26.4411 L2.29712434,27.2843934 C1.75197439,27.3728805 1.23831002,27.0026822 1.14982286,26.4575323 C1.13285254,26.3529818 1.1326001,26.2463992 1.14907497,26.1417695 Z M9.75150601,7.6419364 L9.1490964,7.6419364 C8.69728917,7.6419364 8.39608436,7.79477514 8.24548194,8.10045258 C7.34186749,8.86464621 7.04066265,9.93451732 7.04066265,11.0043884 C7.19126507,12.379937 7.6430723,13.6026468 8.39608433,14.6725179 C9.90210843,16.9650988 12.0105422,18.7991636 14.4201807,20.0218734 C15.0225904,20.3275508 15.7756024,20.4803896 16.3780121,20.786067 C17.1310241,20.9389058 17.8840362,21.0917445 18.6370482,20.9389058 C19.5406626,20.786067 20.4442771,20.1747121 21.0466868,19.2576797 C21.1972892,18.7991636 21.3478916,18.1878086 21.1972891,17.5764537 C21.0466867,17.423615 20.8960843,17.2707763 20.5948795,17.1179376 L18.185241,15.8952277 C17.8840362,15.742389 17.5828313,15.742389 17.4322289,16.0480665 C17.1310241,16.3537439 16.5286145,17.2707763 16.3780121,17.423615 C16.2274096,17.5764537 15.9262048,17.7292925 15.625,17.5764537 C14.5707831,17.1179376 13.6671687,16.5065826 12.7635542,15.8952277 C12.0105422,15.1310341 11.4081325,14.3668404 10.8057229,13.4498081 C10.8057229,13.2969693 10.6551205,13.1441306 10.8057229,12.9912919 C10.8057229,12.8384532 10.9563253,12.6856144 10.9563253,12.6856144 C10.9563253,12.379937 11.2575301,12.2270983 11.4081325,12.0742595 C11.558735,11.9214208 11.7093373,11.7685821 11.7093373,11.4629046 C11.8599398,11.3100659 11.8599398,11.0043884 11.7093373,10.8515497 C11.5587349,10.698711 10.8057229,8.86464624 10.5045181,8.25329132 C10.3539157,7.48909769 10.0527109,7.6419364 9.75150601,7.6419364 Z" id="形状" fill="url(#linearGradient-1)" fill-rule="nonzero" opacity="0.7" filter="url(#filter-2)"></path>
                    <path d="M1.14907497,26.1417695 L1.92018073,21.2445832 L1.92018073,21.2445832 C-0.640060243,16.8122601 -0.640060243,11.4629046 1.92018073,7.03058148 C4.4804217,2.59825836 9.1490964,0 14.1189759,0 C17.8840361,0 21.3478916,1.52838729 24.0587349,4.12664565 C26.6189759,6.72490404 28.125,10.3930335 28.125,14.061163 C28.125,21.8559381 21.7996988,28.2751647 14.1189759,28.122326 C11.7093373,28.122326 9.4503012,27.5109711 7.49246988,26.4411 L2.29712434,27.2843934 C1.75197439,27.3728805 1.23831002,27.0026822 1.14982286,26.4575323 C1.13285254,26.3529818 1.1326001,26.2463992 1.14907497,26.1417695 Z" id="形状备份" fill="url(#linearGradient-3)" fill-rule="nonzero"></path>
                    <path d="M9.75150601,7.6419364 L9.1490964,7.6419364 C8.69728917,7.6419364 8.39608436,7.79477514 8.24548194,8.10045258 C7.34186749,8.86464621 7.04066265,9.93451732 7.04066265,11.0043884 C7.19126507,12.379937 7.6430723,13.6026468 8.39608433,14.6725179 C9.90210843,16.9650988 12.0105422,18.7991636 14.4201807,20.0218734 C15.0225904,20.3275508 15.7756024,20.4803896 16.3780121,20.786067 C17.1310241,20.9389058 17.8840362,21.0917445 18.6370482,20.9389058 C19.5406626,20.786067 20.4442771,20.1747121 21.0466868,19.2576797 C21.1972892,18.7991636 21.3478916,18.1878086 21.1972891,17.5764537 C21.0466867,17.423615 20.8960843,17.2707763 20.5948795,17.1179376 L18.185241,15.8952277 C17.8840362,15.742389 17.5828313,15.742389 17.4322289,16.0480665 C17.1310241,16.3537439 16.5286145,17.2707763 16.3780121,17.423615 C16.2274096,17.5764537 15.9262048,17.7292925 15.625,17.5764537 C14.5707831,17.1179376 13.6671687,16.5065826 12.7635542,15.8952277 C12.0105422,15.1310341 11.4081325,14.3668404 10.8057229,13.4498081 C10.8057229,13.2969693 10.6551205,13.1441306 10.8057229,12.9912919 C10.8057229,12.8384532 10.9563253,12.6856144 10.9563253,12.6856144 C10.9563253,12.379937 11.2575301,12.2270983 11.4081325,12.0742595 C11.558735,11.9214208 11.7093373,11.7685821 11.7093373,11.4629046 C11.8599398,11.3100659 11.8599398,11.0043884 11.7093373,10.8515497 C11.5587349,10.698711 10.8057229,8.86464624 10.5045181,8.25329132 C10.3539157,7.48909769 10.0527109,7.6419364 9.75150601,7.6419364 Z" id="路径" fill="#FFFFFF" fill-rule="nonzero"></path>
                </g>
            </g>
        </g>
    </g>
</svg>