<?xml version="1.0" encoding="UTF-8"?>
<svg width="44px" height="44px" viewBox="0 0 44 44" version="1.1" xmlns="http://www.w3.org/2000/svg" xmlns:xlink="http://www.w3.org/1999/xlink">
    <title>头像</title>
    <defs>
        <circle id="path-1" cx="22" cy="22" r="22"></circle>
        <circle id="path-3" cx="21" cy="21" r="21"></circle>
    </defs>
    <g id="控件" stroke="none" stroke-width="1" fill="none" fill-rule="evenodd">
        <g id="私信-hover" transform="translate(-20.000000, -12.000000)">
            <g id="编组" transform="translate(20.000000, 12.000000)">
                <g id="Rectangle-Copy">
                    <mask id="mask-2" fill="white">
                        <use xlink:href="#path-1"></use>
                    </mask>
                    <use id="Mask" fill="#EAEAEA" xlink:href="#path-1"></use>
                    <path d="M8.308207,36.9258266 C9.75030214,34.6386373 12.8500439,32.6225092 17.6074324,30.8774425 C17.556054,30.2482409 17.8306992,29.3631292 18.3216907,29.212035 C18.8912167,28.9931323 21.1288124,28.8733756 21.9353713,29.4651867 C22.0804797,29.7303678 21.804949,30.7984974 22.2550762,30.8774425 C22.4561719,30.9127114 22.7132697,30.7047415 22.6739272,29.4651867 C22.8541655,28.933139 25.0286579,28.8698778 26.0470931,29.212035 C26.3767963,29.3228033 26.2965022,30.5222132 26.5495939,30.8774425 C30.1098887,32.3899855 32.9543918,34.0752638 35.0831031,35.9332774 C35.4968077,36.2943876 35.7438441,36.8097119 35.7662641,37.3583916 L35.9934533,42.9183447 C36.0385502,44.0219933 35.1804246,44.9532355 34.0767761,44.9983324 C34.0495719,44.999444 34.0223478,45 33.9951208,45 L10,45 C8.8954305,45 8,44.1045695 8,43 L8,37.9925186 C8.00000119,37.6149921 8.10685466,37.2451751 8.308207,36.9258266 Z" fill="#C6BEBE" opacity="0.368722098" mask="url(#mask-2)"></path>
                </g>
                <g id="头像" transform="translate(1.000000, 1.000000)">
                    <mask id="mask-4" fill="white">
                        <use xlink:href="#path-3"></use>
                    </mask>
                    <use id="Mask" fill="#F1F2F3" xlink:href="#path-3"></use>
                    <g mask="url(#mask-4)">
                        <g transform="translate(7.000000, 6.000000)">
                            <polygon id="Rectangle" fill="#F0A98B" points="9.93548387 13.5714286 17.1612903 13.5714286 17.1612903 25.3333333 9.93548387 25.3333333"></polygon>
                            <path d="M17.1468466,22.3995683 C17.1594704,20.8472497 17.1594704,18.5996746 17.1468466,15.6568429 C15.2912145,15.3653429 14.1526634,15.2195929 13.7311933,15.2195929 C11.9852609,15.2195929 12.225964,17.6277262 12.225964,18.8235096 C12.225964,20.0192929 13.287844,22.3001775 17.1468466,22.3995683 Z" id="Oval" fill="#E38661"></path>
                            <path d="M10.016698,15.7469515 C8.67560462,15.7469515 7.78759429,15.0587346 7.35266696,13.6823007 C6.98793661,11.7308925 7.40966985,9.9056487 8.61786668,8.20656946 C15.5445129,4.82818097 19.7096202,4.53119552 21.1131886,7.31561313 C21.5314367,8.1453392 21.3807775,10.7743298 21.505373,12.1279039 C22.2067181,19.7471433 18.9605299,20.8413176 17.9206956,21.1755229 C16.7043397,21.4230292 13.1509753,20.4703343 11.4876373,17.8653887 C9.95859249,15.6586326 9.46827936,14.9524869 10.016698,15.7469515 Z" id="Rectangle" fill="#F0A98B"></path>
                            <path d="M9.85025555,18.0952381 C10.1372091,18.0970163 9.94777954,16.1242923 9.92708009,15.1412744 C7.75433948,14.9290899 7.5499622,13.5714286 7.46418221,12.614176 C7.45138622,10.8723017 7.41202445,10.5081932 8.42930106,10.3954675 C9.40584205,10.4815979 9.64202871,11.0582003 11.0845084,11.0596402 C12.6216594,10.4895335 13.1126504,7.01335235 15.922676,8.88569854 C17.3033395,9.56138122 19.7105892,7.82952781 20.5265495,8.09521 C22.268862,8.66251871 20.3972548,13.5914905 21.6865389,12.614176 C25.6932588,9.57696696 24.1471387,6.1018845 23.8257188,5.36901282 C21.6865389,0.491453754 18.0751294,0 14.8642423,0 C11.6533552,0 3.90428265,1.95246349 3.61661941,10.3954675 C3.52073807,12.9719182 5.27179668,18.0952381 9.85025555,18.0952381 Z" id="Oval-Copy" fill="#4C1C08"></path>
                            <path d="M0.322590239,30.2023891 C1.74084696,28.0181339 4.76257839,26.0917454 9.38778452,24.4232234 C9.33758081,23.8185762 9.60594648,22.9680058 10.0857117,22.822808 C10.6422158,22.6124479 12.82865,22.4973647 13.6167674,23.0660806 C13.758558,23.320913 13.4893271,24.3473591 13.9291624,24.4232234 C14.1256601,24.457116 14.3768796,24.2572621 14.3384366,23.0660806 C14.5145539,22.5547959 16.6393277,22.4940034 17.6344769,22.822808 C17.9566415,22.9292536 17.8781834,24.0818569 18.1254883,24.4232234 C21.5880663,25.8699244 24.3577627,27.4810666 26.4345773,29.2566501 C26.8570171,29.617814 27.1101188,30.1384752 27.133191,30.6937791 L27.3499866,35.9116259 C27.3958406,37.0152433 26.538354,37.9470739 25.4347367,37.9929279 C25.4070763,37.9940772 25.3793949,37.994652 25.3517106,37.994652 L2.00002095,37.994652 C0.895451453,37.994652 2.09528782e-05,37.0992215 2.09528782e-05,35.994652 L2.09528782e-05,31.2915601 C4.12928247e-06,30.9049557 0.112052881,30.5266374 0.322590239,30.2023891 Z" id="Rectangle-Copy" fill="#989DBD"></path>
                        </g>
                    </g>
                </g>
            </g>
        </g>
    </g>
</svg>