<?xml version="1.0" encoding="UTF-8"?>
<svg width="28px" height="28px" viewBox="0 0 28 28" version="1.1" xmlns="http://www.w3.org/2000/svg" xmlns:xlink="http://www.w3.org/1999/xlink">
    <!-- Generator: Sketch 62 (91390) - https://sketch.com -->
    <title>icon/迷你聊天</title>
    <desc>Created with Sketch.</desc>
    <g id="icon/迷你聊天" stroke="none" stroke-width="1" fill="none" fill-rule="evenodd">
        <path d="M23.9875488,2.51696777 C26.1966878,2.51696777 27.9875488,4.30782877 27.9875488,6.51696777 L27.9875488,18.5551351 C27.9875488,20.7642741 26.1966878,22.5551351 23.9875488,22.5551351 L11.9875488,22.5551351 L5.98754883,27.0738525 L5.98754883,22.5551351 L3.98754883,22.5551351 C1.77840983,22.5551351 -0.0124511719,20.7642741 -0.0124511719,18.5551351 L-0.0124511719,6.51696777 C-0.0124511719,4.30782877 1.77840983,2.51696777 3.98754883,2.51696777 L23.9875488,2.51696777 Z M6.50964355,10.5666097 C5.40507406,10.5666097 4.50964355,11.4620402 4.50964355,12.5666097 C4.50964355,13.6711792 5.40507406,14.5666097 6.50964355,14.5666097 C7.61421305,14.5666097 8.50964355,13.6711792 8.50964355,12.5666097 C8.50964355,11.4620402 7.61421305,10.5666097 6.50964355,10.5666097 Z M13.9875488,10.5666097 C12.8829793,10.5666097 11.9875488,11.4620402 11.9875488,12.5666097 C11.9875488,13.6711792 12.8829793,14.5666097 13.9875488,14.5666097 C15.0921183,14.5666097 15.9875488,13.6711792 15.9875488,12.5666097 C15.9875488,11.4620402 15.0921183,10.5666097 13.9875488,10.5666097 Z M21.5096436,10.5666097 C20.4050741,10.5666097 19.5096436,11.4620402 19.5096436,12.5666097 C19.5096436,13.6711792 20.4050741,14.5666097 21.5096436,14.5666097 C22.6142131,14.5666097 23.5096436,13.6711792 23.5096436,12.5666097 C23.5096436,11.4620402 22.6142131,10.5666097 21.5096436,10.5666097 Z" id="Combined-Shape" fill="#FFFFFF"></path>
    </g>
</svg>