<?xml version="1.0" standalone="no"?><!DOCTYPE svg PUBLIC "-//W3C//DTD SVG 1.1//EN" "http://www.w3.org/Graphics/SVG/1.1/DTD/svg11.dtd"><svg t="1698217688222" class="icon" viewBox="0 0 1763 1024" version="1.1" xmlns="http://www.w3.org/2000/svg" p-id="26540" xmlns:xlink="http://www.w3.org/1999/xlink" width="344.3359375" height="200"><path d="M625.777778 0C280.177778 0 0 280.177778 0 625.777778v256A142.222222 142.222222 0 0 0 142.222222 1024H1251.555556a512 512 0 1 0 0-1024H625.777778z" fill="#FFFFFF" p-id="26541"></path><path d="M56.888889 625.777778C56.888889 311.580444 311.580444 56.888889 625.777778 56.888889h625.777778a455.111111 455.111111 0 1 1 0 910.222222H142.222222A85.333333 85.333333 0 0 1 56.888889 881.777778V625.777778z" fill="#EA4335" fill-opacity=".95" p-id="26542"></path><path d="M1089.991111 455.793778c-7.395556 7.964444-14.791111 15.928889-22.755555 23.893333l-33.564445-43.235555c46.08-45.511111 76.8-100.693333 92.728889-165.546667l54.613333 7.964444c-4.551111 18.204444-10.24 35.271111-15.928889 51.768889h218.453334c0 215.04-2.844444 347.591111-8.533334 397.653334-5.688889 43.804444-33.564444 65.991111-82.488888 65.991111-10.808889 0-29.582222-1.137778-56.32-2.275556l-13.084445-48.355555c23.893333 1.706667 44.942222 2.844444 62.008889 2.844444 21.617778 0 34.702222-14.222222 38.115556-42.097778 3.413333-31.857778 5.12-139.377778 6.257777-322.56h-187.733333c-11.377778 20.48-23.893333 39.253333-38.115556 57.457778h168.391112v267.377778h-182.044445v-250.88z m131.413333 205.368889v-66.56h-79.075555v66.56h79.075555z m-79.075555-110.933334h79.075555v-65.422222h-79.075555v65.422222z m-190.577778-272.497777c36.408889 27.875556 67.697778 55.751111 93.297778 84.195555l-36.977778 37.546667c-22.755556-26.737778-54.044444-55.182222-93.866667-84.764445l37.546667-36.977777z m-76.8 164.977777h131.413333v239.502223c15.36-14.222222 31.857778-30.151111 49.493334-47.786667l14.791111 56.888889c-34.133333 33.564444-71.111111 63.715556-109.795556 89.884444l-20.48-48.355555c9.102222-7.964444 14.222222-18.204444 14.222223-29.582223v-208.782222h-79.644445v-51.768889zM564.337778 368.64c-17.066667 30.72-38.115556 58.595556-62.577778 83.057778l-33.564444-43.235556c38.115556-37.546667 63.715556-83.626667 77.368888-138.24l53.475556 6.826667c-3.413333 14.222222-7.395556 27.875556-11.946667 40.391111h215.04v43.235556c-17.066667 38.684444-35.271111 70.542222-54.613333 95.573333l-40.391111-31.857778c13.084444-15.36 25.6-34.133333 36.977778-55.751111H564.337778z m-199.111111-85.333333c37.546667 23.893333 68.835556 48.355556 95.004444 73.386666l-37.546667 36.408889c-21.617778-23.324444-52.906667-48.355556-93.866666-75.093333l36.408889-34.702222z m73.955555 139.377777l40.96 30.72c-41.528889 50.631111-84.764444 92.728889-129.137778 125.724445l-35.271111-39.822222c45.511111-32.995556 86.471111-72.248889 123.448889-116.622223z m321.991111 163.271112v212.764444h-52.906666v-24.462222H431.786667v24.462222h-52.906667V585.955556h382.293333z m-329.386666 137.671111h276.48v-87.04H431.786667v87.04z m186.595555-342.471111l50.631111 5.12c-2.275556 13.653333-4.551111 26.168889-7.964444 38.684444 23.324444 50.062222 80.213333 85.333333 171.235555 105.813333l-26.168888 47.217778c-80.213333-21.617778-135.964444-55.182222-166.684445-101.831111-7.964444 12.515556-16.497778 23.893333-26.168889 34.133333-27.306667 27.306667-76.231111 49.493333-145.635555 65.422223l-19.911111-47.217778c57.457778-11.946667 98.417778-29.013333 123.448888-51.2 25.6-22.755556 41.528889-55.182222 47.217778-96.142222z" fill="#FFFFFF" p-id="26543"></path></svg>