<?xml version="1.0" encoding="UTF-8"?>
<svg width="12px" height="12px" viewBox="0 0 12 12" version="1.1" xmlns="http://www.w3.org/2000/svg" xmlns:xlink="http://www.w3.org/1999/xlink">
    <!-- Generator: Sketch 62 (91390) - https://sketch.com -->
    <title>导出</title>
    <desc>Created with Sketch.</desc>
    <g id="页面-1" stroke="none" stroke-width="1" fill="none" fill-rule="evenodd">
        <g id="7、我的名片-信息编辑-头像设置备份" transform="translate(-362.000000, -91.000000)" fill="#677F99">
            <g id="上传封面" transform="translate(350.000000, 80.000000)">
                <g id="导出" transform="translate(18.000000, 17.000000) rotate(-90.000000) translate(-18.000000, -17.000000) translate(12.000000, 11.000000)">
                    <path d="M8,5 L8,4 C8,3.72385763 8.22385763,3.5 8.5,3.5 C8.60818511,3.5 8.71345191,3.53508894 8.8,3.6 L11.4666667,5.6 C11.6875806,5.76568542 11.7323521,6.0790861 11.5666667,6.3 C11.5382395,6.33790283 11.5045695,6.37157288 11.4666667,6.4 L8.8,8.4 C8.5790861,8.56568542 8.26568542,8.5209139 8.1,8.3 C8.03508894,8.21345191 8,8.10818511 8,8 L8,7 L8,7 L4.5,7 C4.22385763,7 4,6.77614237 4,6.5 L4,5.5 C4,5.22385763 4.22385763,5 4.5,5 L8,5 L8,5 Z M6.5,2 L2,2 L2,2 L2,10 L6.5,10 C6.77614237,10 7,10.2238576 7,10.5 L7,11.5 C7,11.7761424 6.77614237,12 6.5,12 L9.76996262e-15,12 L9.76996262e-15,12 L9.76996262e-15,-6.03961325e-14 L6.5,-6.03961325e-14 C6.77614237,-6.04468591e-14 7,0.223857625 7,0.5 L7,1.5 C7,1.77614237 6.77614237,2 6.5,2 Z" id="Shape"></path>
                </g>
            </g>
        </g>
    </g>
</svg>