<?xml version="1.0" encoding="UTF-8"?>
<svg width="60px" height="60px" viewBox="0 0 60 60" version="1.1" xmlns="http://www.w3.org/2000/svg" xmlns:xlink="http://www.w3.org/1999/xlink">
    <title>送达</title>
    <defs>
        <circle id="path-1" cx="30" cy="30" r="30"></circle>
        <filter x="-21.7%" y="-18.3%" width="143.3%" height="143.3%" filterUnits="objectBoundingBox" id="filter-2">
            <feOffset dx="0" dy="2" in="SourceAlpha" result="shadowOffsetOuter1"></feOffset>
            <feGaussianBlur stdDeviation="4" in="shadowOffsetOuter1" result="shadowBlurOuter1"></feGaussianBlur>
            <feColorMatrix values="0 0 0 0 0.878315549   0 0 0 0 1   0 0 0 0 0.969578887  0 0 0 1 0" type="matrix" in="shadowBlurOuter1"></feColorMatrix>
        </filter>
    </defs>
    <g id="送达" stroke="none" stroke-width="1" fill="none" fill-rule="evenodd">
        <g id="椭圆形">
            <use fill="black" fill-opacity="1" filter="url(#filter-2)" xlink:href="#path-1"></use>
            <use fill="#D5FCF2" fill-rule="evenodd" xlink:href="#path-1"></use>
        </g>
        <g id="送达" transform="translate(17.000000, 17.000000)" fill="#00CC99">
            <path d="M13.0382466,20.8107566 C12.7428038,20.564972 12.3086698,20.5851081 12.0372466,20.8571852 L9.38710375,23.5054709 C9.17470607,23.7166138 8.85629118,23.7795625 8.57952797,23.6651238 C8.30276476,23.5506851 8.12178973,23.2812437 8.12053231,22.9817566 L8.12053231,17.3843281 C8.12037734,17.1872508 8.19854081,16.9981888 8.33781804,16.8587566 L19.114818,6.08175665 L6.39153231,15.6256138 C6.11598304,15.8319785 5.73475034,15.8219865 5.47038946,15.6014709 L0.266675165,11.2668995 C0.0675521796,11.1005911 -0.0303803355,10.8424475 0.00832759815,10.5859126 C0.0470355318,10.3293777 0.216775256,10.1116225 0.456103751,10.0114709 L24.3445323,0.0571852354 C24.6037299,-0.0508465702 24.9016916,-0.00348829436 25.1146209,0.179583767 C25.3275502,0.362655828 25.4190498,0.650148011 25.3511038,0.922613796 L22.0227345,14.236065 L21.9998628,14.227727 C24.3329675,15.0729327 26,17.3084549 26,19.9333333 C26,23.2838608 23.2838608,26 19.9333333,26 C17.268141,26 15.0043566,24.2813685 14.1897715,21.8918971 L14.1358249,21.7258005 L14.1358249,21.7258005 L13.0382466,20.8107566 Z M19.9333333,15.2071036 C17.300776,15.2071036 15.1666667,17.3412129 15.1666667,19.9737703 C15.1666667,22.6063276 17.300776,24.7404369 19.9333333,24.7404369 C22.5658906,24.7404369 24.7,22.6063276 24.7,19.9737703 C24.7,17.3412129 22.5658906,15.2071036 19.9333333,15.2071036 Z M23.2838555,17.6868449 C23.5335957,17.9365851 23.5335957,18.3414941 23.2838555,18.5912343 L19.2902199,22.5848699 L19.2201497,22.646684 C18.9694904,22.8374579 18.610177,22.8183805 18.3812484,22.5894519 L16.2260905,20.434294 C15.9738197,20.1820231 15.9738197,19.7730114 16.2260905,19.5207405 C16.4783613,19.2684697 16.8873731,19.2684697 17.1396439,19.5207405 L18.8420227,21.2240051 L22.379466,17.6868449 C22.6292063,17.4371046 23.0341152,17.4371046 23.2838555,17.6868449 Z" id="形状结合"></path>
        </g>
    </g>
</svg>