<?xml version="1.0" encoding="UTF-8"?>
<svg width="477px" height="364px" viewBox="0 0 477 364" version="1.1" xmlns="http://www.w3.org/2000/svg" xmlns:xlink="http://www.w3.org/1999/xlink">
    <title>插画</title>
    <defs>
        <linearGradient x1="50%" y1="-10.0091714%" x2="50%" y2="100%" id="linearGradient-1">
            <stop stop-color="#FEC500" offset="0%"></stop>
            <stop stop-color="#FF752A" offset="100%"></stop>
        </linearGradient>
        <linearGradient x1="35.414733%" y1="0%" x2="54.5273332%" y2="46.1769925%" id="linearGradient-2">
            <stop stop-color="#4873CE" offset="0%"></stop>
            <stop stop-color="#214989" offset="100%"></stop>
        </linearGradient>
        <linearGradient x1="28.2744614%" y1="24.9210423%" x2="60.8075199%" y2="75.0789577%" id="linearGradient-3">
            <stop stop-color="#FFDF6F" offset="0%"></stop>
            <stop stop-color="#FF752A" offset="100%"></stop>
        </linearGradient>
        <linearGradient x1="100%" y1="50%" x2="37.014387%" y2="50%" id="linearGradient-4">
            <stop stop-color="#FF5317" offset="0%"></stop>
            <stop stop-color="#FF752A" offset="100%"></stop>
        </linearGradient>
        <linearGradient x1="50%" y1="-11.7275604%" x2="50%" y2="100%" id="linearGradient-5">
            <stop stop-color="#FFE300" offset="0%"></stop>
            <stop stop-color="#CA7E16" offset="100%"></stop>
        </linearGradient>
        <linearGradient x1="99.7944079%" y1="50%" x2="0%" y2="50%" id="linearGradient-6">
            <stop stop-color="#0275FF" offset="0%"></stop>
            <stop stop-color="#38BBFF" offset="100%"></stop>
        </linearGradient>
        <linearGradient x1="96.0350094%" y1="50%" x2="0%" y2="50%" id="linearGradient-7">
            <stop stop-color="#0275FF" offset="0%"></stop>
            <stop stop-color="#38BBFF" offset="100%"></stop>
        </linearGradient>
        <path d="M4.26269531,0.439988097 L119.262695,0.439988097 C121.471834,0.439988097 123.262695,2.2308491 123.262695,4.4399881 L123.262695,36.4399881 C123.262695,38.6491271 121.471834,40.4399881 119.262695,40.4399881 L4.26269531,40.4399881 C2.05355631,40.4399881 0.262695312,38.6491271 0.262695312,36.4399881 L0.262695312,4.4399881 C0.262695312,2.2308491 2.05355631,0.439988097 4.26269531,0.439988097 Z" id="path-8"></path>
        <linearGradient x1="70.7076461%" y1="37.9959477%" x2="1.67643229%" y2="47.3123676%" id="linearGradient-10">
            <stop stop-color="#295CFD" offset="0%"></stop>
            <stop stop-color="#23A0FF" offset="100%"></stop>
        </linearGradient>
        <linearGradient x1="176.226743%" y1="42.0980658%" x2="27.4453803%" y2="39.4857963%" id="linearGradient-11">
            <stop stop-color="#406EFF" offset="0%"></stop>
            <stop stop-color="#23A0FF" offset="100%"></stop>
        </linearGradient>
        <linearGradient x1="0%" y1="50%" x2="100%" y2="50%" id="linearGradient-12">
            <stop stop-color="#FF5F2A" offset="0%"></stop>
            <stop stop-color="#FF752A" offset="100%"></stop>
        </linearGradient>
        <rect id="path-13" x="139" y="52" width="58" height="63" rx="4"></rect>
        <mask id="mask-14" maskContentUnits="userSpaceOnUse" maskUnits="objectBoundingBox" x="0" y="0" width="58" height="63" fill="white">
            <use xlink:href="#path-13"></use>
        </mask>
        <linearGradient x1="100%" y1="50%" x2="0%" y2="50%" id="linearGradient-15">
            <stop stop-color="#C5D2F6" offset="0%"></stop>
            <stop stop-color="#FFFFFF" offset="100%"></stop>
        </linearGradient>
        <linearGradient x1="100%" y1="50%" x2="37.014387%" y2="50%" id="linearGradient-16">
            <stop stop-color="#EC3D00" offset="0%"></stop>
            <stop stop-color="#FF752A" offset="100%"></stop>
        </linearGradient>
        <linearGradient x1="100%" y1="50%" x2="37.014387%" y2="50%" id="linearGradient-17">
            <stop stop-color="#FF5317" offset="0%"></stop>
            <stop stop-color="#FF752A" offset="100%"></stop>
        </linearGradient>
        <linearGradient x1="14.5903694%" y1="25.7343748%" x2="89.1648773%" y2="66.4634603%" id="linearGradient-18">
            <stop stop-color="#19B2EB" offset="0%"></stop>
            <stop stop-color="#1F7AFB" offset="87.358949%"></stop>
            <stop stop-color="#1F77FB" offset="100%"></stop>
        </linearGradient>
        <linearGradient x1="50%" y1="-24.6252502%" x2="50%" y2="70.6910432%" id="linearGradient-19">
            <stop stop-color="#4873CE" offset="0%"></stop>
            <stop stop-color="#214989" offset="100%"></stop>
        </linearGradient>
        <linearGradient x1="56.1458083%" y1="-6.67273259%" x2="46.092157%" y2="100%" id="linearGradient-20">
            <stop stop-color="#FFD339" offset="0%"></stop>
            <stop stop-color="#FF752A" offset="100%"></stop>
        </linearGradient>
        <linearGradient x1="0%" y1="50%" x2="100%" y2="47.0567294%" id="linearGradient-21">
            <stop stop-color="#FEC500" offset="0%"></stop>
            <stop stop-color="#FFA402" offset="100%"></stop>
        </linearGradient>
        <linearGradient x1="0%" y1="50%" x2="100%" y2="47.0567294%" id="linearGradient-22">
            <stop stop-color="#E6F2FF" offset="0%"></stop>
            <stop stop-color="#E6F2FF" offset="100%"></stop>
        </linearGradient>
        <linearGradient x1="0%" y1="50%" x2="100%" y2="41.0270662%" id="linearGradient-23">
            <stop stop-color="#FEC500" offset="0%"></stop>
            <stop stop-color="#FFA402" offset="100%"></stop>
        </linearGradient>
        <linearGradient x1="100%" y1="50%" x2="0%" y2="50%" id="linearGradient-24">
            <stop stop-color="#CDDAFF" offset="0%"></stop>
            <stop stop-color="#FFFFFF" offset="100%"></stop>
        </linearGradient>
        <linearGradient x1="55.5809792%" y1="8.08850227%" x2="45.5812658%" y2="92.3217533%" id="linearGradient-25">
            <stop stop-color="#1F2482" offset="0%"></stop>
            <stop stop-color="#192059" offset="100%"></stop>
        </linearGradient>
        <linearGradient x1="46.5735638%" y1="76.5718806%" x2="23.8222558%" y2="-15.0068464%" id="linearGradient-26">
            <stop stop-color="#0275FF" offset="0%"></stop>
            <stop stop-color="#38BBFF" offset="100%"></stop>
        </linearGradient>
        <linearGradient x1="100%" y1="50%" x2="0%" y2="50%" id="linearGradient-27">
            <stop stop-color="#CDDAFF" offset="0%"></stop>
            <stop stop-color="#FFFFFF" offset="100%"></stop>
        </linearGradient>
        <linearGradient x1="71.7526519%" y1="8.08850227%" x2="32.7773615%" y2="92.3217533%" id="linearGradient-28">
            <stop stop-color="#1F2482" offset="0%"></stop>
            <stop stop-color="#192059" offset="100%"></stop>
        </linearGradient>
        <linearGradient x1="62.5390492%" y1="89.4494376%" x2="45.728917%" y2="32.0873179%" id="linearGradient-29">
            <stop stop-color="#D63B05" offset="1.19035051%"></stop>
            <stop stop-color="#FF752A" offset="100%"></stop>
        </linearGradient>
        <linearGradient x1="50%" y1="0%" x2="50%" y2="100%" id="linearGradient-30">
            <stop stop-color="#531906" offset="0%"></stop>
            <stop stop-color="#300D12" offset="100%"></stop>
        </linearGradient>
        <linearGradient x1="50%" y1="0%" x2="50%" y2="100%" id="linearGradient-31">
            <stop stop-color="#531906" offset="0%"></stop>
            <stop stop-color="#300D12" offset="100%"></stop>
        </linearGradient>
        <linearGradient x1="100%" y1="50%" x2="0%" y2="50%" id="linearGradient-32">
            <stop stop-color="#CDDAFF" offset="0%"></stop>
            <stop stop-color="#FFFFFF" offset="100%"></stop>
        </linearGradient>
        <linearGradient x1="78.512836%" y1="8.08850227%" x2="27.424993%" y2="92.3217533%" id="linearGradient-33">
            <stop stop-color="#1F2482" offset="0%"></stop>
            <stop stop-color="#192059" offset="100%"></stop>
        </linearGradient>
        <linearGradient x1="37.407334%" y1="50%" x2="50%" y2="97.8779561%" id="linearGradient-34">
            <stop stop-color="#19B2EB" offset="0%"></stop>
            <stop stop-color="#1F77FB" offset="100%"></stop>
        </linearGradient>
        <linearGradient x1="50%" y1="143.773437%" x2="50%" y2="38.6328125%" id="linearGradient-35">
            <stop stop-color="#FF5734" offset="0%"></stop>
            <stop stop-color="#FF752B" offset="100%"></stop>
        </linearGradient>
        <linearGradient x1="80.5090278%" y1="41.885934%" x2="25.8445104%" y2="58.1934914%" id="linearGradient-36">
            <stop stop-color="#1F2482" offset="0%"></stop>
            <stop stop-color="#192059" offset="100%"></stop>
        </linearGradient>
    </defs>
    <g id="页面-1" stroke="none" stroke-width="1" fill="none" fill-rule="evenodd">
        <g id="升级提示" transform="translate(-613.000000, -268.000000)">
            <g id="插画" transform="translate(613.000000, 268.000000)">
                <g id="背景" transform="translate(31.000000, 0.000000)">
                    <path d="M369.387991,227.642783 C420.328095,227.642783 445.798147,201.050986 445.798147,147.867392 C436.99346,55.8380954 347.725882,82.0461032 321.602835,67.4787204 C306.985647,60.7462985 304.679007,24.4337985 279.489554,12.019736 C256.416894,4.20290771 223.501291,15.7551103 219.389004,14.8581574 C192.608224,0.429915017 174.045561,-1.95680373 152.456369,1.26324835 C115.708973,9.64345668 111.596976,38.9045016 90.9426786,58.3693454 C79.4817411,67.8361422 16.5637724,63.363486 4.31767865,98.7306735 C-6.85809046,130.292538 3.66144686,164.078353 35.8762906,200.088118 L369.387991,227.642783 Z" id="路径-3" fill="url(#linearGradient-1)" opacity="0.502205"></path>
                    <path d="M310.452132,97.7279978 C316.182526,99.8805387 322.075471,100.972343 328.130966,101.003411 C331.477918,100.81551 336.322956,100.562055 337.366699,95.6584672 C337.366699,92.4173389 335.38625,90.8613093 331.425353,90.9903785 C327.668469,86.5995977 324.229486,84.2788679 321.108406,84.0281892 C317.987326,83.7775104 315.302895,85.198746 313.055114,88.2918958 C308.378264,87.6361411 305.693226,88.8691508 305,91.9909248 C305,95.4005023 306.817377,97.31286 310.452132,97.7279978 Z" id="路径-2" fill="#FFFFFF"></path>
                    <path d="M90.452132,61.7279978 C96.182526,63.8805387 102.075471,64.972343 108.130966,65.0034108 C111.477918,64.8155096 116.322956,64.5620552 117.366699,59.6584672 C117.366699,56.4173389 115.38625,54.8613093 111.425353,54.9903785 C107.668469,50.5995977 104.229486,48.2788679 101.108406,48.0281892 C97.987326,47.7775104 95.3028952,49.198746 93.0551138,52.2918958 C88.3782643,51.6361411 85.6932264,52.8691508 85,55.9909248 C85,59.4005023 86.8173773,61.31286 90.452132,61.7279978 Z" id="路径-2备份-2" fill="#FFFFFF"></path>
                    <path d="M407.27299,120.759021 C411.764062,122.446028 416.38253,123.301706 421.128394,123.326055 C423.751494,123.178791 427.548688,122.980152 428.366699,119.137071 C428.366699,116.596907 426.814565,115.377402 423.710298,115.478558 C420.765921,112.037378 418.070693,110.218557 415.624614,110.022093 C413.178535,109.825629 411.074671,110.939491 409.313021,113.36368 C405.647641,112.849747 403.543301,113.816091 403,116.262714 C403,118.934897 404.42433,120.433666 407.27299,120.759021 Z" id="路径-2备份" fill="#FFFFFF" transform="translate(415.683350, 116.663027) scale(-1, 1) translate(-415.683350, -116.663027) "></path>
                </g>
                <g id="左植物" transform="translate(0.000000, 166.000000)">
                    <path d="M76.421875,108 C95.7518412,108 112.903479,66.0419922 102.185706,37.4238281 C100.295252,32.3760153 93.4190597,33.0259664 81.5571289,39.3736815 C89.6940876,20.5793896 89.6940876,8.78816245 81.5571289,4 C73.6977539,-1.125 66.8864312,4.67513021 61.1231608,21.4003906 C54.2685721,4.34116827 46.0497669,-2.45896194 36.4667453,1 C30.9257641,3 32.0092773,13.3333333 39.7172852,32 C22.6336549,28.4463866 14.0918397,30.9042804 14.0918397,39.3736815 C14.0918397,47.8430825 25.0566692,54.496435 46.9863281,59.3337388 C31.1438802,56.5617671 23.2226563,60.1464844 23.2226562,70.0878906 C23.2226562,85 53.3379668,82.9790507 54.9597759,85 C57.984083,88.7686131 41.9444202,93.2526571 44,97.6063809 C50.455141,111.278387 71.5754485,108 76.421875,108 Z" id="椭圆形" fill="url(#linearGradient-2)"></path>
                    <path d="M67.8959442,65.747363 C64.2100588,60.6709649 60.1903465,53.1645526 55.8368074,43.228126 C51.4832683,33.2916993 47.5376658,23.2156574 44,13 L45.376504,16.431408 C50.5769574,29.3422875 54.9017396,39.4603753 58.3508506,46.7856716 L58.5745511,47.2594488 C62.3563545,55.2463488 65.7829453,61.3233879 68.8543237,65.490566 L67.8959442,65.747363 Z" id="路径" fill="#36578C"></path>
                    <path d="M62.0037871,55.5097275 C62.8669828,51.4676784 64.0314988,46.9467309 65.497335,41.9468848 C68.5493424,31.5367393 72.0035905,21.281859 75.8600793,11.1822437 L74.7088759,14.6956545 C70.2998929,28.2164249 67.0646956,38.916155 65.0032839,46.7948449 C64.1419741,50.0867606 63.4223373,53.1279026 62.8443737,55.9182708 L62.7918256,56.0933955 C62.6637293,56.4648309 62.5601878,56.3384435 62.4812012,55.7142334 C62.1629251,55.8502584 62.0037871,55.7820897 62.0037871,55.5097275 Z" id="路径" fill="#36578C"></path>
                    <path d="M71.326055,75.0448178 C67.9845528,72.6121998 64.328113,69.7095265 60.3567356,66.3367979 C52.0879578,59.3144628 44.1246277,51.9878145 36.4667453,44.3568531 L39.8792672,47.4426671 C49.902963,56.4740165 58.0018299,63.4705324 64.175868,68.4322148 L64.584619,68.7599791 C67.2416073,70.8857675 69.7271261,72.7801322 72.0411753,74.4430733 C72.5011206,74.8148921 72.3897495,74.8978205 71.7070623,74.6918584 C71.7018727,75.0379444 71.5748703,75.1555975 71.326055,75.0448178 Z" id="路径" fill="#36578C"></path>
                    <path d="M67.7584786,130.163817 C100.148084,118.058449 115.219048,109.288267 112.971369,103.85327 C109.948583,96.5440253 99.9336088,99.8946112 82.9264474,113.905028 C104.293278,95.1865304 111.077458,82.6383533 103.278986,76.2604966 C95.4805149,69.88264 85.6364393,79.0802311 73.7467599,103.85327 C85.1812153,70.3793117 85.1812153,52.6459133 73.7467599,50.6530748 C62.3123044,48.6602362 57.9796221,65.1462388 60.748713,100.111083 C49.4134265,62.8899015 39.3590645,46.4038989 30.585627,50.6530748 C21.8121895,54.9022506 26.4388171,73.3882532 44.4655099,106.111083 C23.5801314,83.0905074 10.9137902,74.9811324 6.46648642,81.7829576 C2.01918261,88.5847827 12.4293389,100.37352 37.6969552,117.149169 C13.4788562,111.849689 0.927749439,111.849689 0.0436348559,117.149169 C-0.840479727,122.448648 11.710627,125.898192 37.6969552,127.497801 L67.7584786,130.163817 Z" id="路径-7" fill="url(#linearGradient-3)"></path>
                    <path d="M98.3536246,82.6546947 C92.2924951,91.6066467 85.8734642,100.318159 79.0965319,108.789231 C74.394001,114.66733 70.1495632,119.456846 66.3632186,123.157778 C67.6836553,123.070449 68.912488,122.953029 70.0507384,122.805363 L69.8107065,123.768078 C68.4320308,123.936937 66.9412345,124.062357 65.3383177,124.144339 C64.3819639,125.048086 63.4577323,125.878666 62.5639557,126.636876 C65.6199528,125.521287 68.9915034,124.15636 72.6787078,122.540675 C80.7727489,118.993972 91.9313402,113.562582 106.154482,106.246507 C96.7824974,111.635444 87.194235,116.651381 77.3896949,121.294319 C67.5851549,125.937256 59.6267899,128.965249 53.5146001,130.378297 L53.5146001,130.378297 L52.9597759,129.555736 C55.3470695,129.02175 58.0740254,128.217933 61.1406434,127.144284 L60.7606332,126.923916 C61.7611829,126.12495 62.8129626,125.218753 63.9159723,124.205322 C62.7367812,124.244847 61.5009384,124.263293 60.2090008,124.260007 L59.9677376,124.476387 L59.5422079,124.256422 C55.0960767,124.220106 50.0048583,123.933863 44.2685525,123.397694 C33.4673203,122.38811 22.7417494,120.95405 12.0918397,119.095513 C27.9594661,121.105774 40.3027566,122.393148 49.1217114,122.957634 C52.2575999,123.158357 55.1605071,123.281288 57.830433,123.326427 C52.6283816,120.392668 46.3516979,115.912631 38.9994484,109.886333 C30.6093733,103.009378 22.5193884,95.8228244 14.7294937,88.3266737 C26.7602285,98.8663196 36.27339,106.835881 43.2689782,112.235358 C49.814396,117.287376 55.3236825,120.990835 59.7968374,123.345736 C61.6359995,123.350092 63.3537732,123.314119 64.9507035,123.237797 C68.0526315,120.286162 71.5390382,116.531484 75.4086914,111.97461 C81.1287948,105.238659 88.7771058,95.4653545 98.3536246,82.6546947 Z M74.421875,59.3337388 C73.6487589,70.1169214 72.4454711,80.8708276 70.8120117,91.5954576 C69.1785523,102.320088 67.2386109,110.611103 64.9921875,116.468504 L64.9921875,116.468504 L64,116.468504 C65.8881786,111.648388 67.6251578,104.891552 69.2109375,96.1979966 C70.7967172,87.5044409 72.5336964,75.216355 74.421875,59.3337388 Z M36.2505725,61.340409 C42.1851366,76.1931415 47.0433203,87.6129578 50.8251236,95.5998578 C54.606927,103.586758 58.0335179,109.663797 61.1048962,113.830975 L60.1465167,114.087772 C56.4606313,109.011374 52.4409191,101.504962 48.0873799,91.5685349 C43.7338408,81.6321083 39.7882383,71.5560663 36.2505725,61.340409 Z" id="形状结合" fill="#FFFFFF"></path>
                </g>
                <g id="左小" transform="translate(70.000000, 115.000000)">
                    <path d="M8.73178863,0 L9,0 L9,0 L9,76 C7.17414844,66.1937917 5.84081511,59.1937917 5,55 C4.67597043,53.3838153 4,53.3838153 1,52.4921875 C-0.135809264,52.1546145 -0.223802434,37.2371579 0.736020493,7.73981793 C0.876423401,3.42511092 4.41479783,7.93018343e-16 8.73178863,0 Z" id="矩形备份-25" fill="#FFB6A5" opacity="0.302804129"></path>
                    <rect id="矩形备份" fill="#F9F9F9" x="5" y="0" width="140" height="194" rx="8"></rect>
                    <rect id="矩形" fill="#CBDAFF" transform="translate(31.202148, 65.333984) rotate(-2.000000) translate(-31.202148, -65.333984) " x="15.2021484" y="49.3339844" width="32" height="32" rx="3.5"></rect>
                    <rect id="矩形备份-32" fill="#D8D8D8" x="35" y="31" width="48" height="5"></rect>
                    <rect id="矩形备份-33" fill="#D8D8D8" x="35" y="23" width="30" height="4"></rect>
                    <circle id="椭圆形" fill="url(#linearGradient-4)" cx="24" cy="29" r="7"></circle>
                    <rect id="矩形备份-21" fill="#CBDAFF" x="17" y="85" width="32" height="32" rx="3.5"></rect>
                    <rect id="矩形备份-18" fill="#CBDAFF" x="53" y="49" width="32" height="32" rx="3.5"></rect>
                    <rect id="矩形备份-22" fill="#CBDAFF" x="53" y="85" width="32" height="32" rx="3.5"></rect>
                    <rect id="矩形备份-20" fill="#CBDAFF" x="89" y="49" width="32" height="32" rx="3.5"></rect>
                </g>
                <path d="M58.0322216,301.21118 C48.4522709,301.31079 41.1272403,303.117919 40.3226132,294.255687 C40.3226132,285.898909 49.1987024,280.87459 56.1678949,278.827953 C63.1370875,276.781316 71.0933853,280.119983 76.654752,283.402342 C80.9638786,286.126878 80.9136262,290.541747 80.4716264,293.172191 C79.3185822,299.047142 74.689011,301.726805 66.5829128,301.21118 C64.4569778,301.101968 61.6067474,301.101968 58.0322216,301.21118 Z" id="路径-6" fill="url(#linearGradient-5)"></path>
                <g id="编组" transform="translate(115.000000, 59.000000)">
                    <polygon id="矩形备份-24" fill="#D9E9FA" opacity="0.4" points="55 56 63 56 63 251 55 251"></polygon>
                    <path d="M67,0 L205,0 C209.418278,-8.11624501e-16 213,3.581722 213,8 L213,242 C213,246.418278 209.418278,250 205,250 L67,250 C62.581722,250 59,246.418278 59,242 L59,8 C59,3.581722 62.581722,8.11624501e-16 67,0 Z" id="矩形" fill="#E6F2FF"></path>
                    <polygon id="矩形" fill="#D9E9FA" points="80 24 81 24 81 250 80 250"></polygon>
                    <polygon id="矩形备份-10" fill="#D9E9FA" transform="translate(136.000000, 54.500000) rotate(90.000000) translate(-136.000000, -54.500000) " points="135.5 -22.5 136.5 -22.5 136.5 131.5 135.5 131.5"></polygon>
                    <polygon id="矩形备份-11" fill="#D9E9FA" transform="translate(136.000000, 85.500000) rotate(90.000000) translate(-136.000000, -85.500000) " points="135.5 8.5 136.5 8.5 136.5 162.5 135.5 162.5"></polygon>
                    <polygon id="矩形备份-12" fill="#D9E9FA" transform="translate(136.000000, 116.500000) rotate(90.000000) translate(-136.000000, -116.500000) " points="135.5 39.5 136.5 39.5 136.5 193.5 135.5 193.5"></polygon>
                    <polygon id="矩形备份-13" fill="#D9E9FA" transform="translate(136.000000, 147.500000) rotate(90.000000) translate(-136.000000, -147.500000) " points="135.5 70.5 136.5 70.5 136.5 224.5 135.5 224.5"></polygon>
                    <polygon id="矩形备份-14" fill="#D9E9FA" transform="translate(136.000000, 178.500000) rotate(90.000000) translate(-136.000000, -178.500000) " points="135.5 101.5 136.5 101.5 136.5 255.5 135.5 255.5"></polygon>
                    <polygon id="矩形备份-15" fill="#D9E9FA" transform="translate(136.000000, 209.500000) rotate(90.000000) translate(-136.000000, -209.500000) " points="135.5 132.5 136.5 132.5 136.5 286.5 135.5 286.5"></polygon>
                    <polygon id="矩形备份-16" fill="#D9E9FA" transform="translate(136.000000, 240.500000) rotate(90.000000) translate(-136.000000, -240.500000) " points="135.5 163.5 136.5 163.5 136.5 317.5 135.5 317.5"></polygon>
                    <polygon id="矩形备份-5" fill="#D9E9FA" points="111 24 112 24 112 250 111 250"></polygon>
                    <polygon id="矩形备份-6" fill="#D9E9FA" points="142 24 143 24 143 250 142 250"></polygon>
                    <polygon id="矩形备份-7" fill="#D9E9FA" points="173 24 174 24 174 250 173 250"></polygon>
                    <polygon id="矩形备份-8" fill="#D9E9FA" points="204 24 205 24 205 250 204 250"></polygon>
                    <g id="椭圆形" transform="translate(0.000000, 33.000000)">
                        <path d="M80,3 L195,3 C197.209139,3 199,4.790861 199,7 L199,39 C199,41.209139 197.209139,43 195,43 L80,43 C77.790861,43 76,41.209139 76,39 L76,7 C76,4.790861 77.790861,3 80,3 Z" id="矩形" fill="url(#linearGradient-6)" opacity="0.212355841"></path>
                        <g id="椭圆形-+-多边形-蒙版" transform="translate(73.737305, 0.560012)">
                            <mask id="mask-9" fill="white">
                                <use xlink:href="#path-8"></use>
                            </mask>
                            <use id="蒙版" fill="url(#linearGradient-7)" xlink:href="#path-8"></use>
                            <path d="M110.262695,87.4399881 C140.086072,87.4399881 164.262695,73.5608153 164.262695,56.4399881 C164.262695,39.3191609 140.086072,21.4399881 110.262695,21.4399881 C80.4393188,21.4399881 56.2626953,39.3191609 56.2626953,56.4399881 C56.2626953,73.5608153 80.4393188,87.4399881 110.262695,87.4399881 Z" id="椭圆形" fill="url(#linearGradient-10)" mask="url(#mask-9)"></path>
                            <path d="M59.0332031,3.27104278 C57.6665039,11.4321756 48.0776367,9.3306131 38.9521484,11.512742 C33.5864258,13.0850076 30.633645,18.9808367 22.0419922,20.3052225 C16.5097417,21.1580076 8.45940408,18.2145398 3.81396484,16.774949 C-4.09261068,14.3247537 -8.69726563,7.02566478 -10,-5.1223178 C37.0833333,-9.30180918 60.094401,-6.50402232 59.0332031,3.27104278 Z" id="多边形" fill="url(#linearGradient-11)" mask="url(#mask-9)"></path>
                        </g>
                        <g id="编组" transform="translate(74.000000, 52.000000)" opacity="0.9">
                            <g id="编组-4">
                                <path d="M6,2 L56,2 C58.209139,2 60,3.790861 60,6 L60,61 C60,63.209139 58.209139,65 56,65 L6,65 C3.790861,65 2,63.209139 2,61 L2,6 C2,3.790861 3.790861,2 6,2 Z" id="矩形备份-34" fill="url(#linearGradient-12)" opacity="0.352771577"></path>
                                <path d="M4,0 L54,0 C56.209139,-4.05812251e-16 58,1.790861 58,4 L58,59 C58,61.209139 56.209139,63 54,63 L4,63 C1.790861,63 2.705415e-16,61.209139 0,59 L0,4 C-2.705415e-16,1.790861 1.790861,4.05812251e-16 4,0 Z" id="矩形" fill="url(#linearGradient-12)"></path>
                                <rect id="矩形" fill="#FFFFFF" x="19" y="10" width="20" height="20" rx="2"></rect>
                                <path d="M17,35 L41,35 C42.1045695,35 43,35.8954305 43,37 C43,38.1045695 42.1045695,39 41,39 L17,39 C15.8954305,39 15,38.1045695 15,37 C15,35.8954305 15.8954305,35 17,35 Z" id="矩形备份-9" fill="#FFFFFF"></path>
                                <path d="M12,47 L46,47 C47.6568542,47 49,48.3431458 49,50 C49,51.6568542 47.6568542,53 46,53 L12,53 C10.3431458,53 9,51.6568542 9,50 C9,48.3431458 10.3431458,47 12,47 Z" id="矩形备份-17" fill="#FFFFFF"></path>
                            </g>
                        </g>
                        <use id="矩形" stroke="#B5B5B5" mask="url(#mask-14)" fill="#C9DCF1" stroke-dasharray="2" xlink:href="#path-13"></use>
                        <path d="M64,230.626465 L43.5,232.664551 C39.8378906,232.570475 36.9101563,232.570475 34.7167969,232.664551 C26.6892213,231.352794 15.1169557,227.797944 0,222 L17.9414062,222 L64,230.626465 Z" id="影子备份-2" fill="url(#linearGradient-15)"></path>
                        <rect id="矩形备份-23" fill="#CBDAFF" x="33" y="201" width="32" height="32" rx="3.5"></rect>
                        <g id="编组" transform="translate(99.000000, 85.000000)">
                            <g id="编组-4" transform="translate(30.500000, 33.000000) rotate(33.000000) translate(-30.500000, -33.000000) ">
                                <path d="M6,2 L56,2 C58.209139,2 60,3.790861 60,6 L60,61 C60,63.209139 58.209139,65 56,65 L6,65 C3.790861,65 2,63.209139 2,61 L2,6 C2,3.790861 3.790861,2 6,2 Z" id="矩形备份-34" fill="url(#linearGradient-12)" opacity="0.352771577"></path>
                                <path d="M4,0 L54,0 C56.209139,-4.05812251e-16 58,1.790861 58,4 L58,59 C58,61.209139 56.209139,63 54,63 L4,63 C1.790861,63 2.705415e-16,61.209139 0,59 L0,4 C-2.705415e-16,1.790861 1.790861,4.05812251e-16 4,0 Z" id="矩形" fill="url(#linearGradient-12)"></path>
                                <rect id="矩形" fill="#FFFFFF" x="19" y="10" width="20" height="20" rx="2"></rect>
                                <path d="M17,35 L41,35 C42.1045695,35 43,35.8954305 43,37 C43,38.1045695 42.1045695,39 41,39 L17,39 C15.8954305,39 15,38.1045695 15,37 C15,35.8954305 15.8954305,35 17,35 Z" id="矩形备份-9" fill="#FFFFFF"></path>
                                <path d="M12,47 L46,47 C47.6568542,47 49,48.3431458 49,50 C49,51.6568542 47.6568542,53 46,53 L12,53 C10.3431458,53 9,51.6568542 9,50 C9,48.3431458 10.3431458,47 12,47 Z" id="矩形备份-17" fill="#FFFFFF"></path>
                            </g>
                        </g>
                    </g>
                    <path d="M83.5,62 L124.5,62 C124.776142,62 125,62.2238576 125,62.5 L125,63.5 C125,63.7761424 124.776142,64 124.5,64 L83.5,64 C83.2238576,64 83,63.7761424 83,63.5 L83,62.5 C83,62.2238576 83.2238576,62 83.5,62 Z" id="矩形备份-9" fill="#FFFFFF"></path>
                    <path d="M83.5,56 L90.6171875,56 C90.8933299,56 91.1171875,56.2238576 91.1171875,56.5 L91.1171875,58.5 C91.1171875,58.7761424 90.8933299,59 90.6171875,59 L83.5,59 C83.2238576,59 83,58.7761424 83,58.5 L83,56.5 C83,56.2238576 83.2238576,56 83.5,56 Z" id="矩形备份-19" fill="#FF6733"></path>
                    <path d="M83.5,67 L124.5,67 C124.776142,67 125,67.2238576 125,67.5 L125,68.5 C125,68.7761424 124.776142,69 124.5,69 L83.5,69 C83.2238576,69 83,68.7761424 83,68.5 L83,67.5 C83,67.2238576 83.2238576,67 83.5,67 Z" id="矩形备份-4" fill="#FFFFFF"></path>
                    <path d="M67,2 L205,2 C209.418278,2 213,5.581722 213,10 L213,26 L213,26 L59,26 L59,10 C59,5.581722 62.581722,2 67,2 Z" id="头部投影" fill="url(#linearGradient-16)" opacity="0.247395833"></path>
                    <path d="M67,0 L205,0 C209.418278,-8.11624501e-16 213,3.581722 213,8 L213,24 L213,24 L59,24 L59,8 C59,3.581722 62.581722,8.11624501e-16 67,0 Z" id="网页头部" fill="url(#linearGradient-17)"></path>
                    <g transform="translate(67.000000, 6.000000)" fill="#FFFFFF" id="logo" opacity="0.7445359">
                        <g transform="translate(0.000000, 1.500000)" id="Fill-8">
                            <path d="M10.0377288,6.56388 C10.5652488,6.57282 11.0100888,6.81552 11.3219688,7.16556 C11.3939088,7.24632 11.4505488,7.33644 11.5065888,7.42962 C11.1372888,8.0538 10.5066888,8.52138 9.86654875,8.73894 C9.38582875,8.90244 8.95802875,8.89554 8.87558875,8.89734 C8.78173161,8.89931143 8.59619079,8.89779306 8.49782928,8.89676449 L8.43308875,8.89602 C8.43308875,8.89602 8.26892875,8.51016 8.32898875,8.05482 C8.37254875,7.72644 8.48204875,7.45146 8.71538875,7.17258 C9.03080875,6.79512 9.48392875,6.55452 10.0377288,6.56388 Z M4.23275275,4.938114 C5.03363275,4.938114 5.81015275,5.228154 6.47315275,5.883774 C6.93017275,6.335814 7.16975275,6.874314 7.28543275,7.333554 C7.44389275,7.961514 7.38677275,8.459334 7.27979275,8.889234 L7.27979275,8.889234 L2.49083275,8.889234 C1.97207275,8.859654 1.47155275,8.653734 1.06733275,8.333094 C1.00205275,7.360794 1.37711275,6.463674 1.96931275,5.878674 C2.57345275,5.281974 3.33491275,4.938114 4.23275275,4.938114 Z M6.30179875,-2.48689958e-14 C8.01629875,-2.48689958e-14 9.45383875,1.22778 9.72947875,2.88912 C11.0113188,3.2487 11.9531988,4.42842 11.9531988,5.84448 C11.9531988,6.16728 11.8960188,6.4896 11.8037388,6.78426 C11.6216388,6.56844 11.4228588,6.39804 11.1889188,6.2643 C10.8419988,6.0669 10.4518788,5.94966 10.0180188,5.94966 C9.58625875,5.94966 9.21545875,6.05772 8.87015875,6.25512 C8.57855875,6.42174 8.32499875,6.64992 8.11565875,6.9465 C8.01029875,6.50508 7.85771875,6.13476 7.67291875,5.83098 C7.27559875,5.17848 6.77939875,4.69248 6.18179875,4.35078 C5.58377875,4.00914 4.92155875,3.81804 4.17329875,3.81804 C3.42851875,3.81804 2.76737875,4.0077 2.17067875,4.34934 C1.57439875,4.69098 1.06799875,5.16618 0.677878753,5.82948 C0.494878753,6.14064 0.349078753,6.47574 0.238258753,6.92976 C0.220858753,7.00086 0.203098753,7.09152 0.189958753,7.16514 C0.0567587534,6.82428 -0.00486124657,6.5049 0.000298753428,6.12582 C0.0115187534,5.31762 0.382678753,4.51236 1.06931875,3.9861 C1.04183875,3.85692 1.03127875,3.7392 1.03127875,3.60402 C1.03127875,2.55594 1.88009875,1.69896 2.92793875,1.69896 C3.05003875,1.69896 3.16997875,1.70628 3.32027875,1.73628 C3.93395875,0.67314 5.05943875,-2.48689958e-14 6.30179875,-2.48689958e-14 Z"></path>
                        </g>
                    </g>
                    <path d="M187,10 C188.104569,10 189,10.8954305 189,12 C189,13.1045695 188.104569,14 187,14 C185.895431,14 185,13.1045695 185,12 C185,10.8954305 185.895431,10 187,10 Z M195,10 C196.104569,10 197,10.8954305 197,12 C197,13.1045695 196.104569,14 195,14 C193.895431,14 193,13.1045695 193,12 C193,10.8954305 193.895431,10 195,10 Z M203,10 C204.104569,10 205,10.8954305 205,12 C205,13.1045695 204.104569,14 203,14 C201.895431,14 201,13.1045695 201,12 C201,10.8954305 201.895431,10 203,10 Z" id="形状结合" fill="#D8D8D8"></path>
                </g>
                <path d="M274.389932,72.420166 L273.060305,158.999166 L275,159 L275,165 L273.438305,164.999166 L277.440596,190.137647 L277.729248,192.293579 L275.528076,190.863159 L271.414305,164.999166 L269,165 L268.999305,163.361166 L246.047287,171.695721 L244.091305,170.279498 L268.999305,161.235166 L269,159 L271.061305,158.999166 L272.389932,72.420166 L274.389932,72.420166 Z" id="形状结合" fill="#005CD6"></path>
                <g id="编组" transform="translate(258.000000, 26.000000)">
                    <g id="顶部小人">
                        <path d="M9.87670898,5.3034668 C10.4218393,8.37987889 10.8618043,10.281124 11.1966041,11.0072021 C11.6988038,12.0963194 12.5256321,13.1888416 14.4858515,12.2683105 C16.4460708,11.3477795 16.3095901,9.76196289 17.3285621,8.65161133 C18.0078768,7.91137695 18.4857178,7.06876628 18.762085,6.1237793 C15.9878538,4.73966471 14.1073029,4.04760742 13.1204322,4.04760742 C12.1335616,4.04760742 11.0523205,4.46622721 9.87670898,5.3034668 Z" id="路径-13" fill="#FF997B"></path>
                        <polygon id="矩形" fill="#FF997B" points="13 11.5563965 15 11.5563965 16 14.5563965 13 14.5563965"></polygon>
                        <path d="M9.97651135,1.687539e-14 C7.87580334,1.687539e-14 7.19623791,3.05310059 9.1925758,5.20959473 C9.89439523,5.96771763 11.6875857,5.38953813 13.248484,5.4744873 C13.8880173,5.50929279 15.792725,5.37890515 16.8865455,5.89135742 C17.3438517,6.10560425 17.7731323,6.6555717 18.1743873,7.54125977 L19.0381569,5.89135742 C19.4154355,4.49780273 18.6982317,3.33943685 16.8865455,2.41625977 C15.8447513,1.8853949 13.5533793,2.07514996 13.0620826,1.7557373 C11.474744,0.72374161 12.0772194,1.687539e-14 9.97651135,1.687539e-14 Z" id="路径-12" fill="#0524A4"></path>
                        <path d="M22.8803118,14.1725788 C26.9601039,16.8747463 28.8884536,20.8544667 28.6653608,26.1117398 L23.8906433,26.1117398 L23.8906433,33 L3.74653183,33 L3.74653183,26.1117398 L4.79616347e-14,26.1117398 C0.752685547,18.6757557 3.70812988,14.4573161 8.86633301,13.4564209 C10.654541,13.0563965 19.7407227,12.4510498 22.8803118,14.1725788 Z" id="路径-11" fill="url(#linearGradient-18)"></path>
                    </g>
                    <path d="M-1.77635684e-14,26.0498589 C1.42810059,25.9376763 4.01660156,26.0498589 4.26953125,26.0498589 C4.38065022,26.0498589 4.47269184,29.8334346 7.36061903,35.7740343 C8.3568978,37.8234258 11.0089974,41.2461553 15.3169179,46.0422228 L15.106,45.807 L15.2451492,45.5823744 C18.0620241,41.0267631 19.9525319,37.7573164 20.9166726,35.7740343 C23.8045998,29.8334346 23.7452276,26.0498589 23.8563466,26.0498589 C24.1092763,26.0498589 27.0748524,25.9376763 28.502953,26.0498589 C28.1126942,32.0764703 25.0451532,35.162031 22.8658914,38.9236925 C21.4130501,41.4314668 19.2609912,44.3968395 16.4097146,47.8198107 C15.7927286,47.6133386 15.3869668,47.3908044 15.1924295,47.1522081 L15.138,47.076 L15.0848622,47.1522081 C14.9119401,47.3642937 14.5721246,47.5636882 14.0654159,47.7503917 L13.867577,47.8198107 C9.6829671,44.3968395 6.86424152,41.4314668 5.41140028,38.9236925 C3.23213842,35.162031 0.390258789,32.0764703 -1.77635684e-14,26.0498589 Z" id="形状结合" fill="#FFB099"></path>
                </g>
                <polygon id="矩形" fill="#FFC812" transform="translate(258.874158, 182.936956) rotate(33.000000) translate(-258.874158, -182.936956) " points="243.874158 180.436956 273.874158 180.436956 273.874158 185.436956 243.874158 185.436956"></polygon>
                <path d="M441.940918,308 L424.6875,308 C422.243139,306.586136 420.463001,305.424701 419.347087,304.515694 C415.363152,301.270442 417.536843,280.448071 425.868159,242.04858 C426.991211,214 438.859181,188.134808 454.224435,149.385411 L454.550701,152.032088 C462.31205,185.926758 462.31205,211.723463 459.665039,229.949219 C457.383329,245.659728 453.36722,287.392807 443.4114,303.943278 C442.191646,305.970988 441.701485,307.323228 441.940918,308 Z" id="形状结合" fill="url(#linearGradient-19)"></path>
                <path d="M450.993164,175 L438.804668,242.539086 C436.157291,227.199905 434.794261,219.748319 434.715576,220.184326 C434.636892,220.620334 435.861989,228.51869 438.390869,243.879395 L426.991211,308 L428.243164,308 L442.295692,226.752197 C450.535398,214.253197 454.688787,207.80764 454.755859,207.415527 C454.822931,207.023414 450.669542,213.167159 442.295692,225.84676 L450.993164,175 Z" id="路径-9" fill="#254373"></path>
                <g id="编组-3" transform="translate(424.265719, 213.684082)">
                    <path d="M4.51015182,97.123852 C2.86197718,96.7587448 1.68155602,96.2879106 0.968888328,95.7113495 C-2.8475629,92.6237708 5.67141462,59.6310942 8.19033621,49.6379302 C10.9027041,39.1867583 22.8265374,18.8586029 24.4909403,14.8169479 C25.6005423,12.1225112 27.2004385,7.18352858 29.2906288,5.68944891e-11 C34.0216186,17.7597656 35.4123414,32.2998047 33.4627971,43.6201172 C30.5384807,60.6005859 23.4955119,94.4887695 14.8580424,97.5024552 C11.7140117,98.1105189 8.2647148,97.9843179 4.51015182,97.123852 Z" id="形状结合备份" fill="url(#linearGradient-20)"></path>
                    <path d="M23.7112127,15.309082 L14.9315985,65.5825369 C13.0246407,54.1646507 12.0428229,48.617981 11.9861449,48.9425278 C11.929467,49.2670747 12.811929,55.1463021 14.633531,66.5802103 L9.41934003,98.1459961 L10.3211466,98.1459961 L17.4462519,53.8313943 C23.381475,44.5276272 26.3732431,39.7298068 26.4215564,39.4379332 C26.4698696,39.1460596 23.4781015,43.7192226 17.4462519,53.1574222 L23.7112127,15.309082 Z" id="路径-9备份" fill="#FFFFFF" transform="translate(17.920736, 56.727539) rotate(4.000000) translate(-17.920736, -56.727539) "></path>
                </g>
                <g id="右小" transform="translate(287.000000, 133.000000)">
                    <path d="M8,0 L8,0 L8,0 L8,177 L0,177 L0,8 C-5.41083001e-16,3.581722 3.581722,8.11624501e-16 8,0 Z" id="矩形" fill="#D9E9FA" opacity="0.799409412"></path>
                    <path d="M12,0 L136,0 C140.418278,-8.11624501e-16 144,3.581722 144,8 L144,178 L144,178 L4,178 L4,8 C4,3.581722 7.581722,8.11624501e-16 12,0 Z" id="矩形备份-2" fill="#FFF9F9"></path>
                    <rect id="矩形" fill="url(#linearGradient-21)" x="19" y="20" width="110" height="43" rx="2"></rect>
                    <rect id="矩形备份-27" fill="url(#linearGradient-22)" x="19" y="68" width="110" height="43" rx="2"></rect>
                    <path d="M80.9404988,68 C81.626914,67.9999908 82.2653745,68.3519991 82.6317636,68.9324515 C84.5004766,71.8929617 84.6793744,74.3227045 83.168457,76.2216797 C82.0858672,77.5823175 79.2371272,78.7477439 76.2354716,80.0001471 L41,80 L41,84 L68.7014379,84.0003889 C68.0152468,84.6143401 67.5144384,85.2761676 67.2797852,86 C66.1596851,87.5360483 67.133057,90.2593917 67.6223187,93.0004152 L41,93 L41,98 L67.2797852,98 L67.2797852,98 C65.9964044,100.438903 61.6007674,104.628396 54.0928742,110.568479 C53.7396197,110.847948 53.3023737,111 52.8519391,111 L21,111 C19.8954305,111 19,110.104569 19,109 L19,70 C19,68.8954305 19.8954305,68 21,68 L80.9404988,68 Z M31,80 C27.6862915,80 25,82.6862915 25,86 C25,89.3137085 27.6862915,92 31,92 C34.3137085,92 37,89.3137085 37,86 C37,82.6862915 34.3137085,80 31,80 Z" id="形状结合" fill="url(#linearGradient-23)"></path>
                    <rect id="矩形" fill="#EF9012" x="41" y="33" width="48" height="4"></rect>
                    <rect id="矩形备份-26" fill="#EF9012" x="41" y="46" width="77" height="5"></rect>
                    <circle id="椭圆形" fill="#EF9012" cx="31" cy="39" r="6"></circle>
                    <path d="M31,92 C34.3137085,92 37,89.3137085 37,86 C37,82.6862915 34.3137085,80 31,80 C27.6862915,80 25,82.6862915 25,86 C25,89.3137085 27.6862915,92 31,92 Z" id="椭圆形" stroke="#B5B5B5" stroke-width="0.5" stroke-dasharray="2,2"></path>
                    <path d="M41,80 L89,80 L89,84 L41,84 L41,80 Z" id="矩形" stroke="#B5B5B5" stroke-width="0.5" stroke-dasharray="2,2"></path>
                    <path d="M41,93 L118,93 L118,98 L41,98 L41,93 Z" id="矩形备份-31" stroke="#B5B5B5" stroke-width="0.5" stroke-dasharray="2,2"></path>
                </g>
                <g id="男" transform="translate(181.000000, 214.000000)">
                    <path d="M51.7717267,112.226563 L45.4867042,116.768396 C43.8255054,117.770297 41.8389464,118.320829 39.527027,118.419992 C34.7798753,117.644276 26.572967,117.341303 18.8582005,114.751386 C14.8339882,113.400421 8.54792138,110.358693 -2.39664144e-13,105.626201 L40.6129785,108.832625 L51.7717267,112.226563 Z" id="影子" fill="url(#linearGradient-24)"></path>
                    <path d="M35.0428043,10.068402 C35.0428043,10.068402 32.5816376,13.8228884 33.4020265,18.6487422 C33.4990418,18.6562765 34.7026773,18.9445133 37.0129331,19.5134526 L40.6066341,26.2090944 L42.3520037,29.5135135 L47.9913569,23.8878525 C43.2144859,18.1437943 41.0343888,15.1891405 41.4510656,15.023891 C41.4097118,14.8839039 42.2392318,14.8839039 43.9396254,15.023891 L46.2151078,12.3540678 L43.6687735,10.068402 L41.1041469,8.64488244 L36.4902459,8.43243243 C35.5252848,9.52307879 35.0428043,10.068402 35.0428043,10.068402 Z" id="1脸" fill="#FADCDC" transform="translate(40.612979, 18.972973) scale(-1, 1) translate(-40.612979, -18.972973) "></path>
                    <path d="M39.3871826,14.4071687 C38.8250668,15.2726093 39.5242508,16.3899785 39.3871826,17.3863636 C39.2501144,18.3827488 38.2373621,18.5625332 38.556564,19.5529524 C38.875766,20.5433717 39.3469548,21.0808157 40.5778665,21.0808157 C41.8087781,21.0808157 41.9357659,21.1437496 43.2212724,19.3314201 C45.7256549,16.2607394 46.8557907,13.2461737 47.4517426,12.6525988 C48.0476945,12.0590239 49.5124457,12.5807126 49.5124457,13.0653397 C49.5124457,13.5499667 47.1325629,13.4171195 47.4517426,14.4071687 C47.7709223,15.3972178 48.7699111,16.5523831 50.5774509,16.368831 C52.3849907,16.185279 52.8944958,15.0071471 54.0698703,13.735111 C55.0783854,13.0245469 56.0280367,12.8870067 56.4237894,11.8192954 C56.3966467,9.76654128 53.8868868,10.5367198 54.0698703,9.56462314 C54.2528539,8.59252649 56.1660578,9.4157717 55.7864109,7.34954032 C55.2535687,6.46210007 55.3451707,6.17665829 50.8305884,5.90927921 C49.4232614,4.94115339 50.9445181,2.35681967 48.9171631,0.86252922 C47.8684681,0.428153094 47.2927157,1.26913314 45.620679,1.72555476 C43.7083218,0.918844885 44.1849277,-0.641387838 41.0585073,0.284812322 C38.9068978,1.50065309 40.8627447,3.45950342 39.8016018,3.99250094 C38.7404589,4.52549847 38.4527219,2.34887772 36.8892743,2.37896087 C36.1289079,2.58519944 35.9811019,2.78040747 36.1427976,3.76483163 C36.3044932,4.74925579 38.7880041,5.05305553 37.434594,5.6989378 C35.6817384,5.7535688 32.9257743,5.50566949 32.0899865,5.6989378 C31.2541987,5.8922061 30.9901379,6.43138874 31.1900607,7.14292921 C31.3899835,7.85446968 31.6309448,8.35516 32.8419224,8.37513522 C34.6091082,8.44173393 35.876823,7.06800832 36.6724519,7.34954032 C37.4680809,7.63107231 35.3573948,8.75995893 36.6724519,9.73056182 C38.3667999,10.3882999 39.0520932,8.96731145 39.8016018,8.93997653 C40.5511104,8.9126416 40.2467651,9.56462314 41.2223999,9.56462314 C42.1980347,9.56462314 42.037687,8.6155663 43.2212724,8.93997653 C44.4048578,9.26438675 44.1606104,10.3328838 44.6039753,10.5405405 C45.7177566,10.6989987 45.9134545,10.6270398 46.4016907,10.429574 C45.0191065,12.1978618 44.9001924,14.5267793 43.4725111,15.2368621 C42.5467138,15.1249527 41.4464616,12.7663131 39.8016018,12.1705463 C39.4311995,11.9736621 38.9474713,12.1408534 39.3871826,13.0653397 C39.8268939,13.989826 41.2223999,14.687047 41.2223999,14.9510721 C41.2223999,15.2150972 39.8406465,14.2136738 39.3871826,14.4071687 Z" id="1头发" fill="#282828" transform="translate(43.775141, 10.540541) scale(-1, 1) translate(-43.775141, -10.540541) "></path>
                    <path d="M55.2379459,37.7709565 C57.3673048,39.6415733 59.1396673,40.3885927 65.5250173,39.8348026 C73.5745317,39.1036212 77.7129948,34.6091375 77.9404067,26.3513514 C74.1050262,33.8124698 67.5204362,35.9616049 58.1866366,32.7987565 C55.109744,34.3464802 53.1085869,35.9003397 55.2379459,37.7709565 Z" id="胳膊" fill="#FADCDC"></path>
                    <path d="M27.2144487,59.5540541 C26.6163965,62.577254 27.3055461,67.0183831 29.2474143,80.8291675 C27.653981,95.0362516 26.0492249,106.686431 25.8994545,112.494022 C33.8311083,112.959803 36.6963663,110.981734 37.742637,110.437896 C38.7889078,109.894058 36.6453503,109.189295 33.2346002,108.258763 C33.5398522,98.4715518 36.9549439,93.6239786 38.5874924,83.3495302 C39.1533607,77.7303104 39.3489372,63.7857105 40.6129785,77.4961333 C40.4132847,96.7068861 38.3370864,110.047772 38.7421355,117.168813 C42.1150694,118.787208 46.2757969,116.615282 48.5809293,115.284589 C50.8547298,113.971982 50.8800712,112.961699 51.3856374,112.494022 C52.4037365,111.552223 48.6933734,111.991699 45.6984806,112.494022 C45.6984806,100.104366 50.8325228,86.5238829 51.3856374,79.1811787 C51.938752,71.8384746 52.1401631,63.2825098 50.2893924,62.5098316 C40.9885706,54.9575183 30.1943093,57.0479179 27.2144487,59.5540541 Z" id="1-腿部" fill="url(#linearGradient-25)"></path>
                    <path d="M36.2726094,21.0810811 C32.5372158,21.0810811 29.7730943,22.6166339 28.4685009,24.3725484 C27.1639076,26.1284628 26.9875457,29.4877111 27.6964887,37.1061184 C27.6964887,52.3068834 25.1776354,54.1149772 25.1776354,57.2529497 C25.6932898,68.3803994 47.3910011,64.3799669 50.070913,63.8829197 C57.5257941,60.4006298 50.8574182,38.1770413 51.2325687,36.0896356 C51.7497184,35.657633 52.6930144,37.719489 55.2887211,38.4383542 C56.7474169,38.5964949 57.0105784,37.7477308 59.1786334,35.4931275 C59.2028924,35.4679001 59.2270424,35.4432618 59.250613,35.4187394 C61.4001927,33.1823621 60.0655122,32.7370506 55.4968257,29.0533256 C54.7612399,28.4602239 51.5358062,24.0008314 49.8201682,23.1246833 C47.4747644,21.5267895 38.8717173,21.0810811 36.2726094,21.0810811 Z" id="1-上衣" fill="url(#linearGradient-26)"></path>
                    <path d="M47.0705131,36.0896356 C48.8400149,42.389187 49.9314873,44.9262557 49.9314873,51.0516274 C49.9314873,59.6534747 46.5745444,63.6212153 47.0705131,64.3799669 C47.493486,64.3617765 48.9854262,64.1777718 49.0127415,64.1731963 C57.9158441,62.6818617 50.8574182,38.1770413 51.2325687,36.0896356 C51.7497184,35.657633 52.6930144,37.719489 55.2887211,38.4383542 C55.9193175,38.6863572 56.4047588,38.4023596 56.8093446,37.9881493 C56.9899301,37.8232194 57.2256585,37.5840427 57.5165299,37.270619 C54.4227478,35.5807741 52.4001247,34.2180218 51.4486607,33.1823621 C49.9906577,31.9091497 46.2883618,30.3267512 47.0705131,36.0896356 Z" id="1-上衣备份" fill="#0F6AD8"></path>
                </g>
                <g id="编组" transform="translate(299.000000, 203.000000)">
                    <polygon id="影子备份" fill="url(#linearGradient-27)" points="73.5117187 136.435452 72.409668 140.662299 56.7089844 144.365575 46.1451007 143.666748 17 133 59.5646973 135.374023"></polygon>
                    <g id="刷子" transform="translate(68.842812, 7.618450) rotate(106.000000) translate(-68.842812, -7.618450) translate(63.842812, 0.118450)" fill-rule="nonzero">
                        <polygon id="形状" fill="#FFFFFF" points="9.03028061 14.6491622 8.47470337 7.89446826 0.557943415 7.89446826 0.0302806067 14.6491622 1.67216355 14.6491622 1.67216355 12.5956391 1.99023706 12.5956391 1.99023706 14.6491622 6.31631107 14.6491622 6.31631107 14.0288613 6.5854265 14.0288613 6.5854265 14.6491622 7.74613986 14.6491622 7.74613986 13.1691634 7.96503397 13.1691634 7.96503397 14.6491622"></polygon>
                        <path d="M4.5299571,7.6326278 L8.95712077,7.6326278 L8.95712077,5.95814991 C7.29972468,5.95814991 5.93561495,5.29671039 5.74899498,4.44449365 C5.74713094,4.37903741 5.74588311,4.31358116 5.74401907,4.24625076 L5.74215502,4.0710709 L5.74215502,3.99563978 C5.74215502,3.82856063 5.7452669,3.6664844 5.75022741,3.5112388 C5.7589006,3.27684473 5.7725343,3.0586366 5.79052771,2.86476159 C5.8351569,2.70268536 5.86057567,2.53061877 5.86307133,2.35045147 L5.86430376,2.32240101 C5.86430376,1.39851696 5.26656217,0.649162238 4.5299571,0.649162238 C3.79395282,0.649162238 3.19624205,1.39850147 3.19624205,2.32240101 L3.19624205,2.34484448 C3.19995473,2.53061877 3.22538891,2.70268536 3.2700181,2.86476159 C3.2879961,3.05865209 3.3016298,3.27684473 3.3103184,3.5112388 C3.31527891,3.66646891 3.31839079,3.82856063 3.31839079,3.99563978 L3.31839079,4.0710709 L3.31652674,4.24625076 C3.3146627,4.31359665 3.31343027,4.3790529 3.31156623,4.44449365 C3.12554707,5.29671039 1.76082113,5.95814991 0.104056654,5.95814991 L0.103440442,7.6326278 L4.5299571,7.6326278 Z" id="路径" fill="#3B7FFF"></path>
                    </g>
                    <g id="编组-4" transform="translate(32.000000, 5.000000)">
                        <path d="M19.3725093,17.1167667 C17.5578559,17.5883116 16.2886598,19.3260776 15.9860118,19.7364429 C15.6833637,20.1468083 16.233177,20.1163936 16.6949826,20.7472687 C16.3902726,21.955101 14.7110869,22.9067274 14.8994307,24 C14.8557183,24.8003858 18.1451029,26.3044682 18.1451029,27.0527144 C18.1451029,27.8009606 17.9813257,27.8009606 17.873618,28.7638827 C17.8689423,28.8056846 16.8469572,32.5063473 16.8847389,32.5317383 C18.6234072,33.7002006 19.3562933,32.1433363 22.8924506,30.243143 C26.4286079,28.3429497 28.3709891,24.9376718 28.8270678,23.0101343 C29.2831465,21.0825967 26.928024,20.2289884 25.4999684,19.2229207 C24.0719128,18.216853 23.3009785,18.6376157 21.9722418,18.1808972 C21.8203789,18.1286983 21.6929741,18.0683714 21.5837113,18.0031603 C20.7369704,17.4978015 20.9797637,16.6991153 19.3725093,17.1167667 Z" id="女-脸" fill="#FFD9D9"></path>
                        <path d="M15.3615669,88.8867014 C17.0406697,99.2383159 18.08896,105.865643 18.5064381,108.768682 C19.1326552,113.123241 21.146934,124.002022 20.838475,129.816135 C20.3225655,132.992848 19.2891615,135.321255 17.0127907,136.944702 C16.4359842,137.356065 16.2159939,137.931394 16.35282,138.670688 L20.4947706,138.886701 L22.5708523,135.631966 L24.2658633,134.805585 L24.9609958,138.111233 L25.6036671,135.193258 L26.4182028,131.462273 C26.1440591,130.873865 25.8725472,130.394538 25.6036671,130.024292 C25.334787,129.654046 25.0364561,129.348703 24.7086744,129.108264 C25.6281726,121.113494 26.1980154,115.201726 26.4182028,111.372961 C26.6383902,107.544196 26.6383902,103.547157 26.4182028,99.3818432 C27.8548125,102.197158 29.350032,105.450993 30.9038615,109.143351 C33.2346057,114.681887 37.2032322,123.917929 37.7482952,126.258377 C38.1116705,127.818676 37.5354268,129.435779 36.019564,131.109687 L32.2118343,131.109687 L35.5842213,134.181873 L39.5013336,131.462273 L41.3615669,126.714261 L40.2760054,125.649632 C39.9457878,119.549985 39.1032177,113.55872 37.7482952,107.675837 C36.3933726,101.792954 34.5478857,96.113054 32.2118343,90.6361371 L15.3615669,88.8867014 Z" id="腿" fill="#FFD9D9"></path>
                        <path d="M25.7441957,129.144383 C25.7441957,129.144383 26.4811537,129.439776 26.5171728,132.398704 C26.5206072,132.680833 26.5350991,133.302392 26.1163822,133.917029 C25.1970478,135.181636 25.5426287,136.814425 25.5063924,139.124467 C25.2098871,139.151022 25.0110404,139.151022 24.9098524,139.124467 L24.9098524,139.124467 L23.7048679,134.831786 L21.4511452,138.600952 C19.9179101,139.179196 17.6091864,139.208591 14.5249741,138.689135 C14.4135986,138.169558 15.6597527,137.181836 18.2634364,135.725967 C18.9487449,136.285735 19.7583826,136.634565 20.6923495,136.772458 C21.0667108,136.696513 22.0033509,135.357495 23.0416514,133.750442 C22.8951921,130.046603 25.7441957,129.144383 25.7441957,129.144383 Z M41.3647526,126.714879 C41.4320245,126.728805 42.5425391,127.000952 42.5774721,129.79665 C42.580907,130.071545 42.5954012,130.677168 42.1766195,131.276046 C41.2571429,132.50823 41.1996225,133.455621 41.1633807,135.706436 C40.8668295,135.73231 40.6341603,135.694016 40.465373,135.591554 L40.465373,135.591554 L39.8428822,132.765755 L35.8376666,134.471909 C34.2177973,133.872408 32.8001445,132.753015 31.5847082,131.11373 C31.4733155,130.607476 32.8419692,130.51261 35.6906694,130.829133 C35.6178948,131.496102 35.7285238,131.933063 36.0225563,132.140015 C36.3969756,132.066017 38.1095975,132.401904 38.6690798,130.987123 C39.2986794,126.900269 41.3615669,126.714261 41.3615669,126.714261 Z" id="高跟鞋" fill="#38100F"></path>
                        <path d="M13.4718681,66.6947293 C17.4545501,67.8259288 32.6856969,65.6335001 35.8930664,67.9226074 C37.0092827,70.3625488 37.972168,72.9663086 37.0852051,76.659668 C35.623291,83.2905273 32.2801427,84.1719398 36.3615669,93.3702216 C31.6988625,96.5596967 24.9453328,97.7964779 20.1560059,97.5144043 C16.6612446,97.3085758 14.6740723,96.3950195 12.0369755,95.5914645 C9.94243686,65.6623753 13.3798061,66.6281716 13.4718681,66.6947293 Z" id="裙子" fill="url(#linearGradient-28)"></path>
                        <path d="M39.9338178,0.0389552103 C40.0361036,-0.182275715 40.4829342,0.538789437 41.2743096,2.20215067 C43.0603255,1.64214462 44.2710026,1.57440837 44.9063409,1.9989419 C45.5416792,2.42347542 45.3698057,3.93311078 44.3907204,6.52784795 C44.7803979,8.28363265 44.9146345,9.21522728 44.7934303,9.32263184 C44.2194191,9.83128946 42.1570636,8.89779586 41.8847389,9 C41.526161,9.13457519 41.4741552,8.31052451 41.7287214,6.52784795 C41.1144921,5.79378259 40.679548,5.14489219 40.4238892,4.58117676 C40.1091919,3.88728447 40.5928158,3.88728447 40.556272,3.75517227 C39.9863734,1.69488868 39.780389,0.370801599 39.9338178,0.0389552103 Z" id="右手" fill="#FFD9D9"></path>
                        <path d="M7.00961596,26.6739777 C6.71615892,23.4168689 6.79173401,21.8620721 7.23634122,22.0095873 C7.74960619,22.1616869 7.9002961,26.6842815 8.09978523,26.5560554 C8.68211971,26.1817469 8.02836895,22.2882162 8.62834968,22.8835293 C9.22833041,23.4788425 9.3938453,26.7799912 9.57683601,26.6739777 C9.78028653,25.6450853 9.76197598,23.409229 10.2621387,24.3894701 C10.7623015,25.3697112 10.4559443,30.4114583 10.4823115,31.9350256 C10.6012356,33.1536235 11.30897,33.8938486 11.2113967,34.1163737 C10.6102385,35.4873725 9.12157348,35.0413186 8.62834968,35.2881673 C8.05507133,35.5750817 7.63998277,34.8403271 7.383084,33.0839033 C6.19792805,31.2708388 5.52650945,30.0732314 5.36882819,29.491081 C5.25456282,29.0692196 3.7893339,26.8257393 3.88966153,26.5560554 C4.06709698,26.0791031 5.93357556,27.7309668 5.92904955,27.6739777 C5.76484122,25.606353 5.17520957,23.3346047 5.66195971,23.3058926 C5.9864598,23.2867513 6.43567855,24.4094463 7.00961596,26.6739777 Z" id="右手备份" fill="#FFD9D9" transform="translate(7.552670, 28.674299) scale(-1, 1) translate(-7.552670, -28.674299) "></path>
                        <path d="M40.9596901,8.68383789 C42.352734,6.8574141 45.6020241,8.59521484 45.5329323,8.68383789 C45.5329323,10.1887207 46.352496,20.4195033 42.0601283,29.6689453 C38.9368373,37.2883301 41.9687233,56.5478516 37.0820046,66.8793945 C35.5139526,68.8881773 32.0909354,70.7951025 26.8244362,70.8659668 C20.9836609,70.9445583 13.28563,69.0159164 12.1791725,67.8764648 C12.5494118,64.0198975 15.6176758,57.4599609 15.8847389,56.2507324 C16.1271973,55.1741943 16.7581895,46.1172605 13.9511452,44.5251465 C10.44553,46.517334 5.30442485,48.8226475 3.2228737,49.1669922 C1.14132256,49.5113369 -0.226100905,48.9523926 0.0309791734,44.5251465 C0.279668507,39.0135778 2.65264352,34.6804426 3.95383074,32.826416 C4.02072559,32.7310993 7.11087284,32.8656524 7.88473894,34.387207 C8.65860504,35.9087617 6.77731706,37.8439941 7.88473894,39 C9.64084245,37.4885254 13.60178,32.4069824 15.8847389,31.5317383 C21.660862,29.2539062 28.1743062,31.2882146 33.7060547,26.7819475 C43.9710088,19.7395368 39.5666463,10.5102617 40.9596901,8.68383789 Z" id="上衣" fill="url(#linearGradient-29)"></path>
                        <path d="M18.1632468,13.7832922 C22.4741444,11.8606385 25.1222388,13.8501119 27.7336176,15.7504596 C30.3449964,17.6508074 29.4966235,20.9460541 31.4543302,23.455455 C36.8347514,31.1131373 43.2185609,29.7024192 48.6722461,33.2970555 C53.8639406,36.685205 53,46.5307617 48.3123891,53.9882552 C43.6247782,61.4457488 36.7477471,67.1847435 29.2212183,63.6181547 C19.1830769,57.5561613 27.8109312,49.1660327 25.6065729,43.6926902 C23.9484392,41.6292501 20.1064528,43.6178786 18.0761338,36.3490192 C16.7354413,31.2723334 19.5395667,27.7490834 20.2621591,23.455455 C20.2554174,22.6569141 21.55286,22.6089285 21.0824005,21.6740268 C20.9540452,21.4189579 19.7212283,21.6724129 19.4664656,21.1344279 C18.2542158,18.9844851 17.1561252,18.1763218 16.8847389,16.3233203 C16.9253084,15.6339335 16.6302974,15.1296822 18.1632468,13.7832922 Z" id="女-头发" fill="url(#linearGradient-30)"></path>
                        <path d="M26.7336176,15.7504596 C29.3449964,17.6508074 28.4966235,20.9460541 30.4543302,23.455455 C32.45476,26.3025659 43.2462301,31.0388978 46.6722461,33.2970555 C51.8639406,36.685205 52.8260889,45.17381 46.3123891,54.9882552 C39.7986893,64.8027005 35.7477471,68.1847435 28.2212183,64.6181547 C18.1830769,58.5561613 26.8109312,49.1660327 24.6065729,43.6926902 C22.9484392,41.6292501 19.1064528,43.6178786 17.0761338,36.3490192 C15.7354413,31.2723334 24.1222388,13.8501119 26.7336176,15.7504596 Z" id="女-头发备份" fill="url(#linearGradient-31)" opacity="0.167271205"></path>
                    </g>
                </g>
                <polygon id="影子备份" fill="url(#linearGradient-32)" points="423.561035 316.452637 423.970703 320.662299 422.238281 322.842773 407.20166 322.842773 382 315.374023 411.125732 315.374023"></polygon>
                <g id="编组" transform="translate(71.000000, 176.000000)">
                    <path d="M37.2442071,53.5297852 C47.40534,56.0995806 52.7590183,58.7711157 53.3052423,61.5443904 C55.8547215,68.7276587 54.7585079,80.2021197 50.0166016,95.9677734 C49.7135417,96.5587565 48.8342285,94.7668457 47.3786621,90.592041 C45.9080939,86.1008174 46.7658624,80.8305078 45.9221874,76.0483398 C45.5638724,74.0173174 45.1900111,70.8965348 44.8006036,66.685992 L40.3762872,84.6117732 L35.9858398,85.1174316 C36.6971472,71.2869992 37.0528009,64.371783 37.0528009,64.371783 C37.0528009,64.371783 30.5068197,65.3657301 24.6248224,65.0758846 C20.532349,64.8742209 16.7634257,63.7630277 15.7354181,62.4679744 C14.065062,60.3637097 13.3350001,58.1016655 13.5452325,55.6818416 L37.2442071,53.5297852 Z" id="路径-20" fill="url(#linearGradient-33)"></path>
                    <path d="M46.4221874,64 C47.2506145,64 47.9221874,64.6715729 47.9221874,65.5 C47.9221874,66.3284271 47.2506145,67 46.4221874,67 L45.069,67 L61.8213357,162.002704 C61.9567285,162.770555 61.4821436,163.504874 60.7456693,163.70854 L60.6045963,163.740388 C59.7887548,163.884243 59.0107673,163.33949 58.8669124,162.523648 L58.8669124,162.523648 L56.4818054,148.998837 C56.4620287,148.99961 56.4421536,149 56.4221874,149 L5.42218742,149 L5.362,148.997 L2.97746243,162.523648 C2.83360757,163.33949 2.05561999,163.884243 1.23977853,163.740388 C0.423937078,163.596533 -0.12081569,162.818545 0.0230391705,162.002704 L16.774,67 L15.4221874,67 C14.5937603,67 13.9221874,66.3284271 13.9221874,65.5 C13.9221874,64.6715729 14.5937603,64 15.4221874,64 L46.4221874,64 Z M55.953,146 L53.4848214,131.998716 C53.4640496,131.999569 53.4431688,132 53.4221874,132 L8.359,132 L5.89,146 L55.953,146 Z M52.955,129 L50.4868313,114.998632 C50.4653967,114.999541 50.4438456,115 50.4221874,115 L11.4221874,115 L11.357,114.997 L8.888,129 L52.955,129 Z M14.0119135,99.9432015 L11.886,112 L49.958,112 L47.842,100 L14.4221874,100 C14.2799359,100 14.1423092,99.9801985 14.0119135,99.9432015 Z M16.6803241,84.8039996 L14.531,97 L47.313,97 L45.197,85 L17.4221874,85 C17.1523241,85 16.8991055,84.9287357 16.6803241,84.8039996 Z M42.024,67 L19.82,67 L17.1718976,82.0207883 C17.2532911,82.0071166 17.3369082,82 17.4221874,82 L44.668,82 L42.024,67 Z" id="梯子2" fill="#0E6AD8"></path>
                    <g id="坐着人--" transform="translate(5.000000, 0.000000)">
                        <path d="M25.3241632,24.635699 C26.3375095,25.6844458 26.8441827,26.2731095 26.8441827,26.4016902 C26.8441827,26.530271 26.3375095,28.7985001 25.3241632,33.2063777 L19.5209405,32.7375057 L20.2389581,25.1560848 L25.3241632,24.635699 Z M4.20056152,1.1237793 C4.69868978,0.799479167 5.15002441,1.01005046 5.55456543,1.75549316 C5.99318551,3.05969521 6.24302275,4.3888985 6.30407715,5.74310303 C6.36513154,7.09730756 6.23919567,8.51627321 5.92626953,10 L5.92626953,10 L3.06677246,10.3624268 C1.82702637,8.69608561 1.11987305,7.66516113 0.9453125,7.26965332 C0.68347168,6.6763916 0.395779955,5.18627172 0.9453125,4.14758301 C1.49484504,3.10889429 3.45336914,1.61022949 4.20056152,1.1237793 Z M44.1488702,1.34480547 C47.28034,2.94575761 47.9549005,3.31270097 47.6907403,9.09321855 C47.7108413,9.10306556 46.4147801,9.10306556 43.8025568,9.09321855 C43.1110731,7.00151196 42.7855116,5.64872875 42.8258722,5.03486894 C42.8864131,4.11407923 44.1488702,4.32918047 44.1488702,3.82600664 C44.1488702,3.32283281 42.3266046,1.86960367 42.3266046,1.34480547 C42.3266046,0.820007259 43.5140862,0.955054845 44.1488702,1.34480547 Z" id="形状结合" fill="#EFC0C0"></path>
                        <path d="M24.8413141,28.7471492 C28.7073073,28.7471492 32.2442071,24.7917313 32.2442071,20.9257381 C32.2442071,17.0597448 28.5118117,13.1129939 24.6458185,13.1129939 C20.7798252,13.1129939 17.438421,17.2272253 17.438421,21.0932186 C17.438421,24.8125795 20.5053839,28.5217529 24.1825616,28.7471492 C24.3275309,28.7560353 24.6946818,28.7471492 24.8413141,28.7471492 Z" id="椭圆形" fill="#173371"></path>
                        <path d="M5.92626953,10 C8.77087768,23.6761788 14.2610528,31.1319391 22.396795,32.367281 C28.0129371,32.4944592 34.1974623,28.6121087 39.1135254,21.9997559 C40.8711897,19.6356087 42.3056786,15.3023568 43.4169922,9 L47.9973145,9 C47.0137892,14.6035849 46.1720589,18.5029896 45.4721238,20.698214 C44.8582481,22.6235278 44.1732043,24.3414734 43.4169922,25.8520508 C40.342666,31.9931952 34.5354614,35.6886597 33.8127441,37.2126465 C33.0900269,38.7366333 34.321167,52 33.0335138,55.5707576 C30.9967041,60.0851102 23.5492609,60.0038114 17.438421,60.0851102 C12.3688409,60.2682157 5.56109146,60.0038114 7.98217773,51.2507324 C10.3317002,42.7563819 10.181524,35.9201784 10.1630859,35.8034668 C9.50317383,31.348877 5.46923828,26.1713867 4.44311523,21.3271484 C3.7590332,18.0976563 3.2438151,14.4701413 2.89746094,10.4446035 L5.92626953,10 Z" id="路径-19" fill="url(#linearGradient-34)"></path>
                    </g>
                </g>
                <g id="编组" transform="translate(404.561035, 298.000000)">
                    <path d="M14.1689453,1.77635684e-15 C19.5581422,1.77635684e-15 23.9732677,0.36434084 27.4143219,1.09302252 C28.3387187,1.28876121 29,2.10474052 29,3.04963365 L29,6 C27.4342574,6.2262334 25.9730326,6.42745763 24.6163255,6.6036727 L23.1351742,24.3779092 C23.050414,25.3950098 22.355894,26.2584613 21.3805989,26.5592561 C19.0985283,27.2630789 16.804918,27.6149902 14.4997681,27.6149902 C12.1946579,27.6149902 9.90118804,27.263091 7.61935848,26.5592925 C6.64408501,26.2584848 5.9495869,25.3950428 5.8648299,24.3779588 L4.38731534,6.63983087 C3.03200225,6.45513742 1.5695638,6.24186047 0,6 L0,3.01049973 C4.93174154e-06,2.07725115 0.645444094,1.26805562 1.55533409,1.0605632 C4.65583554,0.353521065 8.86037262,1.77635684e-15 14.1689453,1.77635684e-15 Z" id="形状结合" fill="url(#linearGradient-35)"></path>
                    <path d="M3.52251031,13.1627907 C3.52251031,14.3813492 4.46155569,15.3787994 5.64991518,15.4598047 L5.64991518,15.4598047 L5.80627578,15.4651163 L23.1937242,15.4651163 C24.4550131,15.4651163 25.4774897,14.43433 25.4774897,13.1627907 L25.4774897,13.1627907 L25.477,6 L27,6 L27,13.1627907 C27,15.2820229 25.2958723,17 23.1937242,17 L23.1937242,17 L5.80627578,17 C3.70412772,17 2,15.2820229 2,13.1627907 L2,13.1627907 L2,6 L3.522,6 Z" id="形状结合" fill="url(#linearGradient-36)" fill-rule="nonzero"></path>
                    <path d="M14.5,2.5 C20.2989899,2.5 25,2.27614237 25,2 C25,1.72385763 20.2989899,1.5 14.5,1.5 C8.70101013,1.5 4,1.72385763 4,2 C4,2.27614237 8.70101013,2.5 14.5,2.5 Z" id="椭圆形" fill="#FFFFFF"></path>
                    <path d="M24.5235596,6.69714355 C24.5235596,7.508664 22.1323242,8.64086914 14.5235596,8.64086914 C6.91479492,8.64086914 4.52355957,7.52557068 4.52355957,6.69714355 C4.52355957,6.60918337 9.75045787,7.10027251 14.7717285,7.10064831 C19.7502753,7.10102092 24.5235596,6.60993179 24.5235596,6.69714355 Z" id="路径" fill="#CA581B"></path>
                </g>
            </g>
        </g>
    </g>
</svg>