<?xml version="1.0" encoding="utf-8"?>
<!-- Generator: Adobe Illustrator 18.1.1, SVG Export Plug-In . SVG Version: 6.00 Build 0)  -->
<!DOCTYPE svg PUBLIC "-//W3C//DTD SVG 1.1//EN" "http://www.w3.org/Graphics/SVG/1.1/DTD/svg11.dtd">
<svg version="1.1" id="gear" xmlns="http://www.w3.org/2000/svg" xmlns:xlink="http://www.w3.org/1999/xlink" x="0px" y="0px"
	 viewBox="247.8 -97.2 879.1 843.1" enable-background="new 247.8 -97.2 879.1 843.1" xml:space="preserve">
<g id="RRMlcc.tif">
	<g>
		<g>
			<path fill="#FFFFFF" d="M1050.5,325.1c0,8.4,0,16.8,0,25.2c-0.5,14.5-10.3,26.1-24.7,27.1c-12.1,0.9-24.3,0.5-36.4,0.9
				c-20.1,0-31.3,9.3-37.8,28c-6.1,17.3-13.1,34.1-21,50.9c-8.9,19.1-7,33.6,7.9,48.5c7,7,14.5,14,21,21.5
				c12.6,13.1,12.6,28.9,0.5,42c-10.7,11.2-21.5,21.9-32.7,32.7c-13.5,13.1-28.9,12.6-42.5,0c-7.5-7-14.5-14.5-21.9-21.9
				c-14-14-28.9-15.9-46.7-7.5c-17.3,7.9-35,15.4-53.2,21.9c-17.3,6.1-26.6,18.7-27.1,37.3c0,10.7,0,21.5,0,32.7
				c-0.5,18.2-11.7,29.4-29.4,29.4c-15.4,0-30.8,0-46.2,0c-17.7-0.5-29.4-11.2-29.9-29.4c-0.5-11.2,0-22.4,0-33.1
				c0-17.7-9.3-29.9-26.1-35.9c-18.7-7-37.3-14.9-55.1-22.9c-15.4-7-30.8-5.1-43.4,7c-7.9,7.5-15.4,15.4-22.9,22.9
				c-14,13.5-29.4,13.5-43.4,0c-10.7-10.3-21-21-31.7-31.7c-12.6-13.1-13.1-28.5-0.9-42c7.5-7.9,15.9-15.9,23.3-23.8
				c13.1-13.1,14.5-28,7-44.3c-8.4-17.7-15.9-35.9-22.4-54.6c-6.5-16.8-17.7-25.7-35.9-26.1c-12.1,0-24.3,0.5-36.4-0.5
				c-15.4-0.9-25.7-11.2-26.1-26.1c-1.4-19.1-1.4-36.9-0.5-54.6c0.5-14.9,12.1-25.2,27.5-25.7c10.3-0.5,20.5,0,30.8,0
				c22.9,0,33.6-8.4,41.5-29.9c6.1-16.8,13.1-33.6,21-49.9c7.9-17.3,6.5-32.2-7-46.2c-7-7.5-14.5-14.5-21.9-21.9
				c-13.5-14-14-29.9,0-43.4c10.3-10.7,21-21,31.7-31.7c13.5-13.1,29.4-13.1,42.9,0c7.5,7.5,14.9,14.9,22.4,22.4
				c13.1,13.1,28,14.9,44.8,7.5c18.2-8.4,36.9-15.9,55.5-22.9c15.9-6.1,25.2-17.7,25.7-34.5c0-11.2,0-22.4,0-33.1
				c0.5-18.2,10.3-29.9,28.5-30.8c16.8-0.9,34.1-0.5,50.9,0.5c15.9,0.9,25.7,12.1,25.7,28c0,11.2,0,22.4,0,33.1
				c0,18.7,9.3,30.8,26.6,37.3c18.2,7,36.4,14.5,54.6,22.9c16.3,7.5,31.3,5.6,43.9-7c7.9-7.5,15.4-15.4,22.9-22.9
				c14-13.1,29.4-13.1,42.9,0c10.7,10.3,21,21,31.7,31.7c13.1,13.5,13.5,29.4,0,42.9c-7.5,7.5-14.9,14.9-22.4,22.4
				c-13.1,13.5-14.9,28.5-7,45.3c7.9,17.7,15.4,35.5,21.9,53.7c6.1,15.9,16.3,25.2,33.1,26.1c11.7,0.9,23.3,0.5,35,0.5
				c19.6,0,30.8,11.2,30.8,30.8C1050.5,310.6,1050.5,318.1,1050.5,325.1z M683.7,143.5c-105,0-185.7,86.8-182.5,188.5
				c3.3,94.7,81.7,176.9,186.2,175.5c97.5-1.4,178.3-84.5,177.3-183.9C864.3,224.3,782.2,142.6,683.7,143.5z"/>
		</g>
	</g>
</g>
</svg>
