<?xml version="1.0" encoding="utf-8"?>
<!-- Generator: Adobe Illustrator 18.1.0, SVG Export Plug-In . SVG Version: 6.00 Build 0)  -->
<!DOCTYPE svg PUBLIC "-//W3C//DTD SVG 1.1//EN" "http://www.w3.org/Graphics/SVG/1.1/DTD/svg11.dtd">
<svg version="1.1" id="Layer_1" xmlns="http://www.w3.org/2000/svg" xmlns:xlink="http://www.w3.org/1999/xlink" x="0px" y="0px"
	 viewBox="0 0 28 28" enable-background="new 0 0 28 28" xml:space="preserve">
<g id="Layer_1_1_">
	<g id="New_Symbol_36_2_">
	</g>
	<g id="New_Symbol_36_1_">
	</g>
</g>
<g id="New_Symbol_36">
	<path fill="#2A3C43" d="M8.2,6.7C8,6.4,7.2,6.2,6.5,5.8C5.7,5.5,5.6,5.4,5.6,5.4V4.7c0,0,0.3-0.2,0.4-0.9c0.2,0,0.4-0.3,0.4-0.4
		c0-0.2,0-0.6-0.2-0.5c0-0.3,0.1-0.6,0.1-0.8C6.1,1.6,5.5,1,4.6,1S3.2,1.6,3.2,2.1c0,0.2,0,0.4,0.1,0.8C3,2.9,3,3.3,3,3.4
		c0,0.2,0.2,0.5,0.4,0.4c0.1,0.7,0.4,0.9,0.4,0.9v0.7c0,0-0.2,0.1-0.9,0.4C2.1,6.2,1.3,6.4,1.1,6.7C0.9,7,1,8.5,1,8.5h3.7h3.7
		C8.3,8.5,8.4,7,8.2,6.7z"/>
	<path fill="#2A3C43" d="M8.2,16c-0.2-0.3-1-0.6-1.7-0.9c-0.7-0.3-0.9-0.4-0.9-0.4V14c0,0,0.3-0.2,0.4-0.9c0.2,0,0.4-0.3,0.4-0.4
		c0-0.2,0-0.6-0.2-0.5c0-0.3,0.1-0.6,0.1-0.8c-0.1-0.6-0.6-1.2-1.5-1.2s-1.4,0.6-1.5,1.2c0,0.2,0,0.4,0.1,0.8C3,12.1,3,12.6,3,12.7
		c0,0.2,0.2,0.5,0.4,0.4c0,0.7,0.3,0.9,0.3,0.9v0.7c0,0-0.2,0.1-0.9,0.4c-0.7,0.3-1.5,0.5-1.7,0.9C0.9,16.3,1,17.8,1,17.8h3.7h3.7
		C8.3,17.8,8.4,16.3,8.2,16z"/>
	<g>
		<rect x="12.5" y="4" fill="#2A3C43" width="14.6" height="1.7"/>
	</g>
	<g>
		<rect x="12.5" y="13.1" fill="#2A3C43" width="14.6" height="1.7"/>
	</g>
	<g>
		<rect x="12.5" y="22.2" fill="#2A3C43" width="14.6" height="1.7"/>
	</g>
	<path fill="#2A3C43" d="M8.2,25.2c-0.2-0.3-1-0.6-1.7-0.9C5.7,24.1,5.6,24,5.6,24v-0.7c0,0,0.3-0.2,0.4-0.9c0.2,0,0.4-0.3,0.4-0.4
		c0-0.2,0-0.6-0.2-0.5c0-0.3,0.1-0.6,0.1-0.8c-0.1-0.6-0.6-1.2-1.5-1.2s-1.4,0.6-1.5,1.2c0,0.2,0,0.4,0.1,0.8C3,21.4,3,21.8,3,22
		s0.2,0.5,0.4,0.4c0.1,0.7,0.4,0.9,0.4,0.9V24c0,0-0.2,0.1-0.9,0.4s-1.5,0.5-1.7,0.9C0.9,25.6,1,27,1,27h3.7h3.7
		C8.3,27,8.4,25.6,8.2,25.2z"/>
</g>
</svg>
