<?xml version="1.0" standalone="no"?><!DOCTYPE svg PUBLIC "-//W3C//DTD SVG 1.1//EN" "http://www.w3.org/Graphics/SVG/1.1/DTD/svg11.dtd"><svg t="1611740032261" class="icon" viewBox="0 0 6826 1024" version="1.1" xmlns="http://www.w3.org/2000/svg" p-id="16772" xmlns:xlink="http://www.w3.org/1999/xlink" width="1333.203125" height="200"><defs><style type="text/css"></style></defs><path d="M203.844267 1024a119.466667 119.466667 0 1 0 0-238.933333 119.466667 119.466667 0 0 0 0 238.933333z" fill="#E37401" p-id="16773"></path><path d="M391.5776 375.466667m119.466667 0l0 0q119.466667 0 119.466666 119.466666l0 409.6q0 119.466667-119.466666 119.466667l0 0q-119.466667 0-119.466667-119.466667l0-409.6q0-119.466667 119.466667-119.466666Z" fill="#E37401" p-id="16774"></path><path d="M818.244267 0a119.466667 119.466667 0 0 1 119.466666 119.466667v785.066666a119.466667 119.466667 0 0 1-238.933333 0v-785.066666a119.466667 119.466667 0 0 1 119.466667-119.466667z" fill="#F9AB02" p-id="16775"></path><path d="M1602.56 760.490667c42.325333 0 81.237333-5.461333 116.736-16.384 33.450667-10.922667 62.805333-25.941333 88.064-45.738667v-204.8h-208.896v63.488h134.485333v105.813333c-16.384 10.24-34.133333 18.432-54.613333 23.893334-21.162667 5.461333-43.690667 8.874667-67.584 8.874666-60.757333 0-105.813333-17.066667-134.485333-51.2-27.306667-31.402667-40.277333-76.458667-40.277334-135.168 0-60.074667 14.336-107.178667 44.373334-141.312 27.989333-32.768 65.536-48.469333 112.64-48.469333 38.229333 0 69.632 8.192 92.842666 25.258667 23.210667 16.384 38.229333 40.96 45.056 73.728h75.093334c-8.874667-54.613333-30.72-94.890667-65.536-122.197334-36.181333-28.672-85.333333-42.325333-147.456-42.325333-71.68 0-129.024 24.576-171.349334 75.093333-40.277333 47.104-60.074667 107.178667-60.074666 180.224 0 72.362667 19.797333 131.754667 60.074666 177.493334 43.008 49.152 103.082667 73.728 180.906667 73.728z m449.877333 0c53.248 0 96.256-18.432 129.024-53.930667 31.402667-34.133333 47.104-78.506667 47.104-131.754667 0-53.930667-16.384-98.304-47.786666-133.12-32.085333-35.498667-75.093333-53.248-128.341334-53.248-53.248 0-96.256 17.749333-128.341333 53.248-32.085333 34.816-47.786667 79.189333-47.786667 133.12 0 53.248 15.701333 97.621333 47.104 131.754667 32.768 35.498667 75.776 53.930667 129.024 53.930667z m0-59.392c-33.450667 0-59.392-13.653333-77.824-39.594667-16.384-22.528-23.893333-51.2-23.893333-86.698667s7.509333-64.853333 23.893333-87.381333c18.432-26.624 44.373333-39.594667 77.824-39.594667 33.450667 0 59.392 12.970667 78.506667 39.594667 16.384 22.528 24.576 51.882667 24.576 87.381333 0 34.816-8.192 63.488-24.576 86.698667-19.114667 25.941333-45.056 39.594667-78.506667 39.594667z m407.552 59.392c53.248 0 96.256-18.432 129.024-53.930667 31.402667-34.133333 47.104-78.506667 47.104-131.754667 0-53.930667-16.384-98.304-47.786666-133.12-32.085333-35.498667-75.093333-53.248-128.341334-53.248-53.248 0-96.256 17.749333-128.341333 53.248-32.085333 34.816-47.786667 79.189333-47.786667 133.12 0 53.248 15.701333 97.621333 47.104 131.754667 32.768 35.498667 75.776 53.930667 129.024 53.930667z m0-59.392c-33.450667 0-59.392-13.653333-77.824-39.594667-16.384-22.528-23.893333-51.2-23.893333-86.698667s7.509333-64.853333 23.893333-87.381333c18.432-26.624 44.373333-39.594667 77.824-39.594667 33.450667 0 59.392 12.970667 78.506667 39.594667 16.384 22.528 24.576 51.882667 24.576 87.381333 0 34.816-8.192 63.488-24.576 86.698667-19.114667 25.941333-45.056 39.594667-78.506667 39.594667z m407.552 194.56c109.226667 0 164.522667-55.978667 164.522667-167.936v-329.728h-72.362667v47.104c-25.941333-38.229333-61.44-56.661333-107.861333-56.661334-47.786667 0-86.698667 16.384-116.053333 49.834667-30.037333 32.768-44.373333 75.093333-44.373334 128.341333 0 53.248 14.336 95.573333 44.373334 127.658667 29.354667 32.085333 68.266667 48.469333 116.053333 48.469333 46.421333 0 81.92-19.797333 107.861333-58.709333v54.613333c0 66.218667-30.72 99.669333-92.16 99.669334-28.672 0-49.834667-4.778667-62.805333-12.970667-13.653333-8.874667-21.845333-23.893333-25.941333-44.373333h-72.362667c6.826667 38.912 22.528 67.584 48.469333 86.698666 25.941333 18.432 63.488 27.989333 112.64 27.989334z m-4.778666-212.309334c-35.498667 0-60.757333-12.288-76.458667-35.498666-13.653333-19.797333-20.48-47.104-20.48-81.237334 0-37.546667 8.192-66.901333 25.941333-87.381333 16.384-21.845333 40.277333-32.085333 70.997334-32.085333 30.72 0 54.613333 10.24 72.362666 32.085333 16.384 21.162667 25.258667 50.517333 25.258667 87.381333 0 36.181333-8.874667 64.853333-25.258667 86.016-17.749333 20.48-41.642667 30.72-72.362666 30.72zM3194.538667 750.933333V253.952h-72.362667V750.933333h72.362667z m242.346666 9.557334c47.104 0 86.016-13.653333 116.736-40.277334 24.576-21.845333 40.277333-49.834667 48.469334-82.602666h-72.362667c-9.557333 20.48-19.797333 36.181333-32.085333 45.738666-15.701333 11.605333-36.181333 17.749333-61.44 17.749334-28.672 0-51.2-9.557333-67.584-27.306667-16.384-18.432-25.258667-45.056-27.989334-79.189333h267.605334c-0.682667-62.805333-15.018667-111.957333-42.325334-147.456-30.037333-39.594667-74.410667-58.709333-131.754666-58.709334-51.882667 0-93.525333 17.749333-123.562667 53.930667-31.402667 35.498667-46.421333 79.189333-46.421333 131.754667 0 58.026667 16.384 103.765333 49.152 137.898666 30.037333 32.085333 71.68 48.469333 123.562666 48.469334z m95.573334-220.501334h-190.464c4.096-30.037333 14.336-52.565333 29.354666-68.266666 16.384-16.384 37.546667-23.893333 64.853334-23.893334 57.344 0 89.429333 30.72 96.256 92.16z m402.773333 210.944l45.738667-125.610666h209.578666l45.738667 125.610666h79.872l-187.733333-487.424h-84.650667L3856.042667 750.933333h79.189333z m232.789333-187.050666h-164.522666l81.237333-220.501334h2.730667l80.554666 220.501334z m261.461334 187.050666v-212.309333c2.730667-28.672 12.970667-51.2 29.354666-67.584 15.018667-15.018667 33.450667-21.845333 53.930667-21.845333 54.613333 0 82.602667 30.037333 82.602667 90.112V750.933333h72.362666v-217.770666c0-96.938667-44.373333-144.725333-131.754666-144.725334-21.845333 0-41.642667 4.096-59.392 13.653334-17.749333 8.874667-33.450667 21.845333-47.104 39.594666v-43.690666h-72.362667V750.933333h72.362667z m426.666666 9.557334c31.402667 0 58.709333-6.144 81.92-17.066667 20.48-10.24 37.546667-24.576 51.2-42.325333V750.933333h66.901334v-225.28c0-43.008-10.922667-75.776-32.085334-98.304-24.576-25.941333-62.805333-38.912-114.688-38.912-43.690667 0-79.189333 7.509333-105.130666 23.893334-30.037333 17.749333-49.152 46.421333-56.661334 84.650666l71.68 6.144c4.096-19.797333 14.336-34.133333 30.72-43.690666 13.653333-8.192 32.085333-12.288 54.613334-12.288 53.248 0 79.872 24.576 79.872 73.728v14.336l-79.189334 2.048c-51.882667 1.365333-92.842667 11.605333-121.514666 32.085333-31.402667 21.162667-47.104 51.882667-47.104 91.477333 0 29.354667 10.922667 53.248 33.450666 71.68 20.48 18.432 49.152 27.989333 86.016 27.989334z m16.384-55.296c-18.432 0-33.450667-4.778667-44.373333-13.653334-11.605333-8.874667-17.066667-19.797333-17.066667-33.450666 0-43.690667 32.768-66.901333 98.986667-68.266667l74.410667-2.048v20.48c0 27.306667-11.605333 50.517333-33.450667 68.949333-21.845333 18.432-47.786667 27.989333-78.506667 27.989334zM5219.328 750.933333V253.952h-72.362667V750.933333h72.362667z m208.213333 135.168l191.829334-488.106666h-79.189334l-92.842666 257.365333-96.938667-257.365333h-78.506667l139.946667 344.746666-61.44 143.36h77.141333zM5842.602667 750.933333v-60.074666h-46.421334c-8.874667 0-15.018667-2.730667-19.114666-6.826667-4.096-4.778667-6.144-11.605333-6.144-21.162667v-204.8h80.554666v-60.074666h-80.554666V283.989333l-72.362667 30.037334v83.968h-65.536v60.074666h65.536v204.8c0 27.989333 6.144 49.152 19.797333 64.170667 13.653333 15.701333 36.181333 23.893333 66.218667 23.893333h58.026667z m118.101333-396.629333c13.653333 0 25.941333-4.778667 35.498667-13.653333 9.557333-9.557333 15.018667-21.162667 15.018666-35.498667 0-14.336-4.778667-25.941333-14.336-34.816-9.557333-9.557333-21.845333-13.653333-36.181333-13.653333-14.336 0-25.941333 4.096-35.498667 13.653333-9.557333 8.874667-14.336 20.48-14.336 34.816 0 13.653333 4.778667 25.941333 14.336 35.498667 9.557333 8.874667 21.162667 13.653333 35.498667 13.653333zM5996.885333 750.933333V397.994667h-72.362666V750.933333h72.362666z m253.269334 9.557334c45.056 0 81.92-11.605333 109.226666-34.133334 27.306667-23.210667 45.738667-58.709333 53.930667-105.813333h-71.68c-6.826667 53.248-36.864 80.554667-90.794667 80.554667-31.402667 0-54.613333-11.605333-70.314666-33.450667-17.066667-22.528-25.258667-53.930667-25.258667-93.525333 0-39.594667 8.192-70.997333 25.941333-92.842667 17.066667-22.528 40.277333-33.450667 70.314667-33.450667 24.576 0 44.373333 5.461333 59.392 17.066667 15.018667 10.922667 24.576 28.672 29.354667 52.565333h71.68c-6.826667-43.690667-24.576-76.458667-51.882667-98.304-27.306667-20.48-63.488-30.72-108.544-30.72-54.613333 0-96.938667 18.432-127.658667 55.296-28.672 34.133333-43.008 77.824-43.008 131.072 0 54.613333 14.336 98.304 43.690667 132.437334 30.037333 35.498667 71.68 53.248 125.610667 53.248z m361.813333 0c104.448 0 157.013333-37.546667 157.013333-111.957334 0-31.402667-14.336-55.978667-42.325333-73.728-19.114667-12.288-49.152-23.893333-89.429333-33.450666-35.498667-8.874667-58.709333-15.701333-70.997334-21.162667-19.114667-8.874667-28.672-19.114667-28.672-31.402667 0-13.653333 6.144-24.576 19.114667-31.402666 10.922667-6.826667 27.306667-9.557333 49.152-9.557334 24.576 0 43.690667 4.096 55.978667 12.288 11.605333 7.509333 19.797333 20.48 25.258666 39.594667h70.314667c-8.192-74.410667-58.709333-111.274667-150.186667-111.274667-42.325333 0-77.141333 8.874667-103.765333 27.306667-26.624 17.749333-39.594667 43.008-39.594667 75.093333 0 30.037333 13.653333 53.930667 40.96 70.997334 16.384 10.922667 45.738667 21.162667 87.381334 30.72 36.181333 8.192 60.074667 15.018667 70.997333 20.48 20.48 9.557333 31.402667 23.210667 31.402667 40.277333 0 31.402667-28.672 47.786667-84.650667 47.786667-27.306667 0-46.421333-4.778667-58.709333-13.653334-12.288-9.557333-21.162667-26.624-25.258667-50.517333h-70.997333c8.192 81.92 60.074667 123.562667 157.013333 123.562667z" fill="#000000" fill-opacity=".6" p-id="16776"></path></svg>